<svg xmlns="http://www.w3.org/2000/svg" xmlns:svg="http://www.w3.org/2000/svg" id="svg2" width="1257.411" height="1302.047" version="1.0" viewBox="0.35 1.35 33.619 35.8"><rect style="fill:#fff;stroke:none;stroke-width:0" id="rect4" width="10.55" height="1.9" x="3.375" y="1.4"/><rect style="fill:none;stroke:#000;stroke-width:.11218806" id="rect6" width="13.364" height="1.888" x="3.381" y="1.406"/><text style="font-size:.80000001px;font-style:normal;font-weight:400;text-anchor:start;fill:#000;font-family:sans" id="text8" x="4.231" y="2.493">Samba DocBook Source (XML)</text><polygon style="fill:#fff;stroke:none;stroke-width:.1" id="polygon10" points="4.653 6.75 12.794 6.75 12.066 8.75 3.925 8.75 4.653 6.75"/><polygon style="fill:none;stroke:#000;stroke-width:.1" id="polygon12" points="4.653 6.75 12.794 6.75 12.066 8.75 3.925 8.75 4.653 6.75" transform="matrix(1.211345,0,0,0.9951043,-0.8246336,3.7941591e-2)"/><text style="font-size:.80000001px;font-style:normal;font-weight:400;text-anchor:start;fill:#000;font-family:sans" id="text14" x="5.176" y="7.892">expand-sambadoc.xsl</text><line style="stroke:#000;stroke-width:.1" id="line16" x1="8.65" x2="8.713" y1="3.3" y2="6.263" stroke="#000" stroke-width=".1"/><polygon style="fill:#000;stroke:none;stroke-width:.1" id="polygon18" points="8.721 6.638 8.461 6.144 8.713 6.263 8.96 6.133 8.721 6.638"/><polygon style="fill:none;stroke:#000;stroke-width:.1" id="polygon20" points="8.721 6.638 8.461 6.144 8.713 6.263 8.96 6.133 8.721 6.638"/><rect style="fill:#fff;stroke:none;stroke-width:0" id="rect22" width="8.2" height="1.9" x="4.85" y="11.65"/><rect style="fill:none;stroke:#000;stroke-width:.11167629" id="rect24" width="10.29" height="1.888" x="4.856" y="11.656"/><text style="font-size:.80000001px;font-style:normal;font-weight:400;text-anchor:start;fill:#000;font-family:sans" id="text26" x="5.635" y="12.742">DocBook Source (XML)</text><line style="stroke:#000;stroke-width:.1" id="line28" x1="7.95" x2="8.801" y1="8.55" y2="11.187" stroke="#000" stroke-width=".1"/><polygon style="fill:#000;stroke:none;stroke-width:.1" id="polygon30" points="8.916 11.544 8.524 11.144 8.801 11.187 9 10.991 8.916 11.544"/><polygon style="fill:none;stroke:#000;stroke-width:.1" id="polygon32" points="8.916 11.544 8.524 11.144 8.801 11.187 9 10.991 8.916 11.544"/><rect style="fill:#fff;stroke:none;stroke-width:0" id="rect34" width="6.7" height="1.9" x="7" y="21.7"/><rect style="fill:none;stroke:#000;stroke-width:.1" id="rect36" width="6.7" height="1.9" x="7" y="21.7"/><polygon style="fill:#fff;stroke:none;stroke-width:.1" id="polygon40" points="7.328 16.55 12.319 16.55 11.591 18.55 6.6 18.55 7.328 16.55"/><polygon style="fill:none;stroke:#000;stroke-width:.1" id="polygon42" points="7.328 16.55 12.319 16.55 11.591 18.55 6.6 18.55 7.328 16.55" transform="matrix(1.1005379,0,0,0.9976095,-0.6611594,4.1953777e-2)"/><text style="font-size:.80000001px;font-style:normal;font-weight:400;text-anchor:start;fill:#000;font-family:sans" id="text44" x="7.345" y="17.692">xslt/man.xsl</text><line style="stroke:#000;stroke-width:.1" id="line46" x1="8.7" x2="9.658" y1="13.45" y2="16.092" stroke="#000" stroke-width=".1"/><polygon style="fill:#000;stroke:none;stroke-width:.1" id="polygon48" points="9.785 16.445 9.38 16.06 9.658 16.092 9.85 15.89 9.785 16.445"/><polygon style="fill:none;stroke:#000;stroke-width:.1" id="polygon50" points="9.785 16.445 9.38 16.06 9.658 16.092 9.85 15.89 9.785 16.445"/><g id="g5595"><line id="line52" x1="9.096" x2="10.17" y1="18.55" y2="21.248" stroke="#000" stroke-width=".1" style="stroke:#000;stroke-width:.1"/><polygon style="fill:#000;stroke:none;stroke-width:.1" id="polygon54" points="10.309 21.596 9.891 21.224 10.17 21.248 10.356 21.039 10.309 21.596"/><polygon style="fill:none;stroke:#000;stroke-width:.1" id="polygon56" points="10.309 21.596 9.891 21.224 10.17 21.248 10.356 21.039 10.309 21.596"/></g><polygon style="fill:#fff;stroke:none;stroke-width:.1" id="polygon58" points="18.853 16.6 27.394 16.6 26.666 18.6 18.125 18.6 18.853 16.6"/><polygon style="fill:none;stroke:#000;stroke-width:.1" id="polygon60" points="18.853 16.6 27.394 16.6 26.666 18.6 18.125 18.6 18.853 16.6" transform="matrix(1.1478017,0,0,0.9965254,-2.9687126,6.1153121e-2)"/><text style="font-size:.80000001px;font-style:normal;font-weight:400;text-anchor:start;fill:#000;font-family:sans" id="text62" x="18.509" y="17.742">db2latex (xslt/latex.xsl)</text><rect style="fill:#fff;stroke:none;stroke-width:0" id="rect64" width="5.3" height="1.9" x="20.75" y="21.55"/><rect style="fill:none;stroke:#000;stroke-width:.10418041" id="rect66" width="5.765" height="1.896" x="20.752" y="21.552"/><text style="font-size:.80000001px;font-style:normal;font-weight:400;text-anchor:start;fill:#000;font-family:sans" id="text68" x="20.932" y="22.643">LaTeX Source</text><line style="stroke:#000;stroke-width:.1" id="line70" x1="11" x2="22.651" y1="13.55" y2="16.481" stroke="#000" stroke-width=".1"/><polygon style="fill:#000;stroke:none;stroke-width:.1" id="polygon72" points="23.015 16.573 22.469 16.693 22.651 16.481 22.591 16.208 23.015 16.573"/><polygon style="fill:none;stroke:#000;stroke-width:.1" id="polygon74" points="23.015 16.573 22.469 16.693 22.651 16.481 22.591 16.208 23.015 16.573"/><line style="stroke:#000;stroke-width:.1" id="line76" x1="22.396" x2="23.243" y1="18.6" y2="21.089" stroke="#000" stroke-width=".1"/><polygon style="fill:#000;stroke:none;stroke-width:.1" id="polygon78" points="23.364 21.444 22.966 21.051 23.243 21.089 23.439 20.89 23.364 21.444"/><polygon style="fill:none;stroke:#000;stroke-width:.1" id="polygon80" points="23.364 21.444 22.966 21.051 23.243 21.089 23.439 20.89 23.364 21.444"/><polygon style="fill:#fff;stroke:none;stroke-width:.1" id="polygon82" points="18.828 29.2 23.219 29.2 22.491 31.2 18.1 31.2 18.828 29.2"/><polygon style="fill:none;stroke:#000;stroke-width:.1" id="polygon84" points="18.828 29.2 23.219 29.2 22.491 31.2 18.1 31.2 18.828 29.2" transform="matrix(1.1760017,0,0,0.9958897,-3.1815209,0.1241298)"/><text style="font-size:.80000001px;font-style:normal;font-weight:400;text-anchor:start;fill:#000;font-family:sans" id="text86" x="19.246" y="30.342">PDFLaTeX</text><rect style="fill:#fff;stroke:none;stroke-width:0" id="rect88" width="2.3" height="1.9" x="17" y="33.85"/><rect style="fill:none;stroke:#000;stroke-width:.1" id="rect90" width="2.3" height="1.9" x="17" y="33.85"/><text style="font-size:.80000001px;font-style:normal;font-weight:400;text-anchor:start;fill:#000;font-family:sans" id="text92" x="17.582" y="34.943">PDF</text><line style="stroke:#000;stroke-width:.1" id="line94" x1="23.4" x2="21.209" y1="23.45" y2="28.75" stroke="#000" stroke-width=".1"/><polygon style="fill:#000;stroke:none;stroke-width:.1" id="polygon96" points="21.066 29.097 21.026 28.539 21.209 28.75 21.488 28.73 21.066 29.097"/><polygon style="fill:none;stroke:#000;stroke-width:.1" id="polygon98" points="21.066 29.097 21.026 28.539 21.209 28.75 21.488 28.73 21.066 29.097"/><line style="stroke:#000;stroke-width:.1" id="line100" x1="20.296" x2="18.456" y1="31.2" y2="33.472" stroke="#000" stroke-width=".1"/><polygon style="fill:#000;stroke:none;stroke-width:.1" id="polygon102" points="18.22 33.763 18.341 33.217 18.456 33.472 18.729 33.532 18.22 33.763"/><polygon style="fill:none;stroke:#000;stroke-width:.1" id="polygon104" points="18.22 33.763 18.341 33.217 18.456 33.472 18.729 33.532 18.22 33.763"/><polygon style="fill:#fff;stroke:none;stroke-width:.1" id="polygon106" points="13.703 16.6 17.944 16.6 17.216 18.6 12.975 18.6 13.703 16.6"/><polygon style="fill:none;stroke:#000;stroke-width:.1" id="polygon108" points="13.703 16.6 17.944 16.6 17.216 18.6 12.975 18.6 13.703 16.6"/><text style="font-size:.80000001px;font-style:normal;font-weight:400;text-anchor:start;fill:#000;font-family:sans" id="text110" x="13.54" y="17.742">xslt/fo.xsl</text><line style="stroke:#000;stroke-width:.1" id="line112" x1="8.95" x2="15.379" y1="13.55" y2="16.403" stroke="#000" stroke-width=".1"/><polygon style="fill:#000;stroke:none;stroke-width:.1" id="polygon114" points="15.721 16.555 15.163 16.58 15.379 16.403 15.366 16.123 15.721 16.555"/><polygon style="fill:none;stroke:#000;stroke-width:.1" id="polygon116" points="15.721 16.555 15.163 16.58 15.379 16.403 15.366 16.123 15.721 16.555"/><rect style="fill:#fff;stroke:none;stroke-width:0" id="rect118" width="5.3" height="1.9" x="14.039" y="21.591"/><rect style="fill:none;stroke:#000;stroke-width:.10916522" id="rect120" width="6.347" height="1.891" x="14.044" y="21.596"/><text style="font-size:.80000001px;font-style:normal;font-weight:400;text-anchor:start;fill:#000;font-family:sans" id="text122" x="14.691" y="22.683">FO Document</text><polygon style="fill:#fff;stroke:none;stroke-width:.1" id="polygon130" points="15.178 29.25 17.769 29.25 17.041 31.25 14.45 31.25 15.178 29.25"/><polygon style="fill:none;stroke:#000;stroke-width:.1" id="polygon132" points="15.178 29.25 17.769 29.25 17.041 31.25 14.45 31.25 15.178 29.25"/><text style="font-size:.80000001px;font-style:normal;font-weight:400;text-anchor:start;fill:#000;font-family:sans" id="text134" x="15.537" y="30.392">FOP</text><line style="stroke:#000;stroke-width:.1" id="line136" x1="17.1" x2="16.527" y1="23.55" y2="28.766" stroke="#000" stroke-width=".1"/><polygon style="fill:#000;stroke:none;stroke-width:.1" id="polygon138" points="16.486 29.139 16.292 28.615 16.527 28.766 16.789 28.669 16.486 29.139"/><polygon style="fill:none;stroke:#000;stroke-width:.1" id="polygon140" points="16.486 29.139 16.292 28.615 16.527 28.766 16.789 28.669 16.486 29.139"/><line style="stroke:#000;stroke-width:.1" id="line142" x1="15.746" x2="17.819" y1="31.25" y2="33.493" stroke="#000" stroke-width=".1"/><polygon style="fill:#000;stroke:none;stroke-width:.1" id="polygon144" points="18.074 33.768 17.551 33.571 17.819 33.493 17.918 33.231 18.074 33.768"/><polygon style="fill:none;stroke:#000;stroke-width:.1" id="polygon146" points="18.074 33.768 17.551 33.571 17.819 33.493 17.918 33.231 18.074 33.768"/><polygon style="fill:#fff;stroke:none;stroke-width:.1" id="polygon148" points="1.528 16.5 6.519 16.5 5.791 18.5 .8 18.5 1.528 16.5"/><polygon style="fill:none;stroke:#000;stroke-width:.1" id="polygon150" points="1.528 16.5 6.519 16.5 5.791 18.5 .8 18.5 1.528 16.5" transform="matrix(1.1005379,0,0,0.9976095,-0.6577968,4.1834251e-2)"/><text style="font-size:.80000001px;font-style:normal;font-weight:400;text-anchor:start;fill:#000;font-family:sans" id="text152" x="1.001" y="17.642">xslt/html.xsl</text><rect style="fill:#fff;stroke:none;stroke-width:0" id="rect154" width="6.1" height="1.9" x=".341" y="21.7"/><rect style="fill:none;stroke:#000;stroke-width:.11379541" id="rect156" width="6.086" height="2.466" x=".407" y="21.707"/><line style="stroke:#000;stroke-width:.1" id="line160" x1="6.9" x2="4.363" y1="13.55" y2="16.151" stroke="#000" stroke-width=".1"/><polygon style="fill:#000;stroke:none;stroke-width:.1" id="polygon162" points="4.102 16.42 4.272 15.887 4.363 16.151 4.63 16.236 4.102 16.42"/><polygon style="fill:none;stroke:#000;stroke-width:.1" id="polygon164" points="4.102 16.42 4.272 15.887 4.363 16.151 4.63 16.236 4.102 16.42"/><line style="stroke:#000;stroke-width:.1" id="line166" x1="3.296" x2="3.427" y1="18.5" y2="21.214" stroke="#000" stroke-width=".1"/><polygon style="fill:#000;stroke:none;stroke-width:.1" id="polygon168" points="3.445 21.588 3.171 21.101 3.427 21.214 3.67 21.077 3.445 21.588"/><polygon style="fill:none;stroke:#000;stroke-width:.1" id="polygon170" points="3.445 21.588 3.171 21.101 3.427 21.214 3.67 21.077 3.445 21.588"/><polygon style="fill:#fff;stroke:none;stroke-width:.1" id="polygon172" points="28.678 16.75 33.569 16.75 32.841 18.75 27.95 18.75 28.678 16.75"/><polygon style="fill:none;stroke:#000;stroke-width:.1" id="polygon174" points="28.678 16.75 33.569 16.75 32.841 18.75 27.95 18.75 28.678 16.75" transform="matrix(1.0511507,0,0,0.9987687,-1.0178379,2.1854741e-2)"/><text style="font-size:.80000001px;font-style:normal;font-weight:400;text-anchor:start;fill:#000;font-family:sans" id="text176" x="29.027" y="17.892">xslt/yodl.xsl</text><line style="stroke:#000;stroke-width:.1" id="line178" x1="13.05" x2="30.644" y1="13.55" y2="16.665" stroke="#000" stroke-width=".1"/><polygon style="fill:#000;stroke:none;stroke-width:.1" id="polygon180" points="31.013 16.731 30.477 16.89 30.644 16.665 30.565 16.397 31.013 16.731"/><polygon style="fill:none;stroke:#000;stroke-width:.1" id="polygon182" points="31.013 16.731 30.477 16.89 30.644 16.665 30.565 16.397 31.013 16.731"/><rect style="fill:#fff;stroke:none;stroke-width:0" id="rect184" width="6" height="1.9" x="26.948" y="21.6"/><rect style="fill:none;stroke:#000;stroke-width:.10683542" id="rect186" width="6.873" height="1.893" x="27.303" y="21.603"/><text style="font-size:.80000001px;font-style:normal;font-weight:400;text-anchor:start;fill:#000;font-family:sans" id="text188" x="27.394" y="22.693">YODL Document</text><line style="stroke:#000;stroke-width:.1" id="line190" x1="30.15" x2="30.275" y1="18.7" y2="21.114" stroke="#000" stroke-width=".1"/><polygon style="fill:#000;stroke:none;stroke-width:.1" id="polygon192" points="30.294 21.488 30.019 21.002 30.275 21.114 30.518 20.976 30.294 21.488"/><polygon style="fill:none;stroke:#000;stroke-width:.1" id="polygon194" points="30.294 21.488 30.019 21.002 30.275 21.114 30.518 20.976 30.294 21.488"/><text style="font-size:.82118881px;font-style:normal;font-weight:400;text-align:center;text-anchor:middle;fill:#000;fill-opacity:1;stroke:none;stroke-width:1px;stroke-linecap:butt;stroke-linejoin:miter;stroke-opacity:1;font-family:Bitstream Vera Sans" id="text5573" x="3.658" y="22.584" xml:space="preserve"><tspan id="tspan5575" x="3.789" y="22.584">HTML </tspan><tspan id="tspan5577" x="3.658" y="23.61">Document</tspan></text><text style="font-size:.82118881px;font-style:normal;font-weight:400;text-align:center;text-anchor:middle;fill:#000;fill-opacity:1;stroke:none;stroke-width:1px;stroke-linecap:butt;stroke-linejoin:miter;stroke-opacity:1;font-family:Bitstream Vera Sans" id="text5585" x="10.298" y="22.321" xml:space="preserve"><tspan id="tspan5587" x="10.298" y="22.321">Man pages</tspan><tspan id="tspan5589" x="10.298" y="23.348">(NROFF)</tspan></text><g id="g5600" transform="translate(6.2483064,3.7332239e-2)"><line id="line5602" x1="9.096" x2="10.17" y1="18.55" y2="21.248" style="stroke:#000;stroke-width:.1"/><polygon style="fill:#000;stroke:none;stroke-width:.1" id="polygon5604" points="10.309 21.596 9.891 21.224 10.17 21.248 10.356 21.039 10.309 21.596"/><polygon style="fill:none;stroke:#000;stroke-width:.1" id="polygon5606" points="10.309 21.596 9.891 21.224 10.17 21.248 10.356 21.039 10.309 21.596"/></g></svg>