<svg xmlns="http://www.w3.org/2000/svg" xmlns:svg="http://www.w3.org/2000/svg" id="svg2" width="30.1cm" height="504.491" version="1.0" viewBox="1.35 1.15 31.45 14.498"><rect id="rect4" width="4.4" height="1.1" x="1.4" y="1.2" style="fill:#fff;stroke:none;stroke-width:0"/><rect id="rect6" width="4.4" height="1.1" x="1.4" y="1.2" style="fill:none;stroke:#000;stroke-width:.1"/><text id="text8" x="3" y="2" style="font-size:.80000001px;font-style:normal;font-weight:400;text-anchor:start;fill:#000;font-family:sans">type</text><rect id="rect10" width="4.4" height="1.1" x="6.5" y="1.2" style="fill:#fff;stroke:none;stroke-width:0"/><rect id="rect12" width="4.4" height="1.1" x="6.5" y="1.2" style="fill:none;stroke:#000;stroke-width:.1"/><text id="text14" x="7.8" y="2" style="font-size:.80000001px;font-style:normal;font-weight:400;text-anchor:start;fill:#000;font-family:sans">users</text><rect id="rect16" width="4.4" height="1.1" x="11.5" y="1.2" style="fill:#fff;stroke:none;stroke-width:0"/><rect id="rect18" width="4.4" height="1.1" x="11.5" y="1.2" style="fill:none;stroke:#000;stroke-width:.1"/><text id="text20" x="12.6" y="2" style="font-size:.80000001px;font-style:normal;font-weight:400;text-anchor:start;fill:#000;font-family:sans">group</text><rect id="rect22" width="4.4" height="1.1" x="16.5" y="1.2" style="fill:#fff;stroke:none;stroke-width:0"/><rect id="rect24" width="4.4" height="1.1" x="16.5" y="1.2" style="fill:none;stroke:#000;stroke-width:.1"/><text id="text26" x="17.7" y="2" style="font-size:.80000001px;font-style:normal;font-weight:400;text-anchor:start;fill:#000;font-family:sans">others</text><rect id="rect28" width="4.4" height="1.1" x="1.4" y="2.7" style="fill:#fff;stroke:none;stroke-width:0"/><rect id="rect30" width="4.4" height="1.1" x="1.4" y="2.7" style="fill:none;stroke:#000;stroke-width:.1"/><text id="text32" x="3.2" y="3.5" style="font-size:.80000001px;font-style:normal;font-weight:400;text-anchor:start;fill:#000;font-family:sans">d l</text><rect id="rect34" width="4.4" height="1.1" x="6.5" y="2.7" style="fill:#fff;stroke:none;stroke-width:0"/><rect id="rect36" width="4.4" height="1.1" x="6.5" y="2.7" style="fill:none;stroke:#000;stroke-width:.1"/><text id="text38" x="7.9" y="3.5" style="font-size:.80000001px;font-style:normal;font-weight:400;text-anchor:start;fill:#000;font-family:sans">r w x</text><rect id="rect40" width="4.4" height="1.1" x="11.5" y="2.7" style="fill:#fff;stroke:none;stroke-width:0"/><rect id="rect42" width="4.4" height="1.1" x="11.5" y="2.7" style="fill:none;stroke:#000;stroke-width:.1"/><text id="text44" x="13" y="3.5" style="font-size:.80000001px;font-style:normal;font-weight:400;text-anchor:start;fill:#000;font-family:sans">r w x</text><rect id="rect46" width="4.4" height="1.1" x="16.5" y="2.7" style="fill:#fff;stroke:none;stroke-width:0"/><rect id="rect48" width="4.4" height="1.1" x="16.5" y="2.7" style="fill:none;stroke:#000;stroke-width:.1"/><text id="text50" x="17.9" y="3.5" style="font-size:.80000001px;font-style:normal;font-weight:400;text-anchor:start;fill:#000;font-family:sans">r w x</text><text id="text52" x="22.7" y="6.1" style="font-size:.80000001px;font-style:normal;font-weight:400;text-anchor:start;fill:#000;font-family:monospace">Can Execute, List files</text><text id="text54" x="22.7" y="6.9" style="font-size:.80000001px;font-style:normal;font-weight:400;text-anchor:start;fill:#000;font-family:monospace">Can Write, Create files</text><text id="text56" x="22.7" y="7.7" style="font-size:.80000001px;font-style:normal;font-weight:400;text-anchor:start;fill:#000;font-family:monospace">Can Read, Read files</text><text id="text58" x="22.7" y="8.5" style="font-size:.80000001px;font-style:normal;font-weight:400;text-anchor:start;fill:#000;font-family:monospace">Can Execute, List files</text><text id="text60" x="22.7" y="9.3" style="font-size:.80000001px;font-style:normal;font-weight:400;text-anchor:start;fill:#000;font-family:monospace">Can Write, Create files</text><text id="text62" x="22.7" y="10.1" style="font-size:.80000001px;font-style:normal;font-weight:400;text-anchor:start;fill:#000;font-family:monospace">Can Read, Read files</text><text id="text64" x="22.7" y="10.9" style="font-size:.80000001px;font-style:normal;font-weight:400;text-anchor:start;fill:#000;font-family:monospace">Can Execute, List files</text><text id="text66" x="22.7" y="11.7" style="font-size:.80000001px;font-style:normal;font-weight:400;text-anchor:start;fill:#000;font-family:monospace">Can Write, Create files</text><text id="text68" x="22.7" y="12.5" style="font-size:.80000001px;font-style:normal;font-weight:400;text-anchor:start;fill:#000;font-family:monospace">Can Read, Read files</text><text id="text70" x="22.7" y="13.3" style="font-size:.80000001px;font-style:normal;font-weight:400;text-anchor:start;fill:#000;font-family:monospace">Is a symbolic link</text><text id="text72" x="22.7" y="14.1" style="font-size:.80000001px;font-style:normal;font-weight:400;text-anchor:start;fill:#000;font-family:monospace">Is a directory</text><line id="line74" x1="18.7" x2="18.7" y1="3.8" y2="6.7" stroke="#000" stroke-width=".1" style="stroke:#000;stroke-width:.1"/><line id="line76" x1="18.7" x2="22.1" y1="6.7" y2="6.7" stroke="#000" stroke-width=".1" style="stroke:#000;stroke-width:.1"/><polyline id="polyline78" fill="none" stroke="#000" stroke-width=".1" points="18 3.8 18 3.8 18 7.5 22.1 7.5" style="fill:none;stroke:#000;stroke-width:.1"/><polyline id="polyline80" fill="none" stroke="#000" stroke-width=".1" points="14.4 3.7 14.4 3.7 14.4 8.3 22.1 8.3" style="fill:none;stroke:#000;stroke-width:.1"/><polyline id="polyline82" fill="none" stroke="#000" stroke-width=".1" points="13.7 3.8 13.7 3.8 13.7 9.1 22.1 9.1" style="fill:none;stroke:#000;stroke-width:.1"/><polyline id="polyline84" fill="none" stroke="#000" stroke-width=".1" points="13.1 3.8 13 3.8 13 9.9 22.1 9.9" style="fill:none;stroke:#000;stroke-width:.1"/><polyline id="polyline86" fill="none" stroke="#000" stroke-width=".1" points="9.2 3.8 9.3 3.8 9.3 10.7 22.1 10.7" style="fill:none;stroke:#000;stroke-width:.1"/><polyline id="polyline88" fill="none" stroke="#000" stroke-width=".1" points="8.7 3.8 8.8 3.8 8.8 11.5 22.1 11.5" style="fill:none;stroke:#000;stroke-width:.1"/><polyline id="polyline90" fill="none" stroke="#000" stroke-width=".1" points="8 3.8 8.1 3.8 8.1 12.3 22.1 12.3" style="fill:none;stroke:#000;stroke-width:.1"/><polyline id="polyline92" fill="none" stroke="#000" stroke-width=".1" points="3.9 3.8 3.9 3.8 3.9 13.1 22.1 13.1" style="fill:none;stroke:#000;stroke-width:.1"/><polyline id="polyline94" fill="none" stroke="#000" stroke-width=".1" points="3.3 3.8 3.3 3.8 3.3 13.9 22.1 13.9" style="fill:none;stroke:#000;stroke-width:.1"/><polyline id="polyline96" fill="none" stroke="#000" stroke-width=".1" points="19.2 3.8 19.2 3.8 19.2 5.9 22.1 5.9" style="fill:none;stroke:#000;stroke-width:.1"/></svg>