<svg xmlns="http://www.w3.org/2000/svg" xmlns:svg="http://www.w3.org/2000/svg" id="svg2" width="29.107cm" height="18.84cm" version="1.0" viewBox="-2.808 0.758 26.299 19.598"><rect id="rect4" width="1.534" height="3.58" x="2.007" y="2.014" style="fill:#b3b3b3;stroke:none;stroke-width:0"/><rect id="rect6" width="1.534" height="3.58" x="2.007" y="2.014" style="fill:none;stroke:#000;stroke-width:.08"/><rect id="rect8" width="1.227" height=".409" x="2.16" y="2.228" style="fill:none;stroke:#000;stroke-width:.01"/><rect id="rect10" width="1.227" height=".409" x="2.16" y="2.638" style="fill:none;stroke:#000;stroke-width:.01"/><rect id="rect12" width="1.227" height=".409" x="2.16" y="3.047" style="fill:none;stroke:#000;stroke-width:.01"/><rect id="rect14" width="1.227" height=".409" x="2.16" y="3.456" style="fill:none;stroke:#000;stroke-width:.01"/><rect id="rect16" width=".767" height=".245" x="2.16" y="3.947" style="fill:none;stroke:#000;stroke-width:.01"/><ellipse id="ellipse18" cx="3.311" cy="3.988" rx=".054" ry=".054" style="fill:#0f0;stroke:none"/><ellipse id="ellipse20" cx="3.311" cy="3.988" rx=".054" ry=".054" style="fill:none;stroke:#000;stroke-width:.01"/><ellipse id="ellipse22" cx="3.311" cy="4.151" rx=".054" ry=".054" style="fill:#ff0;stroke:none"/><ellipse id="ellipse24" cx="3.311" cy="4.151" rx=".054" ry=".054" style="fill:none;stroke:#000;stroke-width:.01"/><rect id="rect26" width=".184" height=".164" x="3.004" y="4.028" style="fill:#fff;stroke:none;stroke-width:0"/><rect id="rect28" width=".184" height=".164" x="3.004" y="4.028" style="fill:none;stroke:#000;stroke-width:.01"/><path id="path30" d="M 2.263,4.519 L 2.263,5.414" style="fill:none;stroke:#000;stroke-width:.01"/><path id="path32" d="M 2.518,4.519 L 2.518,5.414" style="fill:none;stroke:#000;stroke-width:.01"/><path id="path34" d="M 2.774,4.519 L 2.774,5.414" style="fill:none;stroke:#000;stroke-width:.01"/><path id="path36" d="M 3.03,4.519 L 3.03,5.414" style="fill:none;stroke:#000;stroke-width:.01"/><path id="path38" d="M 3.285,4.519 L 3.285,5.414" style="fill:none;stroke:#000;stroke-width:.01"/><path id="path40" d="M 3.541,4.519 L 3.541,5.414" style="fill:none;stroke:#000;stroke-width:.01"/><polygon id="polygon42" points="1.7 5.9 2.007 5.286 2.007 5.593 3.541 5.593 3.541 5.286 3.95 5.9 1.7 5.9" style="fill:#999;stroke:none;stroke-width:.01"/><polygon id="polygon44" points="1.7 5.9 2.007 5.286 2.007 5.593 3.541 5.593 3.541 5.286 3.95 5.9 1.7 5.9" style="fill:none;stroke:#000;stroke-width:.01"/><rect id="rect46" width="1.595" height="3.722" x="6.119" y="2" style="fill:#b3b3b3;stroke:none;stroke-width:0"/><rect id="rect48" width="1.595" height="3.722" x="6.119" y="2" style="fill:none;stroke:#000;stroke-width:.08"/><rect id="rect50" width="1.276" height=".425" x="6.279" y="2.223" style="fill:none;stroke:#000;stroke-width:.01"/><rect id="rect52" width="1.276" height=".425" x="6.279" y="2.649" style="fill:none;stroke:#000;stroke-width:.01"/><rect id="rect54" width="1.276" height=".425" x="6.279" y="3.074" style="fill:none;stroke:#000;stroke-width:.01"/><rect id="rect56" width="1.276" height=".425" x="6.279" y="3.499" style="fill:none;stroke:#000;stroke-width:.01"/><rect id="rect58" width=".798" height=".255" x="6.279" y="4.01" style="fill:none;stroke:#000;stroke-width:.01"/><ellipse id="ellipse60" cx="7.475" cy="4.052" rx=".056" ry=".056" style="fill:#0f0;stroke:none"/><ellipse id="ellipse62" cx="7.475" cy="4.052" rx=".056" ry=".056" style="fill:none;stroke:#000;stroke-width:.01"/><ellipse id="ellipse64" cx="7.475" cy="4.223" rx=".056" ry=".056" style="fill:#ff0;stroke:none"/><ellipse id="ellipse66" cx="7.475" cy="4.223" rx=".056" ry=".056" style="fill:none;stroke:#000;stroke-width:.01"/><rect id="rect68" width=".191" height=".17" x="7.156" y="4.095" style="fill:#fff;stroke:none;stroke-width:0"/><rect id="rect70" width=".191" height=".17" x="7.156" y="4.095" style="fill:none;stroke:#000;stroke-width:.01"/><path id="path72" d="M 6.385,4.605 L 6.385,5.536" style="fill:none;stroke:#000;stroke-width:.01"/><path id="path74" d="M 6.651,4.605 L 6.651,5.536" style="fill:none;stroke:#000;stroke-width:.01"/><path id="path76" d="M 6.917,4.605 L 6.917,5.536" style="fill:none;stroke:#000;stroke-width:.01"/><path id="path78" d="M 7.182,4.605 L 7.182,5.536" style="fill:none;stroke:#000;stroke-width:.01"/><path id="path80" d="M 7.448,4.605 L 7.448,5.536" style="fill:none;stroke:#000;stroke-width:.01"/><path id="path82" d="M 7.714,4.605 L 7.714,5.536" style="fill:none;stroke:#000;stroke-width:.01"/><polygon id="polygon84" points="5.8 6.041 6.119 5.403 6.119 5.722 7.714 5.722 7.714 5.403 8.139 6.041 5.8 6.041" style="fill:#999;stroke:none;stroke-width:.01"/><polygon id="polygon86" points="5.8 6.041 6.119 5.403 6.119 5.722 7.714 5.722 7.714 5.403 8.139 6.041 5.8 6.041" style="fill:none;stroke:#000;stroke-width:.01"/><rect id="rect88" width="1.618" height="3.776" x="10.124" y="1.9" style="fill:#b3b3b3;stroke:none;stroke-width:0"/><rect id="rect90" width="1.618" height="3.776" x="10.124" y="1.9" style="fill:none;stroke:#000;stroke-width:.08"/><rect id="rect92" width="1.295" height=".432" x="10.286" y="2.127" style="fill:none;stroke:#000;stroke-width:.01"/><rect id="rect94" width="1.295" height=".432" x="10.286" y="2.558" style="fill:none;stroke:#000;stroke-width:.01"/><rect id="rect96" width="1.295" height=".432" x="10.286" y="2.99" style="fill:none;stroke:#000;stroke-width:.01"/><rect id="rect98" width="1.295" height=".432" x="10.286" y="3.421" style="fill:none;stroke:#000;stroke-width:.01"/><rect id="rect100" width=".809" height=".259" x="10.286" y="3.939" style="fill:none;stroke:#000;stroke-width:.01"/><ellipse id="ellipse102" cx="11.499" cy="3.982" rx=".057" ry=".057" style="fill:#0f0;stroke:none"/><ellipse id="ellipse104" cx="11.499" cy="3.982" rx=".057" ry=".057" style="fill:none;stroke:#000;stroke-width:.01"/><ellipse id="ellipse106" cx="11.499" cy="4.155" rx=".057" ry=".057" style="fill:#ff0;stroke:none"/><ellipse id="ellipse108" cx="11.499" cy="4.155" rx=".057" ry=".057" style="fill:none;stroke:#000;stroke-width:.01"/><rect id="rect110" width=".194" height=".173" x="11.176" y="4.026" style="fill:#fff;stroke:none;stroke-width:0"/><rect id="rect112" width=".194" height=".173" x="11.176" y="4.026" style="fill:none;stroke:#000;stroke-width:.01"/><path id="path114" d="M 10.393,4.543 L 10.393,5.487" style="fill:none;stroke:#000;stroke-width:.01"/><path id="path116" d="M 10.663,4.543 L 10.663,5.487" style="fill:none;stroke:#000;stroke-width:.01"/><path id="path118" d="M 10.933,4.543 L 10.933,5.487" style="fill:none;stroke:#000;stroke-width:.01"/><path id="path120" d="M 11.203,4.543 L 11.203,5.487" style="fill:none;stroke:#000;stroke-width:.01"/><path id="path122" d="M 11.472,4.543 L 11.472,5.487" style="fill:none;stroke:#000;stroke-width:.01"/><path id="path124" d="M 11.742,4.543 L 11.742,5.487" style="fill:none;stroke:#000;stroke-width:.01"/><polygon id="polygon126" points="9.8 6 10.124 5.353 10.124 5.676 11.742 5.676 11.742 5.353 12.174 6 9.8 6" style="fill:#999;stroke:none;stroke-width:.01"/><polygon id="polygon128" points="9.8 6 10.124 5.353 10.124 5.676 11.742 5.676 11.742 5.353 12.174 6 9.8 6" style="fill:none;stroke:#000;stroke-width:.01"/><text id="text130" x="2.2" y="1.4" style="font-size:.80000001px;font-style:normal;font-weight:400;text-anchor:start;fill:#000;font-family:sans">N1_A</text><text id="text132" x="6.2" y="1.4" style="font-size:.80000001px;font-style:normal;font-weight:400;text-anchor:start;fill:#000;font-family:sans">N1_B</text><text id="text134" x="10.1" y="1.3" style="font-size:.80000001px;font-style:normal;font-weight:400;text-anchor:start;fill:#000;font-family:sans">N1_C (DMB)</text><rect id="rect136" width="1.631" height="3.806" x="14.726" y="1.8" style="fill:#b3b3b3;stroke:none;stroke-width:0"/><rect id="rect138" width="1.631" height="3.806" x="14.726" y="1.8" style="fill:none;stroke:#000;stroke-width:.08"/><rect id="rect140" width="1.305" height=".435" x="14.889" y="2.028" style="fill:none;stroke:#000;stroke-width:.01"/><rect id="rect142" width="1.305" height=".435" x="14.889" y="2.463" style="fill:none;stroke:#000;stroke-width:.01"/><rect id="rect144" width="1.305" height=".435" x="14.889" y="2.898" style="fill:none;stroke:#000;stroke-width:.01"/><rect id="rect146" width="1.305" height=".435" x="14.889" y="3.333" style="fill:none;stroke:#000;stroke-width:.01"/><rect id="rect148" width=".815" height=".261" x="14.889" y="3.855" style="fill:none;stroke:#000;stroke-width:.01"/><ellipse id="ellipse150" cx="16.113" cy="3.899" rx=".057" ry=".057" style="fill:#0f0;stroke:none"/><ellipse id="ellipse152" cx="16.113" cy="3.899" rx=".057" ry=".057" style="fill:none;stroke:#000;stroke-width:.01"/><ellipse id="ellipse154" cx="16.113" cy="4.073" rx=".057" ry=".057" style="fill:#ff0;stroke:none"/><ellipse id="ellipse156" cx="16.113" cy="4.073" rx=".057" ry=".057" style="fill:none;stroke:#000;stroke-width:.01"/><rect id="rect158" width=".196" height=".174" x="15.786" y="3.942" style="fill:#fff;stroke:none;stroke-width:0"/><rect id="rect160" width=".196" height=".174" x="15.786" y="3.942" style="fill:none;stroke:#000;stroke-width:.01"/><path id="path162" d="M 14.998,4.464 L 14.998,5.415" style="fill:none;stroke:#000;stroke-width:.01"/><path id="path164" d="M 15.27,4.464 L 15.27,5.415" style="fill:none;stroke:#000;stroke-width:.01"/><path id="path166" d="M 15.542,4.464 L 15.542,5.415" style="fill:none;stroke:#000;stroke-width:.01"/><path id="path168" d="M 15.814,4.464 L 15.814,5.415" style="fill:none;stroke:#000;stroke-width:.01"/><path id="path170" d="M 16.085,4.464 L 16.085,5.415" style="fill:none;stroke:#000;stroke-width:.01"/><path id="path172" d="M 16.357,4.464 L 16.357,5.415" style="fill:none;stroke:#000;stroke-width:.01"/><polygon id="polygon174" points="14.4 5.932 14.726 5.279 14.726 5.606 16.357 5.606 16.357 5.279 16.792 5.932 14.4 5.932" style="fill:#999;stroke:none;stroke-width:.01"/><polygon id="polygon176" points="14.4 5.932 14.726 5.279 14.726 5.606 16.357 5.606 16.357 5.279 16.792 5.932 14.4 5.932" style="fill:none;stroke:#000;stroke-width:.01"/><line id="line178" x1="19.9" x2="2.6" y1="7.1" y2="7.1" stroke="#000" stroke-width=".1" style="stroke:#000;stroke-width:.1"/><line id="line180" x1="2.825" x2="2.8" y1="5.9" y2="7" stroke="#000" stroke-width=".1" style="stroke:#000;stroke-width:.1"/><line id="line182" x1="6.97" x2="6.9" y1="6.041" y2="7" stroke="#000" stroke-width=".1" style="stroke:#000;stroke-width:.1"/><line id="line184" x1="10.987" x2="11" y1="6" y2="7.1" stroke="#000" stroke-width=".1" style="stroke:#000;stroke-width:.1"/><line id="line186" x1="15.596" x2="15.6" y1="5.932" y2="7.1" stroke="#000" stroke-width=".1" style="stroke:#000;stroke-width:.1"/><rect id="rect188" width="1.645" height="3.839" x="18.929" y="1.85" style="fill:#b3b3b3;stroke:none;stroke-width:0"/><rect id="rect190" width="1.645" height="3.839" x="18.929" y="1.85" style="fill:none;stroke:#000;stroke-width:.08"/><rect id="rect192" width="1.316" height=".439" x="19.094" y="2.08" style="fill:none;stroke:#000;stroke-width:.01"/><rect id="rect194" width="1.316" height=".439" x="19.094" y="2.519" style="fill:none;stroke:#000;stroke-width:.01"/><rect id="rect196" width="1.316" height=".439" x="19.094" y="2.958" style="fill:none;stroke:#000;stroke-width:.01"/><rect id="rect198" width="1.316" height=".439" x="19.094" y="3.397" style="fill:none;stroke:#000;stroke-width:.01"/><rect id="rect200" width=".823" height=".263" x="19.094" y="3.923" style="fill:none;stroke:#000;stroke-width:.01"/><ellipse id="ellipse202" cx="20.328" cy="3.967" rx=".058" ry=".058" style="fill:#0f0;stroke:none"/><ellipse id="ellipse204" cx="20.328" cy="3.967" rx=".058" ry=".058" style="fill:none;stroke:#000;stroke-width:.01"/><ellipse id="ellipse206" cx="20.328" cy="4.142" rx=".058" ry=".058" style="fill:#ff0;stroke:none"/><ellipse id="ellipse208" cx="20.328" cy="4.142" rx=".058" ry=".058" style="fill:none;stroke:#000;stroke-width:.01"/><rect id="rect210" width=".197" height=".176" x="19.999" y="4.011" style="fill:#fff;stroke:none;stroke-width:0"/><rect id="rect212" width=".197" height=".176" x="19.999" y="4.011" style="fill:none;stroke:#000;stroke-width:.01"/><path id="path214" d="M 19.203,4.537 L 19.203,5.497" style="fill:none;stroke:#000;stroke-width:.01"/><path id="path216" d="M 19.478,4.537 L 19.478,5.497" style="fill:none;stroke:#000;stroke-width:.01"/><path id="path218" d="M 19.752,4.537 L 19.752,5.497" style="fill:none;stroke:#000;stroke-width:.01"/><path id="path220" d="M 20.026,4.537 L 20.026,5.497" style="fill:none;stroke:#000;stroke-width:.01"/><path id="path222" d="M 20.3,4.537 L 20.3,5.497" style="fill:none;stroke:#000;stroke-width:.01"/><path id="path224" d="M 20.574,4.537 L 20.574,5.497" style="fill:none;stroke:#000;stroke-width:.01"/><polygon id="polygon226" points="18.6 6.018 18.929 5.36 18.929 5.689 20.574 5.689 20.574 5.36 21.013 6.018 18.6 6.018" style="fill:#999;stroke:none;stroke-width:.01"/><polygon id="polygon228" points="18.6 6.018 18.929 5.36 18.929 5.689 20.574 5.689 20.574 5.36 21.013 6.018 18.6 6.018" style="fill:none;stroke:#000;stroke-width:.01"/><line id="line230" x1="19.8" x2="19.807" y1="7.1" y2="6.018" stroke="#000" stroke-width=".1" style="stroke:#000;stroke-width:.1"/><text id="text232" x="14.6" y="1.3" style="font-size:.80000001px;font-style:normal;font-weight:400;text-anchor:start;fill:#000;font-family:sans">N1_D</text><text id="text234" x="18.9" y="1.3" style="font-size:.80000001px;font-style:normal;font-weight:400;text-anchor:start;fill:#000;font-family:sans">N1_E</text><line id="line236" x1="2.6" x2="2.6" y1="7" y2="8.6" stroke="#000" stroke-width=".1" style="stroke:#000;stroke-width:.1"/><rect id="rect238" width="2.35" height="2.35" x="1.4" y="8.6" style="fill:#9f9f9f;stroke:none;stroke-width:0"/><rect id="rect240" width="2.35" height="2.35" x="1.4" y="8.6" style="fill:none;stroke:#000;stroke-width:.1"/><rect id="rect242" width="2.35" height="2.35" x="1.4" y="8.6" style="fill:none;stroke:#000;stroke-width:.1"/><path id="path244" d="M 2.72,8.98 C 2.72,10.155 2.955,9.92 1.78,9.92" style="fill:none;stroke:#fff;stroke-width:.13"/><path id="path246" d="M 2.72,8.98 C 2.72,10.155 2.955,9.92 1.78,9.92" style="fill:none;stroke:#000;stroke-width:.08"/><polygon id="polygon248" points="2.833 9.164 2.716 8.929 2.599 9.164 2.833 9.164" style="fill:#000;stroke:none;stroke-width:.1"/><polygon id="polygon250" points="2.833 9.164 2.716 8.929 2.599 9.164 2.833 9.164" style="fill:none;stroke:#000;stroke-width:.1"/><polygon id="polygon252" points="1.964 9.798 1.729 9.916 1.964 10.034 1.964 9.798" style="fill:#000;stroke:none;stroke-width:.1"/><polygon id="polygon254" points="1.964 9.798 1.729 9.916 1.964 10.034 1.964 9.798" style="fill:none;stroke:#000;stroke-width:.1"/><path id="path256" d="M 3.418,9.641 C 2.243,9.641 2.478,9.406 2.478,10.581" style="fill:none;stroke:#fff;stroke-width:.13"/><path id="path258" d="M 3.418,9.641 C 2.243,9.641 2.478,9.406 2.478,10.581" style="fill:none;stroke:#000;stroke-width:.08"/><polygon id="polygon260" points="3.21 9.752 3.445 9.634 3.21 9.516 3.21 9.752" style="fill:#000;stroke:none;stroke-width:.1"/><polygon id="polygon262" points="3.21 9.752 3.445 9.634 3.21 9.516 3.21 9.752" style="fill:none;stroke:#000;stroke-width:.1"/><polygon id="polygon264" points="2.34 10.386 2.458 10.621 2.575 10.386 2.34 10.386" style="fill:#000;stroke:none;stroke-width:.1"/><polygon id="polygon266" points="2.34 10.386 2.458 10.621 2.575 10.386 2.34 10.386" style="fill:none;stroke:#000;stroke-width:.1"/><text id="text268" x="4.5" y="10.1" style="font-size:.80000001px;font-style:normal;font-weight:400;text-anchor:start;fill:#000;font-family:sans">Router 1</text><text id="text270" x="9.9" y="8.1" style="font-size:.80000001px;font-style:normal;font-weight:400;text-anchor:start;fill:#000;font-family:sans">Subnet 1</text><line id="line272" x1="19.9" x2="19.9" y1="7" y2="8.7" stroke="#000" stroke-width=".1" style="stroke:#000;stroke-width:.1"/><rect id="rect274" width="2.4" height="2.4" x="18.7" y="8.7" style="fill:#9f9f9f;stroke:none;stroke-width:0"/><rect id="rect276" width="2.4" height="2.4" x="18.7" y="8.7" style="fill:none;stroke:#000;stroke-width:.1"/><rect id="rect278" width="2.4" height="2.4" x="18.7" y="8.7" style="fill:none;stroke:#000;stroke-width:.1"/><path id="path280" d="M 20.048,9.088 C 20.048,10.288 20.288,10.048 19.088,10.048" style="fill:none;stroke:#fff;stroke-width:.13"/><path id="path282" d="M 20.048,9.088 C 20.048,10.288 20.288,10.048 19.088,10.048" style="fill:none;stroke:#000;stroke-width:.08"/><polygon id="polygon284" points="20.164 9.276 20.044 9.036 19.924 9.276 20.164 9.276" style="fill:#000;stroke:none;stroke-width:.1"/><polygon id="polygon286" points="20.164 9.276 20.044 9.036 19.924 9.276 20.164 9.276" style="fill:none;stroke:#000;stroke-width:.1"/><polygon id="polygon288" points="19.276 9.924 19.036 10.044 19.276 10.164 19.276 9.924" style="fill:#000;stroke:none;stroke-width:.1"/><polygon id="polygon290" points="19.276 9.924 19.036 10.044 19.276 10.164 19.276 9.924" style="fill:none;stroke:#000;stroke-width:.1"/><path id="path292" d="M 20.761,9.764 C 19.561,9.764 19.801,9.524 19.801,10.724" style="fill:none;stroke:#fff;stroke-width:.13"/><path id="path294" d="M 20.761,9.764 C 19.561,9.764 19.801,9.524 19.801,10.724" style="fill:none;stroke:#000;stroke-width:.08"/><polygon id="polygon296" points="20.548 9.876 20.788 9.756 20.548 9.636 20.548 9.876" style="fill:#000;stroke:none;stroke-width:.1"/><polygon id="polygon298" points="20.548 9.876 20.788 9.756 20.548 9.636 20.548 9.876" style="fill:none;stroke:#000;stroke-width:.1"/><polygon id="polygon300" points="19.66 10.524 19.78 10.764 19.9 10.524 19.66 10.524" style="fill:#000;stroke:none;stroke-width:.1"/><polygon id="polygon302" points="19.66 10.524 19.78 10.764 19.9 10.524 19.66 10.524" style="fill:none;stroke:#000;stroke-width:.1"/><text id="text304" x="15.5" y="10.1" style="font-size:.80000001px;font-style:normal;font-weight:400;text-anchor:start;fill:#000;font-family:sans">Router 2</text><line id="line306" x1="2.575" x2="2.6" y1="10.95" y2="12.4" stroke="#000" stroke-width=".1" style="stroke:#000;stroke-width:.1"/><line id="line308" x1="8" x2="-1.7" y1="12.4" y2="12.4" stroke="#000" stroke-width=".1" style="stroke:#000;stroke-width:.1"/><text id="text310" x="3.4" y="12" style="font-size:.80000001px;font-style:normal;font-weight:400;text-anchor:start;fill:#000;font-family:sans">Subnet 2</text><rect id="rect312" width="1.493" height="3.483" x="7.099" y="13.5" style="fill:#b3b3b3;stroke:none;stroke-width:0"/><rect id="rect314" width="1.493" height="3.483" x="7.099" y="13.5" style="fill:none;stroke:#000;stroke-width:.08"/><rect id="rect316" width="1.194" height=".398" x="7.248" y="13.709" style="fill:none;stroke:#000;stroke-width:.01"/><rect id="rect318" width="1.194" height=".398" x="7.248" y="14.107" style="fill:none;stroke:#000;stroke-width:.01"/><rect id="rect320" width="1.194" height=".398" x="7.248" y="14.505" style="fill:none;stroke:#000;stroke-width:.01"/><rect id="rect322" width="1.194" height=".398" x="7.248" y="14.903" style="fill:none;stroke:#000;stroke-width:.01"/><rect id="rect324" width=".746" height=".239" x="7.248" y="15.381" style="fill:none;stroke:#000;stroke-width:.01"/><ellipse id="ellipse326" cx="8.367" cy="15.421" rx=".052" ry=".052" style="fill:#0f0;stroke:none"/><ellipse id="ellipse328" cx="8.367" cy="15.421" rx=".052" ry=".052" style="fill:none;stroke:#000;stroke-width:.01"/><ellipse id="ellipse330" cx="8.367" cy="15.58" rx=".052" ry=".052" style="fill:#ff0;stroke:none"/><ellipse id="ellipse332" cx="8.367" cy="15.58" rx=".052" ry=".052" style="fill:none;stroke:#000;stroke-width:.01"/><rect id="rect334" width=".179" height=".159" x="8.069" y="15.461" style="fill:#fff;stroke:none;stroke-width:0"/><rect id="rect336" width=".179" height=".159" x="8.069" y="15.461" style="fill:none;stroke:#000;stroke-width:.01"/><path id="path338" d="M 7.347,15.938 L 7.347,16.809" style="fill:none;stroke:#000;stroke-width:.01"/><path id="path340" d="M 7.596,15.938 L 7.596,16.809" style="fill:none;stroke:#000;stroke-width:.01"/><path id="path342" d="M 7.845,15.938 L 7.845,16.809" style="fill:none;stroke:#000;stroke-width:.01"/><path id="path344" d="M 8.094,15.938 L 8.094,16.809" style="fill:none;stroke:#000;stroke-width:.01"/><path id="path346" d="M 8.343,15.938 L 8.343,16.809" style="fill:none;stroke:#000;stroke-width:.01"/><path id="path348" d="M 8.591,15.938 L 8.591,16.809" style="fill:none;stroke:#000;stroke-width:.01"/><polygon id="polygon350" points="6.8 17.282 7.099 16.685 7.099 16.983 8.591 16.983 8.591 16.685 8.989 17.282 6.8 17.282" style="fill:#999;stroke:none;stroke-width:.01"/><polygon id="polygon352" points="6.8 17.282 7.099 16.685 7.099 16.983 8.591 16.983 8.591 16.685 8.989 17.282 6.8 17.282" style="fill:none;stroke:#000;stroke-width:.01"/><line id="line354" x1="7.895" x2="7.9" y1="13.5" y2="12.3" stroke="#000" stroke-width=".1" style="stroke:#000;stroke-width:.1"/><rect id="rect356" width="1.535" height="3.582" x="3.707" y="13.489" style="fill:#b3b3b3;stroke:none;stroke-width:0"/><rect id="rect358" width="1.535" height="3.582" x="3.707" y="13.489" style="fill:none;stroke:#000;stroke-width:.08"/><rect id="rect360" width="1.228" height=".409" x="3.86" y="13.703" style="fill:none;stroke:#000;stroke-width:.01"/><rect id="rect362" width="1.228" height=".409" x="3.86" y="14.113" style="fill:none;stroke:#000;stroke-width:.01"/><rect id="rect364" width="1.228" height=".409" x="3.86" y="14.522" style="fill:none;stroke:#000;stroke-width:.01"/><rect id="rect366" width="1.228" height=".409" x="3.86" y="14.931" style="fill:none;stroke:#000;stroke-width:.01"/><rect id="rect368" width=".767" height=".246" x="3.86" y="15.423" style="fill:none;stroke:#000;stroke-width:.01"/><ellipse id="ellipse370" cx="5.012" cy="15.464" rx=".054" ry=".054" style="fill:#0f0;stroke:none"/><ellipse id="ellipse372" cx="5.012" cy="15.464" rx=".054" ry=".054" style="fill:none;stroke:#000;stroke-width:.01"/><ellipse id="ellipse374" cx="5.012" cy="15.627" rx=".054" ry=".054" style="fill:#ff0;stroke:none"/><ellipse id="ellipse376" cx="5.012" cy="15.627" rx=".054" ry=".054" style="fill:none;stroke:#000;stroke-width:.01"/><rect id="rect378" width=".184" height=".164" x="4.705" y="15.505" style="fill:#fff;stroke:none;stroke-width:0"/><rect id="rect380" width=".184" height=".164" x="4.705" y="15.505" style="fill:none;stroke:#000;stroke-width:.01"/><path id="path382" d="M 3.963,15.996 L 3.963,16.891" style="fill:none;stroke:#000;stroke-width:.01"/><path id="path384" d="M 4.219,15.996 L 4.219,16.891" style="fill:none;stroke:#000;stroke-width:.01"/><path id="path386" d="M 4.474,15.996 L 4.474,16.891" style="fill:none;stroke:#000;stroke-width:.01"/><path id="path388" d="M 4.73,15.996 L 4.73,16.891" style="fill:none;stroke:#000;stroke-width:.01"/><path id="path390" d="M 4.986,15.996 L 4.986,16.891" style="fill:none;stroke:#000;stroke-width:.01"/><path id="path392" d="M 5.242,15.996 L 5.242,16.891" style="fill:none;stroke:#000;stroke-width:.01"/><polygon id="polygon394" points="3.4 17.377 3.707 16.763 3.707 17.07 5.242 17.07 5.242 16.763 5.651 17.377 3.4 17.377" style="fill:#999;stroke:none;stroke-width:.01"/><polygon id="polygon396" points="3.4 17.377 3.707 16.763 3.707 17.07 5.242 17.07 5.242 16.763 5.651 17.377 3.4 17.377" style="fill:none;stroke:#000;stroke-width:.01"/><line id="line398" x1="4.526" x2="4.6" y1="13.489" y2="12.4" stroke="#000" stroke-width=".1" style="stroke:#000;stroke-width:.1"/><text id="text400" x="7" y="18.4" style="font-size:.80000001px;font-style:normal;font-weight:400;text-anchor:start;fill:#000;font-family:sans">N2_D</text><text id="text402" x="7" y="19.2" style="font-size:.80000001px;font-style:normal;font-weight:400;text-anchor:start;fill:#000;font-family:sans">(WINS)</text><text id="text404" x="3.9" y="18.4" style="font-size:.80000001px;font-style:normal;font-weight:400;text-anchor:start;fill:#000;font-family:sans">N2_C</text><rect id="rect406" width="1.535" height="3.582" x=".607" y="13.5" style="fill:#b3b3b3;stroke:none;stroke-width:0"/><rect id="rect408" width="1.535" height="3.582" x=".607" y="13.5" style="fill:none;stroke:#000;stroke-width:.08"/><rect id="rect410" width="1.228" height=".409" x=".76" y="13.715" style="fill:none;stroke:#000;stroke-width:.01"/><rect id="rect412" width="1.228" height=".409" x=".76" y="14.124" style="fill:none;stroke:#000;stroke-width:.01"/><rect id="rect414" width="1.228" height=".409" x=".76" y="14.534" style="fill:none;stroke:#000;stroke-width:.01"/><rect id="rect416" width="1.228" height=".409" x=".76" y="14.943" style="fill:none;stroke:#000;stroke-width:.01"/><rect id="rect418" width=".767" height=".246" x=".76" y="15.434" style="fill:none;stroke:#000;stroke-width:.01"/><ellipse id="ellipse420" cx="1.912" cy="15.475" rx=".054" ry=".054" style="fill:#0f0;stroke:none"/><ellipse id="ellipse422" cx="1.912" cy="15.475" rx=".054" ry=".054" style="fill:none;stroke:#000;stroke-width:.01"/><ellipse id="ellipse424" cx="1.912" cy="15.639" rx=".054" ry=".054" style="fill:#ff0;stroke:none"/><ellipse id="ellipse426" cx="1.912" cy="15.639" rx=".054" ry=".054" style="fill:none;stroke:#000;stroke-width:.01"/><rect id="rect428" width=".184" height=".164" x="1.605" y="15.516" style="fill:#fff;stroke:none;stroke-width:0"/><rect id="rect430" width=".184" height=".164" x="1.605" y="15.516" style="fill:none;stroke:#000;stroke-width:.01"/><path id="path432" d="M 0.863,16.007 L 0.863,16.903" style="fill:none;stroke:#000;stroke-width:.01"/><path id="path434" d="M 1.119,16.007 L 1.119,16.903" style="fill:none;stroke:#000;stroke-width:.01"/><path id="path436" d="M 1.374,16.007 L 1.374,16.903" style="fill:none;stroke:#000;stroke-width:.01"/><path id="path438" d="M 1.63,16.007 L 1.63,16.903" style="fill:none;stroke:#000;stroke-width:.01"/><path id="path440" d="M 1.886,16.007 L 1.886,16.903" style="fill:none;stroke:#000;stroke-width:.01"/><path id="path442" d="M 2.142,16.007 L 2.142,16.903" style="fill:none;stroke:#000;stroke-width:.01"/><polygon id="polygon444" points=".3 17.389 .607 16.775 .607 17.082 2.142 17.082 2.142 16.775 2.551 17.389 .3 17.389" style="fill:#999;stroke:none;stroke-width:.01"/><polygon id="polygon446" points=".3 17.389 .607 16.775 .607 17.082 2.142 17.082 2.142 16.775 2.551 17.389 .3 17.389" style="fill:none;stroke:#000;stroke-width:.01"/><line id="line448" x1="1.426" x2="1.5" y1="13.5" y2="12.411" stroke="#000" stroke-width=".1" style="stroke:#000;stroke-width:.1"/><text id="text450" x=".8" y="18.411" style="font-size:.80000001px;font-style:normal;font-weight:400;text-anchor:start;fill:#000;font-family:sans">N2_B</text><rect id="rect452" width="1.535" height="3.582" x="-2.493" y="13.5" style="fill:#b3b3b3;stroke:none;stroke-width:0"/><rect id="rect454" width="1.535" height="3.582" x="-2.493" y="13.5" style="fill:none;stroke:#000;stroke-width:.08"/><rect id="rect456" width="1.228" height=".409" x="-2.34" y="13.715" style="fill:none;stroke:#000;stroke-width:.01"/><rect id="rect458" width="1.228" height=".409" x="-2.34" y="14.124" style="fill:none;stroke:#000;stroke-width:.01"/><rect id="rect460" width="1.228" height=".409" x="-2.34" y="14.534" style="fill:none;stroke:#000;stroke-width:.01"/><rect id="rect462" width="1.228" height=".409" x="-2.34" y="14.943" style="fill:none;stroke:#000;stroke-width:.01"/><rect id="rect464" width=".767" height=".246" x="-2.34" y="15.434" style="fill:none;stroke:#000;stroke-width:.01"/><ellipse id="ellipse466" cx="-1.188" cy="15.475" rx=".054" ry=".054" style="fill:#0f0;stroke:none"/><ellipse id="ellipse468" cx="-1.188" cy="15.475" rx=".054" ry=".054" style="fill:none;stroke:#000;stroke-width:.01"/><ellipse id="ellipse470" cx="-1.188" cy="15.639" rx=".054" ry=".054" style="fill:#ff0;stroke:none"/><ellipse id="ellipse472" cx="-1.188" cy="15.639" rx=".054" ry=".054" style="fill:none;stroke:#000;stroke-width:.01"/><rect id="rect474" width=".184" height=".164" x="-1.495" y="15.516" style="fill:#fff;stroke:none;stroke-width:0"/><rect id="rect476" width=".184" height=".164" x="-1.495" y="15.516" style="fill:none;stroke:#000;stroke-width:.01"/><path id="path478" d="M -2.237,16.007 L -2.237,16.903" style="fill:none;stroke:#000;stroke-width:.01"/><path id="path480" d="M -1.981,16.007 L -1.981,16.903" style="fill:none;stroke:#000;stroke-width:.01"/><path id="path482" d="M -1.726,16.007 L -1.726,16.903" style="fill:none;stroke:#000;stroke-width:.01"/><path id="path484" d="M -1.47,16.007 L -1.47,16.903" style="fill:none;stroke:#000;stroke-width:.01"/><path id="path486" d="M -1.214,16.007 L -1.214,16.903" style="fill:none;stroke:#000;stroke-width:.01"/><path id="path488" d="M -0.958,16.007 L -0.958,16.903" style="fill:none;stroke:#000;stroke-width:.01"/><polygon id="polygon490" points="-2.8 17.389 -2.493 16.775 -2.493 17.082 -.958 17.082 -.958 16.775 -.549 17.389 -2.8 17.389" style="fill:#999;stroke:none;stroke-width:.01"/><polygon id="polygon492" points="-2.8 17.389 -2.493 16.775 -2.493 17.082 -.958 17.082 -.958 16.775 -.549 17.389 -2.8 17.389" style="fill:none;stroke:#000;stroke-width:.01"/><line id="line494" x1="-1.674" x2="-1.6" y1="13.5" y2="12.411" stroke="#000" stroke-width=".1" style="stroke:#000;stroke-width:.1"/><text id="text496" x="-2.4" y="18.4" style="font-size:.80000001px;font-style:normal;font-weight:400;text-anchor:start;fill:#000;font-family:sans">N2_A</text><line id="line498" x1="19.9" x2="19.9" y1="11.1" y2="12.6" stroke="#000" stroke-width=".1" style="stroke:#000;stroke-width:.1"/><line id="line500" x1="25.3" x2="15.6" y1="12.6" y2="12.6" stroke="#000" stroke-width=".1" style="stroke:#000;stroke-width:.1"/><text id="text502" x="20.7" y="12.2" style="font-size:.80000001px;font-style:normal;font-weight:400;text-anchor:start;fill:#000;font-family:sans">Subnet 3</text><rect id="rect504" width="1.493" height="3.483" x="24.399" y="13.7" style="fill:#b3b3b3;stroke:none;stroke-width:0"/><rect id="rect506" width="1.493" height="3.483" x="24.399" y="13.7" style="fill:none;stroke:#000;stroke-width:.08"/><rect id="rect508" width="1.194" height=".398" x="24.548" y="13.909" style="fill:none;stroke:#000;stroke-width:.01"/><rect id="rect510" width="1.194" height=".398" x="24.548" y="14.307" style="fill:none;stroke:#000;stroke-width:.01"/><rect id="rect512" width="1.194" height=".398" x="24.548" y="14.705" style="fill:none;stroke:#000;stroke-width:.01"/><rect id="rect514" width="1.194" height=".398" x="24.548" y="15.103" style="fill:none;stroke:#000;stroke-width:.01"/><rect id="rect516" width=".746" height=".239" x="24.548" y="15.581" style="fill:none;stroke:#000;stroke-width:.01"/><ellipse id="ellipse518" cx="25.667" cy="15.621" rx=".052" ry=".052" style="fill:#0f0;stroke:none"/><ellipse id="ellipse520" cx="25.667" cy="15.621" rx=".052" ry=".052" style="fill:none;stroke:#000;stroke-width:.01"/><ellipse id="ellipse522" cx="25.667" cy="15.78" rx=".052" ry=".052" style="fill:#ff0;stroke:none"/><ellipse id="ellipse524" cx="25.667" cy="15.78" rx=".052" ry=".052" style="fill:none;stroke:#000;stroke-width:.01"/><rect id="rect526" width=".179" height=".159" x="25.369" y="15.661" style="fill:#fff;stroke:none;stroke-width:0"/><rect id="rect528" width=".179" height=".159" x="25.369" y="15.661" style="fill:none;stroke:#000;stroke-width:.01"/><path id="path530" d="M 24.647,16.138 L 24.647,17.009" style="fill:none;stroke:#000;stroke-width:.01"/><path id="path532" d="M 24.896,16.138 L 24.896,17.009" style="fill:none;stroke:#000;stroke-width:.01"/><path id="path534" d="M 25.145,16.138 L 25.145,17.009" style="fill:none;stroke:#000;stroke-width:.01"/><path id="path536" d="M 25.394,16.138 L 25.394,17.009" style="fill:none;stroke:#000;stroke-width:.01"/><path id="path538" d="M 25.643,16.138 L 25.643,17.009" style="fill:none;stroke:#000;stroke-width:.01"/><path id="path540" d="M 25.891,16.138 L 25.891,17.009" style="fill:none;stroke:#000;stroke-width:.01"/><polygon id="polygon542" points="24.1 17.482 24.399 16.885 24.399 17.183 25.891 17.183 25.891 16.885 26.289 17.482 24.1 17.482" style="fill:#999;stroke:none;stroke-width:.01"/><polygon id="polygon544" points="24.1 17.482 24.399 16.885 24.399 17.183 25.891 17.183 25.891 16.885 26.289 17.482 24.1 17.482" style="fill:none;stroke:#000;stroke-width:.01"/><line id="line546" x1="25.195" x2="25.2" y1="13.7" y2="12.5" stroke="#000" stroke-width=".1" style="stroke:#000;stroke-width:.1"/><rect id="rect548" width="1.535" height="3.582" x="21.007" y="13.689" style="fill:#b3b3b3;stroke:none;stroke-width:0"/><rect id="rect550" width="1.535" height="3.582" x="21.007" y="13.689" style="fill:none;stroke:#000;stroke-width:.08"/><rect id="rect552" width="1.228" height=".409" x="21.16" y="13.903" style="fill:none;stroke:#000;stroke-width:.01"/><rect id="rect554" width="1.228" height=".409" x="21.16" y="14.313" style="fill:none;stroke:#000;stroke-width:.01"/><rect id="rect556" width="1.228" height=".409" x="21.16" y="14.722" style="fill:none;stroke:#000;stroke-width:.01"/><rect id="rect558" width="1.228" height=".409" x="21.16" y="15.131" style="fill:none;stroke:#000;stroke-width:.01"/><rect id="rect560" width=".767" height=".246" x="21.16" y="15.623" style="fill:none;stroke:#000;stroke-width:.01"/><ellipse id="ellipse562" cx="22.312" cy="15.664" rx=".054" ry=".054" style="fill:#0f0;stroke:none"/><ellipse id="ellipse564" cx="22.312" cy="15.664" rx=".054" ry=".054" style="fill:none;stroke:#000;stroke-width:.01"/><ellipse id="ellipse566" cx="22.312" cy="15.827" rx=".054" ry=".054" style="fill:#ff0;stroke:none"/><ellipse id="ellipse568" cx="22.312" cy="15.827" rx=".054" ry=".054" style="fill:none;stroke:#000;stroke-width:.01"/><rect id="rect570" width=".184" height=".164" x="22.005" y="15.705" style="fill:#fff;stroke:none;stroke-width:0"/><rect id="rect572" width=".184" height=".164" x="22.005" y="15.705" style="fill:none;stroke:#000;stroke-width:.01"/><path id="path574" d="M 21.263,16.196 L 21.263,17.091" style="fill:none;stroke:#000;stroke-width:.01"/><path id="path576" d="M 21.519,16.196 L 21.519,17.091" style="fill:none;stroke:#000;stroke-width:.01"/><path id="path578" d="M 21.774,16.196 L 21.774,17.091" style="fill:none;stroke:#000;stroke-width:.01"/><path id="path580" d="M 22.03,16.196 L 22.03,17.091" style="fill:none;stroke:#000;stroke-width:.01"/><path id="path582" d="M 22.286,16.196 L 22.286,17.091" style="fill:none;stroke:#000;stroke-width:.01"/><path id="path584" d="M 22.542,16.196 L 22.542,17.091" style="fill:none;stroke:#000;stroke-width:.01"/><polygon id="polygon586" points="20.7 17.577 21.007 16.963 21.007 17.27 22.542 17.27 22.542 16.963 22.951 17.577 20.7 17.577" style="fill:#999;stroke:none;stroke-width:.01"/><polygon id="polygon588" points="20.7 17.577 21.007 16.963 21.007 17.27 22.542 17.27 22.542 16.963 22.951 17.577 20.7 17.577" style="fill:none;stroke:#000;stroke-width:.01"/><line id="line590" x1="21.826" x2="21.9" y1="13.689" y2="12.6" stroke="#000" stroke-width=".1" style="stroke:#000;stroke-width:.1"/><text id="text592" x="24.3" y="18.6" style="font-size:.80000001px;font-style:normal;font-weight:400;text-anchor:start;fill:#000;font-family:sans">N3_D</text><text id="text594" x="21.2" y="18.6" style="font-size:.80000001px;font-style:normal;font-weight:400;text-anchor:start;fill:#000;font-family:sans">N3_C</text><rect id="rect596" width="1.535" height="3.582" x="17.907" y="13.7" style="fill:#b3b3b3;stroke:none;stroke-width:0"/><rect id="rect598" width="1.535" height="3.582" x="17.907" y="13.7" style="fill:none;stroke:#000;stroke-width:.08"/><rect id="rect600" width="1.228" height=".409" x="18.06" y="13.915" style="fill:none;stroke:#000;stroke-width:.01"/><rect id="rect602" width="1.228" height=".409" x="18.06" y="14.324" style="fill:none;stroke:#000;stroke-width:.01"/><rect id="rect604" width="1.228" height=".409" x="18.06" y="14.734" style="fill:none;stroke:#000;stroke-width:.01"/><rect id="rect606" width="1.228" height=".409" x="18.06" y="15.143" style="fill:none;stroke:#000;stroke-width:.01"/><rect id="rect608" width=".767" height=".246" x="18.06" y="15.634" style="fill:none;stroke:#000;stroke-width:.01"/><ellipse id="ellipse610" cx="19.212" cy="15.675" rx=".054" ry=".054" style="fill:#0f0;stroke:none"/><ellipse id="ellipse612" cx="19.212" cy="15.675" rx=".054" ry=".054" style="fill:none;stroke:#000;stroke-width:.01"/><ellipse id="ellipse614" cx="19.212" cy="15.839" rx=".054" ry=".054" style="fill:#ff0;stroke:none"/><ellipse id="ellipse616" cx="19.212" cy="15.839" rx=".054" ry=".054" style="fill:none;stroke:#000;stroke-width:.01"/><rect id="rect618" width=".184" height=".164" x="18.905" y="15.716" style="fill:#fff;stroke:none;stroke-width:0"/><rect id="rect620" width=".184" height=".164" x="18.905" y="15.716" style="fill:none;stroke:#000;stroke-width:.01"/><path id="path622" d="M 18.163,16.207 L 18.163,17.103" style="fill:none;stroke:#000;stroke-width:.01"/><path id="path624" d="M 18.419,16.207 L 18.419,17.103" style="fill:none;stroke:#000;stroke-width:.01"/><path id="path626" d="M 18.674,16.207 L 18.674,17.103" style="fill:none;stroke:#000;stroke-width:.01"/><path id="path628" d="M 18.93,16.207 L 18.93,17.103" style="fill:none;stroke:#000;stroke-width:.01"/><path id="path630" d="M 19.186,16.207 L 19.186,17.103" style="fill:none;stroke:#000;stroke-width:.01"/><path id="path632" d="M 19.442,16.207 L 19.442,17.103" style="fill:none;stroke:#000;stroke-width:.01"/><polygon id="polygon634" points="17.6 17.589 17.907 16.975 17.907 17.282 19.442 17.282 19.442 16.975 19.851 17.589 17.6 17.589" style="fill:#999;stroke:none;stroke-width:.01"/><polygon id="polygon636" points="17.6 17.589 17.907 16.975 17.907 17.282 19.442 17.282 19.442 16.975 19.851 17.589 17.6 17.589" style="fill:none;stroke:#000;stroke-width:.01"/><line id="line638" x1="18.726" x2="18.8" y1="13.7" y2="12.611" stroke="#000" stroke-width=".1" style="stroke:#000;stroke-width:.1"/><text id="text640" x="18.1" y="18.611" style="font-size:.80000001px;font-style:normal;font-weight:400;text-anchor:start;fill:#000;font-family:sans">N3_B</text><rect id="rect642" width="1.535" height="3.582" x="14.807" y="13.7" style="fill:#b3b3b3;stroke:none;stroke-width:0"/><rect id="rect644" width="1.535" height="3.582" x="14.807" y="13.7" style="fill:none;stroke:#000;stroke-width:.08"/><rect id="rect646" width="1.228" height=".409" x="14.96" y="13.915" style="fill:none;stroke:#000;stroke-width:.01"/><rect id="rect648" width="1.228" height=".409" x="14.96" y="14.324" style="fill:none;stroke:#000;stroke-width:.01"/><rect id="rect650" width="1.228" height=".409" x="14.96" y="14.734" style="fill:none;stroke:#000;stroke-width:.01"/><rect id="rect652" width="1.228" height=".409" x="14.96" y="15.143" style="fill:none;stroke:#000;stroke-width:.01"/><rect id="rect654" width=".767" height=".246" x="14.96" y="15.634" style="fill:none;stroke:#000;stroke-width:.01"/><ellipse id="ellipse656" cx="16.112" cy="15.675" rx=".054" ry=".054" style="fill:#0f0;stroke:none"/><ellipse id="ellipse658" cx="16.112" cy="15.675" rx=".054" ry=".054" style="fill:none;stroke:#000;stroke-width:.01"/><ellipse id="ellipse660" cx="16.112" cy="15.839" rx=".054" ry=".054" style="fill:#ff0;stroke:none"/><ellipse id="ellipse662" cx="16.112" cy="15.839" rx=".054" ry=".054" style="fill:none;stroke:#000;stroke-width:.01"/><rect id="rect664" width=".184" height=".164" x="15.805" y="15.716" style="fill:#fff;stroke:none;stroke-width:0"/><rect id="rect666" width=".184" height=".164" x="15.805" y="15.716" style="fill:none;stroke:#000;stroke-width:.01"/><path id="path668" d="M 15.063,16.207 L 15.063,17.103" style="fill:none;stroke:#000;stroke-width:.01"/><path id="path670" d="M 15.319,16.207 L 15.319,17.103" style="fill:none;stroke:#000;stroke-width:.01"/><path id="path672" d="M 15.574,16.207 L 15.574,17.103" style="fill:none;stroke:#000;stroke-width:.01"/><path id="path674" d="M 15.83,16.207 L 15.83,17.103" style="fill:none;stroke:#000;stroke-width:.01"/><path id="path676" d="M 16.086,16.207 L 16.086,17.103" style="fill:none;stroke:#000;stroke-width:.01"/><path id="path678" d="M 16.342,16.207 L 16.342,17.103" style="fill:none;stroke:#000;stroke-width:.01"/><polygon id="polygon680" points="14.5 17.589 14.807 16.975 14.807 17.282 16.342 17.282 16.342 16.975 16.751 17.589 14.5 17.589" style="fill:#999;stroke:none;stroke-width:.01"/><polygon id="polygon682" points="14.5 17.589 14.807 16.975 14.807 17.282 16.342 17.282 16.342 16.975 16.751 17.589 14.5 17.589" style="fill:none;stroke:#000;stroke-width:.01"/><line id="line684" x1="15.626" x2="15.7" y1="13.7" y2="12.611" stroke="#000" stroke-width=".1" style="stroke:#000;stroke-width:.1"/><text id="text686" x="14.9" y="18.6" style="font-size:.80000001px;font-style:normal;font-weight:400;text-anchor:start;fill:#000;font-family:sans">N3_A</text></svg>