<svg xmlns="http://www.w3.org/2000/svg" xmlns:svg="http://www.w3.org/2000/svg" id="svg2" width="1056.378" height="23.34cm" version="1.0" viewBox="0.8 0.857 28.75 24.198"><text id="text4" x=".8" y="1.4" style="font-size:.80000001px;font-style:normal;font-weight:400;text-anchor:start;fill:#000;font-family:sans">CUPS in and of itself has this (general) filter chain (italic letters</text><text id="text6" x=".8" y="2.2" style="font-size:.80000001px;font-style:normal;font-weight:400;text-anchor:start;fill:#000;font-family:sans">are file-formats or MIME types, other are filters (this is</text><text id="text8" x=".8" y="3" style="font-size:.80000001px;font-style:normal;font-weight:400;text-anchor:start;fill:#000;font-family:sans">true for pre-1.1.15 of pre-4.3 versions of CUPS and ESP PrintPro):</text><text id="text10" x="2.1" y="4.9" style="font-size:.80000001px;font-style:normal;font-weight:400;text-anchor:start;fill:#000;font-family:sans">something-fileformat</text><polygon id="polygon12" points="4.625 5.6 4.625 6.45 4.2 6.45 5.05 7.3 5.9 6.45 5.475 6.45 5.475 5.6 4.625 5.6" style="fill:#fff;stroke:none;stroke-width:.1"/><polygon id="polygon14" points="4.625 5.6 4.625 6.45 4.2 6.45 5.05 7.3 5.9 6.45 5.475 6.45 5.475 5.6 4.625 5.6" style="fill:none;stroke:#000;stroke-width:.1"/><polygon id="polygon16" points="4.625 5.6 4.625 6.45 4.2 6.45 5.05 7.3 5.9 6.45 5.475 6.45 5.475 5.6 4.625 5.6" style="fill:none;stroke:#000;stroke-width:.01"/><text id="text18" x="2.1" y="11.9" style="font-size:.80000001px;font-style:normal;font-weight:400;text-anchor:start;fill:#000;font-family:sans">application/postscript</text><polygon id="polygon20" points="4.725 12.6 4.725 13.45 4.3 13.45 5.15 14.3 6 13.45 5.575 13.45 5.575 12.6 4.725 12.6" style="fill:#fff;stroke:none;stroke-width:.1"/><polygon id="polygon22" points="4.725 12.6 4.725 13.45 4.3 13.45 5.15 14.3 6 13.45 5.575 13.45 5.575 12.6 4.725 12.6" style="fill:none;stroke:#000;stroke-width:.1"/><polygon id="polygon24" points="4.725 12.6 4.725 13.45 4.3 13.45 5.15 14.3 6 13.45 5.575 13.45 5.575 12.6 4.725 12.6" style="fill:none;stroke:#000;stroke-width:.01"/><polygon id="polygon26" points="4.625 9 4.625 9.85 4.2 9.85 5.05 10.7 5.9 9.85 5.475 9.85 5.475 9 4.625 9" style="fill:#fff;stroke:none;stroke-width:.1"/><polygon id="polygon28" points="4.625 9 4.625 9.85 4.2 9.85 5.05 10.7 5.9 9.85 5.475 9.85 5.475 9 4.625 9" style="fill:none;stroke:#000;stroke-width:.1"/><polygon id="polygon30" points="4.625 9 4.625 9.85 4.2 9.85 5.05 10.7 5.9 9.85 5.475 9.85 5.475 9 4.625 9" style="fill:none;stroke:#000;stroke-width:.01"/><text id="text32" x="2.8" y="8.3" style="font-size:.80000001px;font-style:normal;font-weight:400;text-anchor:start;fill:#000;font-family:sans">somethingtops</text><text id="text34" x="4.1" y="15.3" style="font-size:.80000001px;font-style:normal;font-weight:400;text-anchor:start;fill:#000;font-family:sans">pstops</text><polygon id="polygon36" points="4.725 15.8 4.725 16.65 4.3 16.65 5.15 17.5 6 16.65 5.575 16.65 5.575 15.8 4.725 15.8" style="fill:#fff;stroke:none;stroke-width:.1"/><polygon id="polygon38" points="4.725 15.8 4.725 16.65 4.3 16.65 5.15 17.5 6 16.65 5.575 16.65 5.575 15.8 4.725 15.8" style="fill:none;stroke:#000;stroke-width:.1"/><polygon id="polygon40" points="4.725 15.8 4.725 16.65 4.3 16.65 5.15 17.5 6 16.65 5.575 16.65 5.575 15.8 4.725 15.8" style="fill:none;stroke:#000;stroke-width:.01"/><text id="text42" x="1.2" y="18.4" style="font-size:.80000001px;font-style:normal;font-weight:400;text-anchor:start;fill:#000;font-family:sans">application/vnd.cups-postscript</text><text id="text44" x="14.8" y="18.4" style="font-size:.80000001px;font-style:normal;font-weight:400;text-anchor:start;fill:#000;font-family:sans">pstoraster</text><text id="text46" x="13.4" y="14.8" style="font-size:.80000001px;font-style:normal;font-weight:400;text-anchor:start;fill:#000;font-family:sans">application/vnd.cups-raster</text><text id="text48" x="14.2" y="11.2" style="font-size:.80000001px;font-style:normal;font-weight:400;text-anchor:start;fill:#000;font-family:sans">rastertosomething</text><text id="text50" x="13.3" y="7.7" style="font-size:.80000001px;font-style:normal;font-weight:400;text-anchor:start;fill:#000;font-family:sans">something-device-specific</text><text id="text52" x="25.6" y="7.7" style="font-size:.80000001px;font-style:normal;font-weight:400;text-anchor:start;fill:#000;font-family:sans">backend</text><polygon id="polygon54" points="11.2 17.625 12.5 17.625 12.5 17.2 13.8 18.05 12.5 18.9 12.5 18.475 11.2 18.475 11.2 17.625" style="fill:#fff;stroke:none;stroke-width:.1"/><polygon id="polygon56" points="11.2 17.625 12.5 17.625 12.5 17.2 13.8 18.05 12.5 18.9 12.5 18.475 11.2 18.475 11.2 17.625" style="fill:none;stroke:#000;stroke-width:.1"/><polygon id="polygon58" points="11.2 17.625 12.5 17.625 12.5 17.2 13.8 18.05 12.5 18.9 12.5 18.475 11.2 18.475 11.2 17.625" style="fill:none;stroke:#000;stroke-width:.01"/><polygon id="polygon60" points="16.35 17.5 16.35 16.35 15.9 16.35 16.8 15.2 17.7 16.35 17.25 16.35 17.25 17.5 16.35 17.5" style="fill:#fff;stroke:none;stroke-width:.1"/><polygon id="polygon62" points="16.35 17.5 16.35 16.35 15.9 16.35 16.8 15.2 17.7 16.35 17.25 16.35 17.25 17.5 16.35 17.5" style="fill:none;stroke:#000;stroke-width:.1"/><polygon id="polygon64" points="16.35 17.5 16.35 16.35 15.9 16.35 16.8 15.2 17.7 16.35 17.25 16.35 17.25 17.5 16.35 17.5" style="fill:none;stroke:#000;stroke-width:.01"/><polygon id="polygon66" points="16.35 14 16.35 12.85 15.9 12.85 16.8 11.7 17.7 12.85 17.25 12.85 17.25 14 16.35 14" style="fill:#fff;stroke:none;stroke-width:.1"/><polygon id="polygon68" points="16.35 14 16.35 12.85 15.9 12.85 16.8 11.7 17.7 12.85 17.25 12.85 17.25 14 16.35 14" style="fill:none;stroke:#000;stroke-width:.1"/><polygon id="polygon70" points="16.35 14 16.35 12.85 15.9 12.85 16.8 11.7 17.7 12.85 17.25 12.85 17.25 14 16.35 14" style="fill:none;stroke:#000;stroke-width:.01"/><polygon id="polygon72" points="16.35 10.3 16.35 9.15 15.9 9.15 16.8 8 17.7 9.15 17.25 9.15 17.25 10.3 16.35 10.3" style="fill:#fff;stroke:none;stroke-width:.1"/><polygon id="polygon74" points="16.35 10.3 16.35 9.15 15.9 9.15 16.8 8 17.7 9.15 17.25 9.15 17.25 10.3 16.35 10.3" style="fill:none;stroke:#000;stroke-width:.1"/><polygon id="polygon76" points="16.35 10.3 16.35 9.15 15.9 9.15 16.8 8 17.7 9.15 17.25 9.15 17.25 10.3 16.35 10.3" style="fill:none;stroke:#000;stroke-width:.01"/><polygon id="polygon78" points="21.9 7.025 23.2 7.025 23.2 6.6 24.5 7.45 23.2 8.3 23.2 7.875 21.9 7.875 21.9 7.025" style="fill:#fff;stroke:none;stroke-width:.1"/><polygon id="polygon80" points="21.9 7.025 23.2 7.025 23.2 6.6 24.5 7.45 23.2 8.3 23.2 7.875 21.9 7.875 21.9 7.025" style="fill:none;stroke:#000;stroke-width:.1"/><polygon id="polygon82" points="21.9 7.025 23.2 7.025 23.2 6.6 24.5 7.45 23.2 8.3 23.2 7.875 21.9 7.875 21.9 7.025" style="fill:none;stroke:#000;stroke-width:.01"/><rect id="rect84" width="8.1" height="2.7" x="20.2" y="10" style="fill:#fff;stroke:none;stroke-width:0"/><rect id="rect86" width="8.1" height="2.7" x="20.2" y="10" style="fill:none;stroke:#000;stroke-width:.1"/><text id="text88" x="20.5" y="10.7" style="font-size:.80000001px;font-style:normal;font-weight:400;text-anchor:start;fill:#000;font-family:sans">e.g. Gimp-Print filters</text><text id="text90" x="20.5" y="11.5" style="font-size:.80000001px;font-style:normal;font-weight:400;text-anchor:start;fill:#000;font-family:sans">may be plugged in here</text><text id="text92" x="20.5" y="12.3" style="font-size:.80000001px;font-style:normal;font-weight:400;text-anchor:start;fill:#000;font-family:sans">(= &quot;raster driver&quot;)</text><text id="text94" x="1.5" y="20.7" style="font-size:.80000001px;font-style:normal;font-weight:400;text-anchor:start;fill:#000;font-family:sans">ESP PrintPro has some enhanced &quot;rastertosomething&quot; filters as compared to</text><text id="text96" x="1.5" y="21.5" style="font-size:.80000001px;font-style:normal;font-weight:400;text-anchor:start;fill:#000;font-family:sans">CUPS, and also a somewhat improved &quot;pstoraster&quot; filter.</text><text id="text98" x="1.6" y="23" style="font-size:.80000001px;font-style:normal;font-weight:400;text-anchor:start;fill:#000;font-family:sans">NOTE: Gimp-Print and some other 3rd-Party-Filters (like TurboPrint) to</text><text id="text100" x="1.6" y="23.8" style="font-size:.80000001px;font-style:normal;font-weight:400;text-anchor:start;fill:#000;font-family:sans">CUPS and ESP PrintPro plug-in where rastertosomething is noted.</text><rect id="rect102" width="10.1" height="4.4" x="18.6" y="15.5" style="fill:#fff;stroke:none;stroke-width:0"/><rect id="rect104" width="10.1" height="4.4" x="18.6" y="15.5" style="fill:none;stroke:#000;stroke-width:.1"/><text id="text106" x="19" y="16.4" style="font-size:.80000001px;font-style:normal;font-weight:400;text-anchor:start;fill:#000;font-family:sans">as shipped with CUPS,</text><text id="text108" x="19" y="17.2" style="font-size:.80000001px;font-style:normal;font-weight:400;text-anchor:start;fill:#000;font-family:sans">independent from any</text><text id="text110" x="19" y="18" style="font-size:.80000001px;font-style:normal;font-weight:400;text-anchor:start;fill:#000;font-family:sans">GhostScript installation on the</text><text id="text112" x="19" y="18.8" style="font-size:.80000001px;font-style:normal;font-weight:400;text-anchor:start;fill:#000;font-family:sans">system</text><text id="text114" x="19" y="19.6" style="font-size:.80000001px;font-style:normal;font-weight:400;text-anchor:start;fill:#000;font-family:sans">(= &quot;postscript interpreter&quot;)</text></svg>