<svg xmlns="http://www.w3.org/2000/svg" xmlns:svg="http://www.w3.org/2000/svg" id="svg2" width="932.863" height="42.34cm" version="1.0" viewBox="0.268 0.758 24.95 43.098"><text id="text4" x="1" y="1.3" style="font-size:.80000001px;font-style:normal;font-weight:400;text-anchor:start;fill:#000;font-family:sans">something-fileformat</text><polygon id="polygon6" points="3.163 1.9 3.163 2.825 2.7 2.825 3.625 3.75 4.55 2.825 4.088 2.825 4.088 1.9 3.163 1.9" style="fill:#fff;stroke:none;stroke-width:.1"/><polygon id="polygon8" points="3.163 1.9 3.163 2.825 2.7 2.825 3.625 3.75 4.55 2.825 4.088 2.825 4.088 1.9 3.163 1.9" style="fill:none;stroke:#000;stroke-width:.1"/><polygon id="polygon10" points="3.163 1.9 3.163 2.825 2.7 2.825 3.625 3.75 4.55 2.825 4.088 2.825 4.088 1.9 3.163 1.9" style="fill:none;stroke:#000;stroke-width:.01"/><text id="text12" x="1.7" y="4.8" style="font-size:.80000001px;font-style:normal;font-weight:400;text-anchor:start;fill:#000;font-family:sans">somethingtops</text><text id="text14" x="1.4" y="8.3" style="font-size:.80000001px;font-style:normal;font-weight:400;text-anchor:start;fill:#000;font-family:sans">application/postscript</text><polygon id="polygon16" points="3.262 5.4 3.262 6.325 2.8 6.325 3.725 7.25 4.65 6.325 4.188 6.325 4.188 5.4 3.262 5.4" style="fill:#fff;stroke:none;stroke-width:.1"/><polygon id="polygon18" points="3.262 5.4 3.262 6.325 2.8 6.325 3.725 7.25 4.65 6.325 4.188 6.325 4.188 5.4 3.262 5.4" style="fill:none;stroke:#000;stroke-width:.1"/><polygon id="polygon20" points="3.262 5.4 3.262 6.325 2.8 6.325 3.725 7.25 4.65 6.325 4.188 6.325 4.188 5.4 3.262 5.4" style="fill:none;stroke:#000;stroke-width:.01"/><text id="text22" x="2.8" y="11.5" style="font-size:.80000001px;font-style:normal;font-weight:400;text-anchor:start;fill:#000;font-family:sans">pstops</text><polygon id="polygon24" points="3.262 8.7 3.262 9.625 2.8 9.625 3.725 10.55 4.65 9.625 4.188 9.625 4.188 8.7 3.262 8.7" style="fill:#fff;stroke:none;stroke-width:.1"/><polygon id="polygon26" points="3.262 8.7 3.262 9.625 2.8 9.625 3.725 10.55 4.65 9.625 4.188 9.625 4.188 8.7 3.262 8.7" style="fill:none;stroke:#000;stroke-width:.1"/><polygon id="polygon28" points="3.262 8.7 3.262 9.625 2.8 9.625 3.725 10.55 4.65 9.625 4.188 9.625 4.188 8.7 3.262 8.7" style="fill:none;stroke:#000;stroke-width:.01"/><polygon id="polygon30" points="3.362 12.1 3.362 13.025 2.9 13.025 3.825 13.95 4.75 13.025 4.287 13.025 4.287 12.1 3.362 12.1" style="fill:#fff;stroke:none;stroke-width:.1"/><polygon id="polygon32" points="3.362 12.1 3.362 13.025 2.9 13.025 3.825 13.95 4.75 13.025 4.287 13.025 4.287 12.1 3.362 12.1" style="fill:none;stroke:#000;stroke-width:.1"/><polygon id="polygon34" points="3.362 12.1 3.362 13.025 2.9 13.025 3.825 13.95 4.75 13.025 4.287 13.025 4.287 12.1 3.362 12.1" style="fill:none;stroke:#000;stroke-width:.01"/><text id="text36" x=".3" y="15" style="font-size:.80000001px;font-style:normal;font-weight:400;text-anchor:start;fill:#000;font-family:sans">application/vnd.cups-postscript</text><polygon id="polygon38" points="10.5 14.275 12 14.275 12 13.8 13.5 14.75 12 15.7 12 15.225 10.5 15.225 10.5 14.275" style="fill:#fff;stroke:none;stroke-width:.1"/><polygon id="polygon40" points="10.5 14.275 12 14.275 12 13.8 13.5 14.75 12 15.7 12 15.225 10.5 15.225 10.5 14.275" style="fill:none;stroke:#000;stroke-width:.1"/><polygon id="polygon42" points="10.5 14.275 12 14.275 12 13.8 13.5 14.75 12 15.7 12 15.225 10.5 15.225 10.5 14.275" style="fill:none;stroke:#000;stroke-width:.01"/><text id="text44" x="14.2" y="14.9" style="font-size:.80000001px;font-style:normal;font-weight:400;text-anchor:start;fill:#000;font-family:sans">cupsomatic</text><rect id="rect46" width="10.5" height="3.8" x="14.4" y="10" style="fill:#fff;stroke:none;stroke-width:0"/><rect id="rect48" width="10.5" height="3.8" x="14.4" y="10" style="fill:none;stroke:#000;stroke-width:.1"/><text id="text50" x="14.9" y="11" style="font-size:.80000001px;font-style:normal;font-weight:400;text-anchor:start;fill:#000;font-family:sans">(constructs complicated</text><text id="text52" x="14.9" y="11.8" style="font-size:.80000001px;font-style:normal;font-weight:400;text-anchor:start;fill:#000;font-family:sans">Ghostscript commandline</text><text id="text54" x="14.9" y="12.6" style="font-size:.80000001px;font-style:normal;font-weight:400;text-anchor:start;fill:#000;font-family:sans">to let the file be processed by a</text><text id="text56" x="14.9" y="13.4" style="font-size:.80000001px;font-style:normal;font-weight:400;text-anchor:start;fill:#000;font-family:sans">&quot;-sDEVICE-s.th.&quot; call...)</text><polygon id="polygon58" points="3.462 15.7 3.462 16.625 3 16.625 3.925 17.55 4.85 16.625 4.388 16.625 4.388 15.7 3.462 15.7" style="fill:#fff;stroke:none;stroke-width:.1"/><polygon id="polygon60" points="3.462 15.7 3.462 16.625 3 16.625 3.925 17.55 4.85 16.625 4.388 16.625 4.388 15.7 3.462 15.7" style="fill:none;stroke:#000;stroke-width:.1"/><polygon id="polygon62" points="3.462 15.7 3.462 16.625 3 16.625 3.925 17.55 4.85 16.625 4.388 16.625 4.388 15.7 3.462 15.7" style="fill:none;stroke:#000;stroke-width:.01"/><text id="text64" x="2.616" y="18.3" style="font-size:.80000001px;font-style:normal;font-weight:400;text-anchor:start;fill:#000;font-family:sans">pstoraster</text><text id="text66" x=".268" y="19.1" style="font-size:.80000001px;font-style:normal;font-weight:400;text-anchor:start;fill:#000;font-family:sans">(= &quot;postscript interpreter&quot;)</text><polygon id="polygon68" points="3.562 19.4 3.562 20.325 3.1 20.325 4.025 21.25 4.95 20.325 4.487 20.325 4.487 19.4 3.562 19.4" style="fill:#fff;stroke:none;stroke-width:.1"/><polygon id="polygon70" points="3.562 19.4 3.562 20.325 3.1 20.325 4.025 21.25 4.95 20.325 4.487 20.325 4.487 19.4 3.562 19.4" style="fill:none;stroke:#000;stroke-width:.1"/><polygon id="polygon72" points="3.562 19.4 3.562 20.325 3.1 20.325 4.025 21.25 4.95 20.325 4.487 20.325 4.487 19.4 3.562 19.4" style="fill:none;stroke:#000;stroke-width:.01"/><text id="text74" x=".8" y="22.3" style="font-size:.80000001px;font-style:normal;font-weight:400;text-anchor:start;fill:#000;font-family:sans">application/vnd.cups-raster</text><polygon id="polygon76" points="3.663 23 3.663 23.925 3.2 23.925 4.125 24.85 5.05 23.925 4.588 23.925 4.588 23 3.663 23" style="fill:#fff;stroke:none;stroke-width:.1"/><polygon id="polygon78" points="3.663 23 3.663 23.925 3.2 23.925 4.125 24.85 5.05 23.925 4.588 23.925 4.588 23 3.663 23" style="fill:none;stroke:#000;stroke-width:.1"/><polygon id="polygon80" points="3.663 23 3.663 23.925 3.2 23.925 4.125 24.85 5.05 23.925 4.588 23.925 4.588 23 3.663 23" style="fill:none;stroke:#000;stroke-width:.01"/><text id="text82" x="1.7" y="25.5" style="font-size:.80000001px;font-style:normal;font-weight:400;text-anchor:start;fill:#000;font-family:sans">rastertosomething</text><text id="text84" x="1.7" y="26.3" style="font-size:.80000001px;font-style:normal;font-weight:400;text-anchor:start;fill:#000;font-family:sans">(= &quot;raster driver&quot;)</text><polygon id="polygon86" points="16.915 16.1 16.915 17.129 16.4 17.129 17.429 18.159 18.459 17.129 17.944 17.129 17.944 16.1 16.915 16.1" style="fill:#fff;stroke:none;stroke-width:.1"/><polygon id="polygon88" points="16.915 16.1 16.915 17.129 16.4 17.129 17.429 18.159 18.459 17.129 17.944 17.129 17.944 16.1 16.915 16.1" style="fill:none;stroke:#000;stroke-width:.1"/><polygon id="polygon90" points="16.915 16.1 16.915 17.129 16.4 17.129 17.429 18.159 18.459 17.129 17.944 17.129 17.944 16.1 16.915 16.1" style="fill:none;stroke:#000;stroke-width:.01"/><polygon id="polygon92" points="3.762 26.8 3.762 27.725 3.3 27.725 4.225 28.65 5.15 27.725 4.688 27.725 4.688 26.8 3.762 26.8" style="fill:#fff;stroke:none;stroke-width:.1"/><polygon id="polygon94" points="3.762 26.8 3.762 27.725 3.3 27.725 4.225 28.65 5.15 27.725 4.688 27.725 4.688 26.8 3.762 26.8" style="fill:none;stroke:#000;stroke-width:.1"/><polygon id="polygon96" points="3.762 26.8 3.762 27.725 3.3 27.725 4.225 28.65 5.15 27.725 4.688 27.725 4.688 26.8 3.762 26.8" style="fill:none;stroke:#000;stroke-width:.01"/><text id="text98" x="1" y="29.6" style="font-size:.80000001px;font-style:normal;font-weight:400;text-anchor:start;fill:#000;font-family:sans">something device specific</text><polygon id="polygon100" points="3.762 30.3 3.762 31.225 3.3 31.225 4.225 32.15 5.15 31.225 4.688 31.225 4.688 30.3 3.762 30.3" style="fill:#fff;stroke:none;stroke-width:.1"/><polygon id="polygon102" points="3.762 30.3 3.762 31.225 3.3 31.225 4.225 32.15 5.15 31.225 4.688 31.225 4.688 30.3 3.762 30.3" style="fill:none;stroke:#000;stroke-width:.1"/><polygon id="polygon104" points="3.762 30.3 3.762 31.225 3.3 31.225 4.225 32.15 5.15 31.225 4.688 31.225 4.688 30.3 3.762 30.3" style="fill:none;stroke:#000;stroke-width:.01"/><text id="text106" x="3.2" y="33.3" style="font-size:.80000001px;font-style:normal;font-weight:400;text-anchor:start;fill:#000;font-family:sans">backend</text><polygon id="polygon108" points="11.65 32.413 10.625 32.413 10.625 31.9 9.6 32.925 10.625 33.95 10.625 33.438 11.65 33.438 11.65 32.413" style="fill:#fff;stroke:none;stroke-width:.1"/><polygon id="polygon110" points="11.65 32.413 10.625 32.413 10.625 31.9 9.6 32.925 10.625 33.95 10.625 33.438 11.65 33.438 11.65 32.413" style="fill:none;stroke:#000;stroke-width:.1"/><polygon id="polygon112" points="11.65 32.413 10.625 32.413 10.625 31.9 9.6 32.925 10.625 33.95 10.625 33.438 11.65 33.438 11.65 32.413" style="fill:none;stroke:#000;stroke-width:.01"/><rect id="rect114" width="7.5" height="14.3" x="14.6" y="19.4" style="fill:#fff;stroke:none;stroke-width:0"/><rect id="rect116" width="7.5" height="14.3" x="14.6" y="19.4" style="fill:none;stroke:#000;stroke-width:.1"/><text id="text118" x="15.28" y="26.6" style="font-size:.80000001px;font-style:normal;font-weight:400;text-anchor:start;fill:#000;font-family:sans">Ghostscript at work....</text><text id="text120" x="1.2" y="35.5" style="font-size:.80000001px;font-style:normal;font-weight:400;text-anchor:start;fill:#000;font-family:sans">Note, that cupsomatic &quot;kidnaps&quot; the printfile after the</text><text id="text122" x="1.2" y="36.3" style="font-size:.80000001px;font-style:normal;font-weight:400;text-anchor:start;fill:#000;font-family:sans">application/vnd.cups-postscript stage and deviates it gh</text><text id="text124" x="1.2" y="37.1" style="font-size:.80000001px;font-style:normal;font-weight:400;text-anchor:start;fill:#000;font-family:sans">the CUPS-external, systemwide Ghostscript installation, bypassing the</text><text id="text126" x="1.2" y="37.9" style="font-size:.80000001px;font-style:normal;font-weight:400;text-anchor:start;fill:#000;font-family:sans">&quot;pstoraster&quot; filter (therefore also bypassing the CUPS-raster-drivers</text><text id="text128" x="1.2" y="38.7" style="font-size:.80000001px;font-style:normal;font-weight:400;text-anchor:start;fill:#000;font-family:sans">&quot;rastertosomething&quot;, and hands the rasterized file directly to the CUPS</text><text id="text130" x="1.2" y="39.5" style="font-size:.80000001px;font-style:normal;font-weight:400;text-anchor:start;fill:#000;font-family:sans">backend...</text><text id="text132" x="1.2" y="41.1" style="font-size:.80000001px;font-style:normal;font-weight:400;text-anchor:start;fill:#000;font-family:sans">cupsomatic is not made by the CUPS developers. It is an independent</text><text id="text134" x="1.2" y="41.9" style="font-size:.80000001px;font-style:normal;font-weight:400;text-anchor:start;fill:#000;font-family:sans">contribution to printing development, made by people from</text><text id="text136" x="1.2" y="42.7" style="font-size:.80000001px;font-style:normal;font-weight:400;text-anchor:start;fill:#000;font-family:sans">Linuxprinting.org. (see also http://www.cups.org/cups-help.html)</text></svg>