<svg xmlns="http://www.w3.org/2000/svg" xmlns:svg="http://www.w3.org/2000/svg" id="svg2" width="30cm" height="724.271" version="1.0" viewBox="0.15 0.887 30.15 20.05"><ellipse id="ellipse4" cx="15.15" cy="11.2" rx="14.95" ry="8.8" style="fill:none;stroke:#000;stroke-width:.1"/><rect id="rect6" width="2.183" height="6.55" x="8.2" y="3.9" style="fill:#d9d9cd;stroke:none;stroke-width:0"/><rect id="rect8" width="2.183" height="6.55" x="8.2" y="3.9" style="fill:none;stroke:#000;stroke-width:.1"/><rect id="rect10" width="2.183" height="6.55" x="8.2" y="3.9" style="fill:none;stroke:#000;stroke-width:.01"/><rect id="rect12" width="1.747" height="2.62" x="8.418" y="4.118" style="fill:#d9d9cd;stroke:none;stroke-width:0"/><rect id="rect14" width="1.747" height="2.62" x="8.418" y="4.118" style="fill:none;stroke:#000;stroke-width:.1"/><rect id="rect16" width="1.747" height="2.62" x="8.418" y="4.118" style="fill:none;stroke:#000;stroke-width:.01"/><line id="line18" x1="8.418" x2="10.165" y1="4.555" y2="4.555" stroke="#000" stroke-width=".01" style="stroke:#000;stroke-width:.01"/><line id="line20" x1="10.165" x2="8.418" y1="4.992" y2="4.992" stroke="#000" stroke-width=".01" style="stroke:#000;stroke-width:.01"/><line id="line22" x1="8.418" x2="10.165" y1="5.428" y2="5.428" stroke="#000" stroke-width=".01" style="stroke:#000;stroke-width:.01"/><line id="line24" x1="8.418" x2="10.165" y1="5.865" y2="5.865" stroke="#000" stroke-width=".01" style="stroke:#000;stroke-width:.01"/><line id="line26" x1="10.165" x2="8.418" y1="6.302" y2="6.302" stroke="#000" stroke-width=".01" style="stroke:#000;stroke-width:.01"/><rect id="rect28" width="1.201" height=".655" x="8.418" y="6.957" style="fill:#d9d9cd;stroke:none;stroke-width:0"/><rect id="rect30" width="1.201" height=".655" x="8.418" y="6.957" style="fill:none;stroke:#000;stroke-width:.1"/><rect id="rect32" width="1.201" height=".655" x="8.418" y="6.957" style="fill:none;stroke:#000;stroke-width:.01"/><line id="line34" x1="8.2" x2="10.383" y1="8.048" y2="8.048" stroke="#000" stroke-width=".01" style="stroke:#000;stroke-width:.01"/><rect id="rect36" width=".109" height=".109" x="9.182" y="8.267" style="fill:#00cd00;stroke:none;stroke-width:0"/><rect id="rect38" width=".109" height=".109" x="9.182" y="8.267" style="fill:none;stroke:#000;stroke-width:.1"/><rect id="rect40" width=".109" height=".109" x="9.182" y="8.267" style="fill:none;stroke:#000;stroke-width:.01"/><rect id="rect42" width=".109" height=".109" x="9.619" y="8.267" style="fill:#cdcd00;stroke:none;stroke-width:0"/><rect id="rect44" width=".109" height=".109" x="9.619" y="8.267" style="fill:none;stroke:#000;stroke-width:.1"/><rect id="rect46" width=".109" height=".109" x="9.619" y="8.267" style="fill:none;stroke:#000;stroke-width:.01"/><rect id="rect48" width=".109" height=".109" x="10.056" y="8.267" style="fill:#cd0000;stroke:none;stroke-width:0"/><rect id="rect50" width=".109" height=".109" x="10.056" y="8.267" style="fill:none;stroke:#000;stroke-width:.1"/><rect id="rect52" width=".109" height=".109" x="10.056" y="8.267" style="fill:none;stroke:#000;stroke-width:.01"/><rect id="rect54" width=".218" height=".218" x="9.947" y="7.612" style="fill:#cdcdbd;stroke:none;stroke-width:0"/><rect id="rect56" width=".218" height=".218" x="9.947" y="7.612" style="fill:none;stroke:#000;stroke-width:.1"/><rect id="rect58" width=".218" height=".218" x="9.947" y="7.612" style="fill:none;stroke:#000;stroke-width:.01"/><line id="line60" x1="8.418" x2="9.619" y1="7.284" y2="7.284" stroke="#000" stroke-width=".01" style="stroke:#000;stroke-width:.01"/><rect id="rect62" width=".328" height=".328" x="8.418" y="8.157" style="fill:#cdcdbd;stroke:none;stroke-width:0"/><rect id="rect64" width=".328" height=".328" x="8.418" y="8.157" style="fill:none;stroke:#000;stroke-width:.1"/><rect id="rect66" width=".328" height=".328" x="8.418" y="8.157" style="fill:none;stroke:#000;stroke-width:.01"/><rect id="rect68" width="1.528" height=".109" x="8.527" y="6.411" style="fill:#cdcdc1;stroke:none;stroke-width:0"/><rect id="rect70" width="1.528" height=".109" x="8.527" y="6.411" style="fill:none;stroke:#000;stroke-width:.1"/><rect id="rect72" width="1.528" height=".109" x="8.527" y="6.411" style="fill:none;stroke:#000;stroke-width:.01"/><line id="line74" x1="8.527" x2="9.51" y1="7.066" y2="7.066" stroke="#000" stroke-width=".01" style="stroke:#000;stroke-width:.01"/><line id="line76" x1="9.51" x2="9.401" y1="7.175" y2="7.175" stroke="#000" stroke-width=".01" style="stroke:#000;stroke-width:.01"/><line id="line78" x1="8.527" x2="8.637" y1="7.175" y2="7.175" stroke="#000" stroke-width=".01" style="stroke:#000;stroke-width:.01"/><rect id="rect80" width=".546" height=".109" x="8.746" y="7.066" style="fill:#cdcdc1;stroke:none;stroke-width:0"/><rect id="rect82" width=".546" height=".109" x="8.746" y="7.066" style="fill:none;stroke:#000;stroke-width:.1"/><rect id="rect84" width=".546" height=".109" x="8.746" y="7.066" style="fill:none;stroke:#000;stroke-width:.01"/><line id="line86" x1="8.527" x2="8.637" y1="6.629" y2="6.629" stroke="#000" stroke-width=".01" style="stroke:#000;stroke-width:.01"/><line id="line88" x1="8.746" x2="8.855" y1="6.629" y2="6.629" stroke="#000" stroke-width=".01" style="stroke:#000;stroke-width:.01"/><line id="line90" x1="9.837" x2="10.056" y1="6.629" y2="6.629" stroke="#000" stroke-width=".01" style="stroke:#000;stroke-width:.01"/><line id="line92" x1="8.309" x2="10.274" y1="10.341" y2="10.341" stroke="#000" stroke-width=".01" style="stroke:#000;stroke-width:.01"/><line id="line94" x1="10.274" x2="8.309" y1="10.232" y2="10.232" stroke="#000" stroke-width=".01" style="stroke:#000;stroke-width:.01"/><line id="line96" x1="8.309" x2="10.274" y1="10.123" y2="10.123" stroke="#000" stroke-width=".01" style="stroke:#000;stroke-width:.01"/><line id="line98" x1="10.274" x2="8.309" y1="10.013" y2="10.013" stroke="#000" stroke-width=".01" style="stroke:#000;stroke-width:.01"/><line id="line100" x1="8.309" x2="10.274" y1="9.904" y2="9.904" stroke="#000" stroke-width=".01" style="stroke:#000;stroke-width:.01"/><line id="line102" x1="10.274" x2="8.309" y1="9.795" y2="9.795" stroke="#000" stroke-width=".01" style="stroke:#000;stroke-width:.01"/><line id="line104" x1="8.309" x2="10.274" y1="9.686" y2="9.686" stroke="#000" stroke-width=".01" style="stroke:#000;stroke-width:.01"/><line id="line106" x1="10.274" x2="8.309" y1="9.577" y2="9.577" stroke="#000" stroke-width=".01" style="stroke:#000;stroke-width:.01"/><line id="line108" x1="8.309" x2="10.274" y1="9.467" y2="9.467" stroke="#000" stroke-width=".01" style="stroke:#000;stroke-width:.01"/><line id="line110" x1="10.274" x2="8.309" y1="9.358" y2="9.358" stroke="#000" stroke-width=".01" style="stroke:#000;stroke-width:.01"/><line id="line112" x1="8.309" x2="10.274" y1="9.249" y2="9.249" stroke="#000" stroke-width=".01" style="stroke:#000;stroke-width:.01"/><line id="line114" x1="10.274" x2="8.309" y1="9.14" y2="9.14" stroke="#000" stroke-width=".01" style="stroke:#000;stroke-width:.01"/><line id="line116" x1="8.309" x2="10.274" y1="9.031" y2="9.031" stroke="#000" stroke-width=".01" style="stroke:#000;stroke-width:.01"/><line id="line118" x1="10.274" x2="8.309" y1="8.922" y2="8.922" stroke="#000" stroke-width=".01" style="stroke:#000;stroke-width:.01"/><text id="text120" x="4.9" y="5.7" style="font-size:.80000001px;font-style:normal;font-weight:400;text-anchor:start;fill:#000;font-family:sans">Primary</text><text id="text122" x="4.9" y="6.5" style="font-size:.80000001px;font-style:normal;font-weight:400;text-anchor:start;fill:#000;font-family:sans">Domain</text><text id="text124" x="4.9" y="7.3" style="font-size:.80000001px;font-style:normal;font-weight:400;text-anchor:start;fill:#000;font-family:sans">Controller</text><rect id="rect126" width="2.636" height="5.271" x="1.7" y="9.1" style="fill:#d9d9cd;stroke:none;stroke-width:0"/><rect id="rect128" width="2.636" height="5.271" x="1.7" y="9.1" style="fill:none;stroke:#000;stroke-width:.1"/><rect id="rect130" width="2.636" height="5.271" x="1.7" y="9.1" style="fill:none;stroke:#000;stroke-width:.01"/><rect id="rect132" width="2.108" height="2.108" x="1.964" y="9.364" style="fill:#d9d9cd;stroke:none;stroke-width:0"/><rect id="rect134" width="2.108" height="2.108" x="1.964" y="9.364" style="fill:none;stroke:#000;stroke-width:.1"/><rect id="rect136" width="2.108" height="2.108" x="1.964" y="9.364" style="fill:none;stroke:#000;stroke-width:.01"/><line id="line138" x1="4.072" x2="1.964" y1="9.891" y2="9.891" stroke="#000" stroke-width=".01" style="stroke:#000;stroke-width:.01"/><line id="line140" x1="1.964" x2="4.072" y1="10.418" y2="10.418" stroke="#000" stroke-width=".01" style="stroke:#000;stroke-width:.01"/><line id="line142" x1="4.072" x2="1.964" y1="10.813" y2="10.813" stroke="#000" stroke-width=".01" style="stroke:#000;stroke-width:.01"/><rect id="rect144" width="1.45" height=".791" x="1.964" y="11.736" style="fill:#d9d9cd;stroke:none;stroke-width:0"/><rect id="rect146" width="1.45" height=".791" x="1.964" y="11.736" style="fill:none;stroke:#000;stroke-width:.1"/><rect id="rect148" width="1.45" height=".791" x="1.964" y="11.736" style="fill:none;stroke:#000;stroke-width:.01"/><line id="line150" x1="1.7" x2="4.336" y1="12.658" y2="12.658" stroke="#000" stroke-width=".01" style="stroke:#000;stroke-width:.01"/><rect id="rect152" width=".132" height=".132" x="2.886" y="12.922" style="fill:#00cd00;stroke:none;stroke-width:0"/><rect id="rect154" width=".132" height=".132" x="2.886" y="12.922" style="fill:none;stroke:#000;stroke-width:.1"/><rect id="rect156" width=".132" height=".132" x="2.886" y="12.922" style="fill:none;stroke:#000;stroke-width:.01"/><rect id="rect158" width=".132" height=".132" x="3.413" y="12.922" style="fill:#cdcd00;stroke:none;stroke-width:0"/><rect id="rect160" width=".132" height=".132" x="3.413" y="12.922" style="fill:none;stroke:#000;stroke-width:.1"/><rect id="rect162" width=".132" height=".132" x="3.413" y="12.922" style="fill:none;stroke:#000;stroke-width:.01"/><rect id="rect164" width=".132" height=".132" x="3.94" y="12.922" style="fill:#cd0000;stroke:none;stroke-width:0"/><rect id="rect166" width=".132" height=".132" x="3.94" y="12.922" style="fill:none;stroke:#000;stroke-width:.1"/><rect id="rect168" width=".132" height=".132" x="3.94" y="12.922" style="fill:none;stroke:#000;stroke-width:.01"/><rect id="rect170" width=".264" height=".132" x="3.808" y="12.131" style="fill:#cdcdbd;stroke:none;stroke-width:0"/><rect id="rect172" width=".264" height=".132" x="3.808" y="12.131" style="fill:none;stroke:#000;stroke-width:.1"/><rect id="rect174" width=".264" height=".132" x="3.808" y="12.131" style="fill:none;stroke:#000;stroke-width:.01"/><line id="line176" x1="1.964" x2="3.413" y1="12.131" y2="12.131" stroke="#000" stroke-width=".01" style="stroke:#000;stroke-width:.01"/><rect id="rect178" width=".395" height=".395" x="1.964" y="12.79" style="fill:#cdcdbd;stroke:none;stroke-width:0"/><rect id="rect180" width=".395" height=".395" x="1.964" y="12.79" style="fill:none;stroke:#000;stroke-width:.1"/><rect id="rect182" width=".395" height=".395" x="1.964" y="12.79" style="fill:none;stroke:#000;stroke-width:.01"/><rect id="rect184" width="1.845" height=".132" x="2.095" y="10.945" style="fill:#cdcdc1;stroke:none;stroke-width:0"/><rect id="rect186" width="1.845" height=".132" x="2.095" y="10.945" style="fill:none;stroke:#000;stroke-width:.1"/><rect id="rect188" width="1.845" height=".132" x="2.095" y="10.945" style="fill:none;stroke:#000;stroke-width:.01"/><line id="line190" x1="2.095" x2="3.281" y1="11.867" y2="11.867" stroke="#000" stroke-width=".01" style="stroke:#000;stroke-width:.01"/><line id="line192" x1="3.281" x2="3.15" y1="11.999" y2="11.999" stroke="#000" stroke-width=".01" style="stroke:#000;stroke-width:.01"/><line id="line194" x1="2.095" x2="2.227" y1="11.999" y2="11.999" stroke="#000" stroke-width=".01" style="stroke:#000;stroke-width:.01"/><rect id="rect196" width=".659" height=".132" x="2.359" y="11.867" style="fill:#cdcdc1;stroke:none;stroke-width:0"/><rect id="rect198" width=".659" height=".132" x="2.359" y="11.867" style="fill:none;stroke:#000;stroke-width:.1"/><rect id="rect200" width=".659" height=".132" x="2.359" y="11.867" style="fill:none;stroke:#000;stroke-width:.01"/><line id="line202" x1="2.095" x2="2.227" y1="11.208" y2="11.208" stroke="#000" stroke-width=".01" style="stroke:#000;stroke-width:.01"/><line id="line204" x1="2.359" x2="2.491" y1="11.208" y2="11.208" stroke="#000" stroke-width=".01" style="stroke:#000;stroke-width:.01"/><line id="line206" x1="3.677" x2="3.94" y1="11.208" y2="11.208" stroke="#000" stroke-width=".01" style="stroke:#000;stroke-width:.01"/><line id="line208" x1="4.204" x2="1.832" y1="14.239" y2="14.239" stroke="#000" stroke-width=".01" style="stroke:#000;stroke-width:.01"/><line id="line210" x1="1.832" x2="4.204" y1="14.108" y2="14.108" stroke="#000" stroke-width=".01" style="stroke:#000;stroke-width:.01"/><line id="line212" x1="4.204" x2="1.832" y1="13.976" y2="13.976" stroke="#000" stroke-width=".01" style="stroke:#000;stroke-width:.01"/><line id="line214" x1="1.832" x2="4.204" y1="13.844" y2="13.844" stroke="#000" stroke-width=".01" style="stroke:#000;stroke-width:.01"/><line id="line216" x1="4.204" x2="1.832" y1="13.712" y2="13.712" stroke="#000" stroke-width=".01" style="stroke:#000;stroke-width:.01"/><line id="line218" x1="1.832" x2="4.204" y1="13.58" y2="13.58" stroke="#000" stroke-width=".01" style="stroke:#000;stroke-width:.01"/><line id="line220" x1="4.204" x2="1.832" y1="13.449" y2="13.449" stroke="#000" stroke-width=".01" style="stroke:#000;stroke-width:.01"/><text id="text222" x="3.5" y="15.5" style="font-size:.80000001px;font-style:normal;font-weight:400;text-anchor:start;fill:#000;font-family:sans">Backup Domain</text><text id="text224" x="3.5" y="16.3" style="font-size:.80000001px;font-style:normal;font-weight:400;text-anchor:start;fill:#000;font-family:sans">Controller 1</text><rect id="rect226" width="2.636" height="5.271" x="13.6" y="13.5" style="fill:#d9d9cd;stroke:none;stroke-width:0"/><rect id="rect228" width="2.636" height="5.271" x="13.6" y="13.5" style="fill:none;stroke:#000;stroke-width:.1"/><rect id="rect230" width="2.636" height="5.271" x="13.6" y="13.5" style="fill:none;stroke:#000;stroke-width:.01"/><rect id="rect232" width="2.108" height="2.108" x="13.864" y="13.764" style="fill:#d9d9cd;stroke:none;stroke-width:0"/><rect id="rect234" width="2.108" height="2.108" x="13.864" y="13.764" style="fill:none;stroke:#000;stroke-width:.1"/><rect id="rect236" width="2.108" height="2.108" x="13.864" y="13.764" style="fill:none;stroke:#000;stroke-width:.01"/><line id="line238" x1="15.972" x2="13.864" y1="14.291" y2="14.291" stroke="#000" stroke-width=".01" style="stroke:#000;stroke-width:.01"/><line id="line240" x1="13.864" x2="15.972" y1="14.818" y2="14.818" stroke="#000" stroke-width=".01" style="stroke:#000;stroke-width:.01"/><line id="line242" x1="15.972" x2="13.864" y1="15.213" y2="15.213" stroke="#000" stroke-width=".01" style="stroke:#000;stroke-width:.01"/><rect id="rect244" width="1.45" height=".791" x="13.864" y="16.136" style="fill:#d9d9cd;stroke:none;stroke-width:0"/><rect id="rect246" width="1.45" height=".791" x="13.864" y="16.136" style="fill:none;stroke:#000;stroke-width:.1"/><rect id="rect248" width="1.45" height=".791" x="13.864" y="16.136" style="fill:none;stroke:#000;stroke-width:.01"/><line id="line250" x1="13.6" x2="16.236" y1="17.058" y2="17.058" stroke="#000" stroke-width=".01" style="stroke:#000;stroke-width:.01"/><rect id="rect252" width=".132" height=".132" x="14.786" y="17.322" style="fill:#00cd00;stroke:none;stroke-width:0"/><rect id="rect254" width=".132" height=".132" x="14.786" y="17.322" style="fill:none;stroke:#000;stroke-width:.1"/><rect id="rect256" width=".132" height=".132" x="14.786" y="17.322" style="fill:none;stroke:#000;stroke-width:.01"/><rect id="rect258" width=".132" height=".132" x="15.313" y="17.322" style="fill:#cdcd00;stroke:none;stroke-width:0"/><rect id="rect260" width=".132" height=".132" x="15.313" y="17.322" style="fill:none;stroke:#000;stroke-width:.1"/><rect id="rect262" width=".132" height=".132" x="15.313" y="17.322" style="fill:none;stroke:#000;stroke-width:.01"/><rect id="rect264" width=".132" height=".132" x="15.84" y="17.322" style="fill:#cd0000;stroke:none;stroke-width:0"/><rect id="rect266" width=".132" height=".132" x="15.84" y="17.322" style="fill:none;stroke:#000;stroke-width:.1"/><rect id="rect268" width=".132" height=".132" x="15.84" y="17.322" style="fill:none;stroke:#000;stroke-width:.01"/><rect id="rect270" width=".264" height=".132" x="15.708" y="16.531" style="fill:#cdcdbd;stroke:none;stroke-width:0"/><rect id="rect272" width=".264" height=".132" x="15.708" y="16.531" style="fill:none;stroke:#000;stroke-width:.1"/><rect id="rect274" width=".264" height=".132" x="15.708" y="16.531" style="fill:none;stroke:#000;stroke-width:.01"/><line id="line276" x1="13.864" x2="15.313" y1="16.531" y2="16.531" stroke="#000" stroke-width=".01" style="stroke:#000;stroke-width:.01"/><rect id="rect278" width=".395" height=".395" x="13.864" y="17.19" style="fill:#cdcdbd;stroke:none;stroke-width:0"/><rect id="rect280" width=".395" height=".395" x="13.864" y="17.19" style="fill:none;stroke:#000;stroke-width:.1"/><rect id="rect282" width=".395" height=".395" x="13.864" y="17.19" style="fill:none;stroke:#000;stroke-width:.01"/><rect id="rect284" width="1.845" height=".132" x="13.995" y="15.345" style="fill:#cdcdc1;stroke:none;stroke-width:0"/><rect id="rect286" width="1.845" height=".132" x="13.995" y="15.345" style="fill:none;stroke:#000;stroke-width:.1"/><rect id="rect288" width="1.845" height=".132" x="13.995" y="15.345" style="fill:none;stroke:#000;stroke-width:.01"/><line id="line290" x1="13.995" x2="15.181" y1="16.267" y2="16.267" stroke="#000" stroke-width=".01" style="stroke:#000;stroke-width:.01"/><line id="line292" x1="15.181" x2="15.05" y1="16.399" y2="16.399" stroke="#000" stroke-width=".01" style="stroke:#000;stroke-width:.01"/><line id="line294" x1="13.995" x2="14.127" y1="16.399" y2="16.399" stroke="#000" stroke-width=".01" style="stroke:#000;stroke-width:.01"/><rect id="rect296" width=".659" height=".132" x="14.259" y="16.267" style="fill:#cdcdc1;stroke:none;stroke-width:0"/><rect id="rect298" width=".659" height=".132" x="14.259" y="16.267" style="fill:none;stroke:#000;stroke-width:.1"/><rect id="rect300" width=".659" height=".132" x="14.259" y="16.267" style="fill:none;stroke:#000;stroke-width:.01"/><line id="line302" x1="13.995" x2="14.127" y1="15.608" y2="15.608" stroke="#000" stroke-width=".01" style="stroke:#000;stroke-width:.01"/><line id="line304" x1="14.259" x2="14.391" y1="15.608" y2="15.608" stroke="#000" stroke-width=".01" style="stroke:#000;stroke-width:.01"/><line id="line306" x1="15.577" x2="15.84" y1="15.608" y2="15.608" stroke="#000" stroke-width=".01" style="stroke:#000;stroke-width:.01"/><line id="line308" x1="16.104" x2="13.732" y1="18.639" y2="18.639" stroke="#000" stroke-width=".01" style="stroke:#000;stroke-width:.01"/><line id="line310" x1="13.732" x2="16.104" y1="18.508" y2="18.508" stroke="#000" stroke-width=".01" style="stroke:#000;stroke-width:.01"/><line id="line312" x1="16.104" x2="13.732" y1="18.376" y2="18.376" stroke="#000" stroke-width=".01" style="stroke:#000;stroke-width:.01"/><line id="line314" x1="13.732" x2="16.104" y1="18.244" y2="18.244" stroke="#000" stroke-width=".01" style="stroke:#000;stroke-width:.01"/><line id="line316" x1="16.104" x2="13.732" y1="18.112" y2="18.112" stroke="#000" stroke-width=".01" style="stroke:#000;stroke-width:.01"/><line id="line318" x1="13.732" x2="16.104" y1="17.98" y2="17.98" stroke="#000" stroke-width=".01" style="stroke:#000;stroke-width:.01"/><line id="line320" x1="16.104" x2="13.732" y1="17.849" y2="17.849" stroke="#000" stroke-width=".01" style="stroke:#000;stroke-width:.01"/><text id="text322" x="16.9" y="14.7" style="font-size:.80000001px;font-style:normal;font-weight:400;text-anchor:start;fill:#000;font-family:sans">Backup Domain</text><text id="text324" x="16.9" y="15.5" style="font-size:.80000001px;font-style:normal;font-weight:400;text-anchor:start;fill:#000;font-family:sans">Controller 2</text><polyline id="polyline326" fill="none" stroke="#000" stroke-width=".1" points="4.336 11.736 4.336 12 9.292 12 9.292 10.45" style="fill:none;stroke:#000;stroke-width:.1"/><polyline id="polyline328" fill="none" stroke="#000" stroke-width=".1" points="14.918 13.5 14.918 11.975 9.292 11.975 9.292 10.45" style="fill:none;stroke:#000;stroke-width:.1"/><rect id="rect330" width="5.3" height="1.767" x="17.4" y="4.9" style="fill:#d9d9cd;stroke:none;stroke-width:0"/><rect id="rect332" width="5.3" height="1.767" x="17.4" y="4.9" style="fill:none;stroke:#000;stroke-width:.1"/><rect id="rect334" width="5.3" height="1.767" x="17.4" y="4.9" style="fill:none;stroke:#000;stroke-width:.01"/><rect id="rect336" width="2.019" height="1.01" x="20.555" y="5.405" style="fill:#d9d9cd;stroke:none;stroke-width:0"/><rect id="rect338" width="2.019" height="1.01" x="20.555" y="5.405" style="fill:none;stroke:#000;stroke-width:.1"/><rect id="rect340" width="2.019" height="1.01" x="20.555" y="5.405" style="fill:none;stroke:#000;stroke-width:.01"/><line id="line342" x1="22.574" x2="20.555" y1="5.91" y2="5.91" stroke="#000" stroke-width=".01" style="stroke:#000;stroke-width:.01"/><rect id="rect344" width=".379" height="1.388" x="20.05" y="5.026" style="fill:#d9d9cd;stroke:none;stroke-width:0"/><rect id="rect346" width=".379" height="1.388" x="20.05" y="5.026" style="fill:none;stroke:#000;stroke-width:.1"/><rect id="rect348" width=".379" height="1.388" x="20.05" y="5.026" style="fill:none;stroke:#000;stroke-width:.01"/><rect id="rect350" width=".126" height=".126" x="18.662" y="5.152" style="fill:#00cd00;stroke:none;stroke-width:0"/><rect id="rect352" width=".126" height=".126" x="18.662" y="5.152" style="fill:none;stroke:#000;stroke-width:.1"/><rect id="rect354" width=".126" height=".126" x="18.662" y="5.152" style="fill:none;stroke:#000;stroke-width:.01"/><rect id="rect356" width=".126" height=".126" x="18.914" y="5.152" style="fill:#cdcd00;stroke:none;stroke-width:0"/><rect id="rect358" width=".126" height=".126" x="18.914" y="5.152" style="fill:none;stroke:#000;stroke-width:.1"/><rect id="rect360" width=".126" height=".126" x="18.914" y="5.152" style="fill:none;stroke:#000;stroke-width:.01"/><rect id="rect362" width=".126" height=".126" x="19.167" y="5.152" style="fill:#cd0000;stroke:none;stroke-width:0"/><rect id="rect364" width=".126" height=".126" x="19.167" y="5.152" style="fill:none;stroke:#000;stroke-width:.1"/><rect id="rect366" width=".126" height=".126" x="19.167" y="5.152" style="fill:none;stroke:#000;stroke-width:.01"/><rect id="rect368" width=".252" height=".252" x="19.545" y="5.026" style="fill:#cdcdbd;stroke:none;stroke-width:0"/><rect id="rect370" width=".252" height=".252" x="19.545" y="5.026" style="fill:none;stroke:#000;stroke-width:.1"/><rect id="rect372" width=".252" height=".252" x="19.545" y="5.026" style="fill:none;stroke:#000;stroke-width:.01"/><rect id="rect374" width=".379" height=".379" x="17.652" y="5.026" style="fill:#cdcdbd;stroke:none;stroke-width:0"/><rect id="rect376" width=".379" height=".379" x="17.652" y="5.026" style="fill:none;stroke:#000;stroke-width:.1"/><rect id="rect378" width=".379" height=".379" x="17.652" y="5.026" style="fill:none;stroke:#000;stroke-width:.01"/><rect id="rect380" width="1.767" height=".126" x="20.681" y="6.036" style="fill:#cdcdc1;stroke:none;stroke-width:0"/><rect id="rect382" width="1.767" height=".126" x="20.681" y="6.036" style="fill:none;stroke:#000;stroke-width:.1"/><rect id="rect384" width="1.767" height=".126" x="20.681" y="6.036" style="fill:none;stroke:#000;stroke-width:.01"/><line id="line386" x1="20.176" x2="20.176" y1="5.152" y2="6.288" stroke="#000" stroke-width=".01" style="stroke:#000;stroke-width:.01"/><rect id="rect388" width=".126" height=".631" x="20.176" y="5.405" style="fill:#cdcdc1;stroke:none;stroke-width:0"/><rect id="rect390" width=".126" height=".631" x="20.176" y="5.405" style="fill:none;stroke:#000;stroke-width:.1"/><rect id="rect392" width=".126" height=".631" x="20.176" y="5.405" style="fill:none;stroke:#000;stroke-width:.01"/><line id="line394" x1="22.195" x2="22.448" y1="6.288" y2="6.288" stroke="#000" stroke-width=".01" style="stroke:#000;stroke-width:.01"/><line id="line396" x1="17.526" x2="19.798" y1="5.783" y2="5.783" stroke="#000" stroke-width=".01" style="stroke:#000;stroke-width:.01"/><line id="line398" x1="19.798" x2="17.526" y1="5.91" y2="5.91" stroke="#000" stroke-width=".01" style="stroke:#000;stroke-width:.01"/><line id="line400" x1="17.526" x2="19.798" y1="6.036" y2="6.036" stroke="#000" stroke-width=".01" style="stroke:#000;stroke-width:.01"/><line id="line402" x1="19.798" x2="17.526" y1="6.414" y2="6.414" stroke="#000" stroke-width=".01" style="stroke:#000;stroke-width:.01"/><line id="line404" x1="17.526" x2="19.798" y1="6.288" y2="6.288" stroke="#000" stroke-width=".01" style="stroke:#000;stroke-width:.01"/><line id="line406" x1="19.798" x2="17.526" y1="6.162" y2="6.162" stroke="#000" stroke-width=".01" style="stroke:#000;stroke-width:.01"/><line id="line408" x1="20.681" x2="20.807" y1="6.288" y2="6.288" stroke="#000" stroke-width=".01" style="stroke:#000;stroke-width:.01"/><line id="line410" x1="20.933" x2="21.06" y1="6.288" y2="6.288" stroke="#000" stroke-width=".01" style="stroke:#000;stroke-width:.01"/><line id="line412" x1="20.302" x2="20.302" y1="6.288" y2="6.162" stroke="#000" stroke-width=".01" style="stroke:#000;stroke-width:.01"/><line id="line414" x1="20.302" x2="20.302" y1="5.279" y2="5.152" stroke="#000" stroke-width=".01" style="stroke:#000;stroke-width:.01"/><rect id="rect416" width="5.4" height="1.8" x="17.4" y="7.4" style="fill:#d9d9cd;stroke:none;stroke-width:0"/><rect id="rect418" width="5.4" height="1.8" x="17.4" y="7.4" style="fill:none;stroke:#000;stroke-width:.1"/><rect id="rect420" width="5.4" height="1.8" x="17.4" y="7.4" style="fill:none;stroke:#000;stroke-width:.01"/><rect id="rect422" width="2.057" height="1.029" x="20.614" y="7.914" style="fill:#d9d9cd;stroke:none;stroke-width:0"/><rect id="rect424" width="2.057" height="1.029" x="20.614" y="7.914" style="fill:none;stroke:#000;stroke-width:.1"/><rect id="rect426" width="2.057" height="1.029" x="20.614" y="7.914" style="fill:none;stroke:#000;stroke-width:.01"/><line id="line428" x1="22.671" x2="20.614" y1="8.429" y2="8.429" stroke="#000" stroke-width=".01" style="stroke:#000;stroke-width:.01"/><rect id="rect430" width=".386" height="1.414" x="20.1" y="7.529" style="fill:#d9d9cd;stroke:none;stroke-width:0"/><rect id="rect432" width=".386" height="1.414" x="20.1" y="7.529" style="fill:none;stroke:#000;stroke-width:.1"/><rect id="rect434" width=".386" height="1.414" x="20.1" y="7.529" style="fill:none;stroke:#000;stroke-width:.01"/><rect id="rect436" width=".129" height=".129" x="18.686" y="7.657" style="fill:#00cd00;stroke:none;stroke-width:0"/><rect id="rect438" width=".129" height=".129" x="18.686" y="7.657" style="fill:none;stroke:#000;stroke-width:.1"/><rect id="rect440" width=".129" height=".129" x="18.686" y="7.657" style="fill:none;stroke:#000;stroke-width:.01"/><rect id="rect442" width=".129" height=".129" x="18.943" y="7.657" style="fill:#cdcd00;stroke:none;stroke-width:0"/><rect id="rect444" width=".129" height=".129" x="18.943" y="7.657" style="fill:none;stroke:#000;stroke-width:.1"/><rect id="rect446" width=".129" height=".129" x="18.943" y="7.657" style="fill:none;stroke:#000;stroke-width:.01"/><rect id="rect448" width=".129" height=".129" x="19.2" y="7.657" style="fill:#cd0000;stroke:none;stroke-width:0"/><rect id="rect450" width=".129" height=".129" x="19.2" y="7.657" style="fill:none;stroke:#000;stroke-width:.1"/><rect id="rect452" width=".129" height=".129" x="19.2" y="7.657" style="fill:none;stroke:#000;stroke-width:.01"/><rect id="rect454" width=".257" height=".257" x="19.586" y="7.529" style="fill:#cdcdbd;stroke:none;stroke-width:0"/><rect id="rect456" width=".257" height=".257" x="19.586" y="7.529" style="fill:none;stroke:#000;stroke-width:.1"/><rect id="rect458" width=".257" height=".257" x="19.586" y="7.529" style="fill:none;stroke:#000;stroke-width:.01"/><rect id="rect460" width=".386" height=".386" x="17.657" y="7.529" style="fill:#cdcdbd;stroke:none;stroke-width:0"/><rect id="rect462" width=".386" height=".386" x="17.657" y="7.529" style="fill:none;stroke:#000;stroke-width:.1"/><rect id="rect464" width=".386" height=".386" x="17.657" y="7.529" style="fill:none;stroke:#000;stroke-width:.01"/><rect id="rect466" width="1.8" height=".129" x="20.743" y="8.557" style="fill:#cdcdc1;stroke:none;stroke-width:0"/><rect id="rect468" width="1.8" height=".129" x="20.743" y="8.557" style="fill:none;stroke:#000;stroke-width:.1"/><rect id="rect470" width="1.8" height=".129" x="20.743" y="8.557" style="fill:none;stroke:#000;stroke-width:.01"/><line id="line472" x1="20.229" x2="20.229" y1="7.657" y2="8.814" stroke="#000" stroke-width=".01" style="stroke:#000;stroke-width:.01"/><rect id="rect474" width=".129" height=".643" x="20.229" y="7.914" style="fill:#cdcdc1;stroke:none;stroke-width:0"/><rect id="rect476" width=".129" height=".643" x="20.229" y="7.914" style="fill:none;stroke:#000;stroke-width:.1"/><rect id="rect478" width=".129" height=".643" x="20.229" y="7.914" style="fill:none;stroke:#000;stroke-width:.01"/><line id="line480" x1="22.286" x2="22.543" y1="8.814" y2="8.814" stroke="#000" stroke-width=".01" style="stroke:#000;stroke-width:.01"/><line id="line482" x1="17.529" x2="19.843" y1="8.3" y2="8.3" stroke="#000" stroke-width=".01" style="stroke:#000;stroke-width:.01"/><line id="line484" x1="19.843" x2="17.529" y1="8.429" y2="8.429" stroke="#000" stroke-width=".01" style="stroke:#000;stroke-width:.01"/><line id="line486" x1="17.529" x2="19.843" y1="8.557" y2="8.557" stroke="#000" stroke-width=".01" style="stroke:#000;stroke-width:.01"/><line id="line488" x1="19.843" x2="17.529" y1="8.943" y2="8.943" stroke="#000" stroke-width=".01" style="stroke:#000;stroke-width:.01"/><line id="line490" x1="17.529" x2="19.843" y1="8.814" y2="8.814" stroke="#000" stroke-width=".01" style="stroke:#000;stroke-width:.01"/><line id="line492" x1="19.843" x2="17.529" y1="8.686" y2="8.686" stroke="#000" stroke-width=".01" style="stroke:#000;stroke-width:.01"/><line id="line494" x1="20.743" x2="20.871" y1="8.814" y2="8.814" stroke="#000" stroke-width=".01" style="stroke:#000;stroke-width:.01"/><line id="line496" x1="21" x2="21.129" y1="8.814" y2="8.814" stroke="#000" stroke-width=".01" style="stroke:#000;stroke-width:.01"/><line id="line498" x1="20.357" x2="20.357" y1="8.814" y2="8.686" stroke="#000" stroke-width=".01" style="stroke:#000;stroke-width:.01"/><line id="line500" x1="20.357" x2="20.357" y1="7.786" y2="7.657" stroke="#000" stroke-width=".01" style="stroke:#000;stroke-width:.01"/><rect id="rect502" width="5.45" height="1.817" x="17.5" y="9.8" style="fill:#d9d9cd;stroke:none;stroke-width:0"/><rect id="rect504" width="5.45" height="1.817" x="17.5" y="9.8" style="fill:none;stroke:#000;stroke-width:.1"/><rect id="rect506" width="5.45" height="1.817" x="17.5" y="9.8" style="fill:none;stroke:#000;stroke-width:.01"/><rect id="rect508" width="2.076" height="1.038" x="20.744" y="10.319" style="fill:#d9d9cd;stroke:none;stroke-width:0"/><rect id="rect510" width="2.076" height="1.038" x="20.744" y="10.319" style="fill:none;stroke:#000;stroke-width:.1"/><rect id="rect512" width="2.076" height="1.038" x="20.744" y="10.319" style="fill:none;stroke:#000;stroke-width:.01"/><line id="line514" x1="22.82" x2="20.744" y1="10.838" y2="10.838" stroke="#000" stroke-width=".01" style="stroke:#000;stroke-width:.01"/><rect id="rect516" width=".389" height="1.427" x="20.225" y="9.93" style="fill:#d9d9cd;stroke:none;stroke-width:0"/><rect id="rect518" width=".389" height="1.427" x="20.225" y="9.93" style="fill:none;stroke:#000;stroke-width:.1"/><rect id="rect520" width=".389" height="1.427" x="20.225" y="9.93" style="fill:none;stroke:#000;stroke-width:.01"/><rect id="rect522" width=".13" height=".13" x="18.798" y="10.06" style="fill:#00cd00;stroke:none;stroke-width:0"/><rect id="rect524" width=".13" height=".13" x="18.798" y="10.06" style="fill:none;stroke:#000;stroke-width:.1"/><rect id="rect526" width=".13" height=".13" x="18.798" y="10.06" style="fill:none;stroke:#000;stroke-width:.01"/><rect id="rect528" width=".13" height=".13" x="19.057" y="10.06" style="fill:#cdcd00;stroke:none;stroke-width:0"/><rect id="rect530" width=".13" height=".13" x="19.057" y="10.06" style="fill:none;stroke:#000;stroke-width:.1"/><rect id="rect532" width=".13" height=".13" x="19.057" y="10.06" style="fill:none;stroke:#000;stroke-width:.01"/><rect id="rect534" width=".13" height=".13" x="19.317" y="10.06" style="fill:#cd0000;stroke:none;stroke-width:0"/><rect id="rect536" width=".13" height=".13" x="19.317" y="10.06" style="fill:none;stroke:#000;stroke-width:.1"/><rect id="rect538" width=".13" height=".13" x="19.317" y="10.06" style="fill:none;stroke:#000;stroke-width:.01"/><rect id="rect540" width=".26" height=".26" x="19.706" y="9.93" style="fill:#cdcdbd;stroke:none;stroke-width:0"/><rect id="rect542" width=".26" height=".26" x="19.706" y="9.93" style="fill:none;stroke:#000;stroke-width:.1"/><rect id="rect544" width=".26" height=".26" x="19.706" y="9.93" style="fill:none;stroke:#000;stroke-width:.01"/><rect id="rect546" width=".389" height=".389" x="17.76" y="9.93" style="fill:#cdcdbd;stroke:none;stroke-width:0"/><rect id="rect548" width=".389" height=".389" x="17.76" y="9.93" style="fill:none;stroke:#000;stroke-width:.1"/><rect id="rect550" width=".389" height=".389" x="17.76" y="9.93" style="fill:none;stroke:#000;stroke-width:.01"/><rect id="rect552" width="1.817" height=".13" x="20.874" y="10.968" style="fill:#cdcdc1;stroke:none;stroke-width:0"/><rect id="rect554" width="1.817" height=".13" x="20.874" y="10.968" style="fill:none;stroke:#000;stroke-width:.1"/><rect id="rect556" width="1.817" height=".13" x="20.874" y="10.968" style="fill:none;stroke:#000;stroke-width:.01"/><line id="line558" x1="20.355" x2="20.355" y1="10.06" y2="11.227" stroke="#000" stroke-width=".01" style="stroke:#000;stroke-width:.01"/><rect id="rect560" width=".13" height=".649" x="20.355" y="10.319" style="fill:#cdcdc1;stroke:none;stroke-width:0"/><rect id="rect562" width=".13" height=".649" x="20.355" y="10.319" style="fill:none;stroke:#000;stroke-width:.1"/><rect id="rect564" width=".13" height=".649" x="20.355" y="10.319" style="fill:none;stroke:#000;stroke-width:.01"/><line id="line566" x1="22.431" x2="22.69" y1="11.227" y2="11.227" stroke="#000" stroke-width=".01" style="stroke:#000;stroke-width:.01"/><line id="line568" x1="17.63" x2="19.965" y1="10.708" y2="10.708" stroke="#000" stroke-width=".01" style="stroke:#000;stroke-width:.01"/><line id="line570" x1="19.965" x2="17.63" y1="10.838" y2="10.838" stroke="#000" stroke-width=".01" style="stroke:#000;stroke-width:.01"/><line id="line572" x1="17.63" x2="19.965" y1="10.968" y2="10.968" stroke="#000" stroke-width=".01" style="stroke:#000;stroke-width:.01"/><line id="line574" x1="19.965" x2="17.63" y1="11.357" y2="11.357" stroke="#000" stroke-width=".01" style="stroke:#000;stroke-width:.01"/><line id="line576" x1="17.63" x2="19.965" y1="11.227" y2="11.227" stroke="#000" stroke-width=".01" style="stroke:#000;stroke-width:.01"/><line id="line578" x1="19.965" x2="17.63" y1="11.098" y2="11.098" stroke="#000" stroke-width=".01" style="stroke:#000;stroke-width:.01"/><line id="line580" x1="20.874" x2="21.004" y1="11.227" y2="11.227" stroke="#000" stroke-width=".01" style="stroke:#000;stroke-width:.01"/><line id="line582" x1="21.133" x2="21.263" y1="11.227" y2="11.227" stroke="#000" stroke-width=".01" style="stroke:#000;stroke-width:.01"/><line id="line584" x1="20.485" x2="20.485" y1="11.227" y2="11.098" stroke="#000" stroke-width=".01" style="stroke:#000;stroke-width:.01"/><line id="line586" x1="20.485" x2="20.485" y1="10.189" y2="10.06" stroke="#000" stroke-width=".01" style="stroke:#000;stroke-width:.01"/><polyline id="polyline588" fill="none" stroke="#000" stroke-width=".1" points="9.3 12 13.992 12 13.992 5.783 17.4 5.783" style="fill:none;stroke:#000;stroke-width:.1"/><polyline id="polyline590" fill="none" stroke="#000" stroke-width=".1" points="17.4 8.3 14 8.3 14 12 10.2 12" style="fill:none;stroke:#000;stroke-width:.1"/><polyline id="polyline592" fill="none" stroke="#000" stroke-width=".1" points="17.5 10.708 14 10.708 14 12 10.3 12" style="fill:none;stroke:#000;stroke-width:.1"/><text id="text594" x="17.7" y="4.3" style="font-size:.80000001px;font-style:normal;font-weight:400;text-anchor:start;fill:#000;font-family:sans">Workstation A</text><text id="text596" x="23.8" y="8.6" style="font-size:.80000001px;font-style:normal;font-weight:400;text-anchor:start;fill:#000;font-family:sans">Workstation B</text><text id="text598" x="23.8" y="10.9" style="font-size:.80000001px;font-style:normal;font-weight:400;text-anchor:start;fill:#000;font-family:sans">Workstation C</text><text id="text600" x="13.1" y="1.7" style="font-size:1.20000005px;font-style:normal;font-weight:400;text-anchor:start;fill:#000;font-family:sans">DOMAIN</text></svg>