<svg xmlns="http://www.w3.org/2000/svg" xmlns:svg="http://www.w3.org/2000/svg" id="svg2" width="809.991" height="872.542" version="1.0" viewBox="10.369 0.921 31.8 24.007"><line id="line4" x1="19.25" x2="19.25" y1="12.75" y2="14.15" stroke="#000" stroke-width=".1" style="stroke:#000;stroke-width:.1"/><polygon id="polygon6" points="18.85 14.15 19.25 14.95 19.65 14.15 18.85 14.15" style="fill:#000;stroke:none;stroke-width:.1"/><line id="line8" x1="12.5" x2="12.5" y1="2.779" y2="4.65" stroke="#000" stroke-width=".1" style="stroke:#000;stroke-width:.1"/><polygon id="polygon10" points="12.1 4.65 12.5 5.45 12.9 4.65 12.1 4.65" style="fill:#000;stroke:none;stroke-width:.1"/><path id="path12" d="M 11.333,0.971 L 13.667,0.971 C 13.989,0.971 14.25,1.376 14.25,1.875 C 14.25,2.374 13.989,2.779 13.667,2.779 L 11.333,2.779 C 11.011,2.779 10.75,2.374 10.75,1.875 C 10.75,1.376 11.011,0.971 11.333,0.971" style="fill:#dcdcdc;stroke:none;stroke-width:.1"/><path id="path14" d="M 11.333,0.971 L 13.667,0.971 C 13.989,0.971 14.25,1.376 14.25,1.875 C 14.25,2.374 13.989,2.779 13.667,2.779 L 11.333,2.779 C 11.011,2.779 10.75,2.374 10.75,1.875 C 10.75,1.376 11.011,0.971 11.333,0.971" style="fill:none;stroke:#000;stroke-width:.1"/><text id="text16" x="11.765" y="2.053" style="font-size:1px;font-style:normal;font-weight:700;text-anchor:start;fill:#000;font-family:luxi sans">UID</text><line id="line18" x1="12.489" x2="12.497" y1="7.5" y2="9.65" stroke="#000" stroke-width=".1" style="stroke:#000;stroke-width:.1"/><polygon id="polygon20" points="12.097 9.651 12.5 10.45 12.897 9.649 12.097 9.651" style="fill:#000;stroke:none;stroke-width:.1"/><path id="path22" d="M 14.833,22.15 L 17.167,22.15 C 17.489,22.15 17.75,22.555 17.75,23.054 C 17.75,23.553 17.489,23.957 17.167,23.957 L 14.833,23.957 C 14.511,23.957 14.25,23.553 14.25,23.054 C 14.25,22.555 14.511,22.15 14.833,22.15" style="fill:#d5d5d5;stroke:none;stroke-width:.1"/><path id="path24" d="M 14.833,22.15 L 17.167,22.15 C 17.489,22.15 17.75,22.555 17.75,23.054 C 17.75,23.553 17.489,23.957 17.167,23.957 L 14.833,23.957 C 14.511,23.957 14.25,23.553 14.25,23.054 C 14.25,22.555 14.511,22.15 14.833,22.15" style="fill:none;stroke:#000;stroke-width:.1"/><text id="text26" x="15.299" y="23.231" style="font-size:1px;font-style:normal;font-weight:700;text-anchor:start;fill:#000;font-family:luxi sans">SID</text><polygon id="polygon28" points="12.5 10.5 14.5 12 12.5 13.5 10.5 12 12.5 10.5" style="fill:#b8f5fc;stroke:none;stroke-width:.1"/><polygon id="polygon30" points="12.5 10.5 14.5 12 12.5 13.5 10.5 12 12.5 10.5" style="fill:none;stroke:#000;stroke-width:.1"/><text id="text32" x="11.023" y="12.25" style="font-size:1px;font-style:normal;font-weight:700;text-anchor:start;fill:#000;font-family:luxi sans">Found?</text><text id="text34" x="13.031" y="14.5" style="font-size:.80000001px;font-style:normal;font-weight:400;text-anchor:start;fill:#000;font-family:luxi sans">Yes</text><text id="text36" x="14.854" y="11.75" style="font-size:.80000001px;font-style:normal;font-weight:400;text-anchor:start;fill:#000;font-family:luxi sans">No</text><line id="line38" x1="14.5" x2="16.4" y1="12" y2="12" stroke="#000" stroke-width=".1" style="stroke:#000;stroke-width:.1"/><polygon id="polygon40" points="16.4 12.4 17.2 12 16.4 11.6 16.4 12.4" style="fill:#000;stroke:none;stroke-width:.1"/><line id="line42" x1="16" x2="16" y1="19.25" y2="21.4" stroke="#000" stroke-width=".1" style="stroke:#000;stroke-width:.1"/><polygon id="polygon44" points="15.6 21.4 16 22.2 16.4 21.4 15.6 21.4" style="fill:#000;stroke:none;stroke-width:.1"/><path id="path46" d="M 24.083,15.65 L 26.417,15.65 C 26.739,15.65 27,16.055 27,16.554 C 27,17.053 26.739,17.457 26.417,17.457 L 24.083,17.457 C 23.761,17.457 23.5,17.053 23.5,16.554 C 23.5,16.055 23.761,15.65 24.083,15.65" style="fill:#d9d9d9;stroke:none;stroke-width:.1"/><path id="path48" d="M 24.083,15.65 L 26.417,15.65 C 26.739,15.65 27,16.055 27,16.554 C 27,17.053 26.739,17.457 26.417,17.457 L 24.083,17.457 C 23.761,17.457 23.5,17.053 23.5,16.554 C 23.5,16.055 23.761,15.65 24.083,15.65" style="fill:none;stroke:#000;stroke-width:.1"/><text id="text50" x="24.526" y="16.731" style="font-size:1px;font-style:normal;font-weight:700;text-anchor:start;fill:#000;font-family:luxi sans">Fail</text><rect id="rect52" width="4.14" height="2.1" x="10.419" y="5.4" style="fill:#dcd7d7;stroke:none;stroke-width:0"/><rect id="rect54" width="4.14" height="2.1" x="10.419" y="5.4" style="fill:none;stroke:#000;stroke-width:.1"/><text id="text56" x="10.969" y="6.628" style="font-size:1px;font-style:normal;font-weight:700;text-anchor:start;fill:#000;font-family:luxi sans">PassDB</text><line id="line58" x1="14.75" x2="17" y1="5.25" y2="4" stroke="#000" stroke-width=".05" style="stroke:#000;stroke-width:.05"/><line id="line60" x1="14.75" x2="17" y1="7.5" y2="8.75" stroke="#000" stroke-width=".05" style="stroke:#000;stroke-width:.05"/><rect id="rect62" width="8" height="5.25" x="17.25" y="3.75" style="fill:#fff;stroke:none;stroke-width:0"/><rect id="rect64" width="8" height="5.25" x="17.25" y="3.75" style="fill:none;stroke:#000;stroke-width:.1"/><text id="text66" x="20.089" y="4.5" style="font-size:1px;font-style:normal;font-weight:700;text-anchor:start;fill:#000;font-family:luxi sans">guest</text><text id="text68" x="18.85" y="5.5" style="font-size:1px;font-style:normal;font-weight:700;text-anchor:start;fill:#000;font-family:luxi sans">smbpasswd</text><text id="text70" x="19.709" y="6.5" style="font-size:1px;font-style:normal;font-weight:700;text-anchor:start;fill:#000;font-family:luxi sans">tdbsam</text><text id="text72" x="19.512" y="7.5" style="font-size:1px;font-style:normal;font-weight:700;text-anchor:start;fill:#000;font-family:luxi sans">ldapsam</text><text id="text74" x="17.8" y="8.5" style="font-size:1px;font-style:normal;font-weight:700;text-anchor:start;fill:#000;font-family:luxi sans">ldapsam_compat</text><line id="line76" x1="17.25" x2="25.25" y1="4.75" y2="4.75" stroke="#000" stroke-width=".05" style="stroke:#000;stroke-width:.05"/><line id="line78" x1="17.25" x2="25.25" y1="5.75" y2="5.75" stroke="#000" stroke-width=".05" style="stroke:#000;stroke-width:.05"/><line id="line80" x1="17.25" x2="25.25" y1="6.75" y2="6.75" stroke="#000" stroke-width=".05" style="stroke:#000;stroke-width:.05"/><line id="line82" x1="17.25" x2="25.25" y1="7.75" y2="7.75" stroke="#000" stroke-width=".05" style="stroke:#000;stroke-width:.05"/><polyline id="polyline84" fill="none" stroke="#000" stroke-width=".1" points="12.5 13.5 12.5 19 19.25 19 19.25 18" style="fill:none;stroke:#000;stroke-width:.1"/><rect id="rect86" width="4.49" height="2.1" x="16.994" y="10.9" style="fill:#d7d7d7;stroke:none;stroke-width:0"/><rect id="rect88" width="4.49" height="2.1" x="16.994" y="10.9" style="fill:none;stroke:#000;stroke-width:.1"/><text id="text90" x="17.544" y="12.128" style="font-size:1px;font-style:normal;font-weight:700;text-anchor:start;fill:#000;font-family:luxi sans">Winbind</text><line id="line92" x1="21.5" x2="23.5" y1="12.5" y2="13.25" stroke="#000" stroke-width=".05" style="stroke:#000;stroke-width:.05"/><line id="line94" x1="21.5" x2="23.5" y1="11.25" y2="10.5" stroke="#000" stroke-width=".05" style="stroke:#000;stroke-width:.05"/><rect id="rect96" width="7.667" height="2.75" x="23.75" y="10.5" style="fill:#fff;stroke:none;stroke-width:0"/><rect id="rect98" width="7.667" height="2.75" x="23.75" y="10.5" style="fill:none;stroke:#000;stroke-width:.1"/><text id="text100" x="23.433" y="11.507" style="font-size:1px;font-style:normal;font-weight:700;text-anchor:start;fill:#000;font-family:luxi sans">winbindd_idmap.tdb</text><text id="text102" x="25.762" y="12.75" style="font-size:1px;font-style:normal;font-weight:700;text-anchor:start;fill:#000;font-family:luxi sans">ldapsam</text><line id="line104" x1="31.417" x2="23.75" y1="11.875" y2="11.875" stroke="#000" stroke-width=".05" style="stroke:#000;stroke-width:.05"/><polygon id="polygon106" points="19.25 15 21.25 16.5 19.25 18 17.25 16.5 19.25 15" style="fill:#bcf9ff;stroke:none;stroke-width:.1"/><polygon id="polygon108" points="19.25 15 21.25 16.5 19.25 18 17.25 16.5 19.25 15" style="fill:none;stroke:#000;stroke-width:.1"/><text id="text110" x="17.773" y="16.75" style="font-size:1px;font-style:normal;font-weight:700;text-anchor:start;fill:#000;font-family:luxi sans">Found?</text><text id="text112" x="19.781" y="19" style="font-size:.80000001px;font-style:normal;font-weight:400;text-anchor:start;fill:#000;font-family:luxi sans">Yes</text><text id="text114" x="21.604" y="16.25" style="font-size:.80000001px;font-style:normal;font-weight:400;text-anchor:start;fill:#000;font-family:luxi sans">No</text><line id="line116" x1="21.25" x2="22.65" y1="16.5" y2="16.5" stroke="#000" stroke-width=".1" style="stroke:#000;stroke-width:.1"/><polygon id="polygon118" points="22.65 16.9 23.45 16.5 22.65 16.1 22.65 16.9" style="fill:#000;stroke:none;stroke-width:.1"/></svg>