<svg xmlns="http://www.w3.org/2000/svg" xmlns:svg="http://www.w3.org/2000/svg" id="svg2" width="894.803" height="730.545" version="1.0" viewBox="-0.492 0 23.184 19.329"><path id="path4" d="M 6.333,17.471 L 8.667,17.471 C 8.989,17.471 9.25,17.876 9.25,18.375 C 9.25,18.874 8.989,19.279 8.667,19.279 L 6.333,19.279 C 6.011,19.279 5.75,18.874 5.75,18.375 C 5.75,17.876 6.011,17.471 6.333,17.471" style="fill:#dcdcdc;stroke:none;stroke-width:.1"/><path id="path6" d="M 6.333,17.471 L 8.667,17.471 C 8.989,17.471 9.25,17.876 9.25,18.375 C 9.25,18.874 8.989,19.279 8.667,19.279 L 6.333,19.279 C 6.011,19.279 5.75,18.874 5.75,18.375 C 5.75,17.876 6.011,17.471 6.333,17.471" style="fill:none;stroke:#000;stroke-width:.1"/><text id="text8" x="6.761" y="18.552" style="font-size:1px;font-style:normal;font-weight:700;text-anchor:start;fill:#000;font-family:luxi sans">GID</text><line id="line10" x1="4.502" x2="4.501" y1="6" y2="6.65" stroke="#000" stroke-width=".1" style="stroke:#000;stroke-width:.1"/><polygon id="polygon12" points="4.101 6.649 4.5 7.45 4.901 6.651 4.101 6.649" style="fill:#000;stroke:none;stroke-width:.1"/><path id="path14" d="M 2.883,0.05 L 6.117,0.05 C 6.564,0.05 6.926,0.678 6.926,1.454 C 6.926,2.229 6.564,2.857 6.117,2.857 L 2.883,2.857 C 2.436,2.857 2.074,2.229 2.074,1.454 C 2.074,0.678 2.436,0.05 2.883,0.05" style="fill:#cfcfcf;stroke:none;stroke-width:.1"/><path id="path16" d="M 2.883,0.05 L 6.117,0.05 C 6.564,0.05 6.926,0.678 6.926,1.454 C 6.926,2.229 6.564,2.857 6.117,2.857 L 2.883,2.857 C 2.436,2.857 2.074,2.229 2.074,1.454 C 2.074,0.678 2.436,0.05 2.883,0.05" style="fill:none;stroke:#000;stroke-width:.1"/><text id="text18" x="3.286" y="1.131" style="font-size:1px;font-style:normal;font-weight:700;text-anchor:start;fill:#000;font-family:luxi sans">group</text><text id="text20" x="3.799" y="2.131" style="font-size:1px;font-style:normal;font-weight:700;text-anchor:start;fill:#000;font-family:luxi sans">SID</text><path id="path22" d="M 15.181,12.15 L 17.435,12.15 C 17.746,12.15 17.999,12.555 17.999,13.054 C 17.999,13.553 17.746,13.957 17.435,13.957 L 15.181,13.957 C 14.869,13.957 14.617,13.553 14.617,13.054 C 14.617,12.555 14.869,12.15 15.181,12.15" style="fill:#dcdcdc;stroke:none;stroke-width:.1"/><path id="path24" d="M 15.181,12.15 L 17.435,12.15 C 17.746,12.15 17.999,12.555 17.999,13.054 C 17.999,13.553 17.746,13.957 17.435,13.957 L 15.181,13.957 C 14.869,13.957 14.617,13.553 14.617,13.054 C 14.617,12.555 14.869,12.15 15.181,12.15" style="fill:none;stroke:#000;stroke-width:.1"/><text id="text26" x="15.584" y="13.231" style="font-size:1px;font-style:normal;font-weight:700;text-anchor:start;fill:#000;font-family:luxi sans">Fail</text><line id="line28" x1="12.5" x2="13.9" y1="13" y2="13" stroke="#000" stroke-width=".1" style="stroke:#000;stroke-width:.1"/><polygon id="polygon30" points="13.9 13.4 14.7 13 13.9 12.6 13.9 13.4" style="fill:#000;stroke:none;stroke-width:.1"/><polygon id="polygon32" points="10.5 11.5 12.5 13 10.5 14.5 8.5 13 10.5 11.5" style="fill:#bef2ff;stroke:none;stroke-width:.1"/><polygon id="polygon34" points="10.5 11.5 12.5 13 10.5 14.5 8.5 13 10.5 11.5" style="fill:none;stroke:#000;stroke-width:.1"/><text id="text36" x="9.023" y="13.25" style="font-size:1px;font-style:normal;font-weight:700;text-anchor:start;fill:#000;font-family:luxi sans">Found?</text><text id="text38" x="11.031" y="15.5" style="font-size:.80000001px;font-style:normal;font-weight:400;text-anchor:start;fill:#000;font-family:luxi sans">Yes</text><line id="line40" x1="10.489" x2="10.494" y1="10" y2="10.65" stroke="#000" stroke-width=".1" style="stroke:#000;stroke-width:.1"/><polygon id="polygon42" points="10.094 10.653 10.5 11.45 10.894 10.647 10.094 10.653" style="fill:#000;stroke:none;stroke-width:.1"/><text id="text44" x="12.604" y="12.75" style="font-size:.80000001px;font-style:normal;font-weight:400;text-anchor:start;fill:#000;font-family:luxi sans">No</text><line id="line46" x1="7.5" x2="7.5" y1="15.75" y2="16.65" stroke="#000" stroke-width=".1" style="stroke:#000;stroke-width:.1"/><polygon id="polygon48" points="7.1 16.65 7.5 17.45 7.9 16.65 7.1 16.65" style="fill:#000;stroke:none;stroke-width:.1"/><polygon id="polygon50" points="4.5 7.5 6.5 9 4.5 10.5 2.5 9 4.5 7.5" style="fill:#acedff;stroke:none;stroke-width:.1"/><polygon id="polygon52" points="4.5 7.5 6.5 9 4.5 10.5 2.5 9 4.5 7.5" style="fill:none;stroke:#000;stroke-width:.1"/><text id="text54" x="3.022" y="9.25" style="font-size:1px;font-style:normal;font-weight:700;text-anchor:start;fill:#000;font-family:luxi sans">Found?</text><text id="text56" x="5.031" y="11.25" style="font-size:.80000001px;font-style:normal;font-weight:400;text-anchor:start;fill:#000;font-family:luxi sans">Yes</text><line id="line58" x1="4.5" x2="4.5" y1="2.857" y2="3.05" stroke="#000" stroke-width=".1" style="stroke:#000;stroke-width:.1"/><polygon id="polygon60" points="4.1 3.051 4.502 3.85 4.9 3.049 4.1 3.051" style="fill:#000;stroke:none;stroke-width:.1"/><text id="text62" x="6.604" y="8.75" style="font-size:.80000001px;font-style:normal;font-weight:400;text-anchor:start;fill:#000;font-family:luxi sans">No</text><line id="line64" x1="6.5" x2="7.65" y1="9" y2="9" stroke="#000" stroke-width=".1" style="stroke:#000;stroke-width:.1"/><polygon id="polygon66" points="7.65 9.4 8.45 9 7.65 8.6 7.65 9.4" style="fill:#000;stroke:none;stroke-width:.1"/><rect id="rect68" width="4.49" height="2.1" x="8.244" y="7.9" style="fill:#dcdcdc;stroke:none;stroke-width:0"/><rect id="rect70" width="4.49" height="2.1" x="8.244" y="7.9" style="fill:none;stroke:#000;stroke-width:.1"/><text id="text72" x="8.794" y="9.128" style="font-size:1px;font-style:normal;font-weight:700;text-anchor:start;fill:#000;font-family:luxi sans">Winbind</text><line id="line74" x1="12.75" x2="14.75" y1="9.25" y2="10" stroke="#000" stroke-width=".05" style="stroke:#000;stroke-width:.05"/><line id="line76" x1="12.75" x2="14.75" y1="8.75" y2="8" stroke="#000" stroke-width=".05" style="stroke:#000;stroke-width:.05"/><rect id="rect78" width="8" height="2" x="15" y="8" style="fill:#fff;stroke:none;stroke-width:0"/><rect id="rect80" width="8" height="2" x="15" y="8" style="fill:none;stroke:#000;stroke-width:.1"/><text id="text82" x="14.816" y="8.75" style="font-size:1px;font-style:normal;font-weight:700;text-anchor:start;fill:#000;font-family:luxi sans">winbindd_idmap.tdb</text><text id="text84" x="17.262" y="9.75" style="font-size:1px;font-style:normal;font-weight:700;text-anchor:start;fill:#000;font-family:luxi sans">ldapsam</text><line id="line86" x1="23" x2="15" y1="9" y2="9" stroke="#000" stroke-width=".05" style="stroke:#000;stroke-width:.05"/><rect id="rect88" width="9.887" height="2.1" x="-.442" y="3.9" style="fill:#d3d3d3;stroke:none;stroke-width:0"/><rect id="rect90" width="9.887" height="2.1" x="-.442" y="3.9" style="fill:none;stroke:#000;stroke-width:.1"/><text id="text92" x=".108" y="5.127" style="font-size:1px;font-style:normal;font-weight:700;text-anchor:start;fill:#000;font-family:luxi sans">groupmap_idmap.tdb</text><polyline id="polyline94" fill="none" stroke="#000" stroke-width=".1" points="4.5 10.5 4.5 15.5 10.5 15.5 10.5 14.5" style="fill:none;stroke:#000;stroke-width:.1"/></svg>