<svg xmlns="http://www.w3.org/2000/svg" xmlns:svg="http://www.w3.org/2000/svg" id="svg2" width="309.921" height="650.003" version="1.0" viewBox="1.45 1.4 9.65 18.598"><rect id="rect4" width="7.3" height="2.6" x="1.5" y="1.7" style="fill:#fff;stroke:none;stroke-width:0"/><rect id="rect6" width="7.3" height="2.6" x="1.5" y="1.7" style="fill:none;stroke:#000;stroke-width:.1"/><rect id="rect8" width="5.9" height="2.7" x="2.3" y="8.5" style="fill:#fff;stroke:none;stroke-width:0"/><rect id="rect10" width="5.9" height="2.7" x="2.3" y="8.5" style="fill:none;stroke:#000;stroke-width:.1"/><text id="text12" x="2.7" y="2.8" style="font-size:.80000001px;font-style:normal;font-weight:700;text-anchor:start;fill:#000;font-family:sans">passdb backend</text><text id="text14" x="1.7" y="3.7" style="font-size:.80000001px;font-style:normal;font-weight:400;text-anchor:start;fill:#000;font-family:sans">contains samba users</text><text id="text16" x="4.5" y="9.4" style="font-size:.80000001px;font-style:normal;font-weight:700;text-anchor:start;fill:#000;font-family:sans">idmap</text><text id="text18" x="3.3" y="10.2" style="font-size:.80000001px;font-style:normal;font-weight:400;text-anchor:start;fill:#000;font-family:sans">maps unix to</text><text id="text20" x="3.3" y="11" style="font-size:.80000001px;font-style:normal;font-weight:400;text-anchor:start;fill:#000;font-family:sans">samba users</text><rect id="rect22" width="7.7" height="3" x="1.9" y="15.5" style="fill:#fff;stroke:none;stroke-width:0"/><rect id="rect24" width="7.7" height="3" x="1.9" y="15.5" style="fill:none;stroke:#000;stroke-width:.1"/><polygon id="polygon26" points="4.675 7.35 4.675 5.45 4.2 5.45 5.15 4.5 6.1 5.45 5.625 5.45 5.625 7.35 6.1 7.35 5.15 8.3 4.2 7.35 4.675 7.35" style="fill:#fff;stroke:none;stroke-width:.1"/><polygon id="polygon28" points="4.675 7.35 4.675 5.45 4.2 5.45 5.15 4.5 6.1 5.45 5.625 5.45 5.625 7.35 6.1 7.35 5.15 8.3 4.2 7.35 4.675 7.35" style="fill:none;stroke:#000;stroke-width:.1"/><polygon id="polygon30" points="4.675 7.35 4.675 5.45 4.2 5.45 5.15 4.5 6.1 5.45 5.625 5.45 5.625 7.35 6.1 7.35 5.15 8.3 4.2 7.35 4.675 7.35" style="fill:none;stroke:#000;stroke-width:.01"/><polygon id="polygon32" points="4.763 14.175 4.763 12.325 4.3 12.325 5.225 11.4 6.15 12.325 5.688 12.325 5.688 14.175 6.15 14.175 5.225 15.1 4.3 14.175 4.763 14.175" style="fill:#fff;stroke:none;stroke-width:.1"/><polygon id="polygon34" points="4.763 14.175 4.763 12.325 4.3 12.325 5.225 11.4 6.15 12.325 5.688 12.325 5.688 14.175 6.15 14.175 5.225 15.1 4.3 14.175 4.763 14.175" style="fill:none;stroke:#000;stroke-width:.1"/><polygon id="polygon36" points="4.763 14.175 4.763 12.325 4.3 12.325 5.225 11.4 6.15 12.325 5.688 12.325 5.688 14.175 6.15 14.175 5.225 15.1 4.3 14.175 4.763 14.175" style="fill:none;stroke:#000;stroke-width:.01"/><text id="text38" x="3.7" y="16.3" style="font-size:.80000001px;font-style:normal;font-weight:700;text-anchor:start;fill:#000;font-family:sans">Unix users</text><text id="text40" x="2.4" y="17.4" style="font-size:.80000001px;font-style:normal;font-weight:400;text-anchor:start;fill:#000;font-family:sans">/etc/passwd</text><text id="text42" x="2.4" y="18.2" style="font-size:.80000001px;font-style:normal;font-weight:400;text-anchor:start;fill:#000;font-family:sans">or other NSS backend</text></svg>