<svg xmlns="http://www.w3.org/2000/svg" xmlns:svg="http://www.w3.org/2000/svg" id="svg2" width="993.789" height="90.709" version="1.0" viewBox="0.45 1.35 26.744 3.75"><path id="path4" d="M 13.02,1.721 L 15.23,1.721 C 15.535,1.721 15.782,2.126 15.782,2.625 C 15.782,3.124 15.535,3.529 15.23,3.529 L 13.02,3.529 C 12.715,3.529 12.468,3.124 12.468,2.625 C 12.468,2.126 12.715,1.721 13.02,1.721" style="fill:#d7d7d7;stroke:none;stroke-width:.1"/><path id="path6" d="M 13.02,1.721 L 15.23,1.721 C 15.535,1.721 15.782,2.126 15.782,2.625 C 15.782,3.124 15.535,3.529 15.23,3.529 L 13.02,3.529 C 12.715,3.529 12.468,3.124 12.468,2.625 C 12.468,2.126 12.715,1.721 13.02,1.721" style="fill:none;stroke:#000;stroke-width:.1"/><text id="text8" x="13.424" y="2.803" style="font-size:1px;font-style:normal;font-weight:700;text-anchor:start;fill:#000;font-family:luxi sans">SID</text><path id="path10" d="M 1.083,1.65 L 3.417,1.65 C 3.739,1.65 4,2.055 4,2.554 C 4,3.053 3.739,3.457 3.417,3.457 L 1.083,3.457 C 0.761,3.457 0.5,3.053 0.5,2.554 C 0.5,2.055 0.761,1.65 1.083,1.65" style="fill:#d7d7d7;stroke:none;stroke-width:.1"/><path id="path12" d="M 1.083,1.65 L 3.417,1.65 C 3.739,1.65 4,2.055 4,2.554 C 4,3.053 3.739,3.457 3.417,3.457 L 1.083,3.457 C 0.761,3.457 0.5,3.053 0.5,2.554 C 0.5,2.055 0.761,1.65 1.083,1.65" style="fill:none;stroke:#000;stroke-width:.1"/><text id="text14" x="1.511" y="2.731" style="font-size:1px;font-style:normal;font-weight:700;text-anchor:start;fill:#000;font-family:luxi sans">GID</text><line id="line16" x1="16" x2="18" y1="3" y2="3.5" stroke="#000" stroke-width=".05" style="stroke:#000;stroke-width:.05"/><line id="line18" x1="16" x2="18" y1="2" y2="1.5" stroke="#000" stroke-width=".05" style="stroke:#000;stroke-width:.05"/><line id="line20" x1="4" x2="11.65" y1="2.554" y2="2.618" stroke="#000" stroke-width=".1" style="stroke:#000;stroke-width:.1"/><polygon id="polygon22" points="11.647 3.018 12.45 2.625 11.653 2.218 11.647 3.018" style="fill:#000;stroke:none;stroke-width:.1"/><rect id="rect24" width="6.922" height="2.1" x="4.572" y="1.4" style="fill:#d7d7d7;stroke:none;stroke-width:0"/><rect id="rect26" width="6.922" height="2.1" x="4.572" y="1.4" style="fill:none;stroke:#000;stroke-width:.1"/><text id="text28" x="5.122" y="2.627" style="font-size:1px;font-style:normal;font-weight:700;text-anchor:start;fill:#000;font-family:luxi sans">net groupmap</text><rect id="rect30" width="8.2" height="2.2" x="18.25" y="1.5" style="fill:#fff;stroke:none;stroke-width:0"/><rect id="rect32" width="8.2" height="2.2" x="18.25" y="1.5" style="fill:none;stroke:#000;stroke-width:.1"/><text id="text34" x="20.512" y="2.25" style="font-size:1px;font-style:normal;font-weight:700;text-anchor:start;fill:#000;font-family:luxi sans">ldapsam</text><text id="text36" x="17.956" y="3.2" style="font-size:1px;font-style:normal;font-weight:700;text-anchor:start;fill:#000;font-family:luxi sans">groupmap_idmap.tdb</text><line id="line38" x1="26.55" x2="18.35" y1="2.45" y2="2.45" stroke="#000" stroke-width=".05" style="stroke:#000;stroke-width:.05"/></svg>