<svg xmlns="http://www.w3.org/2000/svg" xmlns:svg="http://www.w3.org/2000/svg" id="svg2" width="913.663" height="736.479" version="1.0" viewBox="-0.49 0.171 23.684 19.657"><path id="path4" d="M 3.333,0.221 L 5.667,0.221 C 5.989,0.221 6.25,0.626 6.25,1.125 C 6.25,1.624 5.989,2.029 5.667,2.029 L 3.333,2.029 C 3.011,2.029 2.75,1.624 2.75,1.125 C 2.75,0.626 3.011,0.221 3.333,0.221" style="fill:#c9c9c9;stroke:none;stroke-width:.1"/><path id="path6" d="M 3.333,0.221 L 5.667,0.221 C 5.989,0.221 6.25,0.626 6.25,1.125 C 6.25,1.624 5.989,2.029 5.667,2.029 L 3.333,2.029 C 3.011,2.029 2.75,1.624 2.75,1.125 C 2.75,0.626 3.011,0.221 3.333,0.221" style="fill:none;stroke:#000;stroke-width:.1"/><text id="text8" x="3.761" y="1.303" style="font-size:1px;font-style:normal;font-weight:700;text-anchor:start;fill:#000;font-family:luxi sans">GID</text><line id="line10" x1="4.504" x2="4.502" y1="5.5" y2="6.15" stroke="#000" stroke-width=".1" style="stroke:#000;stroke-width:.1"/><polygon id="polygon12" points="4.102 6.149 4.5 6.95 4.902 6.151 4.102 6.149" style="fill:#000;stroke:none;stroke-width:.1"/><path id="path14" d="M 5.883,16.8 L 9.117,16.8 C 9.564,16.8 9.926,17.428 9.926,18.204 C 9.926,18.979 9.564,19.607 9.117,19.607 L 5.883,19.607 C 5.436,19.607 5.074,18.979 5.074,18.204 C 5.074,17.428 5.436,16.8 5.883,16.8" style="fill:#d5d5d5;stroke:none;stroke-width:.1"/><path id="path16" d="M 5.883,16.8 L 9.117,16.8 C 9.564,16.8 9.926,17.428 9.926,18.204 C 9.926,18.979 9.564,19.607 9.117,19.607 L 5.883,19.607 C 5.436,19.607 5.074,18.979 5.074,18.204 C 5.074,17.428 5.436,16.8 5.883,16.8" style="fill:none;stroke:#000;stroke-width:.1"/><text id="text18" x="6.286" y="17.881" style="font-size:1px;font-style:normal;font-weight:700;text-anchor:start;fill:#000;font-family:luxi sans">group</text><text id="text20" x="6.799" y="18.881" style="font-size:1px;font-style:normal;font-weight:700;text-anchor:start;fill:#000;font-family:luxi sans">SID</text><path id="path22" d="M 16.083,11.65 L 18.417,11.65 C 18.739,11.65 19,12.055 19,12.554 C 19,13.053 18.739,13.457 18.417,13.457 L 16.083,13.457 C 15.761,13.457 15.5,13.053 15.5,12.554 C 15.5,12.055 15.761,11.65 16.083,11.65" style="fill:#dbd8d8;stroke:none;stroke-width:.1"/><path id="path24" d="M 16.083,11.65 L 18.417,11.65 C 18.739,11.65 19,12.055 19,12.554 C 19,13.053 18.739,13.457 18.417,13.457 L 16.083,13.457 C 15.761,13.457 15.5,13.053 15.5,12.554 C 15.5,12.055 15.761,11.65 16.083,11.65" style="fill:none;stroke:#000;stroke-width:.1"/><text id="text26" x="16.526" y="12.731" style="font-size:1px;font-style:normal;font-weight:700;text-anchor:start;fill:#000;font-family:luxi sans">Fail</text><line id="line28" x1="13" x2="14.65" y1="12.5" y2="12.5" stroke="#000" stroke-width=".1" style="stroke:#000;stroke-width:.1"/><polygon id="polygon30" points="14.65 12.9 15.45 12.5 14.65 12.1 14.65 12.9" style="fill:#000;stroke:none;stroke-width:.1"/><polygon id="polygon32" points="11 11 13 12.5 11 14 9 12.5 11 11" style="fill:#abfafe;stroke:none;stroke-width:.1"/><polygon id="polygon34" points="11 11 13 12.5 11 14 9 12.5 11 11" style="fill:none;stroke:#000;stroke-width:.1"/><text id="text36" x="9.523" y="12.75" style="font-size:1px;font-style:normal;font-weight:700;text-anchor:start;fill:#000;font-family:luxi sans">Found?</text><text id="text38" x="11.531" y="15" style="font-size:.80000001px;font-style:normal;font-weight:400;text-anchor:start;fill:#000;font-family:luxi sans">Yes</text><line id="line40" x1="10.989" x2="10.994" y1="9.4" y2="10.15" stroke="#000" stroke-width=".1" style="stroke:#000;stroke-width:.1"/><polygon id="polygon42" points="10.594 10.153 11 10.95 11.394 10.147 10.594 10.153" style="fill:#000;stroke:none;stroke-width:.1"/><text id="text44" x="13.104" y="12.25" style="font-size:.80000001px;font-style:normal;font-weight:400;text-anchor:start;fill:#000;font-family:luxi sans">No</text><line id="line46" x1="7.5" x2="7.5" y1="15.25" y2="15.95" stroke="#000" stroke-width=".1" style="stroke:#000;stroke-width:.1"/><polygon id="polygon48" points="7.1 15.95 7.5 16.75 7.9 15.95 7.1 15.95" style="fill:#000;stroke:none;stroke-width:.1"/><polygon id="polygon50" points="4.5 7 6.5 8.5 4.5 10 2.5 8.5 4.5 7" style="fill:#c5effb;stroke:none;stroke-width:.1"/><polygon id="polygon52" points="4.5 7 6.5 8.5 4.5 10 2.5 8.5 4.5 7" style="fill:none;stroke:#000;stroke-width:.1"/><text id="text54" x="3.022" y="8.75" style="font-size:1px;font-style:normal;font-weight:700;text-anchor:start;fill:#000;font-family:luxi sans">Found?</text><text id="text56" x="5.031" y="10.75" style="font-size:.80000001px;font-style:normal;font-weight:400;text-anchor:start;fill:#000;font-family:luxi sans">Yes</text><line id="line58" x1="4.5" x2="4.501" y1="2.029" y2="2.55" stroke="#000" stroke-width=".1" style="stroke:#000;stroke-width:.1"/><polygon id="polygon60" points="4.101 2.551 4.503 3.35 4.901 2.549 4.101 2.551" style="fill:#000;stroke:none;stroke-width:.1"/><text id="text62" x="6.604" y="8.25" style="font-size:.80000001px;font-style:normal;font-weight:400;text-anchor:start;fill:#000;font-family:luxi sans">No</text><line id="line64" x1="6.5" x2="8.15" y1="8.5" y2="8.5" stroke="#000" stroke-width=".1" style="stroke:#000;stroke-width:.1"/><polygon id="polygon66" points="8.15 8.9 8.95 8.5 8.15 8.1 8.15 8.9" style="fill:#000;stroke:none;stroke-width:.1"/><rect id="rect68" width="4.49" height="2.1" x="8.744" y="7.4" style="fill:#d5d5d5;stroke:none;stroke-width:0"/><rect id="rect70" width="4.49" height="2.1" x="8.744" y="7.4" style="fill:none;stroke:#000;stroke-width:.1"/><text id="text72" x="9.294" y="8.628" style="font-size:1px;font-style:normal;font-weight:700;text-anchor:start;fill:#000;font-family:luxi sans">Winbind</text><line id="line74" x1="13.25" x2="15.25" y1="8.75" y2="9.5" stroke="#000" stroke-width=".05" style="stroke:#000;stroke-width:.05"/><line id="line76" x1="13.25" x2="15.25" y1="8.25" y2="7.5" stroke="#000" stroke-width=".05" style="stroke:#000;stroke-width:.05"/><rect id="rect78" width="8" height="2" x="15.5" y="7.5" style="fill:#fff;stroke:none;stroke-width:0"/><rect id="rect80" width="8" height="2" x="15.5" y="7.5" style="fill:none;stroke:#000;stroke-width:.1"/><text id="text82" x="15.316" y="8.25" style="font-size:1px;font-style:normal;font-weight:700;text-anchor:start;fill:#000;font-family:luxi sans">winbindd_idmap.tdb</text><text id="text84" x="17.762" y="9.25" style="font-size:1px;font-style:normal;font-weight:700;text-anchor:start;fill:#000;font-family:luxi sans">ldapsam</text><line id="line86" x1="23.5" x2="15.5" y1="8.5" y2="8.5" stroke="#000" stroke-width=".05" style="stroke:#000;stroke-width:.05"/><rect id="rect88" width="9.887" height="2.1" x="-.44" y="3.4" style="fill:#dcdcdc;stroke:none;stroke-width:0"/><rect id="rect90" width="9.887" height="2.1" x="-.44" y="3.4" style="fill:none;stroke:#000;stroke-width:.1"/><text id="text92" x=".11" y="4.627" style="font-size:1px;font-style:normal;font-weight:700;text-anchor:start;fill:#000;font-family:luxi sans">groupmap_idmap.tdb</text><polyline id="polyline94" fill="none" stroke="#000" stroke-width=".1" points="4.5 10 4.5 15.25 11 15.25 11 14" style="fill:none;stroke:#000;stroke-width:.1"/></svg>