<svg xmlns="http://www.w3.org/2000/svg" xmlns:svg="http://www.w3.org/2000/svg" id="svg2" width="366.614" height="674.57" version="1.0" viewBox="2.95 0.95 12.65 18.798"><text id="text4" x="3.7" y="1.9" style="font-size:.80000001px;font-style:normal;font-weight:400;text-anchor:start;fill:#000;font-family:sans">Grou</text><text id="text6" x="3.7" y="2" style="font-size:.80000001px;font-style:normal;font-weight:400;text-anchor:start;fill:#000;font-family:sans">group</text><rect id="rect8" width="9.6" height="3" x="3" y="1" style="fill:#fff;stroke:none;stroke-width:0"/><rect id="rect10" width="9.6" height="3" x="3" y="1" style="fill:none;stroke:#000;stroke-width:.1"/><rect id="rect12" width="9.55" height="3.3" x="3" y="15.4" style="fill:#fff;stroke:none;stroke-width:0"/><rect id="rect14" width="9.55" height="3.3" x="3" y="15.4" style="fill:none;stroke:#000;stroke-width:.1"/><rect id="rect16" width="9.55" height="3.5" x="3" y="8" style="fill:#fff;stroke:none;stroke-width:0"/><rect id="rect18" width="9.55" height="3.5" x="3" y="8" style="fill:none;stroke:#000;stroke-width:.1"/><text id="text20" x="3.75" y="2.05" style="font-size:.80000001px;font-style:normal;font-weight:700;text-anchor:start;fill:#000;font-family:sans">group_mapping tdb</text><text id="text22" x="3.65" y="3.5" style="font-size:.80000001px;font-style:normal;font-weight:400;text-anchor:start;fill:#000;font-family:sans">contains samba groups</text><text id="text24" x="5.6" y="9.062" style="font-size:.80000001px;font-style:normal;font-weight:700;text-anchor:start;fill:#000;font-family:sans">idmap gid</text><text id="text26" x="4.25" y="10.25" style="font-size:.80000001px;font-style:normal;font-weight:400;text-anchor:start;fill:#000;font-family:sans">maps UNIX groups to</text><text id="text28" x="4.25" y="11.05" style="font-size:.80000001px;font-style:normal;font-weight:400;text-anchor:start;fill:#000;font-family:sans">samba groups</text><text id="text30" x="5.05" y="16.5" style="font-size:.80000001px;font-style:normal;font-weight:700;text-anchor:start;fill:#000;font-family:sans">UNIX groups</text><text id="text32" x="4.85" y="17.6" style="font-size:.80000001px;font-style:normal;font-weight:400;text-anchor:start;fill:#000;font-family:sans">/etc/group or other</text><text id="text34" x="4.85" y="18.4" style="font-size:.80000001px;font-style:normal;font-weight:400;text-anchor:start;fill:#000;font-family:sans">NSS backend</text><polygon id="polygon36" points="7.183 6.963 7.183 5.01 6.694 5.01 7.671 4.034 8.647 5.01 8.159 5.01 8.159 6.963 8.647 6.963 7.671 7.939 6.694 6.963 7.183 6.963" style="fill:#fff;stroke:none;stroke-width:.1"/><polygon id="polygon38" points="7.183 6.963 7.183 5.01 6.694 5.01 7.671 4.034 8.647 5.01 8.159 5.01 8.159 6.963 8.647 6.963 7.671 7.939 6.694 6.963 7.183 6.963" style="fill:none;stroke:#000;stroke-width:.1"/><polygon id="polygon40" points="7.183 6.963 7.183 5.01 6.694 5.01 7.671 4.034 8.647 5.01 8.159 5.01 8.159 6.963 8.647 6.963 7.671 7.939 6.694 6.963 7.183 6.963" style="fill:none;stroke:#000;stroke-width:.01"/><polygon id="polygon42" points="7.196 14.421 7.196 12.521 6.721 12.521 7.671 11.571 8.621 12.521 8.146 12.521 8.146 14.421 8.621 14.421 7.671 15.371 6.721 14.421 7.196 14.421" style="fill:#fff;stroke:none;stroke-width:.1"/><polygon id="polygon44" points="7.196 14.421 7.196 12.521 6.721 12.521 7.671 11.571 8.621 12.521 8.146 12.521 8.146 14.421 8.621 14.421 7.671 15.371 6.721 14.421 7.196 14.421" style="fill:none;stroke:#000;stroke-width:.1"/><polygon id="polygon46" points="7.196 14.421 7.196 12.521 6.721 12.521 7.671 11.571 8.621 12.521 8.146 12.521 8.146 14.421 8.621 14.421 7.671 15.371 6.721 14.421 7.196 14.421" style="fill:none;stroke:#000;stroke-width:.01"/></svg>