<svg xmlns="http://www.w3.org/2000/svg" xmlns:svg="http://www.w3.org/2000/svg" id="svg2" width="1256.088" height="770.684" version="1.0" viewBox="0.066 0.921 33.3 21.312"><line id="line4" x1="12.5" x2="12.5" y1="2.779" y2="4.9" stroke="#000" stroke-width=".1" style="stroke:#000;stroke-width:.1"/><polygon id="polygon6" points="12.1 4.9 12.5 5.7 12.9 4.9 12.1 4.9" style="fill:#000;stroke:none;stroke-width:.1"/><path id="path8" d="M 11.333,0.971 L 13.667,0.971 C 13.989,0.971 14.25,1.376 14.25,1.875 C 14.25,2.374 13.989,2.779 13.667,2.779 L 11.333,2.779 C 11.011,2.779 10.75,2.374 10.75,1.875 C 10.75,1.376 11.011,0.971 11.333,0.971" style="fill:#d9d9d9;stroke:none;stroke-width:.1"/><path id="path10" d="M 11.333,0.971 L 13.667,0.971 C 13.989,0.971 14.25,1.376 14.25,1.875 C 14.25,2.374 13.989,2.779 13.667,2.779 L 11.333,2.779 C 11.011,2.779 10.75,2.374 10.75,1.875 C 10.75,1.376 11.011,0.971 11.333,0.971" style="fill:none;stroke:#000;stroke-width:.1"/><text id="text12" x="11.799" y="2.053" style="font-size:1px;font-style:normal;font-weight:700;text-anchor:start;fill:#000;font-family:luxi sans">SID</text><polygon id="polygon14" points="12.5 5.75 15.5 7.75 12.5 9.75 9.5 7.75 12.5 5.75" style="fill:#aff3f6;stroke:none;stroke-width:.1"/><polygon id="polygon16" points="12.5 5.75 15.5 7.75 12.5 9.75 9.5 7.75 12.5 5.75" style="fill:none;stroke:#000;stroke-width:.1"/><text id="text18" x="9.846" y="8" style="font-size:1px;font-style:normal;font-weight:700;text-anchor:start;fill:#000;font-family:luxi sans">Our Domain?</text><line id="line20" x1="15.5" x2="17.65" y1="7.75" y2="7.75" stroke="#000" stroke-width=".1" style="stroke:#000;stroke-width:.1"/><polygon id="polygon22" points="17.65 8.15 18.45 7.75 17.65 7.35 17.65 8.15" style="fill:#000;stroke:none;stroke-width:.1"/><text id="text24" x="16.031" y="7.5" style="font-size:.80000001px;font-style:normal;font-weight:400;text-anchor:start;fill:#000;font-family:luxi sans">Yes</text><line id="line26" x1="12.5" x2="12.493" y1="9.75" y2="11.55" stroke="#000" stroke-width=".1" style="stroke:#000;stroke-width:.1"/><polygon id="polygon28" points="12.093 11.548 12.49 12.35 12.893 11.552 12.093 11.548" style="fill:#000;stroke:none;stroke-width:.1"/><text id="text30" x="12.854" y="10.75" style="font-size:.80000001px;font-style:normal;font-weight:400;text-anchor:start;fill:#000;font-family:luxi sans">No</text><line id="line32" x1="16.5" x2="16.5" y1="15.25" y2="17.4" stroke="#000" stroke-width=".1" style="stroke:#000;stroke-width:.1"/><polygon id="polygon34" points="16.1 17.4 16.5 18.2 16.9 17.4 16.1 17.4" style="fill:#000;stroke:none;stroke-width:.1"/><path id="path36" d="M 21.833,18.9 L 24.167,18.9 C 24.489,18.9 24.75,19.305 24.75,19.804 C 24.75,20.303 24.489,20.707 24.167,20.707 L 21.833,20.707 C 21.511,20.707 21.25,20.303 21.25,19.804 C 21.25,19.305 21.511,18.9 21.833,18.9" style="fill:#d9d9d9;stroke:none;stroke-width:.1"/><path id="path38" d="M 21.833,18.9 L 24.167,18.9 C 24.489,18.9 24.75,19.305 24.75,19.804 C 24.75,20.303 24.489,20.707 24.167,20.707 L 21.833,20.707 C 21.511,20.707 21.25,20.303 21.25,19.804 C 21.25,19.305 21.511,18.9 21.833,18.9" style="fill:none;stroke:#000;stroke-width:.1"/><text id="text40" x="22.265" y="19.981" style="font-size:1px;font-style:normal;font-weight:700;text-anchor:start;fill:#000;font-family:luxi sans">UID</text><polygon id="polygon42" points="16.5 18.25 18.5 19.75 16.5 21.25 14.5 19.75 16.5 18.25" style="fill:#a1fdfb;stroke:none;stroke-width:.1"/><polygon id="polygon44" points="16.5 18.25 18.5 19.75 16.5 21.25 14.5 19.75 16.5 18.25" style="fill:none;stroke:#000;stroke-width:.1"/><text id="text46" x="15.023" y="20" style="font-size:1px;font-style:normal;font-weight:700;text-anchor:start;fill:#000;font-family:luxi sans">Found?</text><text id="text48" x="18.781" y="19.5" style="font-size:.80000001px;font-style:normal;font-weight:400;text-anchor:start;fill:#000;font-family:luxi sans">Yes</text><text id="text50" x="13.354" y="19.5" style="font-size:.80000001px;font-style:normal;font-weight:400;text-anchor:start;fill:#000;font-family:luxi sans">No</text><line id="line52" x1="18.5" x2="20.4" y1="19.75" y2="19.75" stroke="#000" stroke-width=".1" style="stroke:#000;stroke-width:.1"/><polygon id="polygon54" points="20.4 20.15 21.2 19.75 20.4 19.35 20.4 20.15" style="fill:#000;stroke:none;stroke-width:.1"/><line id="line56" x1="14.5" x2="12.6" y1="19.75" y2="19.75" stroke="#000" stroke-width=".1" style="stroke:#000;stroke-width:.1"/><polygon id="polygon58" points="12.6 19.35 11.8 19.75 12.6 20.15 12.6 19.35" style="fill:#000;stroke:none;stroke-width:.1"/><path id="path60" d="M 8.833,18.9 L 11.167,18.9 C 11.489,18.9 11.75,19.305 11.75,19.804 C 11.75,20.303 11.489,20.707 11.167,20.707 L 8.833,20.707 C 8.511,20.707 8.25,20.303 8.25,19.804 C 8.25,19.305 8.511,18.9 8.833,18.9" style="fill:#d7d7d7;stroke:none;stroke-width:.1"/><path id="path62" d="M 8.833,18.9 L 11.167,18.9 C 11.489,18.9 11.75,19.305 11.75,19.804 C 11.75,20.303 11.489,20.707 11.167,20.707 L 8.833,20.707 C 8.511,20.707 8.25,20.303 8.25,19.804 C 8.25,19.305 8.511,18.9 8.833,18.9" style="fill:none;stroke:#000;stroke-width:.1"/><text id="text64" x="9.276" y="19.981" style="font-size:1px;font-style:normal;font-weight:700;text-anchor:start;fill:#000;font-family:luxi sans">Fail</text><rect id="rect66" width="4.14" height="2.1" x="18.419" y="6.65" style="fill:#d9d6d6;stroke:none;stroke-width:0"/><rect id="rect68" width="4.14" height="2.1" x="18.419" y="6.65" style="fill:none;stroke:#000;stroke-width:.1"/><text id="text70" x="18.969" y="7.878" style="font-size:1px;font-style:normal;font-weight:700;text-anchor:start;fill:#000;font-family:luxi sans">PassDB</text><line id="line72" x1="22.75" x2="25" y1="6.5" y2="5.25" stroke="#000" stroke-width=".05" style="stroke:#000;stroke-width:.05"/><line id="line74" x1="22.75" x2="25" y1="8.75" y2="10" stroke="#000" stroke-width=".05" style="stroke:#000;stroke-width:.05"/><rect id="rect76" width="8" height="5.25" x="25.25" y="5" style="fill:#fff;stroke:none;stroke-width:0"/><rect id="rect78" width="8" height="5.25" x="25.25" y="5" style="fill:none;stroke:#000;stroke-width:.1"/><text id="text80" x="28.089" y="5.75" style="font-size:1px;font-style:normal;font-weight:700;text-anchor:start;fill:#000;font-family:luxi sans">guest</text><text id="text82" x="26.85" y="6.75" style="font-size:1px;font-style:normal;font-weight:700;text-anchor:start;fill:#000;font-family:luxi sans">smbpasswd</text><text id="text84" x="27.709" y="7.75" style="font-size:1px;font-style:normal;font-weight:700;text-anchor:start;fill:#000;font-family:luxi sans">tdbsam</text><text id="text86" x="27.512" y="8.75" style="font-size:1px;font-style:normal;font-weight:700;text-anchor:start;fill:#000;font-family:luxi sans">ldapsam</text><text id="text88" x="25.8" y="9.75" style="font-size:1px;font-style:normal;font-weight:700;text-anchor:start;fill:#000;font-family:luxi sans">ldapsam_compat</text><line id="line90" x1="25.25" x2="33.25" y1="6" y2="6" stroke="#000" stroke-width=".05" style="stroke:#000;stroke-width:.05"/><line id="line92" x1="25.25" x2="33.25" y1="7" y2="7" stroke="#000" stroke-width=".05" style="stroke:#000;stroke-width:.05"/><line id="line94" x1="25.25" x2="33.25" y1="8" y2="8" stroke="#000" stroke-width=".05" style="stroke:#000;stroke-width:.05"/><line id="line96" x1="25.25" x2="33.25" y1="9" y2="9" stroke="#000" stroke-width=".05" style="stroke:#000;stroke-width:.05"/><rect id="rect98" width="4.49" height="2.1" x="10.244" y="12.4" style="fill:#d7d7d7;stroke:none;stroke-width:0"/><rect id="rect100" width="4.49" height="2.1" x="10.244" y="12.4" style="fill:none;stroke:#000;stroke-width:.1"/><text id="text102" x="10.794" y="13.628" style="font-size:1px;font-style:normal;font-weight:700;text-anchor:start;fill:#000;font-family:luxi sans">Winbind</text><rect id="rect104" width="7.5" height="2.75" x=".5" y="12" style="fill:#fff;stroke:none;stroke-width:0"/><rect id="rect106" width="7.5" height="2.75" x=".5" y="12" style="fill:none;stroke:#000;stroke-width:.1"/><text id="text108" x=".066" y="13" style="font-size:1px;font-style:normal;font-weight:700;text-anchor:start;fill:#000;font-family:luxi sans">winbindd_idmap.tdb</text><text id="text110" x="2.513" y="14.25" style="font-size:1px;font-style:normal;font-weight:700;text-anchor:start;fill:#000;font-family:luxi sans">ldapsam</text><line id="line112" x1="8" x2=".5" y1="13.375" y2="13.375" stroke="#000" stroke-width=".05" style="stroke:#000;stroke-width:.05"/><line id="line114" x1="8.25" x2="10.25" y1="12" y2="12.75" stroke="#000" stroke-width=".05" style="stroke:#000;stroke-width:.05"/><line id="line116" x1="8.25" x2="10.25" y1="14.75" y2="14" stroke="#000" stroke-width=".05" style="stroke:#000;stroke-width:.05"/><polyline id="polyline118" fill="none" stroke="#000" stroke-width=".1" points="12.489 14.5 12.489 15.5 20.489 15.5 20.489 8.75" style="fill:none;stroke:#000;stroke-width:.1"/></svg>