<svg xmlns="http://www.w3.org/2000/svg" xmlns:svg="http://www.w3.org/2000/svg" id="svg2" width="18.5cm" height="188.939" version="1.0" viewBox="5.85 2.808 24.35 7.807"><rect id="rect4" width="4.1" height="1" x="5.9" y="3" style="fill:#fff;stroke:none;stroke-width:0"/><rect id="rect6" width="4.1" height="1" x="5.9" y="3" style="fill:none;stroke:#000;stroke-width:.1"/><text id="text8" x="6.804" y="3.8" style="font-size:.80000001px;font-style:normal;font-weight:400;text-anchor:start;fill:#000;font-family:sans">pdftops</text><rect id="rect10" width="4.1" height="1" x="12.8" y="3" style="fill:#fff;stroke:none;stroke-width:0"/><rect id="rect12" width="4.1" height="1" x="12.8" y="3" style="fill:none;stroke:#000;stroke-width:.1"/><text id="text14" x="13.835" y="3.8" style="font-size:.80000001px;font-style:normal;font-weight:400;text-anchor:start;fill:#000;font-family:sans">pstops</text><rect id="rect16" width="4.1" height="1" x="19.9" y="3" style="fill:#fff;stroke:none;stroke-width:0"/><rect id="rect18" width="4.761" height=".993" x="19.904" y="3.004" style="fill:none;stroke:#000;stroke-width:.10736195"/><text id="text20" x="20.409" y="3.8" style="font-size:.80000001px;font-style:normal;font-weight:400;text-anchor:start;fill:#000;font-family:sans">pstoraster</text><polygon id="polygon22" points="10.5 3.225 11.5 3.225 11.5 2.9 12.5 3.55 11.5 4.2 11.5 3.875 10.5 3.875 10.5 3.225" style="fill:#fff;stroke:none;stroke-width:.1"/><polygon id="polygon24" points="10.5 3.225 11.5 3.225 11.5 2.9 12.5 3.55 11.5 4.2 11.5 3.875 10.5 3.875 10.5 3.225" style="fill:none;stroke:#000;stroke-width:.1"/><polygon id="polygon26" points="10.5 3.225 11.5 3.225 11.5 2.9 12.5 3.55 11.5 4.2 11.5 3.875 10.5 3.875 10.5 3.225" style="fill:none;stroke:#000;stroke-width:.01"/><polygon id="polygon28" points="17.4 3.225 18.4 3.225 18.4 2.9 19.4 3.55 18.4 4.2 18.4 3.875 17.4 3.875 17.4 3.225" style="fill:#fff;stroke:none;stroke-width:.1"/><polygon id="polygon30" points="17.4 3.225 18.4 3.225 18.4 2.9 19.4 3.55 18.4 4.2 18.4 3.875 17.4 3.875 17.4 3.225" style="fill:none;stroke:#000;stroke-width:.1"/><polygon id="polygon32" points="17.4 3.225 18.4 3.225 18.4 2.9 19.4 3.55 18.4 4.2 18.4 3.875 17.4 3.875 17.4 3.225" style="fill:none;stroke:#000;stroke-width:.01"/><rect id="rect34" width="4.8" height="1" x="19.5" y="6.3" style="fill:#fff;stroke:none;stroke-width:0"/><rect id="rect36" width="6.022" height=".989" x="19.506" y="6.306" style="fill:none;stroke:#000;stroke-width:.11137342"/><text id="text38" x="19.866" y="7.1" style="font-size:.80000001px;font-style:normal;font-weight:400;text-anchor:start;fill:#000;font-family:sans">rastertoepson</text><polygon id="polygon40" points="21.6 4.4 21.6 5.2 21.2 5.2 22 6 22.8 5.2 22.4 5.2 22.4 4.4 21.6 4.4" style="fill:#fff;stroke:none;stroke-width:.1"/><polygon id="polygon42" points="21.6 4.4 21.6 5.2 21.2 5.2 22 6 22.8 5.2 22.4 5.2 22.4 4.4 21.6 4.4" style="fill:none;stroke:#000;stroke-width:.1"/><polygon id="polygon44" points="21.6 4.4 21.6 5.2 21.2 5.2 22 6 22.8 5.2 22.4 5.2 22.4 4.4 21.6 4.4" style="fill:none;stroke:#000;stroke-width:.01"/><rect id="rect46" width="4.1" height="1" x="12.5" y="6.3" style="fill:#fff;stroke:none;stroke-width:0"/><rect id="rect48" width="4.1" height="1" x="12.5" y="6.3" style="fill:none;stroke:#000;stroke-width:.1"/><text id="text50" x="13.979" y="7.1" style="font-size:.80000001px;font-style:normal;font-weight:400;text-anchor:start;fill:#000;font-family:sans">usb</text><polygon id="polygon52" points="18.886 6.422 18.043 6.422 18.043 6 17.2 6.843 18.043 7.686 18.043 7.265 18.886 7.265 18.886 6.422" style="fill:#fff;stroke:none;stroke-width:.1"/><polygon id="polygon54" points="18.886 6.422 18.043 6.422 18.043 6 17.2 6.843 18.043 7.686 18.043 7.265 18.886 7.265 18.886 6.422" style="fill:none;stroke:#000;stroke-width:.1"/><polygon id="polygon56" points="18.886 6.422 18.043 6.422 18.043 6 17.2 6.843 18.043 7.686 18.043 7.265 18.886 7.265 18.886 6.422" style="fill:none;stroke:#000;stroke-width:.01"/></svg>