<svg xmlns="http://www.w3.org/2000/svg" xmlns:svg="http://www.w3.org/2000/svg" id="svg2" width="687.874" height="56.088" version="1.0" viewBox="5.85 2.808 24.05 4.292"><rect id="rect4" width="4.1" height="1" x="5.9" y="3" style="fill:#fff;stroke:none;stroke-width:0"/><rect id="rect6" width="4.1" height="1" x="5.9" y="3" style="fill:none;stroke:#000;stroke-width:.1"/><text id="text8" x="6.804" y="3.8" style="font-size:.80000001px;font-style:normal;font-weight:400;text-anchor:start;fill:#000;font-family:sans">pdftops</text><rect id="rect10" width="4.1" height="1" x="12.8" y="3" style="fill:#fff;stroke:none;stroke-width:0"/><rect id="rect12" width="4.1" height="1" x="12.8" y="3" style="fill:none;stroke:#000;stroke-width:.1"/><text id="text14" x="13.835" y="3.8" style="font-size:.80000001px;font-style:normal;font-weight:400;text-anchor:start;fill:#000;font-family:sans">pstops</text><rect id="rect16" width="4.1" height="1" x="19.9" y="3" style="fill:#fff;stroke:none;stroke-width:0"/><rect id="rect18" width="4.1" height="1" x="19.9" y="3" style="fill:none;stroke:#000;stroke-width:.1"/><text id="text20" x="20.959" y="3.8" style="font-size:.80000001px;font-style:normal;font-weight:400;text-anchor:start;fill:#000;font-family:sans">socket</text><polygon id="polygon22" points="10.5 3.225 11.5 3.225 11.5 2.9 12.5 3.55 11.5 4.2 11.5 3.875 10.5 3.875 10.5 3.225" style="fill:#fff;stroke:none;stroke-width:.1"/><polygon id="polygon24" points="10.5 3.225 11.5 3.225 11.5 2.9 12.5 3.55 11.5 4.2 11.5 3.875 10.5 3.875 10.5 3.225" style="fill:none;stroke:#000;stroke-width:.1"/><polygon id="polygon26" points="10.5 3.225 11.5 3.225 11.5 2.9 12.5 3.55 11.5 4.2 11.5 3.875 10.5 3.875 10.5 3.225" style="fill:none;stroke:#000;stroke-width:.01"/><polygon id="polygon28" points="17.4 3.225 18.4 3.225 18.4 2.9 19.4 3.55 18.4 4.2 18.4 3.875 17.4 3.875 17.4 3.225" style="fill:#fff;stroke:none;stroke-width:.1"/><polygon id="polygon30" points="17.4 3.225 18.4 3.225 18.4 2.9 19.4 3.55 18.4 4.2 18.4 3.875 17.4 3.875 17.4 3.225" style="fill:none;stroke:#000;stroke-width:.1"/><polygon id="polygon32" points="17.4 3.225 18.4 3.225 18.4 2.9 19.4 3.55 18.4 4.2 18.4 3.875 17.4 3.875 17.4 3.225" style="fill:none;stroke:#000;stroke-width:.01"/></svg>