<svg xmlns="http://www.w3.org/2000/svg" xmlns:svg="http://www.w3.org/2000/svg" id="svg2" width="27.1cm" height="8.493cm" version="1.0" viewBox="6.95 1.958 34.05 10.45"><rect id="rect4" width="1.367" height="3.19" x="8.873" y="5" style="fill:#b3b3b3;stroke:none;stroke-width:0"/><rect id="rect6" width="1.367" height="3.19" x="8.873" y="5" style="fill:none;stroke:#000;stroke-width:.08"/><rect id="rect8" width="1.094" height=".365" x="9.01" y="5.191" style="fill:none;stroke:#000;stroke-width:.01"/><rect id="rect10" width="1.094" height=".365" x="9.01" y="5.556" style="fill:none;stroke:#000;stroke-width:.01"/><rect id="rect12" width="1.094" height=".365" x="9.01" y="5.921" style="fill:none;stroke:#000;stroke-width:.01"/><rect id="rect14" width="1.094" height=".365" x="9.01" y="6.285" style="fill:none;stroke:#000;stroke-width:.01"/><rect id="rect16" width=".684" height=".219" x="9.01" y="6.723" style="fill:none;stroke:#000;stroke-width:.01"/><ellipse id="ellipse18" cx="10.036" cy="6.759" rx=".048" ry=".048" style="fill:#0f0;stroke:none"/><ellipse id="ellipse20" cx="10.036" cy="6.759" rx=".048" ry=".048" style="fill:none;stroke:#000;stroke-width:.01"/><ellipse id="ellipse22" cx="10.036" cy="6.905" rx=".048" ry=".048" style="fill:#ff0;stroke:none"/><ellipse id="ellipse24" cx="10.036" cy="6.905" rx=".048" ry=".048" style="fill:none;stroke:#000;stroke-width:.01"/><rect id="rect26" width=".164" height=".146" x="9.762" y="6.796" style="fill:#fff;stroke:none;stroke-width:0"/><rect id="rect28" width=".164" height=".146" x="9.762" y="6.796" style="fill:none;stroke:#000;stroke-width:.01"/><path id="path30" d="M 9.101,7.233 L 9.101,8.031" style="fill:none;stroke:#000;stroke-width:.01"/><path id="path32" d="M 9.329,7.233 L 9.329,8.031" style="fill:none;stroke:#000;stroke-width:.01"/><path id="path34" d="M 9.557,7.233 L 9.557,8.031" style="fill:none;stroke:#000;stroke-width:.01"/><path id="path36" d="M 9.785,7.233 L 9.785,8.031" style="fill:none;stroke:#000;stroke-width:.01"/><path id="path38" d="M 10.013,7.233 L 10.013,8.031" style="fill:none;stroke:#000;stroke-width:.01"/><path id="path40" d="M 10.241,7.233 L 10.241,8.031" style="fill:none;stroke:#000;stroke-width:.01"/><polygon id="polygon42" points="8.6 8.464 8.873 7.917 8.873 8.19 10.241 8.19 10.241 7.917 10.605 8.464 8.6 8.464" style="fill:#999;stroke:none;stroke-width:.01"/><polygon id="polygon44" points="8.6 8.464 8.873 7.917 8.873 8.19 10.241 8.19 10.241 7.917 10.605 8.464 8.6 8.464" style="fill:none;stroke:#000;stroke-width:.01"/><ellipse id="ellipse46" cx="12.25" cy="6.7" rx="5.25" ry="3.6" style="fill:none;stroke:#000;stroke-width:.1"/><rect id="rect48" width="1.365" height="3.186" x="11.273" y="5" style="fill:#b3b3b3;stroke:none;stroke-width:0"/><rect id="rect50" width="1.365" height="3.186" x="11.273" y="5" style="fill:none;stroke:#000;stroke-width:.08"/><rect id="rect52" width="1.092" height=".364" x="11.41" y="5.191" style="fill:none;stroke:#000;stroke-width:.01"/><rect id="rect54" width="1.092" height=".364" x="11.41" y="5.555" style="fill:none;stroke:#000;stroke-width:.01"/><rect id="rect56" width="1.092" height=".364" x="11.41" y="5.919" style="fill:none;stroke:#000;stroke-width:.01"/><rect id="rect58" width="1.092" height=".364" x="11.41" y="6.284" style="fill:none;stroke:#000;stroke-width:.01"/><rect id="rect60" width=".683" height=".218" x="11.41" y="6.72" style="fill:none;stroke:#000;stroke-width:.01"/><ellipse id="ellipse62" cx="12.434" cy="6.757" rx=".048" ry=".048" style="fill:#0f0;stroke:none"/><ellipse id="ellipse64" cx="12.434" cy="6.757" rx=".048" ry=".048" style="fill:none;stroke:#000;stroke-width:.01"/><ellipse id="ellipse66" cx="12.434" cy="6.902" rx=".048" ry=".048" style="fill:#ff0;stroke:none"/><ellipse id="ellipse68" cx="12.434" cy="6.902" rx=".048" ry=".048" style="fill:none;stroke:#000;stroke-width:.01"/><rect id="rect70" width=".164" height=".146" x="12.161" y="6.793" style="fill:#fff;stroke:none;stroke-width:0"/><rect id="rect72" width=".164" height=".146" x="12.161" y="6.793" style="fill:none;stroke:#000;stroke-width:.01"/><path id="path74" d="M 11.501,7.23 L 11.501,8.027" style="fill:none;stroke:#000;stroke-width:.01"/><path id="path76" d="M 11.728,7.23 L 11.728,8.027" style="fill:none;stroke:#000;stroke-width:.01"/><path id="path78" d="M 11.956,7.23 L 11.956,8.027" style="fill:none;stroke:#000;stroke-width:.01"/><path id="path80" d="M 12.183,7.23 L 12.183,8.027" style="fill:none;stroke:#000;stroke-width:.01"/><path id="path82" d="M 12.411,7.23 L 12.411,8.027" style="fill:none;stroke:#000;stroke-width:.01"/><path id="path84" d="M 12.639,7.23 L 12.639,8.027" style="fill:none;stroke:#000;stroke-width:.01"/><polygon id="polygon86" points="11 8.459 11.273 7.913 11.273 8.186 12.639 8.186 12.639 7.913 13.003 8.459 11 8.459" style="fill:#999;stroke:none;stroke-width:.01"/><polygon id="polygon88" points="11 8.459 11.273 7.913 11.273 8.186 12.639 8.186 12.639 7.913 13.003 8.459 11 8.459" style="fill:none;stroke:#000;stroke-width:.01"/><rect id="rect90" width="1.322" height="3.086" x="13.764" y="5.1" style="fill:#b3b3b3;stroke:none;stroke-width:0"/><rect id="rect92" width="1.322" height="3.086" x="13.764" y="5.1" style="fill:none;stroke:#000;stroke-width:.08"/><rect id="rect94" width="1.058" height=".353" x="13.897" y="5.285" style="fill:none;stroke:#000;stroke-width:.01"/><rect id="rect96" width="1.058" height=".353" x="13.897" y="5.638" style="fill:none;stroke:#000;stroke-width:.01"/><rect id="rect98" width="1.058" height=".353" x="13.897" y="5.99" style="fill:none;stroke:#000;stroke-width:.01"/><rect id="rect100" width="1.058" height=".353" x="13.897" y="6.343" style="fill:none;stroke:#000;stroke-width:.01"/><rect id="rect102" width=".661" height=".212" x="13.897" y="6.766" style="fill:none;stroke:#000;stroke-width:.01"/><ellipse id="ellipse104" cx="14.888" cy="6.801" rx=".046" ry=".046" style="fill:#0f0;stroke:none"/><ellipse id="ellipse106" cx="14.888" cy="6.801" rx=".046" ry=".046" style="fill:none;stroke:#000;stroke-width:.01"/><ellipse id="ellipse108" cx="14.888" cy="6.942" rx=".046" ry=".046" style="fill:#ff0;stroke:none"/><ellipse id="ellipse110" cx="14.888" cy="6.942" rx=".046" ry=".046" style="fill:none;stroke:#000;stroke-width:.01"/><rect id="rect112" width=".159" height=".141" x="14.624" y="6.837" style="fill:#fff;stroke:none;stroke-width:0"/><rect id="rect114" width=".159" height=".141" x="14.624" y="6.837" style="fill:none;stroke:#000;stroke-width:.01"/><path id="path116" d="M 13.985,7.26 L 13.985,8.031" style="fill:none;stroke:#000;stroke-width:.01"/><path id="path118" d="M 14.205,7.26 L 14.205,8.031" style="fill:none;stroke:#000;stroke-width:.01"/><path id="path120" d="M 14.426,7.26 L 14.426,8.031" style="fill:none;stroke:#000;stroke-width:.01"/><path id="path122" d="M 14.646,7.26 L 14.646,8.031" style="fill:none;stroke:#000;stroke-width:.01"/><path id="path124" d="M 14.866,7.26 L 14.866,8.031" style="fill:none;stroke:#000;stroke-width:.01"/><path id="path126" d="M 15.087,7.26 L 15.087,8.031" style="fill:none;stroke:#000;stroke-width:.01"/><polygon id="polygon128" points="13.5 8.45 13.764 7.921 13.764 8.186 15.087 8.186 15.087 7.921 15.439 8.45 13.5 8.45" style="fill:#999;stroke:none;stroke-width:.01"/><polygon id="polygon130" points="13.5 8.45 13.764 7.921 13.764 8.186 15.087 8.186 15.087 7.921 15.439 8.45 13.5 8.45" style="fill:none;stroke:#000;stroke-width:.01"/><text id="text132" x="10.5" y="2.5" style="font-size:.80000001px;font-style:normal;font-weight:400;text-anchor:start;fill:#000;font-family:sans">Domain A</text><text id="text134" x="27.3" y="2.8" style="font-size:.80000001px;font-style:normal;font-weight:400;text-anchor:start;fill:#000;font-family:sans">Domain B</text><polygon id="polygon136" points="18.5 6.5 20.6 6.5 20.6 6.2 22.7 6.8 20.6 7.4 20.6 7.1 18.5 7.1 18.5 6.5" style="fill:#fff;stroke:none;stroke-width:.1"/><polygon id="polygon138" points="18.5 6.5 20.6 6.5 20.6 6.2 22.7 6.8 20.6 7.4 20.6 7.1 18.5 7.1 18.5 6.5" style="fill:none;stroke:#000;stroke-width:.1"/><polygon id="polygon140" points="18.5 6.5 20.6 6.5 20.6 6.2 22.7 6.8 20.6 7.4 20.6 7.1 18.5 7.1 18.5 6.5" style="fill:none;stroke:#000;stroke-width:.01"/><text id="text142" x="19.3" y="5.9" style="font-size:.80000001px;font-style:normal;font-weight:400;text-anchor:start;fill:#000;font-family:sans">Trusts</text><rect id="rect144" width="1.367" height="3.19" x="25.373" y="5.1" style="fill:#b3b3b3;stroke:none;stroke-width:0"/><rect id="rect146" width="1.367" height="3.19" x="25.373" y="5.1" style="fill:none;stroke:#000;stroke-width:.08"/><rect id="rect148" width="1.094" height=".365" x="25.51" y="5.291" style="fill:none;stroke:#000;stroke-width:.01"/><rect id="rect150" width="1.094" height=".365" x="25.51" y="5.656" style="fill:none;stroke:#000;stroke-width:.01"/><rect id="rect152" width="1.094" height=".365" x="25.51" y="6.021" style="fill:none;stroke:#000;stroke-width:.01"/><rect id="rect154" width="1.094" height=".365" x="25.51" y="6.385" style="fill:none;stroke:#000;stroke-width:.01"/><rect id="rect156" width=".684" height=".219" x="25.51" y="6.823" style="fill:none;stroke:#000;stroke-width:.01"/><ellipse id="ellipse158" cx="26.536" cy="6.859" rx=".048" ry=".048" style="fill:#0f0;stroke:none"/><ellipse id="ellipse160" cx="26.536" cy="6.859" rx=".048" ry=".048" style="fill:none;stroke:#000;stroke-width:.01"/><ellipse id="ellipse162" cx="26.536" cy="7.005" rx=".048" ry=".048" style="fill:#ff0;stroke:none"/><ellipse id="ellipse164" cx="26.536" cy="7.005" rx=".048" ry=".048" style="fill:none;stroke:#000;stroke-width:.01"/><rect id="rect166" width=".164" height=".146" x="26.262" y="6.896" style="fill:#fff;stroke:none;stroke-width:0"/><rect id="rect168" width=".164" height=".146" x="26.262" y="6.896" style="fill:none;stroke:#000;stroke-width:.01"/><path id="path170" d="M 25.601,7.333 L 25.601,8.131" style="fill:none;stroke:#000;stroke-width:.01"/><path id="path172" d="M 25.829,7.333 L 25.829,8.131" style="fill:none;stroke:#000;stroke-width:.01"/><path id="path174" d="M 26.057,7.333 L 26.057,8.131" style="fill:none;stroke:#000;stroke-width:.01"/><path id="path176" d="M 26.285,7.333 L 26.285,8.131" style="fill:none;stroke:#000;stroke-width:.01"/><path id="path178" d="M 26.513,7.333 L 26.513,8.131" style="fill:none;stroke:#000;stroke-width:.01"/><path id="path180" d="M 26.741,7.333 L 26.741,8.131" style="fill:none;stroke:#000;stroke-width:.01"/><polygon id="polygon182" points="25.1 8.564 25.373 8.017 25.373 8.29 26.741 8.29 26.741 8.017 27.105 8.564 25.1 8.564" style="fill:#999;stroke:none;stroke-width:.01"/><polygon id="polygon184" points="25.1 8.564 25.373 8.017 25.373 8.29 26.741 8.29 26.741 8.017 27.105 8.564 25.1 8.564" style="fill:none;stroke:#000;stroke-width:.01"/><ellipse id="ellipse186" cx="28.75" cy="6.8" rx="5.25" ry="3.6" style="fill:none;stroke:#000;stroke-width:.1"/><rect id="rect188" width="1.365" height="3.186" x="27.773" y="5.1" style="fill:#b3b3b3;stroke:none;stroke-width:0"/><rect id="rect190" width="1.365" height="3.186" x="27.773" y="5.1" style="fill:none;stroke:#000;stroke-width:.08"/><rect id="rect192" width="1.092" height=".364" x="27.91" y="5.291" style="fill:none;stroke:#000;stroke-width:.01"/><rect id="rect194" width="1.092" height=".364" x="27.91" y="5.655" style="fill:none;stroke:#000;stroke-width:.01"/><rect id="rect196" width="1.092" height=".364" x="27.91" y="6.019" style="fill:none;stroke:#000;stroke-width:.01"/><rect id="rect198" width="1.092" height=".364" x="27.91" y="6.384" style="fill:none;stroke:#000;stroke-width:.01"/><rect id="rect200" width=".683" height=".218" x="27.91" y="6.82" style="fill:none;stroke:#000;stroke-width:.01"/><ellipse id="ellipse202" cx="28.934" cy="6.857" rx=".048" ry=".048" style="fill:#0f0;stroke:none"/><ellipse id="ellipse204" cx="28.934" cy="6.857" rx=".048" ry=".048" style="fill:none;stroke:#000;stroke-width:.01"/><ellipse id="ellipse206" cx="28.934" cy="7.002" rx=".048" ry=".048" style="fill:#ff0;stroke:none"/><ellipse id="ellipse208" cx="28.934" cy="7.002" rx=".048" ry=".048" style="fill:none;stroke:#000;stroke-width:.01"/><rect id="rect210" width=".164" height=".146" x="28.661" y="6.893" style="fill:#fff;stroke:none;stroke-width:0"/><rect id="rect212" width=".164" height=".146" x="28.661" y="6.893" style="fill:none;stroke:#000;stroke-width:.01"/><path id="path214" d="M 28.001,7.33 L 28.001,8.127" style="fill:none;stroke:#000;stroke-width:.01"/><path id="path216" d="M 28.228,7.33 L 28.228,8.127" style="fill:none;stroke:#000;stroke-width:.01"/><path id="path218" d="M 28.456,7.33 L 28.456,8.127" style="fill:none;stroke:#000;stroke-width:.01"/><path id="path220" d="M 28.683,7.33 L 28.683,8.127" style="fill:none;stroke:#000;stroke-width:.01"/><path id="path222" d="M 28.911,7.33 L 28.911,8.127" style="fill:none;stroke:#000;stroke-width:.01"/><path id="path224" d="M 29.139,7.33 L 29.139,8.127" style="fill:none;stroke:#000;stroke-width:.01"/><polygon id="polygon226" points="27.5 8.559 27.773 8.013 27.773 8.286 29.139 8.286 29.139 8.013 29.503 8.559 27.5 8.559" style="fill:#999;stroke:none;stroke-width:.01"/><polygon id="polygon228" points="27.5 8.559 27.773 8.013 27.773 8.286 29.139 8.286 29.139 8.013 29.503 8.559 27.5 8.559" style="fill:none;stroke:#000;stroke-width:.01"/><rect id="rect230" width="1.322" height="3.086" x="30.264" y="5.2" style="fill:#b3b3b3;stroke:none;stroke-width:0"/><rect id="rect232" width="1.322" height="3.086" x="30.264" y="5.2" style="fill:none;stroke:#000;stroke-width:.08"/><rect id="rect234" width="1.058" height=".353" x="30.397" y="5.385" style="fill:none;stroke:#000;stroke-width:.01"/><rect id="rect236" width="1.058" height=".353" x="30.397" y="5.738" style="fill:none;stroke:#000;stroke-width:.01"/><rect id="rect238" width="1.058" height=".353" x="30.397" y="6.09" style="fill:none;stroke:#000;stroke-width:.01"/><rect id="rect240" width="1.058" height=".353" x="30.397" y="6.443" style="fill:none;stroke:#000;stroke-width:.01"/><rect id="rect242" width=".661" height=".212" x="30.397" y="6.866" style="fill:none;stroke:#000;stroke-width:.01"/><ellipse id="ellipse244" cx="31.388" cy="6.901" rx=".046" ry=".046" style="fill:#0f0;stroke:none"/><ellipse id="ellipse246" cx="31.388" cy="6.901" rx=".046" ry=".046" style="fill:none;stroke:#000;stroke-width:.01"/><ellipse id="ellipse248" cx="31.388" cy="7.043" rx=".046" ry=".046" style="fill:#ff0;stroke:none"/><ellipse id="ellipse250" cx="31.388" cy="7.043" rx=".046" ry=".046" style="fill:none;stroke:#000;stroke-width:.01"/><rect id="rect252" width=".159" height=".141" x="31.124" y="6.937" style="fill:#fff;stroke:none;stroke-width:0"/><rect id="rect254" width=".159" height=".141" x="31.124" y="6.937" style="fill:none;stroke:#000;stroke-width:.01"/><path id="path256" d="M 30.485,7.36 L 30.485,8.131" style="fill:none;stroke:#000;stroke-width:.01"/><path id="path258" d="M 30.705,7.36 L 30.705,8.131" style="fill:none;stroke:#000;stroke-width:.01"/><path id="path260" d="M 30.926,7.36 L 30.926,8.131" style="fill:none;stroke:#000;stroke-width:.01"/><path id="path262" d="M 31.146,7.36 L 31.146,8.131" style="fill:none;stroke:#000;stroke-width:.01"/><path id="path264" d="M 31.366,7.36 L 31.366,8.131" style="fill:none;stroke:#000;stroke-width:.01"/><path id="path266" d="M 31.587,7.36 L 31.587,8.131" style="fill:none;stroke:#000;stroke-width:.01"/><polygon id="polygon268" points="30 8.55 30.264 8.021 30.264 8.286 31.587 8.286 31.587 8.021 31.939 8.55 30 8.55" style="fill:#999;stroke:none;stroke-width:.01"/><polygon id="polygon270" points="30 8.55 30.264 8.021 30.264 8.286 31.587 8.286 31.587 8.021 31.939 8.55 30 8.55" style="fill:none;stroke:#000;stroke-width:.01"/></svg>