<svg xmlns="http://www.w3.org/2000/svg" xmlns:svg="http://www.w3.org/2000/svg" id="svg2" width="454.828" height="381.543" version="1.0" viewBox="1.1 0.162 13.134 10.258"><text id="text4" x="4.216" y="1.6" style="font-size:.80000001px;font-style:normal;font-weight:400;text-anchor:start;fill:#000;font-family:arial">Workgroup: BILLMORE</text><rect id="rect6" width="1.5" height="3" x="1.15" y="4.65" style="fill:#d9d9cd;stroke:none;stroke-width:0"/><rect id="rect8" width="1.5" height="3" x="1.15" y="4.65" style="fill:none;stroke:#000;stroke-width:.1"/><rect id="rect10" width="1.5" height="3" x="1.15" y="4.65" style="fill:none;stroke:#000;stroke-width:.01"/><rect id="rect12" width="1.2" height="1.2" x="1.3" y="4.8" style="fill:#d9d9cd;stroke:none;stroke-width:0"/><rect id="rect14" width="1.2" height="1.2" x="1.3" y="4.8" style="fill:none;stroke:#000;stroke-width:.1"/><rect id="rect16" width="1.2" height="1.2" x="1.3" y="4.8" style="fill:none;stroke:#000;stroke-width:.01"/><line id="line18" x1="2.5" x2="1.3" y1="5.1" y2="5.1" stroke="#000" stroke-width=".01" style="stroke:#000;stroke-width:.01"/><line id="line20" x1="1.3" x2="2.5" y1="5.4" y2="5.4" stroke="#000" stroke-width=".01" style="stroke:#000;stroke-width:.01"/><line id="line22" x1="2.5" x2="1.3" y1="5.625" y2="5.625" stroke="#000" stroke-width=".01" style="stroke:#000;stroke-width:.01"/><rect id="rect24" width=".825" height=".45" x="1.3" y="6.15" style="fill:#d9d9cd;stroke:none;stroke-width:0"/><rect id="rect26" width=".825" height=".45" x="1.3" y="6.15" style="fill:none;stroke:#000;stroke-width:.1"/><rect id="rect28" width=".825" height=".45" x="1.3" y="6.15" style="fill:none;stroke:#000;stroke-width:.01"/><line id="line30" x1="1.15" x2="2.65" y1="6.675" y2="6.675" stroke="#000" stroke-width=".01" style="stroke:#000;stroke-width:.01"/><rect id="rect32" width=".075" height=".075" x="1.825" y="6.825" style="fill:#00cd00;stroke:none;stroke-width:0"/><rect id="rect34" width=".075" height=".075" x="1.825" y="6.825" style="fill:none;stroke:#000;stroke-width:.1"/><rect id="rect36" width=".075" height=".075" x="1.825" y="6.825" style="fill:none;stroke:#000;stroke-width:.01"/><rect id="rect38" width=".075" height=".075" x="2.125" y="6.825" style="fill:#cdcd00;stroke:none;stroke-width:0"/><rect id="rect40" width=".075" height=".075" x="2.125" y="6.825" style="fill:none;stroke:#000;stroke-width:.1"/><rect id="rect42" width=".075" height=".075" x="2.125" y="6.825" style="fill:none;stroke:#000;stroke-width:.01"/><rect id="rect44" width=".075" height=".075" x="2.425" y="6.825" style="fill:#cd0000;stroke:none;stroke-width:0"/><rect id="rect46" width=".075" height=".075" x="2.425" y="6.825" style="fill:none;stroke:#000;stroke-width:.1"/><rect id="rect48" width=".075" height=".075" x="2.425" y="6.825" style="fill:none;stroke:#000;stroke-width:.01"/><rect id="rect50" width=".15" height=".075" x="2.35" y="6.375" style="fill:#cdcdbd;stroke:none;stroke-width:0"/><rect id="rect52" width=".15" height=".075" x="2.35" y="6.375" style="fill:none;stroke:#000;stroke-width:.1"/><rect id="rect54" width=".15" height=".075" x="2.35" y="6.375" style="fill:none;stroke:#000;stroke-width:.01"/><line id="line56" x1="1.3" x2="2.125" y1="6.375" y2="6.375" stroke="#000" stroke-width=".01" style="stroke:#000;stroke-width:.01"/><rect id="rect58" width=".225" height=".225" x="1.3" y="6.75" style="fill:#cdcdbd;stroke:none;stroke-width:0"/><rect id="rect60" width=".225" height=".225" x="1.3" y="6.75" style="fill:none;stroke:#000;stroke-width:.1"/><rect id="rect62" width=".225" height=".225" x="1.3" y="6.75" style="fill:none;stroke:#000;stroke-width:.01"/><rect id="rect64" width="1.05" height=".075" x="1.375" y="5.7" style="fill:#cdcdc1;stroke:none;stroke-width:0"/><rect id="rect66" width="1.05" height=".075" x="1.375" y="5.7" style="fill:none;stroke:#000;stroke-width:.1"/><rect id="rect68" width="1.05" height=".075" x="1.375" y="5.7" style="fill:none;stroke:#000;stroke-width:.01"/><line id="line70" x1="1.375" x2="2.05" y1="6.225" y2="6.225" stroke="#000" stroke-width=".01" style="stroke:#000;stroke-width:.01"/><line id="line72" x1="2.05" x2="1.975" y1="6.3" y2="6.3" stroke="#000" stroke-width=".01" style="stroke:#000;stroke-width:.01"/><line id="line74" x1="1.375" x2="1.45" y1="6.3" y2="6.3" stroke="#000" stroke-width=".01" style="stroke:#000;stroke-width:.01"/><rect id="rect76" width=".375" height=".075" x="1.525" y="6.225" style="fill:#cdcdc1;stroke:none;stroke-width:0"/><rect id="rect78" width=".375" height=".075" x="1.525" y="6.225" style="fill:none;stroke:#000;stroke-width:.1"/><rect id="rect80" width=".375" height=".075" x="1.525" y="6.225" style="fill:none;stroke:#000;stroke-width:.01"/><line id="line82" x1="1.375" x2="1.45" y1="5.85" y2="5.85" stroke="#000" stroke-width=".01" style="stroke:#000;stroke-width:.01"/><line id="line84" x1="1.525" x2="1.6" y1="5.85" y2="5.85" stroke="#000" stroke-width=".01" style="stroke:#000;stroke-width:.01"/><line id="line86" x1="2.275" x2="2.425" y1="5.85" y2="5.85" stroke="#000" stroke-width=".01" style="stroke:#000;stroke-width:.01"/><line id="line88" x1="2.575" x2="1.225" y1="7.575" y2="7.575" stroke="#000" stroke-width=".01" style="stroke:#000;stroke-width:.01"/><line id="line90" x1="1.225" x2="2.575" y1="7.5" y2="7.5" stroke="#000" stroke-width=".01" style="stroke:#000;stroke-width:.01"/><line id="line92" x1="2.575" x2="1.225" y1="7.425" y2="7.425" stroke="#000" stroke-width=".01" style="stroke:#000;stroke-width:.01"/><line id="line94" x1="1.225" x2="2.575" y1="7.35" y2="7.35" stroke="#000" stroke-width=".01" style="stroke:#000;stroke-width:.01"/><line id="line96" x1="2.575" x2="1.225" y1="7.275" y2="7.275" stroke="#000" stroke-width=".01" style="stroke:#000;stroke-width:.01"/><line id="line98" x1="1.225" x2="2.575" y1="7.2" y2="7.2" stroke="#000" stroke-width=".01" style="stroke:#000;stroke-width:.01"/><line id="line100" x1="2.575" x2="1.225" y1="7.125" y2="7.125" stroke="#000" stroke-width=".01" style="stroke:#000;stroke-width:.01"/><rect id="rect102" width="1.333" height="4" x="3.733" y="3.688" style="fill:#d9d9cd;stroke:none;stroke-width:0"/><rect id="rect104" width="1.333" height="4" x="3.733" y="3.688" style="fill:none;stroke:#000;stroke-width:.1"/><rect id="rect106" width="1.333" height="4" x="3.733" y="3.688" style="fill:none;stroke:#000;stroke-width:.01"/><rect id="rect108" width="1.067" height="1.6" x="3.867" y="3.821" style="fill:#d9d9cd;stroke:none;stroke-width:0"/><rect id="rect110" width="1.067" height="1.6" x="3.867" y="3.821" style="fill:none;stroke:#000;stroke-width:.1"/><rect id="rect112" width="1.067" height="1.6" x="3.867" y="3.821" style="fill:none;stroke:#000;stroke-width:.01"/><line id="line114" x1="3.867" x2="4.933" y1="4.088" y2="4.088" stroke="#000" stroke-width=".01" style="stroke:#000;stroke-width:.01"/><line id="line116" x1="4.933" x2="3.867" y1="4.354" y2="4.354" stroke="#000" stroke-width=".01" style="stroke:#000;stroke-width:.01"/><line id="line118" x1="3.867" x2="4.933" y1="4.621" y2="4.621" stroke="#000" stroke-width=".01" style="stroke:#000;stroke-width:.01"/><line id="line120" x1="3.867" x2="4.933" y1="4.888" y2="4.888" stroke="#000" stroke-width=".01" style="stroke:#000;stroke-width:.01"/><line id="line122" x1="4.933" x2="3.867" y1="5.154" y2="5.154" stroke="#000" stroke-width=".01" style="stroke:#000;stroke-width:.01"/><rect id="rect124" width=".733" height=".4" x="3.867" y="5.554" style="fill:#d9d9cd;stroke:none;stroke-width:0"/><rect id="rect126" width=".733" height=".4" x="3.867" y="5.554" style="fill:none;stroke:#000;stroke-width:.1"/><rect id="rect128" width=".733" height=".4" x="3.867" y="5.554" style="fill:none;stroke:#000;stroke-width:.01"/><line id="line130" x1="3.733" x2="5.067" y1="6.221" y2="6.221" stroke="#000" stroke-width=".01" style="stroke:#000;stroke-width:.01"/><rect id="rect132" width=".067" height=".067" x="4.333" y="6.354" style="fill:#00cd00;stroke:none;stroke-width:0"/><rect id="rect134" width=".067" height=".067" x="4.333" y="6.354" style="fill:none;stroke:#000;stroke-width:.1"/><rect id="rect136" width=".067" height=".067" x="4.333" y="6.354" style="fill:none;stroke:#000;stroke-width:.01"/><rect id="rect138" width=".067" height=".067" x="4.6" y="6.354" style="fill:#cdcd00;stroke:none;stroke-width:0"/><rect id="rect140" width=".067" height=".067" x="4.6" y="6.354" style="fill:none;stroke:#000;stroke-width:.1"/><rect id="rect142" width=".067" height=".067" x="4.6" y="6.354" style="fill:none;stroke:#000;stroke-width:.01"/><rect id="rect144" width=".067" height=".067" x="4.867" y="6.354" style="fill:#cd0000;stroke:none;stroke-width:0"/><rect id="rect146" width=".067" height=".067" x="4.867" y="6.354" style="fill:none;stroke:#000;stroke-width:.1"/><rect id="rect148" width=".067" height=".067" x="4.867" y="6.354" style="fill:none;stroke:#000;stroke-width:.01"/><rect id="rect150" width=".133" height=".133" x="4.8" y="5.954" style="fill:#cdcdbd;stroke:none;stroke-width:0"/><rect id="rect152" width=".133" height=".133" x="4.8" y="5.954" style="fill:none;stroke:#000;stroke-width:.1"/><rect id="rect154" width=".133" height=".133" x="4.8" y="5.954" style="fill:none;stroke:#000;stroke-width:.01"/><line id="line156" x1="3.867" x2="4.6" y1="5.754" y2="5.754" stroke="#000" stroke-width=".01" style="stroke:#000;stroke-width:.01"/><rect id="rect158" width=".2" height=".2" x="3.867" y="6.287" style="fill:#cdcdbd;stroke:none;stroke-width:0"/><rect id="rect160" width=".2" height=".2" x="3.867" y="6.287" style="fill:none;stroke:#000;stroke-width:.1"/><rect id="rect162" width=".2" height=".2" x="3.867" y="6.287" style="fill:none;stroke:#000;stroke-width:.01"/><rect id="rect164" width=".933" height=".067" x="3.933" y="5.221" style="fill:#cdcdc1;stroke:none;stroke-width:0"/><rect id="rect166" width=".933" height=".067" x="3.933" y="5.221" style="fill:none;stroke:#000;stroke-width:.1"/><rect id="rect168" width=".933" height=".067" x="3.933" y="5.221" style="fill:none;stroke:#000;stroke-width:.01"/><line id="line170" x1="3.933" x2="4.533" y1="5.621" y2="5.621" stroke="#000" stroke-width=".01" style="stroke:#000;stroke-width:.01"/><line id="line172" x1="4.533" x2="4.467" y1="5.688" y2="5.688" stroke="#000" stroke-width=".01" style="stroke:#000;stroke-width:.01"/><line id="line174" x1="3.933" x2="4" y1="5.688" y2="5.688" stroke="#000" stroke-width=".01" style="stroke:#000;stroke-width:.01"/><rect id="rect176" width=".333" height=".067" x="4.067" y="5.621" style="fill:#cdcdc1;stroke:none;stroke-width:0"/><rect id="rect178" width=".333" height=".067" x="4.067" y="5.621" style="fill:none;stroke:#000;stroke-width:.1"/><rect id="rect180" width=".333" height=".067" x="4.067" y="5.621" style="fill:none;stroke:#000;stroke-width:.01"/><line id="line182" x1="3.933" x2="4" y1="5.354" y2="5.354" stroke="#000" stroke-width=".01" style="stroke:#000;stroke-width:.01"/><line id="line184" x1="4.067" x2="4.133" y1="5.354" y2="5.354" stroke="#000" stroke-width=".01" style="stroke:#000;stroke-width:.01"/><line id="line186" x1="4.733" x2="4.867" y1="5.354" y2="5.354" stroke="#000" stroke-width=".01" style="stroke:#000;stroke-width:.01"/><line id="line188" x1="3.8" x2="5" y1="7.621" y2="7.621" stroke="#000" stroke-width=".01" style="stroke:#000;stroke-width:.01"/><line id="line190" x1="5" x2="3.8" y1="7.554" y2="7.554" stroke="#000" stroke-width=".01" style="stroke:#000;stroke-width:.01"/><line id="line192" x1="3.8" x2="5" y1="7.487" y2="7.487" stroke="#000" stroke-width=".01" style="stroke:#000;stroke-width:.01"/><line id="line194" x1="5" x2="3.8" y1="7.421" y2="7.421" stroke="#000" stroke-width=".01" style="stroke:#000;stroke-width:.01"/><line id="line196" x1="3.8" x2="5" y1="7.354" y2="7.354" stroke="#000" stroke-width=".01" style="stroke:#000;stroke-width:.01"/><line id="line198" x1="5" x2="3.8" y1="7.287" y2="7.287" stroke="#000" stroke-width=".01" style="stroke:#000;stroke-width:.01"/><line id="line200" x1="3.8" x2="5" y1="7.221" y2="7.221" stroke="#000" stroke-width=".01" style="stroke:#000;stroke-width:.01"/><line id="line202" x1="5" x2="3.8" y1="7.154" y2="7.154" stroke="#000" stroke-width=".01" style="stroke:#000;stroke-width:.01"/><line id="line204" x1="3.8" x2="5" y1="7.088" y2="7.088" stroke="#000" stroke-width=".01" style="stroke:#000;stroke-width:.01"/><line id="line206" x1="5" x2="3.8" y1="7.021" y2="7.021" stroke="#000" stroke-width=".01" style="stroke:#000;stroke-width:.01"/><line id="line208" x1="3.8" x2="5" y1="6.954" y2="6.954" stroke="#000" stroke-width=".01" style="stroke:#000;stroke-width:.01"/><line id="line210" x1="5" x2="3.8" y1="6.888" y2="6.888" stroke="#000" stroke-width=".01" style="stroke:#000;stroke-width:.01"/><line id="line212" x1="3.8" x2="5" y1="6.821" y2="6.821" stroke="#000" stroke-width=".01" style="stroke:#000;stroke-width:.01"/><line id="line214" x1="5" x2="3.8" y1="6.754" y2="6.754" stroke="#000" stroke-width=".01" style="stroke:#000;stroke-width:.01"/><rect id="rect216" width="4" height="1.333" x="5.975" y="6.333" style="fill:#d9d9cd;stroke:none;stroke-width:0"/><rect id="rect218" width="4" height="1.333" x="5.975" y="6.333" style="fill:none;stroke:#000;stroke-width:.1"/><rect id="rect220" width="4" height="1.333" x="5.975" y="6.333" style="fill:none;stroke:#000;stroke-width:.01"/><rect id="rect222" width="1.524" height=".762" x="8.356" y="6.714" style="fill:#d9d9cd;stroke:none;stroke-width:0"/><rect id="rect224" width="1.524" height=".762" x="8.356" y="6.714" style="fill:none;stroke:#000;stroke-width:.1"/><rect id="rect226" width="1.524" height=".762" x="8.356" y="6.714" style="fill:none;stroke:#000;stroke-width:.01"/><line id="line228" x1="9.88" x2="8.356" y1="7.095" y2="7.095" stroke="#000" stroke-width=".01" style="stroke:#000;stroke-width:.01"/><rect id="rect230" width=".286" height="1.048" x="7.975" y="6.429" style="fill:#d9d9cd;stroke:none;stroke-width:0"/><rect id="rect232" width=".286" height="1.048" x="7.975" y="6.429" style="fill:none;stroke:#000;stroke-width:.1"/><rect id="rect234" width=".286" height="1.048" x="7.975" y="6.429" style="fill:none;stroke:#000;stroke-width:.01"/><rect id="rect236" width=".095" height=".095" x="6.927" y="6.524" style="fill:#00cd00;stroke:none;stroke-width:0"/><rect id="rect238" width=".095" height=".095" x="6.927" y="6.524" style="fill:none;stroke:#000;stroke-width:.1"/><rect id="rect240" width=".095" height=".095" x="6.927" y="6.524" style="fill:none;stroke:#000;stroke-width:.01"/><rect id="rect242" width=".095" height=".095" x="7.118" y="6.524" style="fill:#cdcd00;stroke:none;stroke-width:0"/><rect id="rect244" width=".095" height=".095" x="7.118" y="6.524" style="fill:none;stroke:#000;stroke-width:.1"/><rect id="rect246" width=".095" height=".095" x="7.118" y="6.524" style="fill:none;stroke:#000;stroke-width:.01"/><rect id="rect248" width=".095" height=".095" x="7.308" y="6.524" style="fill:#cd0000;stroke:none;stroke-width:0"/><rect id="rect250" width=".095" height=".095" x="7.308" y="6.524" style="fill:none;stroke:#000;stroke-width:.1"/><rect id="rect252" width=".095" height=".095" x="7.308" y="6.524" style="fill:none;stroke:#000;stroke-width:.01"/><rect id="rect254" width=".19" height=".19" x="7.594" y="6.429" style="fill:#cdcdbd;stroke:none;stroke-width:0"/><rect id="rect256" width=".19" height=".19" x="7.594" y="6.429" style="fill:none;stroke:#000;stroke-width:.1"/><rect id="rect258" width=".19" height=".19" x="7.594" y="6.429" style="fill:none;stroke:#000;stroke-width:.01"/><rect id="rect260" width=".286" height=".286" x="6.165" y="6.429" style="fill:#cdcdbd;stroke:none;stroke-width:0"/><rect id="rect262" width=".286" height=".286" x="6.165" y="6.429" style="fill:none;stroke:#000;stroke-width:.1"/><rect id="rect264" width=".286" height=".286" x="6.165" y="6.429" style="fill:none;stroke:#000;stroke-width:.01"/><rect id="rect266" width="1.333" height=".095" x="8.451" y="7.19" style="fill:#cdcdc1;stroke:none;stroke-width:0"/><rect id="rect268" width="1.333" height=".095" x="8.451" y="7.19" style="fill:none;stroke:#000;stroke-width:.1"/><rect id="rect270" width="1.333" height=".095" x="8.451" y="7.19" style="fill:none;stroke:#000;stroke-width:.01"/><line id="line272" x1="8.07" x2="8.07" y1="6.524" y2="7.381" stroke="#000" stroke-width=".01" style="stroke:#000;stroke-width:.01"/><rect id="rect274" width=".095" height=".476" x="8.07" y="6.714" style="fill:#cdcdc1;stroke:none;stroke-width:0"/><rect id="rect276" width=".095" height=".476" x="8.07" y="6.714" style="fill:none;stroke:#000;stroke-width:.1"/><rect id="rect278" width=".095" height=".476" x="8.07" y="6.714" style="fill:none;stroke:#000;stroke-width:.01"/><line id="line280" x1="9.594" x2="9.785" y1="7.381" y2="7.381" stroke="#000" stroke-width=".01" style="stroke:#000;stroke-width:.01"/><line id="line282" x1="6.07" x2="7.785" y1="7" y2="7" stroke="#000" stroke-width=".01" style="stroke:#000;stroke-width:.01"/><line id="line284" x1="7.785" x2="6.07" y1="7.095" y2="7.095" stroke="#000" stroke-width=".01" style="stroke:#000;stroke-width:.01"/><line id="line286" x1="6.07" x2="7.785" y1="7.19" y2="7.19" stroke="#000" stroke-width=".01" style="stroke:#000;stroke-width:.01"/><line id="line288" x1="7.785" x2="6.07" y1="7.476" y2="7.476" stroke="#000" stroke-width=".01" style="stroke:#000;stroke-width:.01"/><line id="line290" x1="6.07" x2="7.785" y1="7.381" y2="7.381" stroke="#000" stroke-width=".01" style="stroke:#000;stroke-width:.01"/><line id="line292" x1="7.785" x2="6.07" y1="7.286" y2="7.286" stroke="#000" stroke-width=".01" style="stroke:#000;stroke-width:.01"/><line id="line294" x1="8.451" x2="8.546" y1="7.381" y2="7.381" stroke="#000" stroke-width=".01" style="stroke:#000;stroke-width:.01"/><line id="line296" x1="8.642" x2="8.737" y1="7.381" y2="7.381" stroke="#000" stroke-width=".01" style="stroke:#000;stroke-width:.01"/><line id="line298" x1="8.165" x2="8.165" y1="7.381" y2="7.286" stroke="#000" stroke-width=".01" style="stroke:#000;stroke-width:.01"/><line id="line300" x1="8.165" x2="8.165" y1="6.619" y2="6.524" stroke="#000" stroke-width=".01" style="stroke:#000;stroke-width:.01"/><polygon id="polygon302" points="11.127 6.517 11.039 6.554 10.775 7.214 10.775 7.544 10.907 7.654 12.843 7.654 12.975 7.544 12.975 7.214 12.711 6.554 12.623 6.517 11.127 6.517" style="fill:#b3b3b3;stroke:none;stroke-width:.08"/><polygon id="polygon304" points="11.127 6.517 11.039 6.554 10.775 7.214 10.775 7.544 10.907 7.654 12.843 7.654 12.975 7.544 12.975 7.214 12.711 6.554 12.623 6.517 11.127 6.517" style="fill:none;stroke:#000;stroke-width:.08"/><path id="path306" d="M 10.819,7.104 L 10.907,7.141 L 12.843,7.141 L 12.931,7.104" style="fill:none;stroke:#000;stroke-width:.08"/><path id="path308" d="M 12.843,7.141 L 12.975,7.214" style="fill:none;stroke:#000;stroke-width:.08"/><path id="path310" d="M 10.775,7.214 L 10.907,7.141" style="fill:none;stroke:#000;stroke-width:.08"/><polygon id="polygon312" points="11.391 5.821 11.347 6.701 12.403 6.701 12.359 5.821 11.391 5.821" style="fill:#fff;stroke:none;stroke-width:.08"/><polygon id="polygon314" points="11.391 5.821 11.347 6.701 12.403 6.701 12.359 5.821 11.391 5.821" style="fill:none;stroke:#000;stroke-width:.08"/><polygon id="polygon316" points="11.215 6.701 11.127 6.957 12.623 6.957 12.535 6.701 11.215 6.701" style="fill:#000;stroke:none;stroke-width:.08"/><polygon id="polygon318" points="11.215 6.701 11.127 6.957 12.623 6.957 12.535 6.701 11.215 6.701" style="fill:none;stroke:#000;stroke-width:.08"/><ellipse id="ellipse320" cx="11.215" cy="7.269" rx=".022" ry=".022" style="fill:#00f;stroke:none"/><ellipse id="ellipse322" cx="11.215" cy="7.269" rx=".022" ry=".022" style="fill:none;stroke:#000;stroke-width:.02"/><ellipse id="ellipse324" cx="11.435" cy="7.269" rx=".022" ry=".022" style="fill:#00f;stroke:none"/><ellipse id="ellipse326" cx="11.435" cy="7.269" rx=".022" ry=".022" style="fill:none;stroke:#000;stroke-width:.02"/><ellipse id="ellipse328" cx="11.655" cy="7.269" rx=".022" ry=".022" style="fill:#00f;stroke:none"/><ellipse id="ellipse330" cx="11.655" cy="7.269" rx=".022" ry=".022" style="fill:none;stroke:#000;stroke-width:.02"/><ellipse id="ellipse332" cx="11.215" cy="7.361" rx=".022" ry=".022" style="fill:#00f;stroke:none"/><ellipse id="ellipse334" cx="11.215" cy="7.361" rx=".022" ry=".022" style="fill:none;stroke:#000;stroke-width:.02"/><ellipse id="ellipse336" cx="11.435" cy="7.361" rx=".022" ry=".022" style="fill:#00f;stroke:none"/><ellipse id="ellipse338" cx="11.435" cy="7.361" rx=".022" ry=".022" style="fill:none;stroke:#000;stroke-width:.02"/><ellipse id="ellipse340" cx="11.655" cy="7.361" rx=".022" ry=".022" style="fill:#00f;stroke:none"/><ellipse id="ellipse342" cx="11.655" cy="7.361" rx=".022" ry=".022" style="fill:none;stroke:#000;stroke-width:.02"/><ellipse id="ellipse344" cx="11.215" cy="7.452" rx=".022" ry=".022" style="fill:#00f;stroke:none"/><ellipse id="ellipse346" cx="11.215" cy="7.452" rx=".022" ry=".022" style="fill:none;stroke:#000;stroke-width:.02"/><ellipse id="ellipse348" cx="11.435" cy="7.452" rx=".022" ry=".022" style="fill:#00f;stroke:none"/><ellipse id="ellipse350" cx="11.435" cy="7.452" rx=".022" ry=".022" style="fill:none;stroke:#000;stroke-width:.02"/><ellipse id="ellipse352" cx="11.655" cy="7.452" rx=".022" ry=".022" style="fill:#00f;stroke:none"/><ellipse id="ellipse354" cx="11.655" cy="7.452" rx=".022" ry=".022" style="fill:none;stroke:#000;stroke-width:.02"/><ellipse id="ellipse356" cx="11.215" cy="7.544" rx=".022" ry=".022" style="fill:#00f;stroke:none"/><ellipse id="ellipse358" cx="11.215" cy="7.544" rx=".022" ry=".022" style="fill:none;stroke:#000;stroke-width:.02"/><ellipse id="ellipse360" cx="11.435" cy="7.544" rx=".022" ry=".022" style="fill:#00f;stroke:none"/><ellipse id="ellipse362" cx="11.435" cy="7.544" rx=".022" ry=".022" style="fill:none;stroke:#000;stroke-width:.02"/><ellipse id="ellipse364" cx="11.655" cy="7.544" rx=".022" ry=".022" style="fill:#00f;stroke:none"/><ellipse id="ellipse366" cx="11.655" cy="7.544" rx=".022" ry=".022" style="fill:none;stroke:#000;stroke-width:.02"/><ellipse id="ellipse368" cx="11.875" cy="7.287" rx=".275" ry=".088" style="fill:#8f8f8f;stroke:none"/><ellipse id="ellipse370" cx="11.875" cy="7.287" rx=".275" ry=".088" style="fill:none;stroke:#000;stroke-width:.02"/><ellipse id="ellipse372" cx="12.425" cy="7.287" rx=".275" ry=".088" style="fill:#8f8f8f;stroke:none"/><ellipse id="ellipse374" cx="12.425" cy="7.287" rx=".275" ry=".088" style="fill:none;stroke:#000;stroke-width:.02"/><rect id="rect376" width="2" height="1.667" x="6.925" y="4.237" style="fill:#d9d9cd;stroke:none;stroke-width:0"/><rect id="rect378" width="2" height="1.667" x="6.925" y="4.237" style="fill:none;stroke:#000;stroke-width:.1"/><rect id="rect380" width="2" height="1.667" x="6.925" y="4.237" style="fill:none;stroke:#000;stroke-width:.01"/><rect id="rect382" width="1.778" height="1.333" x="7.036" y="4.349" style="fill:#a1a1a1;stroke:none;stroke-width:0"/><rect id="rect384" width="1.778" height="1.333" x="7.036" y="4.349" style="fill:none;stroke:#000;stroke-width:.1"/><rect id="rect386" width="1.778" height="1.333" x="7.036" y="4.349" style="fill:none;stroke:#000;stroke-width:.01"/><polygon id="polygon388" points="7.258 5.904 8.592 5.904 8.258 6.015 7.592 6.015 7.258 5.904" style="fill:#d9d9cd;stroke:none;stroke-width:.1"/><polygon id="polygon390" points="7.258 5.904 8.592 5.904 8.258 6.015 7.592 6.015 7.258 5.904" style="fill:none;stroke:#000;stroke-width:.1"/><polygon id="polygon392" points="7.258 5.904 8.592 5.904 8.258 6.015 7.592 6.015 7.258 5.904" style="fill:none;stroke:#000;stroke-width:.01"/><rect id="rect394" width=".667" height=".111" x="7.592" y="6.015" style="fill:#d9d9cd;stroke:none;stroke-width:0"/><rect id="rect396" width=".667" height=".111" x="7.592" y="6.015" style="fill:none;stroke:#000;stroke-width:.1"/><rect id="rect398" width=".667" height=".111" x="7.592" y="6.015" style="fill:none;stroke:#000;stroke-width:.01"/><rect id="rect400" width="1.333" height=".111" x="7.258" y="6.126" style="fill:#d9d9cd;stroke:none;stroke-width:0"/><rect id="rect402" width="1.333" height=".111" x="7.258" y="6.126" style="fill:none;stroke:#000;stroke-width:.1"/><rect id="rect404" width="1.333" height=".111" x="7.258" y="6.126" style="fill:none;stroke:#000;stroke-width:.01"/><polyline id="polyline406" fill="none" stroke="#000" stroke-width=".1" points="1.863 7.675 1.863 9.35 12.012 9.35 12.012 7.662" style="fill:none;stroke:#000;stroke-width:.1"/><line id="line408" x1="4.4" x2="4.412" y1="7.688" y2="9.338" stroke="#000" stroke-width=".1" style="stroke:#000;stroke-width:.1"/><line id="line410" x1="7.975" x2="7.987" y1="7.667" y2="9.325" stroke="#000" stroke-width=".1" style="stroke:#000;stroke-width:.1"/><text id="text412" x="5.425" y="9.975" style="font-size:.5px;font-style:normal;font-weight:400;text-anchor:start;fill:#000;font-family:arial">Network: 192.168.1.0/24</text><text id="text414" x="2.165" y="8.225" style="font-size:.5px;font-style:normal;font-weight:400;text-anchor:start;fill:#000;font-family:arial">.1</text><text id="text416" x="4.69" y="8.229" style="font-size:.5px;font-style:normal;font-weight:400;text-anchor:start;fill:#000;font-family:arial">.3</text><text id="text418" x="12.305" y="8.166" style="font-size:.5px;font-style:normal;font-weight:400;text-anchor:start;fill:#000;font-family:arial">.10</text><text id="text420" x="8.511" y="8.238" style="font-size:.5px;font-style:normal;font-weight:400;text-anchor:start;fill:#000;font-family:arial">.100+n</text><text id="text422" x="1.32" y="2.875" style="font-size:.60000002px;font-style:normal;font-weight:400;text-anchor:start;fill:#000;font-family:arial">stable</text><text id="text424" x="1.34" y="3.475" style="font-size:.60000002px;font-style:normal;font-weight:400;text-anchor:start;fill:#000;font-family:arial">(NT4)</text><text id="text426" x="3.667" y="2.847" style="font-size:.60000002px;font-style:normal;font-weight:400;text-anchor:start;fill:#000;font-family:arial">cashpool</text><text id="text428" x="3.695" y="3.447" style="font-size:.60000002px;font-style:normal;font-weight:400;text-anchor:start;fill:#000;font-family:arial">(Samba)</text><text id="text430" x="7.561" y="2.872" style="font-size:.60000002px;font-style:normal;font-weight:400;text-anchor:start;fill:#000;font-family:arial">PCn</text><text id="text432" x="7.326" y="3.472" style="font-size:.60000002px;font-style:normal;font-weight:400;text-anchor:start;fill:#000;font-family:arial">(n=1-9)</text><text id="text434" x="11.643" y="4.312" style="font-size:.60000002px;font-style:normal;font-weight:400;text-anchor:start;fill:#000;font-family:arial">hplj</text><text id="text436" x="10.716" y="4.912" style="font-size:.60000002px;font-style:normal;font-weight:400;text-anchor:start;fill:#000;font-family:arial">(HPLaserJet 4)</text></svg>