<svg xmlns="http://www.w3.org/2000/svg" xmlns:svg="http://www.w3.org/2000/svg" id="svg2" width="469.757" height="275.49" version="1.0" viewBox="0.025 1.145 12.454 8.434"><rect id="rect4" width="4.479" height="5.91" x=".35" y="2.192" style="fill:#dcdcdc;stroke:none;stroke-width:0"/><path id="path6" d="M 0.35,2.192 C 0.18431458,2.192 0.05,2.3263146 0.05,2.492" style="fill:#dcdcdc;stroke:none"/><path id="path8" d="M 5.129,2.492 C 5.129,2.3263146 4.9946854,2.192 4.829,2.192" style="fill:#dcdcdc;stroke:none"/><rect id="rect10" width="5.079" height="5.31" x=".05" y="2.492" style="fill:#dcdcdc;stroke:none;stroke-width:0"/><path id="path12" d="M 0.05,7.802 C 0.05,7.9676854 0.18431458,8.102 0.35,8.102" style="fill:#dcdcdc;stroke:none"/><path id="path14" d="M 4.829,8.102 C 4.9946854,8.102 5.129,7.9676854 5.129,7.802" style="fill:#dcdcdc;stroke:none"/><line id="line16" x1=".35" x2="4.829" y1="2.192" y2="2.192" stroke="#000" stroke-width=".05" style="stroke:#000;stroke-width:.05"/><line id="line18" x1=".35" x2="4.829" y1="8.102" y2="8.102" stroke="#000" stroke-width=".05" style="stroke:#000;stroke-width:.05"/><path id="path20" d="M 0.35,2.192 C 0.18431458,2.192 0.05,2.3263146 0.05,2.492" style="fill:none;stroke:#000;stroke-width:.05"/><path id="path22" d="M 5.129,2.492 C 5.129,2.3263146 4.9946854,2.192 4.829,2.192" style="fill:none;stroke:#000;stroke-width:.05"/><line id="line24" x1=".05" x2=".05" y1="2.492" y2="7.802" stroke="#000" stroke-width=".05" style="stroke:#000;stroke-width:.05"/><line id="line26" x1="5.129" x2="5.129" y1="2.492" y2="7.802" stroke="#000" stroke-width=".05" style="stroke:#000;stroke-width:.05"/><path id="path28" d="M 0.05,7.802 C 0.05,7.9676854 0.18431458,8.102 0.35,8.102" style="fill:none;stroke:#000;stroke-width:.05"/><path id="path30" d="M 4.829,8.102 C 4.9946854,8.102 5.129,7.9676854 5.129,7.802" style="fill:none;stroke:#000;stroke-width:.05"/><rect id="rect32" width="4.15" height="5.963" x="7.979" y="2.14" style="fill:#dcdcdc;stroke:none;stroke-width:0"/><path id="path34" d="M 7.979,2.14 C 7.8133146,2.14 7.679,2.2743146 7.679,2.44" style="fill:#dcdcdc;stroke:none"/><path id="path36" d="M 12.429,2.44 C 12.429,2.2743146 12.294685,2.14 12.129,2.14" style="fill:#dcdcdc;stroke:none"/><rect id="rect38" width="4.75" height="5.363" x="7.679" y="2.44" style="fill:#dcdcdc;stroke:none;stroke-width:0"/><path id="path40" d="M 7.679,7.802 C 7.679,7.9676854 7.8133146,8.102 7.979,8.102" style="fill:#dcdcdc;stroke:none"/><path id="path42" d="M 12.129,8.102 C 12.294685,8.102 12.429,7.9676854 12.429,7.802" style="fill:#dcdcdc;stroke:none"/><line id="line44" x1="7.979" x2="12.129" y1="2.14" y2="2.14" stroke="#000" stroke-width=".05" style="stroke:#000;stroke-width:.05"/><line id="line46" x1="7.979" x2="12.129" y1="8.102" y2="8.102" stroke="#000" stroke-width=".05" style="stroke:#000;stroke-width:.05"/><path id="path48" d="M 7.979,2.14 C 7.8133146,2.14 7.679,2.2743146 7.679,2.44" style="fill:none;stroke:#000;stroke-width:.05"/><path id="path50" d="M 12.429,2.44 C 12.429,2.2743146 12.294685,2.14 12.129,2.14" style="fill:none;stroke:#000;stroke-width:.05"/><line id="line52" x1="7.679" x2="7.679" y1="2.44" y2="7.802" stroke="#000" stroke-width=".05" style="stroke:#000;stroke-width:.05"/><line id="line54" x1="12.429" x2="12.429" y1="2.44" y2="7.802" stroke="#000" stroke-width=".05" style="stroke:#000;stroke-width:.05"/><path id="path56" d="M 7.679,7.802 C 7.679,7.9676854 7.8133146,8.102 7.979,8.102" style="fill:none;stroke:#000;stroke-width:.05"/><path id="path58" d="M 12.129,8.102 C 12.294685,8.102 12.429,7.9676854 12.429,7.802" style="fill:none;stroke:#000;stroke-width:.05"/><text id="text60" x="5.31" y="4.951" style="font-size:.40000001px;font-style:normal;font-weight:400;text-anchor:start;fill:#000;font-family:arial">.1</text><text id="text62" x="1.069" y="6.037" style="font-size:.40000001px;font-style:normal;font-weight:400;text-anchor:start;fill:#000;font-family:arial">IP via DHCP</text><text id="text64" x="4.098" y="3.189" style="font-size:.40000001px;font-style:normal;font-weight:400;text-anchor:start;fill:#000;font-family:arial">hplj4</text><rect id="rect66" width="1.309" height="3.928" x="5.775" y="3.186" style="fill:#d9d9cd;stroke:none;stroke-width:0"/><rect id="rect68" width="1.309" height="3.928" x="5.775" y="3.186" style="fill:none;stroke:#000;stroke-width:.1"/><rect id="rect70" width="1.309" height="3.928" x="5.775" y="3.186" style="fill:none;stroke:#000;stroke-width:.01"/><rect id="rect72" width="1.047" height="1.571" x="5.906" y="3.317" style="fill:#d9d9cd;stroke:none;stroke-width:0"/><rect id="rect74" width="1.047" height="1.571" x="5.906" y="3.317" style="fill:none;stroke:#000;stroke-width:.1"/><rect id="rect76" width="1.047" height="1.571" x="5.906" y="3.317" style="fill:none;stroke:#000;stroke-width:.01"/><line id="line78" x1="5.906" x2="6.953" y1="3.579" y2="3.579" stroke="#000" stroke-width=".01" style="stroke:#000;stroke-width:.01"/><line id="line80" x1="6.953" x2="5.906" y1="3.841" y2="3.841" stroke="#000" stroke-width=".01" style="stroke:#000;stroke-width:.01"/><line id="line82" x1="5.906" x2="6.953" y1="4.103" y2="4.103" stroke="#000" stroke-width=".01" style="stroke:#000;stroke-width:.01"/><line id="line84" x1="5.906" x2="6.953" y1="4.364" y2="4.364" stroke="#000" stroke-width=".01" style="stroke:#000;stroke-width:.01"/><line id="line86" x1="6.953" x2="5.906" y1="4.626" y2="4.626" stroke="#000" stroke-width=".01" style="stroke:#000;stroke-width:.01"/><rect id="rect88" width=".72" height=".393" x="5.906" y="5.019" style="fill:#d9d9cd;stroke:none;stroke-width:0"/><rect id="rect90" width=".72" height=".393" x="5.906" y="5.019" style="fill:none;stroke:#000;stroke-width:.1"/><rect id="rect92" width=".72" height=".393" x="5.906" y="5.019" style="fill:none;stroke:#000;stroke-width:.01"/><line id="line94" x1="5.775" x2="7.084" y1="5.674" y2="5.674" stroke="#000" stroke-width=".01" style="stroke:#000;stroke-width:.01"/><rect id="rect96" width=".065" height=".065" x="6.364" y="5.805" style="fill:#00cd00;stroke:none;stroke-width:0"/><rect id="rect98" width=".065" height=".065" x="6.364" y="5.805" style="fill:none;stroke:#000;stroke-width:.1"/><rect id="rect100" width=".065" height=".065" x="6.364" y="5.805" style="fill:none;stroke:#000;stroke-width:.01"/><rect id="rect102" width=".065" height=".065" x="6.626" y="5.805" style="fill:#cdcd00;stroke:none;stroke-width:0"/><rect id="rect104" width=".065" height=".065" x="6.626" y="5.805" style="fill:none;stroke:#000;stroke-width:.1"/><rect id="rect106" width=".065" height=".065" x="6.626" y="5.805" style="fill:none;stroke:#000;stroke-width:.01"/><rect id="rect108" width=".065" height=".065" x="6.888" y="5.805" style="fill:#cd0000;stroke:none;stroke-width:0"/><rect id="rect110" width=".065" height=".065" x="6.888" y="5.805" style="fill:none;stroke:#000;stroke-width:.1"/><rect id="rect112" width=".065" height=".065" x="6.888" y="5.805" style="fill:none;stroke:#000;stroke-width:.01"/><rect id="rect114" width=".131" height=".131" x="6.822" y="5.412" style="fill:#cdcdbd;stroke:none;stroke-width:0"/><rect id="rect116" width=".131" height=".131" x="6.822" y="5.412" style="fill:none;stroke:#000;stroke-width:.1"/><rect id="rect118" width=".131" height=".131" x="6.822" y="5.412" style="fill:none;stroke:#000;stroke-width:.01"/><line id="line120" x1="5.906" x2="6.626" y1="5.215" y2="5.215" stroke="#000" stroke-width=".01" style="stroke:#000;stroke-width:.01"/><rect id="rect122" width=".196" height=".196" x="5.906" y="5.739" style="fill:#cdcdbd;stroke:none;stroke-width:0"/><rect id="rect124" width=".196" height=".196" x="5.906" y="5.739" style="fill:none;stroke:#000;stroke-width:.1"/><rect id="rect126" width=".196" height=".196" x="5.906" y="5.739" style="fill:none;stroke:#000;stroke-width:.01"/><rect id="rect128" width=".917" height=".065" x="5.971" y="4.692" style="fill:#cdcdc1;stroke:none;stroke-width:0"/><rect id="rect130" width=".917" height=".065" x="5.971" y="4.692" style="fill:none;stroke:#000;stroke-width:.1"/><rect id="rect132" width=".917" height=".065" x="5.971" y="4.692" style="fill:none;stroke:#000;stroke-width:.01"/><line id="line134" x1="5.971" x2="6.561" y1="5.085" y2="5.085" stroke="#000" stroke-width=".01" style="stroke:#000;stroke-width:.01"/><line id="line136" x1="6.561" x2="6.495" y1="5.15" y2="5.15" stroke="#000" stroke-width=".01" style="stroke:#000;stroke-width:.01"/><line id="line138" x1="5.971" x2="6.037" y1="5.15" y2="5.15" stroke="#000" stroke-width=".01" style="stroke:#000;stroke-width:.01"/><rect id="rect140" width=".327" height=".065" x="6.102" y="5.085" style="fill:#cdcdc1;stroke:none;stroke-width:0"/><rect id="rect142" width=".327" height=".065" x="6.102" y="5.085" style="fill:none;stroke:#000;stroke-width:.1"/><rect id="rect144" width=".327" height=".065" x="6.102" y="5.085" style="fill:none;stroke:#000;stroke-width:.01"/><line id="line146" x1="5.971" x2="6.037" y1="4.823" y2="4.823" stroke="#000" stroke-width=".01" style="stroke:#000;stroke-width:.01"/><line id="line148" x1="6.102" x2="6.168" y1="4.823" y2="4.823" stroke="#000" stroke-width=".01" style="stroke:#000;stroke-width:.01"/><line id="line150" x1="6.757" x2="6.888" y1="4.823" y2="4.823" stroke="#000" stroke-width=".01" style="stroke:#000;stroke-width:.01"/><line id="line152" x1="5.84" x2="7.019" y1="7.049" y2="7.049" stroke="#000" stroke-width=".01" style="stroke:#000;stroke-width:.01"/><line id="line154" x1="7.019" x2="5.84" y1="6.983" y2="6.983" stroke="#000" stroke-width=".01" style="stroke:#000;stroke-width:.01"/><line id="line156" x1="5.84" x2="7.019" y1="6.918" y2="6.918" stroke="#000" stroke-width=".01" style="stroke:#000;stroke-width:.01"/><line id="line158" x1="7.019" x2="5.84" y1="6.852" y2="6.852" stroke="#000" stroke-width=".01" style="stroke:#000;stroke-width:.01"/><line id="line160" x1="5.84" x2="7.019" y1="6.787" y2="6.787" stroke="#000" stroke-width=".01" style="stroke:#000;stroke-width:.01"/><line id="line162" x1="7.019" x2="5.84" y1="6.721" y2="6.721" stroke="#000" stroke-width=".01" style="stroke:#000;stroke-width:.01"/><line id="line164" x1="5.84" x2="7.019" y1="6.656" y2="6.656" stroke="#000" stroke-width=".01" style="stroke:#000;stroke-width:.01"/><line id="line166" x1="7.019" x2="5.84" y1="6.59" y2="6.59" stroke="#000" stroke-width=".01" style="stroke:#000;stroke-width:.01"/><line id="line168" x1="5.84" x2="7.019" y1="6.525" y2="6.525" stroke="#000" stroke-width=".01" style="stroke:#000;stroke-width:.01"/><line id="line170" x1="7.019" x2="5.84" y1="6.459" y2="6.459" stroke="#000" stroke-width=".01" style="stroke:#000;stroke-width:.01"/><line id="line172" x1="5.84" x2="7.019" y1="6.394" y2="6.394" stroke="#000" stroke-width=".01" style="stroke:#000;stroke-width:.01"/><line id="line174" x1="7.019" x2="5.84" y1="6.328" y2="6.328" stroke="#000" stroke-width=".01" style="stroke:#000;stroke-width:.01"/><line id="line176" x1="5.84" x2="7.019" y1="6.263" y2="6.263" stroke="#000" stroke-width=".01" style="stroke:#000;stroke-width:.01"/><line id="line178" x1="7.019" x2="5.84" y1="6.197" y2="6.197" stroke="#000" stroke-width=".01" style="stroke:#000;stroke-width:.01"/><line id="line180" x1="7.016" x2="11.562" y1="5.127" y2="5.127" stroke="#000" stroke-width=".1" style="stroke:#000;stroke-width:.1"/><line id="line182" x1="7.643" x2="7.643" y1="5.127" y2="5.125" stroke="#000" stroke-width=".1" style="stroke:#000;stroke-width:.1"/><line id="line184" x1="8.579" x2="8.579" y1="5.127" y2="4.202" stroke="#000" stroke-width=".1" style="stroke:#000;stroke-width:.1"/><line id="line186" x1="8.579" x2="8.579" y1="5.127" y2="6.177" stroke="#000" stroke-width=".1" style="stroke:#000;stroke-width:.1"/><line id="line188" x1="10.016" x2="10.016" y1="5.127" y2="4.215" stroke="#000" stroke-width=".1" style="stroke:#000;stroke-width:.1"/><line id="line190" x1="10.177" x2="10.177" y1="5.127" y2="5.14" stroke="#000" stroke-width=".1" style="stroke:#000;stroke-width:.1"/><line id="line192" x1="11.512" x2="11.512" y1="5.127" y2="4.177" stroke="#000" stroke-width=".1" style="stroke:#000;stroke-width:.1"/><line id="line194" x1=".556" x2="5.779" y1="5.167" y2="5.177" stroke="#000" stroke-width=".1" style="stroke:#000;stroke-width:.1"/><line id="line196" x1="2.244" x2="2.244" y1="5.17" y2="5.16" stroke="#000" stroke-width=".1" style="stroke:#000;stroke-width:.1"/><line id="line198" x1="1.738" x2="1.74" y1="5.169" y2="4.126" stroke="#000" stroke-width=".1" style="stroke:#000;stroke-width:.1"/><line id="line200" x1="4.137" x2="4.139" y1="5.174" y2="4.27" stroke="#000" stroke-width=".1" style="stroke:#000;stroke-width:.1"/><line id="line202" x1="2.762" x2="2.764" y1="5.171" y2="4.124" stroke="#000" stroke-width=".1" style="stroke:#000;stroke-width:.1"/><line id="line204" x1="4.143" x2="4.141" y1="5.174" y2="6.165" stroke="#000" stroke-width=".1" style="stroke:#000;stroke-width:.1"/><line id="line206" x1=".606" x2=".608" y1="5.167" y2="4.169" stroke="#000" stroke-width=".1" style="stroke:#000;stroke-width:.1"/><rect id="rect208" width=".713" height=".535" x="8.212" y="3.519" style="fill:#b3b3b3;stroke:none;stroke-width:0"/><rect id="rect210" width=".713" height=".535" x="8.212" y="3.519" style="fill:none;stroke:#000;stroke-width:.05"/><rect id="rect212" width=".559" height=".369" x="8.289" y="3.596" style="fill:#000;stroke:none;stroke-width:0"/><polygon id="polygon214" points="8.308 4.054 8.675 4.054 8.675 4.137 8.328 4.137 8.308 4.054" style="fill:#b3b3b3;stroke:none;stroke-width:.05"/><polygon id="polygon216" points="8.308 4.054 8.675 4.054 8.675 4.137 8.328 4.137 8.308 4.054" style="fill:none;stroke:#000;stroke-width:.05"/><polygon id="polygon218" points="8.675 4.054 8.828 4.054 8.809 4.137 8.675 4.137 8.675 4.054" style="fill:#b3b3b3;stroke:none;stroke-width:.05"/><polygon id="polygon220" points="8.675 4.054 8.828 4.054 8.809 4.137 8.675 4.137 8.675 4.054" style="fill:none;stroke:#000;stroke-width:.05"/><rect id="rect222" width=".033" height=".033" x="8.7" y="4.079" style="fill:#fff;stroke:none;stroke-width:0"/><rect id="rect224" width=".033" height=".033" x="8.7" y="4.079" style="fill:none;stroke:#000;stroke-width:.025"/><polygon id="polygon226" points="8.497 4.137 8.64 4.137 8.64 4.179 8.711 4.179 8.711 4.22 8.426 4.22 8.426 4.179 8.497 4.179 8.497 4.137" style="fill:#b3b3b3;stroke:none;stroke-width:.05"/><polygon id="polygon228" points="8.497 4.137 8.64 4.137 8.64 4.179 8.711 4.179 8.711 4.22 8.426 4.22 8.426 4.179 8.497 4.179 8.497 4.137" style="fill:none;stroke:#000;stroke-width:.05"/><rect id="rect230" width=".672" height=".504" x="1.404" y="3.465" style="fill:#b3b3b3;stroke:none;stroke-width:0"/><rect id="rect232" width=".672" height=".504" x="1.404" y="3.465" style="fill:none;stroke:#000;stroke-width:.05"/><rect id="rect234" width=".527" height=".347" x="1.476" y="3.538" style="fill:#000;stroke:none;stroke-width:0"/><polygon id="polygon236" points="1.495 3.969 1.841 3.969 1.841 4.048 1.513 4.048 1.495 3.969" style="fill:#b3b3b3;stroke:none;stroke-width:.05"/><polygon id="polygon238" points="1.495 3.969 1.841 3.969 1.841 4.048 1.513 4.048 1.495 3.969" style="fill:none;stroke:#000;stroke-width:.05"/><polygon id="polygon240" points="1.841 3.969 1.985 3.969 1.967 4.048 1.841 4.048 1.841 3.969" style="fill:#b3b3b3;stroke:none;stroke-width:.05"/><polygon id="polygon242" points="1.841 3.969 1.985 3.969 1.967 4.048 1.841 4.048 1.841 3.969" style="fill:none;stroke:#000;stroke-width:.05"/><rect id="rect244" width=".031" height=".031" x="1.864" y="3.993" style="fill:#fff;stroke:none;stroke-width:0"/><rect id="rect246" width=".031" height=".031" x="1.864" y="3.993" style="fill:none;stroke:#000;stroke-width:.025"/><polygon id="polygon248" points="1.672 4.048 1.807 4.048 1.807 4.087 1.874 4.087 1.874 4.126 1.605 4.126 1.605 4.087 1.672 4.087 1.672 4.048" style="fill:#b3b3b3;stroke:none;stroke-width:.05"/><polygon id="polygon250" points="1.672 4.048 1.807 4.048 1.807 4.087 1.874 4.087 1.874 4.126 1.605 4.126 1.605 4.087 1.672 4.087 1.672 4.048" style="fill:none;stroke:#000;stroke-width:.05"/><rect id="rect252" width=".645" height=".484" x="2.441" y="3.49" style="fill:#b3b3b3;stroke:none;stroke-width:0"/><rect id="rect254" width=".645" height=".484" x="2.441" y="3.49" style="fill:none;stroke:#000;stroke-width:.05"/><rect id="rect256" width=".505" height=".333" x="2.511" y="3.56" style="fill:#000;stroke:none;stroke-width:0"/><polygon id="polygon258" points="2.528 3.974 2.86 3.974 2.86 4.049 2.546 4.049 2.528 3.974" style="fill:#b3b3b3;stroke:none;stroke-width:.05"/><polygon id="polygon260" points="2.528 3.974 2.86 3.974 2.86 4.049 2.546 4.049 2.528 3.974" style="fill:none;stroke:#000;stroke-width:.05"/><polygon id="polygon262" points="2.86 3.974 2.999 3.974 2.981 4.049 2.86 4.049 2.86 3.974" style="fill:#b3b3b3;stroke:none;stroke-width:.05"/><polygon id="polygon264" points="2.86 3.974 2.999 3.974 2.981 4.049 2.86 4.049 2.86 3.974" style="fill:none;stroke:#000;stroke-width:.05"/><rect id="rect266" width=".03" height=".03" x="2.883" y="3.997" style="fill:#fff;stroke:none;stroke-width:0"/><rect id="rect268" width=".03" height=".03" x="2.883" y="3.997" style="fill:none;stroke:#000;stroke-width:.025"/><polygon id="polygon270" points="2.699 4.049 2.828 4.049 2.828 4.087 2.893 4.087 2.893 4.124 2.635 4.124 2.635 4.087 2.699 4.087 2.699 4.049" style="fill:#b3b3b3;stroke:none;stroke-width:.05"/><polygon id="polygon272" points="2.699 4.049 2.828 4.049 2.828 4.087 2.893 4.087 2.893 4.124 2.635 4.124 2.635 4.087 2.699 4.087 2.699 4.049" style="fill:none;stroke:#000;stroke-width:.05"/><rect id="rect274" width=".659" height=".495" x=".279" y="3.52" style="fill:#b3b3b3;stroke:none;stroke-width:0"/><rect id="rect276" width=".659" height=".495" x=".279" y="3.52" style="fill:none;stroke:#000;stroke-width:.05"/><rect id="rect278" width=".517" height=".341" x=".35" y="3.592" style="fill:#000;stroke:none;stroke-width:0"/><polygon id="polygon280" points=".368 4.015 .707 4.015 .707 4.092 .386 4.092 .368 4.015" style="fill:#b3b3b3;stroke:none;stroke-width:.05"/><polygon id="polygon282" points=".368 4.015 .707 4.015 .707 4.092 .386 4.092 .368 4.015" style="fill:none;stroke:#000;stroke-width:.05"/><polygon id="polygon284" points=".707 4.015 .849 4.015 .831 4.092 .707 4.092 .707 4.015" style="fill:#b3b3b3;stroke:none;stroke-width:.05"/><polygon id="polygon286" points=".707 4.015 .849 4.015 .831 4.092 .707 4.092 .707 4.015" style="fill:none;stroke:#000;stroke-width:.05"/><rect id="rect288" width=".031" height=".031" x=".73" y="4.038" style="fill:#fff;stroke:none;stroke-width:0"/><rect id="rect290" width=".031" height=".031" x=".73" y="4.038" style="fill:none;stroke:#000;stroke-width:.025"/><polygon id="polygon292" points=".542 4.092 .674 4.092 .674 4.13 .74 4.13 .74 4.169 .476 4.169 .476 4.13 .542 4.13 .542 4.092" style="fill:#b3b3b3;stroke:none;stroke-width:.05"/><polygon id="polygon294" points=".542 4.092 .674 4.092 .674 4.13 .74 4.13 .74 4.169 .476 4.169 .476 4.13 .542 4.13 .542 4.092" style="fill:none;stroke:#000;stroke-width:.05"/><rect id="rect296" width=".659" height=".494" x="9.688" y="3.527" style="fill:#b3b3b3;stroke:none;stroke-width:0"/><rect id="rect298" width=".659" height=".494" x="9.688" y="3.527" style="fill:none;stroke:#000;stroke-width:.05"/><rect id="rect300" width=".516" height=".341" x="9.759" y="3.599" style="fill:#000;stroke:none;stroke-width:0"/><polygon id="polygon302" points="9.777 4.022 10.116 4.022 10.116 4.099 9.795 4.099 9.777 4.022" style="fill:#b3b3b3;stroke:none;stroke-width:.05"/><polygon id="polygon304" points="9.777 4.022 10.116 4.022 10.116 4.099 9.795 4.099 9.777 4.022" style="fill:none;stroke:#000;stroke-width:.05"/><polygon id="polygon306" points="10.116 4.022 10.258 4.022 10.24 4.099 10.116 4.099 10.116 4.022" style="fill:#b3b3b3;stroke:none;stroke-width:.05"/><polygon id="polygon308" points="10.116 4.022 10.258 4.022 10.24 4.099 10.116 4.099 10.116 4.022" style="fill:none;stroke:#000;stroke-width:.05"/><rect id="rect310" width=".031" height=".031" x="10.139" y="4.045" style="fill:#fff;stroke:none;stroke-width:0"/><rect id="rect312" width=".031" height=".031" x="10.139" y="4.045" style="fill:none;stroke:#000;stroke-width:.025"/><polygon id="polygon314" points="9.952 4.099 10.083 4.099 10.083 4.137 10.149 4.137 10.149 4.176 9.886 4.176 9.886 4.137 9.952 4.137 9.952 4.099" style="fill:#b3b3b3;stroke:none;stroke-width:.05"/><polygon id="polygon316" points="9.952 4.099 10.083 4.099 10.083 4.137 10.149 4.137 10.149 4.176 9.886 4.176 9.886 4.137 9.952 4.137 9.952 4.099" style="fill:none;stroke:#000;stroke-width:.05"/><rect id="rect318" width=".623" height=".467" x="11.2" y="3.565" style="fill:#b3b3b3;stroke:none;stroke-width:0"/><rect id="rect320" width=".623" height=".467" x="11.2" y="3.565" style="fill:none;stroke:#000;stroke-width:.05"/><rect id="rect322" width=".488" height=".322" x="11.268" y="3.632" style="fill:#000;stroke:none;stroke-width:0"/><polygon id="polygon324" points="11.285 4.032 11.605 4.032 11.605 4.105 11.302 4.105 11.285 4.032" style="fill:#b3b3b3;stroke:none;stroke-width:.05"/><polygon id="polygon326" points="11.285 4.032 11.605 4.032 11.605 4.105 11.302 4.105 11.285 4.032" style="fill:none;stroke:#000;stroke-width:.05"/><polygon id="polygon328" points="11.605 4.032 11.739 4.032 11.722 4.105 11.605 4.105 11.605 4.032" style="fill:#b3b3b3;stroke:none;stroke-width:.05"/><polygon id="polygon330" points="11.605 4.032 11.739 4.032 11.722 4.105 11.605 4.105 11.605 4.032" style="fill:none;stroke:#000;stroke-width:.05"/><rect id="rect332" width=".029" height=".029" x="11.627" y="4.054" style="fill:#fff;stroke:none;stroke-width:0"/><rect id="rect334" width=".029" height=".029" x="11.627" y="4.054" style="fill:none;stroke:#000;stroke-width:.025"/><polygon id="polygon336" points="11.449 4.105 11.574 4.105 11.574 4.141 11.636 4.141 11.636 4.177 11.387 4.177 11.387 4.141 11.449 4.141 11.449 4.105" style="fill:#b3b3b3;stroke:none;stroke-width:.05"/><polygon id="polygon338" points="11.449 4.105 11.574 4.105 11.574 4.141 11.636 4.141 11.636 4.177 11.387 4.177 11.387 4.141 11.449 4.141 11.449 4.105" style="fill:none;stroke:#000;stroke-width:.05"/><polygon id="polygon340" points="3.803 3.759 3.763 3.775 3.645 4.072 3.645 4.22 3.704 4.27 4.574 4.27 4.634 4.22 4.634 4.072 4.515 3.775 4.475 3.759 3.803 3.759" style="fill:#b3b3b3;stroke:none;stroke-width:.08"/><polygon id="polygon342" points="3.803 3.759 3.763 3.775 3.645 4.072 3.645 4.22 3.704 4.27 4.574 4.27 4.634 4.22 4.634 4.072 4.515 3.775 4.475 3.759 3.803 3.759" style="fill:none;stroke:#000;stroke-width:.08"/><path id="path344" d="M 3.665,4.023 L 3.704,4.039 L 4.574,4.039 L 4.614,4.023" style="fill:none;stroke:#000;stroke-width:.08"/><path id="path346" d="M 4.574,4.039 L 4.634,4.072" style="fill:none;stroke:#000;stroke-width:.08"/><path id="path348" d="M 3.645,4.072 L 3.704,4.039" style="fill:none;stroke:#000;stroke-width:.08"/><polygon id="polygon350" points="3.922 3.446 3.902 3.841 4.376 3.841 4.357 3.446 3.922 3.446" style="fill:#fff;stroke:none;stroke-width:.08"/><polygon id="polygon352" points="3.922 3.446 3.902 3.841 4.376 3.841 4.357 3.446 3.922 3.446" style="fill:none;stroke:#000;stroke-width:.08"/><polygon id="polygon354" points="3.843 3.841 3.803 3.957 4.475 3.957 4.436 3.841 3.843 3.841" style="fill:#000;stroke:none;stroke-width:.08"/><polygon id="polygon356" points="3.843 3.841 3.803 3.957 4.475 3.957 4.436 3.841 3.843 3.841" style="fill:none;stroke:#000;stroke-width:.08"/><ellipse id="ellipse358" cx="3.843" cy="4.097" rx=".01" ry=".01" style="fill:#00f;stroke:none"/><ellipse id="ellipse360" cx="3.843" cy="4.097" rx=".01" ry=".01" style="fill:none;stroke:#000;stroke-width:.02"/><ellipse id="ellipse362" cx="3.941" cy="4.097" rx=".01" ry=".01" style="fill:#00f;stroke:none"/><ellipse id="ellipse364" cx="3.941" cy="4.097" rx=".01" ry=".01" style="fill:none;stroke:#000;stroke-width:.02"/><ellipse id="ellipse366" cx="4.04" cy="4.097" rx=".01" ry=".01" style="fill:#00f;stroke:none"/><ellipse id="ellipse368" cx="4.04" cy="4.097" rx=".01" ry=".01" style="fill:none;stroke:#000;stroke-width:.02"/><ellipse id="ellipse370" cx="3.843" cy="4.138" rx=".01" ry=".01" style="fill:#00f;stroke:none"/><ellipse id="ellipse372" cx="3.843" cy="4.138" rx=".01" ry=".01" style="fill:none;stroke:#000;stroke-width:.02"/><ellipse id="ellipse374" cx="3.941" cy="4.138" rx=".01" ry=".01" style="fill:#00f;stroke:none"/><ellipse id="ellipse376" cx="3.941" cy="4.138" rx=".01" ry=".01" style="fill:none;stroke:#000;stroke-width:.02"/><ellipse id="ellipse378" cx="4.04" cy="4.138" rx=".01" ry=".01" style="fill:#00f;stroke:none"/><ellipse id="ellipse380" cx="4.04" cy="4.138" rx=".01" ry=".01" style="fill:none;stroke:#000;stroke-width:.02"/><ellipse id="ellipse382" cx="3.843" cy="4.179" rx=".01" ry=".01" style="fill:#00f;stroke:none"/><ellipse id="ellipse384" cx="3.843" cy="4.179" rx=".01" ry=".01" style="fill:none;stroke:#000;stroke-width:.02"/><ellipse id="ellipse386" cx="3.941" cy="4.179" rx=".01" ry=".01" style="fill:#00f;stroke:none"/><ellipse id="ellipse388" cx="3.941" cy="4.179" rx=".01" ry=".01" style="fill:none;stroke:#000;stroke-width:.02"/><ellipse id="ellipse390" cx="4.04" cy="4.179" rx=".01" ry=".01" style="fill:#00f;stroke:none"/><ellipse id="ellipse392" cx="4.04" cy="4.179" rx=".01" ry=".01" style="fill:none;stroke:#000;stroke-width:.02"/><ellipse id="ellipse394" cx="3.843" cy="4.22" rx=".01" ry=".01" style="fill:#00f;stroke:none"/><ellipse id="ellipse396" cx="3.843" cy="4.22" rx=".01" ry=".01" style="fill:none;stroke:#000;stroke-width:.02"/><ellipse id="ellipse398" cx="3.941" cy="4.22" rx=".01" ry=".01" style="fill:#00f;stroke:none"/><ellipse id="ellipse400" cx="3.941" cy="4.22" rx=".01" ry=".01" style="fill:none;stroke:#000;stroke-width:.02"/><ellipse id="ellipse402" cx="4.04" cy="4.22" rx=".01" ry=".01" style="fill:#00f;stroke:none"/><ellipse id="ellipse404" cx="4.04" cy="4.22" rx=".01" ry=".01" style="fill:none;stroke:#000;stroke-width:.02"/><ellipse id="ellipse406" cx="4.139" cy="4.105" rx=".124" ry=".04" style="fill:#8f8f8f;stroke:none"/><ellipse id="ellipse408" cx="4.139" cy="4.105" rx=".124" ry=".04" style="fill:none;stroke:#000;stroke-width:.02"/><ellipse id="ellipse410" cx="4.386" cy="4.105" rx=".124" ry=".04" style="fill:#8f8f8f;stroke:none"/><ellipse id="ellipse412" cx="4.386" cy="4.105" rx=".124" ry=".04" style="fill:none;stroke:#000;stroke-width:.02"/><polygon id="polygon414" points="3.741 6.521 3.695 6.54 3.558 6.884 3.558 7.056 3.627 7.114 4.635 7.114 4.704 7.056 4.704 6.884 4.567 6.54 4.521 6.521 3.741 6.521" style="fill:#b3b3b3;stroke:none;stroke-width:.08"/><polygon id="polygon416" points="3.741 6.521 3.695 6.54 3.558 6.884 3.558 7.056 3.627 7.114 4.635 7.114 4.704 7.056 4.704 6.884 4.567 6.54 4.521 6.521 3.741 6.521" style="fill:none;stroke:#000;stroke-width:.08"/><path id="path418" d="M 3.581,6.827 L 3.627,6.846 L 4.635,6.846 L 4.681,6.827" style="fill:none;stroke:#000;stroke-width:.08"/><path id="path420" d="M 4.635,6.846 L 4.704,6.884" style="fill:none;stroke:#000;stroke-width:.08"/><path id="path422" d="M 3.558,6.884 L 3.627,6.846" style="fill:none;stroke:#000;stroke-width:.08"/><polygon id="polygon424" points="3.879 6.158 3.856 6.617 4.406 6.617 4.383 6.158 3.879 6.158" style="fill:#fff;stroke:none;stroke-width:.08"/><polygon id="polygon426" points="3.879 6.158 3.856 6.617 4.406 6.617 4.383 6.158 3.879 6.158" style="fill:none;stroke:#000;stroke-width:.08"/><polygon id="polygon428" points="3.787 6.617 3.741 6.751 4.521 6.751 4.475 6.617 3.787 6.617" style="fill:#000;stroke:none;stroke-width:.08"/><polygon id="polygon430" points="3.787 6.617 3.741 6.751 4.521 6.751 4.475 6.617 3.787 6.617" style="fill:none;stroke:#000;stroke-width:.08"/><ellipse id="ellipse432" cx="3.787" cy="6.913" rx=".011" ry=".011" style="fill:#00f;stroke:none"/><ellipse id="ellipse434" cx="3.787" cy="6.913" rx=".011" ry=".011" style="fill:none;stroke:#000;stroke-width:.02"/><ellipse id="ellipse436" cx="3.902" cy="6.913" rx=".011" ry=".011" style="fill:#00f;stroke:none"/><ellipse id="ellipse438" cx="3.902" cy="6.913" rx=".011" ry=".011" style="fill:none;stroke:#000;stroke-width:.02"/><ellipse id="ellipse440" cx="4.016" cy="6.913" rx=".011" ry=".011" style="fill:#00f;stroke:none"/><ellipse id="ellipse442" cx="4.016" cy="6.913" rx=".011" ry=".011" style="fill:none;stroke:#000;stroke-width:.02"/><ellipse id="ellipse444" cx="3.787" cy="6.961" rx=".011" ry=".011" style="fill:#00f;stroke:none"/><ellipse id="ellipse446" cx="3.787" cy="6.961" rx=".011" ry=".011" style="fill:none;stroke:#000;stroke-width:.02"/><ellipse id="ellipse448" cx="3.902" cy="6.961" rx=".011" ry=".011" style="fill:#00f;stroke:none"/><ellipse id="ellipse450" cx="3.902" cy="6.961" rx=".011" ry=".011" style="fill:none;stroke:#000;stroke-width:.02"/><ellipse id="ellipse452" cx="4.016" cy="6.961" rx=".011" ry=".011" style="fill:#00f;stroke:none"/><ellipse id="ellipse454" cx="4.016" cy="6.961" rx=".011" ry=".011" style="fill:none;stroke:#000;stroke-width:.02"/><ellipse id="ellipse456" cx="3.787" cy="7.008" rx=".011" ry=".011" style="fill:#00f;stroke:none"/><ellipse id="ellipse458" cx="3.787" cy="7.008" rx=".011" ry=".011" style="fill:none;stroke:#000;stroke-width:.02"/><ellipse id="ellipse460" cx="3.902" cy="7.008" rx=".011" ry=".011" style="fill:#00f;stroke:none"/><ellipse id="ellipse462" cx="3.902" cy="7.008" rx=".011" ry=".011" style="fill:none;stroke:#000;stroke-width:.02"/><ellipse id="ellipse464" cx="4.016" cy="7.008" rx=".011" ry=".011" style="fill:#00f;stroke:none"/><ellipse id="ellipse466" cx="4.016" cy="7.008" rx=".011" ry=".011" style="fill:none;stroke:#000;stroke-width:.02"/><ellipse id="ellipse468" cx="3.787" cy="7.056" rx=".011" ry=".011" style="fill:#00f;stroke:none"/><ellipse id="ellipse470" cx="3.787" cy="7.056" rx=".011" ry=".011" style="fill:none;stroke:#000;stroke-width:.02"/><ellipse id="ellipse472" cx="3.902" cy="7.056" rx=".011" ry=".011" style="fill:#00f;stroke:none"/><ellipse id="ellipse474" cx="3.902" cy="7.056" rx=".011" ry=".011" style="fill:none;stroke:#000;stroke-width:.02"/><ellipse id="ellipse476" cx="4.016" cy="7.056" rx=".011" ry=".011" style="fill:#00f;stroke:none"/><ellipse id="ellipse478" cx="4.016" cy="7.056" rx=".011" ry=".011" style="fill:none;stroke:#000;stroke-width:.02"/><ellipse id="ellipse480" cx="4.131" cy="6.922" rx=".143" ry=".046" style="fill:#8f8f8f;stroke:none"/><ellipse id="ellipse482" cx="4.131" cy="6.922" rx=".143" ry=".046" style="fill:none;stroke:#000;stroke-width:.02"/><ellipse id="ellipse484" cx="4.418" cy="6.922" rx=".143" ry=".046" style="fill:#8f8f8f;stroke:none"/><ellipse id="ellipse486" cx="4.418" cy="6.922" rx=".143" ry=".046" style="fill:none;stroke:#000;stroke-width:.02"/><polygon id="polygon488" points="8.113 6.536 8.063 6.557 7.91 6.938 7.91 7.128 7.987 7.192 9.103 7.192 9.179 7.128 9.179 6.938 9.027 6.557 8.976 6.536 8.113 6.536" style="fill:#b3b3b3;stroke:none;stroke-width:.08"/><polygon id="polygon490" points="8.113 6.536 8.063 6.557 7.91 6.938 7.91 7.128 7.987 7.192 9.103 7.192 9.179 7.128 9.179 6.938 9.027 6.557 8.976 6.536 8.113 6.536" style="fill:none;stroke:#000;stroke-width:.08"/><path id="path492" d="M 7.936,6.874 L 7.987,6.896 L 9.103,6.896 L 9.154,6.874" style="fill:none;stroke:#000;stroke-width:.08"/><path id="path494" d="M 9.103,6.896 L 9.179,6.938" style="fill:none;stroke:#000;stroke-width:.08"/><path id="path496" d="M 7.91,6.938 L 7.987,6.896" style="fill:none;stroke:#000;stroke-width:.08"/><polygon id="polygon498" points="8.266 6.134 8.24 6.642 8.849 6.642 8.824 6.134 8.266 6.134" style="fill:#fff;stroke:none;stroke-width:.08"/><polygon id="polygon500" points="8.266 6.134 8.24 6.642 8.849 6.642 8.824 6.134 8.266 6.134" style="fill:none;stroke:#000;stroke-width:.08"/><polygon id="polygon502" points="8.164 6.642 8.113 6.79 8.976 6.79 8.925 6.642 8.164 6.642" style="fill:#000;stroke:none;stroke-width:.08"/><polygon id="polygon504" points="8.164 6.642 8.113 6.79 8.976 6.79 8.925 6.642 8.164 6.642" style="fill:none;stroke:#000;stroke-width:.08"/><ellipse id="ellipse506" cx="8.164" cy="6.97" rx=".013" ry=".013" style="fill:#00f;stroke:none"/><ellipse id="ellipse508" cx="8.164" cy="6.97" rx=".013" ry=".013" style="fill:none;stroke:#000;stroke-width:.02"/><ellipse id="ellipse510" cx="8.291" cy="6.97" rx=".013" ry=".013" style="fill:#00f;stroke:none"/><ellipse id="ellipse512" cx="8.291" cy="6.97" rx=".013" ry=".013" style="fill:none;stroke:#000;stroke-width:.02"/><ellipse id="ellipse514" cx="8.418" cy="6.97" rx=".013" ry=".013" style="fill:#00f;stroke:none"/><ellipse id="ellipse516" cx="8.418" cy="6.97" rx=".013" ry=".013" style="fill:none;stroke:#000;stroke-width:.02"/><ellipse id="ellipse518" cx="8.164" cy="7.023" rx=".013" ry=".013" style="fill:#00f;stroke:none"/><ellipse id="ellipse520" cx="8.164" cy="7.023" rx=".013" ry=".013" style="fill:none;stroke:#000;stroke-width:.02"/><ellipse id="ellipse522" cx="8.291" cy="7.023" rx=".013" ry=".013" style="fill:#00f;stroke:none"/><ellipse id="ellipse524" cx="8.291" cy="7.023" rx=".013" ry=".013" style="fill:none;stroke:#000;stroke-width:.02"/><ellipse id="ellipse526" cx="8.418" cy="7.023" rx=".013" ry=".013" style="fill:#00f;stroke:none"/><ellipse id="ellipse528" cx="8.418" cy="7.023" rx=".013" ry=".013" style="fill:none;stroke:#000;stroke-width:.02"/><ellipse id="ellipse530" cx="8.164" cy="7.075" rx=".013" ry=".013" style="fill:#00f;stroke:none"/><ellipse id="ellipse532" cx="8.164" cy="7.075" rx=".013" ry=".013" style="fill:none;stroke:#000;stroke-width:.02"/><ellipse id="ellipse534" cx="8.291" cy="7.075" rx=".013" ry=".013" style="fill:#00f;stroke:none"/><ellipse id="ellipse536" cx="8.291" cy="7.075" rx=".013" ry=".013" style="fill:none;stroke:#000;stroke-width:.02"/><ellipse id="ellipse538" cx="8.418" cy="7.075" rx=".013" ry=".013" style="fill:#00f;stroke:none"/><ellipse id="ellipse540" cx="8.418" cy="7.075" rx=".013" ry=".013" style="fill:none;stroke:#000;stroke-width:.02"/><ellipse id="ellipse542" cx="8.164" cy="7.128" rx=".013" ry=".013" style="fill:#00f;stroke:none"/><ellipse id="ellipse544" cx="8.164" cy="7.128" rx=".013" ry=".013" style="fill:none;stroke:#000;stroke-width:.02"/><ellipse id="ellipse546" cx="8.291" cy="7.128" rx=".013" ry=".013" style="fill:#00f;stroke:none"/><ellipse id="ellipse548" cx="8.291" cy="7.128" rx=".013" ry=".013" style="fill:none;stroke:#000;stroke-width:.02"/><ellipse id="ellipse550" cx="8.418" cy="7.128" rx=".013" ry=".013" style="fill:#00f;stroke:none"/><ellipse id="ellipse552" cx="8.418" cy="7.128" rx=".013" ry=".013" style="fill:none;stroke:#000;stroke-width:.02"/><ellipse id="ellipse554" cx="8.545" cy="6.98" rx=".159" ry=".051" style="fill:#8f8f8f;stroke:none"/><ellipse id="ellipse556" cx="8.545" cy="6.98" rx=".159" ry=".051" style="fill:none;stroke:#000;stroke-width:.02"/><ellipse id="ellipse558" cx="8.862" cy="6.98" rx=".159" ry=".051" style="fill:#8f8f8f;stroke:none"/><ellipse id="ellipse560" cx="8.862" cy="6.98" rx=".159" ry=".051" style="fill:none;stroke:#000;stroke-width:.02"/><text id="text562" x="3.988" y="1.613" style="font-size:.80000001px;font-style:normal;font-weight:400;text-anchor:start;fill:#000;font-family:arial">Domain: BILLMORE</text><text id="text564" x="1.056" y="5.667" style="font-size:.40000001px;font-style:normal;font-weight:400;text-anchor:start;fill:#000;font-family:arial">192.168.1.0/24</text><text id="text566" x="9.458" y="5.62" style="font-size:.40000001px;font-style:normal;font-weight:400;text-anchor:start;fill:#000;font-family:arial">192.168.2.0/24</text><text id="text568" x="4.4" y="5.601" style="font-size:.40000001px;font-style:normal;font-weight:400;text-anchor:start;fill:#000;font-family:arial">.10</text><text id="text570" x="4.439" y="5.014" style="font-size:.40000001px;font-style:normal;font-weight:400;text-anchor:start;fill:#000;font-family:arial">.11</text><text id="text572" x="8.003" y="5.564" style="font-size:.40000001px;font-style:normal;font-weight:400;text-anchor:start;fill:#000;font-family:arial">.10</text><text id="text574" x="7.242" y="4.927" style="font-size:.40000001px;font-style:normal;font-weight:400;text-anchor:start;fill:#000;font-family:arial">.1</text><text id="text576" x="9.709" y="6.026" style="font-size:.40000001px;font-style:normal;font-weight:400;text-anchor:start;fill:#000;font-family:arial">IP via DHCP</text><text id="text578" x="3.943" y="7.601" style="font-size:.40000001px;font-style:normal;font-weight:400;text-anchor:start;fill:#000;font-family:arial">hplj6</text><text id="text580" x="8.382" y="7.639" style="font-size:.40000001px;font-style:normal;font-weight:400;text-anchor:start;fill:#000;font-family:arial">qms</text><text id="text582" x="6.044" y="2.602" style="font-size:.40000001px;font-style:normal;font-weight:400;text-anchor:start;fill:#000;font-family:arial">Server:</text><text id="text584" x="5.967" y="3.002" style="font-size:.40000001px;font-style:normal;font-weight:400;text-anchor:start;fill:#000;font-family:arial">SLEETH</text><text id="text586" x=".696" y="2.615" style="font-size:.40000001px;font-style:normal;font-weight:400;text-anchor:start;fill:#000;font-family:arial">Accounting</text><text id="text588" x="9.693" y="2.566" style="font-size:.40000001px;font-style:normal;font-weight:400;text-anchor:start;fill:#000;font-family:arial">Financial Services</text><text id="text590" x=".64" y="7.791" style="font-size:.40000001px;font-style:normal;font-weight:400;text-anchor:start;fill:#000;font-family:arial">20 Users</text><text id="text592" x="10.799" y="7.804" style="font-size:.40000001px;font-style:normal;font-weight:400;text-anchor:start;fill:#000;font-family:arial">32 Users</text></svg>