<svg xmlns="http://www.w3.org/2000/svg" xmlns:svg="http://www.w3.org/2000/svg" id="svg2" width="535.748" height="270.236" version="1.0" viewBox="4.175 2.15 18.35 9.3"><rect id="rect4" width="4.225" height="1.825" x="4.225" y="4.475" style="fill:#fff;stroke:none;stroke-width:0"/><rect id="rect6" width="4.225" height="1.825" x="4.225" y="4.475" style="fill:none;stroke:#000;stroke-width:.1"/><rect id="rect8" width="6.175" height="2.825" x="12.1" y="2.2" style="fill:#fff;stroke:none;stroke-width:0"/><rect id="rect10" width="6.175" height="2.825" x="12.1" y="2.2" style="fill:none;stroke:#000;stroke-width:.1"/><text id="text12" x="5.417" y="5.6" style="font-size:.80000001px;font-style:normal;font-weight:400;text-anchor:start;fill:#000;font-family:arial">Samba</text><text id="text14" x="14.296" y="3.025" style="font-size:.80000001px;font-style:normal;font-weight:400;text-anchor:start;fill:#000;font-family:arial">master</text><text id="text16" x="13.676" y="3.825" style="font-size:.80000001px;font-style:normal;font-weight:400;text-anchor:start;fill:#000;font-family:arial">LDAP server</text><text id="text18" x="13.84" y="4.625" style="font-size:.80000001px;font-style:normal;font-weight:400;text-anchor:start;fill:#000;font-family:arial">Directory A</text><line id="line20" x1="9" x2="10.9" y1="5.379" y2="5.35" stroke="#000" stroke-width=".1" style="stroke:#000;stroke-width:.1"/><polygon id="polygon22" points="8.996 5.129 8.5 5.387 9.004 5.629 8.996 5.129" style="fill:#000;stroke:none;stroke-width:.1"/><rect id="rect24" width="6.175" height="2.605" x="12.125" y="6.52" style="fill:#fff;stroke:none;stroke-width:0"/><rect id="rect26" width="6.175" height="2.605" x="12.125" y="6.52" style="fill:none;stroke:#000;stroke-width:.1"/><text id="text28" x="14.575" y="7.25" style="font-size:.80000001px;font-style:normal;font-weight:400;text-anchor:start;fill:#000;font-family:arial">slave</text><text id="text30" x="13.776" y="8.05" style="font-size:.80000001px;font-style:normal;font-weight:400;text-anchor:start;fill:#000;font-family:arial">LDAP server</text><text id="text32" x="13.941" y="8.85" style="font-size:.80000001px;font-style:normal;font-weight:400;text-anchor:start;fill:#000;font-family:arial">Directory B</text><line id="line34" x1="11.55" x2="10.925" y1="3.618" y2="3.625" stroke="#000" stroke-width=".1" style="stroke:#000;stroke-width:.1"/><polygon id="polygon36" points="11.553 3.868 12.05 3.613 11.547 3.368 11.553 3.868" style="fill:#000;stroke:none;stroke-width:.1"/><line id="line38" x1="10.95" x2="10.925" y1="3.575" y2="7.85" stroke="#000" stroke-width=".1" style="stroke:#000;stroke-width:.1"/><line id="line40" x1="11.575" x2="10.95" y1="7.824" y2="7.825" stroke="#000" stroke-width=".1" style="stroke:#000;stroke-width:.1"/><polygon id="polygon42" points="11.576 8.074 12.075 7.823 11.574 7.574 11.576 8.074" style="fill:#000;stroke:none;stroke-width:.1"/><text id="text44" x="14.331" y="5.975" style="font-size:.60000002px;font-style:normal;font-weight:400;text-anchor:start;fill:#000;font-family:arial">additive</text></svg>