<svg xmlns="http://www.w3.org/2000/svg" xmlns:svg="http://www.w3.org/2000/svg" id="svg2" width="495.043" height="185.197" version="1.0" viewBox="4.175 2.9 17.273 7.8"><rect id="rect4" width="4.225" height="1.825" x="4.225" y="4.475" style="fill:#fff;stroke:none;stroke-width:0"/><rect id="rect6" width="4.225" height="1.825" x="4.225" y="4.475" style="fill:none;stroke:#000;stroke-width:.1"/><rect id="rect8" width="5.175" height="1.9" x="12" y="2.95" style="fill:#fff;stroke:none;stroke-width:0"/><rect id="rect10" width="5.175" height="1.9" x="12" y="2.95" style="fill:none;stroke:#000;stroke-width:.1"/><text id="text12" x="5.417" y="5.55" style="font-size:.80000001px;font-style:normal;font-weight:400;text-anchor:start;fill:#000;font-family:arial">Samba</text><text id="text14" x="13.846" y="3.725" style="font-size:.80000001px;font-style:normal;font-weight:400;text-anchor:start;fill:#000;font-family:arial">master</text><text id="text16" x="13.226" y="4.525" style="font-size:.80000001px;font-style:normal;font-weight:400;text-anchor:start;fill:#000;font-family:arial">LDAP server</text><line id="line18" x1="8.982" x2="11.518" y1="4.875" y2="3.813" stroke="#000" stroke-width=".1" style="stroke:#000;stroke-width:.1"/><polygon id="polygon20" points="8.886 4.644 8.521 5.068 9.079 5.106 8.886 4.644" style="fill:#000;stroke:none;stroke-width:.1"/><polygon id="polygon22" points="11.614 4.043 11.979 3.619 11.421 3.582 11.614 4.043" style="fill:#000;stroke:none;stroke-width:.1"/><rect id="rect24" width="5.175" height="1.9" x="12.047" y="5.745" style="fill:#fff;stroke:none;stroke-width:0"/><rect id="rect26" width="5.175" height="1.9" x="12.047" y="5.745" style="fill:none;stroke:#000;stroke-width:.1"/><text id="text28" x="14.1" y="6.55" style="font-size:.80000001px;font-style:normal;font-weight:400;text-anchor:start;fill:#000;font-family:arial">slave</text><text id="text30" x="13.301" y="7.35" style="font-size:.80000001px;font-style:normal;font-weight:400;text-anchor:start;fill:#000;font-family:arial">LDAP server</text><line id="line32" x1="8.993" x2="11.43" y1="5.861" y2="6.734" stroke="#000" stroke-dasharray=".1 .1" stroke-width=".1" style="stroke:#000;stroke-width:.1;stroke-dasharray:.1,.1"/><polygon id="polygon34" points="9.077 5.625 8.522 5.692 8.908 6.096 9.077 5.625" style="fill:#000;stroke:none;stroke-width:.1"/><polygon id="polygon36" points="11.345 6.97 11.9 6.903 11.514 6.499 11.345 6.97" style="fill:#000;stroke:none;stroke-width:.1"/><text id="text38" x="10.245" y="6" style="font-size:.5px;font-style:normal;font-weight:400;text-anchor:start;fill:#000;font-family:arial">fail-over</text></svg>