<svg xmlns="http://www.w3.org/2000/svg" xmlns:svg="http://www.w3.org/2000/svg" id="svg2" width="619.427" height="439.748" version="1.0" viewBox="3.227 3.533 19.617 15.168"><polyline id="polyline4" fill="none" stroke="#000" stroke-width=".1" points="4.746 10.964 4.746 12.225 18.667 12.225 18.667 11.05" style="fill:none;stroke:#000;stroke-width:.1"/><rect id="rect6" width="2.06" height="4.807" x="3.648" y="5.744" style="fill:#b3b3b3;stroke:none;stroke-width:0"/><rect id="rect8" width="2.06" height="4.807" x="3.648" y="5.744" style="fill:none;stroke:#000;stroke-width:.08"/><rect id="rect10" width="1.648" height=".549" x="3.854" y="6.033" style="fill:none;stroke:#000;stroke-width:.01"/><rect id="rect12" width="1.648" height=".549" x="3.854" y="6.582" style="fill:none;stroke:#000;stroke-width:.01"/><rect id="rect14" width="1.648" height=".549" x="3.854" y="7.132" style="fill:none;stroke:#000;stroke-width:.01"/><rect id="rect16" width="1.648" height=".549" x="3.854" y="7.681" style="fill:none;stroke:#000;stroke-width:.01"/><rect id="rect18" width="1.03" height=".33" x="3.854" y="8.34" style="fill:none;stroke:#000;stroke-width:.01"/><ellipse id="ellipse20" cx="5.399" cy="8.395" rx=".072" ry=".072" style="fill:#0f0;stroke:none"/><ellipse id="ellipse22" cx="5.399" cy="8.395" rx=".072" ry=".072" style="fill:none;stroke:#000;stroke-width:.01"/><ellipse id="ellipse24" cx="5.399" cy="8.615" rx=".072" ry=".072" style="fill:#ff0;stroke:none"/><ellipse id="ellipse26" cx="5.399" cy="8.615" rx=".072" ry=".072" style="fill:none;stroke:#000;stroke-width:.01"/><rect id="rect28" width=".247" height=".22" x="4.987" y="8.45" style="fill:#fff;stroke:none;stroke-width:0"/><rect id="rect30" width=".247" height=".22" x="4.987" y="8.45" style="fill:none;stroke:#000;stroke-width:.01"/><path id="path32" d="M 3.991,9.109 L 3.991,10.311" style="fill:none;stroke:#000;stroke-width:.01"/><path id="path34" d="M 4.334,9.109 L 4.334,10.311" style="fill:none;stroke:#000;stroke-width:.01"/><path id="path36" d="M 4.678,9.109 L 4.678,10.311" style="fill:none;stroke:#000;stroke-width:.01"/><path id="path38" d="M 5.021,9.109 L 5.021,10.311" style="fill:none;stroke:#000;stroke-width:.01"/><path id="path40" d="M 5.364,9.109 L 5.364,10.311" style="fill:none;stroke:#000;stroke-width:.01"/><path id="path42" d="M 5.708,9.109 L 5.708,10.311" style="fill:none;stroke:#000;stroke-width:.01"/><polygon id="polygon44" points="3.236 10.964 3.648 10.14 3.648 10.552 5.708 10.552 5.708 10.14 6.257 10.964 3.236 10.964" style="fill:#999;stroke:none;stroke-width:.01"/><polygon id="polygon46" points="3.236 10.964 3.648 10.14 3.648 10.552 5.708 10.552 5.708 10.14 6.257 10.964 3.236 10.964" style="fill:none;stroke:#000;stroke-width:.01"/><rect id="rect48" width="1.8" height="5.4" x="17.767" y="5.65" style="fill:#d9d9cd;stroke:none;stroke-width:0"/><rect id="rect50" width="1.8" height="5.4" x="17.767" y="5.65" style="fill:none;stroke:#000;stroke-width:.1"/><rect id="rect52" width="1.8" height="5.4" x="17.767" y="5.65" style="fill:none;stroke:#000;stroke-width:.01"/><rect id="rect54" width="1.44" height="2.16" x="17.947" y="5.83" style="fill:#d9d9cd;stroke:none;stroke-width:0"/><rect id="rect56" width="1.44" height="2.16" x="17.947" y="5.83" style="fill:none;stroke:#000;stroke-width:.1"/><rect id="rect58" width="1.44" height="2.16" x="17.947" y="5.83" style="fill:none;stroke:#000;stroke-width:.01"/><line id="line60" x1="17.947" x2="19.387" y1="6.19" y2="6.19" stroke="#000" stroke-width=".01" style="stroke:#000;stroke-width:.01"/><line id="line62" x1="19.387" x2="17.947" y1="6.55" y2="6.55" stroke="#000" stroke-width=".01" style="stroke:#000;stroke-width:.01"/><line id="line64" x1="17.947" x2="19.387" y1="6.91" y2="6.91" stroke="#000" stroke-width=".01" style="stroke:#000;stroke-width:.01"/><line id="line66" x1="17.947" x2="19.387" y1="7.27" y2="7.27" stroke="#000" stroke-width=".01" style="stroke:#000;stroke-width:.01"/><line id="line68" x1="19.387" x2="17.947" y1="7.63" y2="7.63" stroke="#000" stroke-width=".01" style="stroke:#000;stroke-width:.01"/><rect id="rect70" width=".99" height=".54" x="17.947" y="8.17" style="fill:#d9d9cd;stroke:none;stroke-width:0"/><rect id="rect72" width=".99" height=".54" x="17.947" y="8.17" style="fill:none;stroke:#000;stroke-width:.1"/><rect id="rect74" width=".99" height=".54" x="17.947" y="8.17" style="fill:none;stroke:#000;stroke-width:.01"/><line id="line76" x1="17.767" x2="19.567" y1="9.07" y2="9.07" stroke="#000" stroke-width=".01" style="stroke:#000;stroke-width:.01"/><rect id="rect78" width=".09" height=".09" x="18.577" y="9.25" style="fill:#00cd00;stroke:none;stroke-width:0"/><rect id="rect80" width=".09" height=".09" x="18.577" y="9.25" style="fill:none;stroke:#000;stroke-width:.1"/><rect id="rect82" width=".09" height=".09" x="18.577" y="9.25" style="fill:none;stroke:#000;stroke-width:.01"/><rect id="rect84" width=".09" height=".09" x="18.937" y="9.25" style="fill:#cdcd00;stroke:none;stroke-width:0"/><rect id="rect86" width=".09" height=".09" x="18.937" y="9.25" style="fill:none;stroke:#000;stroke-width:.1"/><rect id="rect88" width=".09" height=".09" x="18.937" y="9.25" style="fill:none;stroke:#000;stroke-width:.01"/><rect id="rect90" width=".09" height=".09" x="19.297" y="9.25" style="fill:#cd0000;stroke:none;stroke-width:0"/><rect id="rect92" width=".09" height=".09" x="19.297" y="9.25" style="fill:none;stroke:#000;stroke-width:.1"/><rect id="rect94" width=".09" height=".09" x="19.297" y="9.25" style="fill:none;stroke:#000;stroke-width:.01"/><rect id="rect96" width=".18" height=".18" x="19.207" y="8.71" style="fill:#cdcdbd;stroke:none;stroke-width:0"/><rect id="rect98" width=".18" height=".18" x="19.207" y="8.71" style="fill:none;stroke:#000;stroke-width:.1"/><rect id="rect100" width=".18" height=".18" x="19.207" y="8.71" style="fill:none;stroke:#000;stroke-width:.01"/><line id="line102" x1="17.947" x2="18.937" y1="8.44" y2="8.44" stroke="#000" stroke-width=".01" style="stroke:#000;stroke-width:.01"/><rect id="rect104" width=".27" height=".27" x="17.947" y="9.16" style="fill:#cdcdbd;stroke:none;stroke-width:0"/><rect id="rect106" width=".27" height=".27" x="17.947" y="9.16" style="fill:none;stroke:#000;stroke-width:.1"/><rect id="rect108" width=".27" height=".27" x="17.947" y="9.16" style="fill:none;stroke:#000;stroke-width:.01"/><rect id="rect110" width="1.26" height=".09" x="18.037" y="7.72" style="fill:#cdcdc1;stroke:none;stroke-width:0"/><rect id="rect112" width="1.26" height=".09" x="18.037" y="7.72" style="fill:none;stroke:#000;stroke-width:.1"/><rect id="rect114" width="1.26" height=".09" x="18.037" y="7.72" style="fill:none;stroke:#000;stroke-width:.01"/><line id="line116" x1="18.037" x2="18.847" y1="8.26" y2="8.26" stroke="#000" stroke-width=".01" style="stroke:#000;stroke-width:.01"/><line id="line118" x1="18.847" x2="18.757" y1="8.35" y2="8.35" stroke="#000" stroke-width=".01" style="stroke:#000;stroke-width:.01"/><line id="line120" x1="18.037" x2="18.127" y1="8.35" y2="8.35" stroke="#000" stroke-width=".01" style="stroke:#000;stroke-width:.01"/><rect id="rect122" width=".45" height=".09" x="18.217" y="8.26" style="fill:#cdcdc1;stroke:none;stroke-width:0"/><rect id="rect124" width=".45" height=".09" x="18.217" y="8.26" style="fill:none;stroke:#000;stroke-width:.1"/><rect id="rect126" width=".45" height=".09" x="18.217" y="8.26" style="fill:none;stroke:#000;stroke-width:.01"/><line id="line128" x1="18.037" x2="18.127" y1="7.9" y2="7.9" stroke="#000" stroke-width=".01" style="stroke:#000;stroke-width:.01"/><line id="line130" x1="18.217" x2="18.307" y1="7.9" y2="7.9" stroke="#000" stroke-width=".01" style="stroke:#000;stroke-width:.01"/><line id="line132" x1="19.117" x2="19.297" y1="7.9" y2="7.9" stroke="#000" stroke-width=".01" style="stroke:#000;stroke-width:.01"/><line id="line134" x1="17.857" x2="19.477" y1="10.96" y2="10.96" stroke="#000" stroke-width=".01" style="stroke:#000;stroke-width:.01"/><line id="line136" x1="19.477" x2="17.857" y1="10.87" y2="10.87" stroke="#000" stroke-width=".01" style="stroke:#000;stroke-width:.01"/><line id="line138" x1="17.857" x2="19.477" y1="10.78" y2="10.78" stroke="#000" stroke-width=".01" style="stroke:#000;stroke-width:.01"/><line id="line140" x1="19.477" x2="17.857" y1="10.69" y2="10.69" stroke="#000" stroke-width=".01" style="stroke:#000;stroke-width:.01"/><line id="line142" x1="17.857" x2="19.477" y1="10.6" y2="10.6" stroke="#000" stroke-width=".01" style="stroke:#000;stroke-width:.01"/><line id="line144" x1="19.477" x2="17.857" y1="10.51" y2="10.51" stroke="#000" stroke-width=".01" style="stroke:#000;stroke-width:.01"/><line id="line146" x1="17.857" x2="19.477" y1="10.42" y2="10.42" stroke="#000" stroke-width=".01" style="stroke:#000;stroke-width:.01"/><line id="line148" x1="19.477" x2="17.857" y1="10.33" y2="10.33" stroke="#000" stroke-width=".01" style="stroke:#000;stroke-width:.01"/><line id="line150" x1="17.857" x2="19.477" y1="10.24" y2="10.24" stroke="#000" stroke-width=".01" style="stroke:#000;stroke-width:.01"/><line id="line152" x1="19.477" x2="17.857" y1="10.15" y2="10.15" stroke="#000" stroke-width=".01" style="stroke:#000;stroke-width:.01"/><line id="line154" x1="17.857" x2="19.477" y1="10.06" y2="10.06" stroke="#000" stroke-width=".01" style="stroke:#000;stroke-width:.01"/><line id="line156" x1="19.477" x2="17.857" y1="9.97" y2="9.97" stroke="#000" stroke-width=".01" style="stroke:#000;stroke-width:.01"/><line id="line158" x1="17.857" x2="19.477" y1="9.88" y2="9.88" stroke="#000" stroke-width=".01" style="stroke:#000;stroke-width:.01"/><line id="line160" x1="19.477" x2="17.857" y1="9.79" y2="9.79" stroke="#000" stroke-width=".01" style="stroke:#000;stroke-width:.01"/><rect id="rect162" width="2.719" height="2.399" x="6.55" y="6.187" style="fill:#fff;stroke:none;stroke-width:0"/><ellipse id="ellipse164" cx="7.909" cy="8.585" rx="1.359" ry=".4" style="fill:#fff;stroke:none"/><ellipse id="ellipse166" cx="7.909" cy="6.187" rx="1.359" ry=".4" style="fill:#fff;stroke:none"/><ellipse id="ellipse168" cx="7.909" cy="6.187" rx="1.359" ry=".4" style="fill:none;stroke:#000;stroke-width:.1"/><path id="path170" d="M 9.269,6.187 L 9.269,8.585 C 9.269,8.806 8.66,8.985 7.909,8.985 C 7.159,8.985 6.55,8.806 6.55,8.585 L 6.55,6.187" style="fill:none;stroke:#000;stroke-width:.1"/><rect id="rect172" width="2.719" height="2.399" x="14.112" y="6.2" style="fill:#fff;stroke:none;stroke-width:0"/><ellipse id="ellipse174" cx="15.472" cy="8.599" rx="1.359" ry=".4" style="fill:#fff;stroke:none"/><ellipse id="ellipse176" cx="15.472" cy="6.2" rx="1.359" ry=".4" style="fill:#fff;stroke:none"/><ellipse id="ellipse178" cx="15.472" cy="6.2" rx="1.359" ry=".4" style="fill:none;stroke:#000;stroke-width:.1"/><path id="path180" d="M 16.831,6.2 L 16.831,8.599 C 16.831,8.82 16.223,8.999 15.472,8.999 C 14.721,8.999 14.112,8.82 14.112,8.599 L 14.112,6.2" style="fill:none;stroke:#000;stroke-width:.1"/><line id="line182" x1="5.725" x2="6.525" y1="7.35" y2="7.35" stroke="#000" stroke-width=".1" style="stroke:#000;stroke-width:.1"/><line id="line184" x1="16.825" x2="17.75" y1="7.4" y2="7.375" stroke="#000" stroke-width=".1" style="stroke:#000;stroke-width:.1"/><path id="path186" d="M 8.65,9.2 C 9.0031969,10.514524 10.174957,11.443114 11.535409,11.486614 C 12.89586,11.530113 14.124549,10.678275 14.561,9.389" style="fill:none;stroke:#000;stroke-width:.1;stroke-dasharray:.1,.1"/><polyline id="polyline188" fill="none" stroke="#000" stroke-width=".1" points="14.713 9.83 14.597 9.283 14.229 9.704" style="fill:none;stroke:#000;stroke-width:.1"/><text id="text190" x="7.02" y="4.975" style="font-size:.60000002px;font-style:normal;font-weight:400;text-anchor:start;fill:#000;font-family:arial">NT4 Registry</text><text id="text192" x="7.691" y="5.575" style="font-size:.60000002px;font-style:normal;font-weight:400;text-anchor:start;fill:#000;font-family:arial">SAM</text><text id="text194" x="13.871" y="4.925" style="font-size:.60000002px;font-style:normal;font-weight:400;text-anchor:start;fill:#000;font-family:arial">Samba SAM</text><text id="text196" x="13.221" y="5.525" style="font-size:.60000002px;font-style:normal;font-weight:400;text-anchor:start;fill:#000;font-family:arial">(ldapsam or tdbsam)</text><text id="text198" x="4.226" y="4.025" style="font-size:.80000001px;font-style:normal;font-weight:400;text-anchor:start;fill:#000;font-family:arial">NT4</text><text id="text200" x="4.172" y="4.825" style="font-size:.80000001px;font-style:normal;font-weight:400;text-anchor:start;fill:#000;font-family:arial">PDC</text><text id="text202" x="17.992" y="4" style="font-size:.80000001px;font-style:normal;font-weight:400;text-anchor:start;fill:#000;font-family:arial">Samba</text><text id="text204" x="18.407" y="4.8" style="font-size:.80000001px;font-style:normal;font-weight:400;text-anchor:start;fill:#000;font-family:arial">DC</text><text id="text206" x="5.854" y="13.625" style="font-size:.69999999px;font-style:normal;font-weight:400;text-anchor:start;fill:#000;font-family:arial">net rpc vampire</text><text id="text208" x="5.514" y="14.325" style="font-size:.69999999px;font-style:normal;font-weight:400;text-anchor:start;fill:#000;font-family:arial">Migration migrates:</text><text id="text210" x="14.664" y="13.375" style="font-size:.69999999px;font-style:normal;font-weight:400;text-anchor:start;fill:#000;font-family:arial">User Accounts</text><text id="text212" x="14.557" y="14.075" style="font-size:.69999999px;font-style:normal;font-weight:400;text-anchor:start;fill:#000;font-family:arial">Domain Groups</text><text id="text214" x="14.311" y="14.775" style="font-size:.69999999px;font-style:normal;font-weight:400;text-anchor:start;fill:#000;font-family:arial">Machine Accounts</text><line id="line216" x1="10.725" x2="12.25" y1="13.8" y2="13.818" stroke="#000" stroke-width=".1" style="stroke:#000;stroke-width:.1"/><polygon id="polygon218" points="12.247 14.068 12.75 13.824 12.253 13.568 12.247 14.068" style="fill:#000;stroke:none;stroke-width:.1"/></svg>