<svg xmlns="http://www.w3.org/2000/svg" xmlns:svg="http://www.w3.org/2000/svg" id="svg2" width="720.945" height="600.831" version="1.0" viewBox="1.95 0.208 21.025 16.105"><rect id="rect4" width="10.1" height="13.95" x="2.775" y="2.125" style="fill:#ededed;stroke:none;stroke-width:0"/><path id="path6" d="M 2.775,2.125 C 2.3884007,2.125 2.075,2.4384007 2.075,2.825" style="fill:#ededed;stroke:none"/><path id="path8" d="M 13.575,2.825 C 13.575,2.4384007 13.261599,2.125 12.875,2.125" style="fill:#ededed;stroke:none"/><rect id="rect10" width="11.5" height="12.55" x="2.075" y="2.825" style="fill:#ededed;stroke:none;stroke-width:0"/><path id="path12" d="M 2.075,15.375 C 2.075,15.761599 2.3884007,16.075 2.775,16.075" style="fill:#ededed;stroke:none"/><path id="path14" d="M 12.875,16.075 C 13.261599,16.075 13.575,15.761599 13.575,15.375" style="fill:#ededed;stroke:none"/><line id="line16" x1="2.775" x2="12.875" y1="2.125" y2="2.125" stroke="#000" stroke-width=".01" style="stroke:#000;stroke-width:.01"/><line id="line18" x1="2.775" x2="12.875" y1="16.075" y2="16.075" stroke="#000" stroke-width=".01" style="stroke:#000;stroke-width:.01"/><path id="path20" d="M 2.775,2.125 C 2.3884007,2.125 2.075,2.4384007 2.075,2.825" style="fill:none;stroke:#000;stroke-width:.01"/><path id="path22" d="M 13.575,2.825 C 13.575,2.4384007 13.261599,2.125 12.875,2.125" style="fill:none;stroke:#000;stroke-width:.01"/><line id="line24" x1="2.075" x2="2.075" y1="2.825" y2="15.375" stroke="#000" stroke-width=".01" style="stroke:#000;stroke-width:.01"/><line id="line26" x1="13.575" x2="13.575" y1="2.825" y2="15.375" stroke="#000" stroke-width=".01" style="stroke:#000;stroke-width:.01"/><path id="path28" d="M 2.075,15.375 C 2.075,15.761599 2.3884007,16.075 2.775,16.075" style="fill:none;stroke:#000;stroke-width:.01"/><path id="path30" d="M 12.875,16.075 C 13.261599,16.075 13.575,15.761599 13.575,15.375" style="fill:none;stroke:#000;stroke-width:.01"/><rect id="rect32" width="5.533" height="13.95" x="14.717" y="2.15" style="fill:#ededed;stroke:none;stroke-width:0"/><path id="path34" d="M 14.717,2.15 C 14.330791,2.1505517 14.018,2.4637909 14.018,2.85" style="fill:#ededed;stroke:none"/><path id="path36" d="M 20.95,2.85 C 20.95,2.4634007 20.636599,2.15 20.25,2.15" style="fill:#ededed;stroke:none"/><rect id="rect38" width="6.932" height="12.55" x="14.018" y="2.85" style="fill:#ededed;stroke:none;stroke-width:0"/><path id="path40" d="M 14.018,15.4 C 14.018,15.786209 14.330791,16.099448 14.717,16.1" style="fill:#ededed;stroke:none"/><path id="path42" d="M 20.25,16.1 C 20.636599,16.1 20.95,15.786599 20.95,15.4" style="fill:#ededed;stroke:none"/><line id="line44" x1="14.717" x2="20.25" y1="2.15" y2="2.15" stroke="#000" stroke-width=".01" style="stroke:#000;stroke-width:.01"/><line id="line46" x1="14.717" x2="20.25" y1="16.1" y2="16.1" stroke="#000" stroke-width=".01" style="stroke:#000;stroke-width:.01"/><path id="path48" d="M 14.717,2.15 C 14.330791,2.1505517 14.018,2.4637909 14.018,2.85" style="fill:none;stroke:#000;stroke-width:.01"/><path id="path50" d="M 20.95,2.85 C 20.95,2.4634007 20.636599,2.15 20.25,2.15" style="fill:none;stroke:#000;stroke-width:.01"/><line id="line52" x1="14.018" x2="14.018" y1="2.85" y2="15.4" stroke="#000" stroke-width=".01" style="stroke:#000;stroke-width:.01"/><line id="line54" x1="20.95" x2="20.95" y1="2.85" y2="15.4" stroke="#000" stroke-width=".01" style="stroke:#000;stroke-width:.01"/><path id="path56" d="M 14.018,15.4 C 14.018,15.786209 14.330791,16.099448 14.717,16.1" style="fill:none;stroke:#000;stroke-width:.01"/><path id="path58" d="M 20.25,16.1 C 20.636599,16.1 20.95,15.786599 20.95,15.4" style="fill:none;stroke:#000;stroke-width:.01"/><rect id="rect60" width="4.975" height="4.625" x="10.8" y="10.877" style="fill:#b5b5b5;stroke:none;stroke-width:0"/><path id="path62" d="M 10.8,10.877 C 10.523858,10.877 10.3,11.100858 10.3,11.377" style="fill:#b5b5b5;stroke:none"/><path id="path64" d="M 16.275,11.377 C 16.275,11.100858 16.051142,10.877 15.775,10.877" style="fill:#b5b5b5;stroke:none"/><rect id="rect66" width="5.975" height="3.625" x="10.3" y="11.377" style="fill:#b5b5b5;stroke:none;stroke-width:0"/><path id="path68" d="M 10.3,15.002 C 10.3,15.278142 10.523858,15.502 10.8,15.502" style="fill:#b5b5b5;stroke:none"/><path id="path70" d="M 15.775,15.502 C 16.051142,15.502 16.275,15.278142 16.275,15.002" style="fill:#b5b5b5;stroke:none"/><line id="line72" x1="10.8" x2="15.775" y1="10.877" y2="10.877" stroke="#000" stroke-width=".01" style="stroke:#000;stroke-width:.01"/><line id="line74" x1="10.8" x2="15.775" y1="15.502" y2="15.502" stroke="#000" stroke-width=".01" style="stroke:#000;stroke-width:.01"/><path id="path76" d="M 10.8,10.877 C 10.523858,10.877 10.3,11.100858 10.3,11.377" style="fill:none;stroke:#000;stroke-width:.01"/><path id="path78" d="M 16.275,11.377 C 16.275,11.100858 16.051142,10.877 15.775,10.877" style="fill:none;stroke:#000;stroke-width:.01"/><line id="line80" x1="10.3" x2="10.3" y1="11.377" y2="15.002" stroke="#000" stroke-width=".01" style="stroke:#000;stroke-width:.01"/><line id="line82" x1="16.275" x2="16.275" y1="11.377" y2="15.002" stroke="#000" stroke-width=".01" style="stroke:#000;stroke-width:.01"/><path id="path84" d="M 10.3,15.002 C 10.3,15.278142 10.523858,15.502 10.8,15.502" style="fill:none;stroke:#000;stroke-width:.01"/><path id="path86" d="M 15.775,15.502 C 16.051142,15.502 16.275,15.278142 16.275,15.002" style="fill:none;stroke:#000;stroke-width:.01"/><line id="line88" x1="2.025" x2="20.95" y1="1.825" y2="1.825" stroke="#000" stroke-width=".15" style="stroke:#000;stroke-width:.15000001"/><rect id="rect90" width="1.391" height="3.246" x="5.539" y="3.161" style="fill:#b3b3b3;stroke:none;stroke-width:0"/><rect id="rect92" width="1.391" height="3.246" x="5.539" y="3.161" style="fill:none;stroke:#000;stroke-width:.08"/><rect id="rect94" width="1.113" height=".371" x="5.678" y="3.356" style="fill:none;stroke:#000;stroke-width:.01"/><rect id="rect96" width="1.113" height=".371" x="5.678" y="3.727" style="fill:none;stroke:#000;stroke-width:.01"/><rect id="rect98" width="1.113" height=".371" x="5.678" y="4.098" style="fill:none;stroke:#000;stroke-width:.01"/><rect id="rect100" width="1.113" height=".371" x="5.678" y="4.469" style="fill:none;stroke:#000;stroke-width:.01"/><rect id="rect102" width=".695" height=".223" x="5.678" y="4.914" style="fill:none;stroke:#000;stroke-width:.01"/><ellipse id="ellipse104" cx="6.721" cy="4.951" rx=".049" ry=".049" style="fill:#0f0;stroke:none"/><ellipse id="ellipse106" cx="6.721" cy="4.951" rx=".049" ry=".049" style="fill:none;stroke:#000;stroke-width:.01"/><ellipse id="ellipse108" cx="6.721" cy="5.099" rx=".049" ry=".049" style="fill:#ff0;stroke:none"/><ellipse id="ellipse110" cx="6.721" cy="5.099" rx=".049" ry=".049" style="fill:none;stroke:#000;stroke-width:.01"/><rect id="rect112" width=".167" height=".148" x="6.443" y="4.988" style="fill:#fff;stroke:none;stroke-width:0"/><rect id="rect114" width=".167" height=".148" x="6.443" y="4.988" style="fill:none;stroke:#000;stroke-width:.01"/><path id="path116" d="M 5.771,5.433 L 5.771,6.245" style="fill:none;stroke:#000;stroke-width:.01"/><path id="path118" d="M 6.002,5.433 L 6.002,6.245" style="fill:none;stroke:#000;stroke-width:.01"/><path id="path120" d="M 6.234,5.433 L 6.234,6.245" style="fill:none;stroke:#000;stroke-width:.01"/><path id="path122" d="M 6.466,5.433 L 6.466,6.245" style="fill:none;stroke:#000;stroke-width:.01"/><path id="path124" d="M 6.698,5.433 L 6.698,6.245" style="fill:none;stroke:#000;stroke-width:.01"/><path id="path126" d="M 6.93,5.433 L 6.93,6.245" style="fill:none;stroke:#000;stroke-width:.01"/><polygon id="polygon128" points="5.261 6.685 5.539 6.129 5.539 6.407 6.93 6.407 6.93 6.129 7.301 6.685 5.261 6.685" style="fill:#999;stroke:none;stroke-width:.01"/><polygon id="polygon130" points="5.261 6.685 5.539 6.129 5.539 6.407 6.93 6.407 6.93 6.129 7.301 6.685 5.261 6.685" style="fill:none;stroke:#000;stroke-width:.01"/><rect id="rect132" width="1.354" height="3.158" x="8.837" y="3.212" style="fill:#b3b3b3;stroke:none;stroke-width:0"/><rect id="rect134" width="1.354" height="3.158" x="8.837" y="3.212" style="fill:none;stroke:#000;stroke-width:.08"/><rect id="rect136" width="1.083" height=".361" x="8.972" y="3.402" style="fill:none;stroke:#000;stroke-width:.01"/><rect id="rect138" width="1.083" height=".361" x="8.972" y="3.763" style="fill:none;stroke:#000;stroke-width:.01"/><rect id="rect140" width="1.083" height=".361" x="8.972" y="4.124" style="fill:none;stroke:#000;stroke-width:.01"/><rect id="rect142" width="1.083" height=".361" x="8.972" y="4.485" style="fill:none;stroke:#000;stroke-width:.01"/><rect id="rect144" width=".677" height=".217" x="8.972" y="4.918" style="fill:none;stroke:#000;stroke-width:.01"/><ellipse id="ellipse146" cx="9.988" cy="4.954" rx=".047" ry=".047" style="fill:#0f0;stroke:none"/><ellipse id="ellipse148" cx="9.988" cy="4.954" rx=".047" ry=".047" style="fill:none;stroke:#000;stroke-width:.01"/><ellipse id="ellipse150" cx="9.988" cy="5.099" rx=".047" ry=".047" style="fill:#ff0;stroke:none"/><ellipse id="ellipse152" cx="9.988" cy="5.099" rx=".047" ry=".047" style="fill:none;stroke:#000;stroke-width:.01"/><rect id="rect154" width=".162" height=".144" x="9.717" y="4.99" style="fill:#fff;stroke:none;stroke-width:0"/><rect id="rect156" width=".162" height=".144" x="9.717" y="4.99" style="fill:none;stroke:#000;stroke-width:.01"/><path id="path158" d="M 9.063,5.423 L 9.063,6.213" style="fill:none;stroke:#000;stroke-width:.01"/><path id="path160" d="M 9.288,5.423 L 9.288,6.213" style="fill:none;stroke:#000;stroke-width:.01"/><path id="path162" d="M 9.514,5.423 L 9.514,6.213" style="fill:none;stroke:#000;stroke-width:.01"/><path id="path164" d="M 9.739,5.423 L 9.739,6.213" style="fill:none;stroke:#000;stroke-width:.01"/><path id="path166" d="M 9.965,5.423 L 9.965,6.213" style="fill:none;stroke:#000;stroke-width:.01"/><path id="path168" d="M 10.191,5.423 L 10.191,6.213" style="fill:none;stroke:#000;stroke-width:.01"/><polygon id="polygon170" points="8.566 6.642 8.837 6.1 8.837 6.371 10.191 6.371 10.191 6.1 10.552 6.642 8.566 6.642" style="fill:#999;stroke:none;stroke-width:.01"/><polygon id="polygon172" points="8.566 6.642 8.837 6.1 8.837 6.371 10.191 6.371 10.191 6.1 10.552 6.642 8.566 6.642" style="fill:none;stroke:#000;stroke-width:.01"/><rect id="rect174" width="1.67" height="5.009" x="16.247" y="3.034" style="fill:#d9d9cd;stroke:none;stroke-width:0"/><rect id="rect176" width="1.67" height="5.009" x="16.247" y="3.034" style="fill:none;stroke:#000;stroke-width:.1"/><rect id="rect178" width="1.67" height="5.009" x="16.247" y="3.034" style="fill:none;stroke:#000;stroke-width:.01"/><rect id="rect180" width="1.336" height="2.003" x="16.414" y="3.201" style="fill:#d9d9cd;stroke:none;stroke-width:0"/><rect id="rect182" width="1.336" height="2.003" x="16.414" y="3.201" style="fill:none;stroke:#000;stroke-width:.1"/><rect id="rect184" width="1.336" height="2.003" x="16.414" y="3.201" style="fill:none;stroke:#000;stroke-width:.01"/><line id="line186" x1="16.414" x2="17.75" y1="3.534" y2="3.534" stroke="#000" stroke-width=".01" style="stroke:#000;stroke-width:.01"/><line id="line188" x1="17.75" x2="16.414" y1="3.868" y2="3.868" stroke="#000" stroke-width=".01" style="stroke:#000;stroke-width:.01"/><line id="line190" x1="16.414" x2="17.75" y1="4.202" y2="4.202" stroke="#000" stroke-width=".01" style="stroke:#000;stroke-width:.01"/><line id="line192" x1="16.414" x2="17.75" y1="4.536" y2="4.536" stroke="#000" stroke-width=".01" style="stroke:#000;stroke-width:.01"/><line id="line194" x1="17.75" x2="16.414" y1="4.87" y2="4.87" stroke="#000" stroke-width=".01" style="stroke:#000;stroke-width:.01"/><rect id="rect196" width=".918" height=".501" x="16.414" y="5.371" style="fill:#d9d9cd;stroke:none;stroke-width:0"/><rect id="rect198" width=".918" height=".501" x="16.414" y="5.371" style="fill:none;stroke:#000;stroke-width:.1"/><rect id="rect200" width=".918" height=".501" x="16.414" y="5.371" style="fill:none;stroke:#000;stroke-width:.01"/><line id="line202" x1="16.247" x2="17.917" y1="6.206" y2="6.206" stroke="#000" stroke-width=".01" style="stroke:#000;stroke-width:.01"/><rect id="rect204" width=".083" height=".083" x="16.998" y="6.373" style="fill:#00cd00;stroke:none;stroke-width:0"/><rect id="rect206" width=".083" height=".083" x="16.998" y="6.373" style="fill:none;stroke:#000;stroke-width:.1"/><rect id="rect208" width=".083" height=".083" x="16.998" y="6.373" style="fill:none;stroke:#000;stroke-width:.01"/><rect id="rect210" width=".083" height=".083" x="17.332" y="6.373" style="fill:#cdcd00;stroke:none;stroke-width:0"/><rect id="rect212" width=".083" height=".083" x="17.332" y="6.373" style="fill:none;stroke:#000;stroke-width:.1"/><rect id="rect214" width=".083" height=".083" x="17.332" y="6.373" style="fill:none;stroke:#000;stroke-width:.01"/><rect id="rect216" width=".083" height=".083" x="17.666" y="6.373" style="fill:#cd0000;stroke:none;stroke-width:0"/><rect id="rect218" width=".083" height=".083" x="17.666" y="6.373" style="fill:none;stroke:#000;stroke-width:.1"/><rect id="rect220" width=".083" height=".083" x="17.666" y="6.373" style="fill:none;stroke:#000;stroke-width:.01"/><rect id="rect222" width=".167" height=".167" x="17.583" y="5.872" style="fill:#cdcdbd;stroke:none;stroke-width:0"/><rect id="rect224" width=".167" height=".167" x="17.583" y="5.872" style="fill:none;stroke:#000;stroke-width:.1"/><rect id="rect226" width=".167" height=".167" x="17.583" y="5.872" style="fill:none;stroke:#000;stroke-width:.01"/><line id="line228" x1="16.414" x2="17.332" y1="5.621" y2="5.621" stroke="#000" stroke-width=".01" style="stroke:#000;stroke-width:.01"/><rect id="rect230" width=".25" height=".25" x="16.414" y="6.289" style="fill:#cdcdbd;stroke:none;stroke-width:0"/><rect id="rect232" width=".25" height=".25" x="16.414" y="6.289" style="fill:none;stroke:#000;stroke-width:.1"/><rect id="rect234" width=".25" height=".25" x="16.414" y="6.289" style="fill:none;stroke:#000;stroke-width:.01"/><rect id="rect236" width="1.169" height=".083" x="16.498" y="4.954" style="fill:#cdcdc1;stroke:none;stroke-width:0"/><rect id="rect238" width="1.169" height=".083" x="16.498" y="4.954" style="fill:none;stroke:#000;stroke-width:.1"/><rect id="rect240" width="1.169" height=".083" x="16.498" y="4.954" style="fill:none;stroke:#000;stroke-width:.01"/><line id="line242" x1="16.498" x2="17.249" y1="5.454" y2="5.454" stroke="#000" stroke-width=".01" style="stroke:#000;stroke-width:.01"/><line id="line244" x1="17.249" x2="17.165" y1="5.538" y2="5.538" stroke="#000" stroke-width=".01" style="stroke:#000;stroke-width:.01"/><line id="line246" x1="16.498" x2="16.581" y1="5.538" y2="5.538" stroke="#000" stroke-width=".01" style="stroke:#000;stroke-width:.01"/><rect id="rect248" width=".417" height=".083" x="16.664" y="5.454" style="fill:#cdcdc1;stroke:none;stroke-width:0"/><rect id="rect250" width=".417" height=".083" x="16.664" y="5.454" style="fill:none;stroke:#000;stroke-width:.1"/><rect id="rect252" width=".417" height=".083" x="16.664" y="5.454" style="fill:none;stroke:#000;stroke-width:.01"/><line id="line254" x1="16.498" x2="16.581" y1="5.12" y2="5.12" stroke="#000" stroke-width=".01" style="stroke:#000;stroke-width:.01"/><line id="line256" x1="16.664" x2="16.748" y1="5.12" y2="5.12" stroke="#000" stroke-width=".01" style="stroke:#000;stroke-width:.01"/><line id="line258" x1="17.499" x2="17.666" y1="5.12" y2="5.12" stroke="#000" stroke-width=".01" style="stroke:#000;stroke-width:.01"/><line id="line260" x1="16.331" x2="17.833" y1="7.959" y2="7.959" stroke="#000" stroke-width=".01" style="stroke:#000;stroke-width:.01"/><line id="line262" x1="17.833" x2="16.331" y1="7.875" y2="7.875" stroke="#000" stroke-width=".01" style="stroke:#000;stroke-width:.01"/><line id="line264" x1="16.331" x2="17.833" y1="7.792" y2="7.792" stroke="#000" stroke-width=".01" style="stroke:#000;stroke-width:.01"/><line id="line266" x1="17.833" x2="16.331" y1="7.708" y2="7.708" stroke="#000" stroke-width=".01" style="stroke:#000;stroke-width:.01"/><line id="line268" x1="16.331" x2="17.833" y1="7.625" y2="7.625" stroke="#000" stroke-width=".01" style="stroke:#000;stroke-width:.01"/><line id="line270" x1="17.833" x2="16.331" y1="7.541" y2="7.541" stroke="#000" stroke-width=".01" style="stroke:#000;stroke-width:.01"/><line id="line272" x1="16.331" x2="17.833" y1="7.458" y2="7.458" stroke="#000" stroke-width=".01" style="stroke:#000;stroke-width:.01"/><line id="line274" x1="17.833" x2="16.331" y1="7.374" y2="7.374" stroke="#000" stroke-width=".01" style="stroke:#000;stroke-width:.01"/><line id="line276" x1="16.331" x2="17.833" y1="7.291" y2="7.291" stroke="#000" stroke-width=".01" style="stroke:#000;stroke-width:.01"/><line id="line278" x1="17.833" x2="16.331" y1="7.207" y2="7.207" stroke="#000" stroke-width=".01" style="stroke:#000;stroke-width:.01"/><line id="line280" x1="16.331" x2="17.833" y1="7.124" y2="7.124" stroke="#000" stroke-width=".01" style="stroke:#000;stroke-width:.01"/><line id="line282" x1="17.833" x2="16.331" y1="7.04" y2="7.04" stroke="#000" stroke-width=".01" style="stroke:#000;stroke-width:.01"/><line id="line284" x1="16.331" x2="17.833" y1="6.957" y2="6.957" stroke="#000" stroke-width=".01" style="stroke:#000;stroke-width:.01"/><line id="line286" x1="17.833" x2="16.331" y1="6.873" y2="6.873" stroke="#000" stroke-width=".01" style="stroke:#000;stroke-width:.01"/><line id="line288" x1="17.1" x2="17.1" y1="1.85" y2="3.05" stroke="#000" stroke-width=".1" style="stroke:#000;stroke-width:.1"/><line id="line290" x1="6.258" x2="6.281" y1="1.823" y2="3.161" stroke="#000" stroke-width=".1" style="stroke:#000;stroke-width:.1"/><line id="line292" x1="9.525" x2="9.559" y1="1.85" y2="3.212" stroke="#000" stroke-width=".1" style="stroke:#000;stroke-width:.1"/><rect id="rect294" width="1.85" height="1.632" x="2.925" y="3.359" style="fill:#fff;stroke:none;stroke-width:0"/><ellipse id="ellipse296" cx="3.85" cy="4.991" rx=".925" ry=".272" style="fill:#fff;stroke:none"/><ellipse id="ellipse298" cx="3.85" cy="3.359" rx=".925" ry=".272" style="fill:#fff;stroke:none"/><ellipse id="ellipse300" cx="3.85" cy="3.359" rx=".925" ry=".272" style="fill:none;stroke:#000;stroke-width:.1"/><path id="path302" d="M 4.775,3.359 L 4.775,4.991 C 4.775,5.141 4.361,5.263 3.85,5.263 C 3.339,5.263 2.925,5.141 2.925,4.991 L 2.925,3.359" style="fill:none;stroke:#000;stroke-width:.1"/><rect id="rect304" width="1.85" height="1.632" x="11.008" y="3.37" style="fill:#fff;stroke:none;stroke-width:0"/><ellipse id="ellipse306" cx="11.932" cy="5.002" rx=".925" ry=".272" style="fill:#fff;stroke:none"/><ellipse id="ellipse308" cx="11.932" cy="3.37" rx=".925" ry=".272" style="fill:#fff;stroke:none"/><ellipse id="ellipse310" cx="11.932" cy="3.37" rx=".925" ry=".272" style="fill:none;stroke:#000;stroke-width:.1"/><path id="path312" d="M 12.857,3.37 L 12.857,5.002 C 12.857,5.152 12.443,5.274 11.932,5.274 C 11.422,5.274 11.008,5.152 11.008,5.002 L 11.008,3.37" style="fill:none;stroke:#000;stroke-width:.1"/><line id="line314" x1="4.8" x2="5.5" y1="4.175" y2="4.2" stroke="#000" stroke-width=".1" style="stroke:#000;stroke-width:.1"/><line id="line316" x1="10.259" x2="10.959" y1="4.149" y2="4.174" stroke="#000" stroke-width=".1" style="stroke:#000;stroke-width:.1"/><text id="text318" x="3.466" y="4.3" style="font-size:.5px;font-style:normal;font-weight:400;text-anchor:start;fill:#000;font-family:arial">LDAP</text><text id="text320" x="3.393" y="4.8" style="font-size:.5px;font-style:normal;font-weight:400;text-anchor:start;fill:#000;font-family:arial">Master</text><text id="text322" x="11.541" y="4.3" style="font-size:.5px;font-style:normal;font-weight:400;text-anchor:start;fill:#000;font-family:arial">LDAP</text><text id="text324" x="11.555" y="4.8" style="font-size:.5px;font-style:normal;font-weight:400;text-anchor:start;fill:#000;font-family:arial">Slave</text><path id="path326" d="M 10.533,3.038 C 8.7210597,2.042993 6.5088646,2.1244423 4.775,3.25" style="fill:none;stroke:#585858;stroke-width:.1;stroke-dasharray:.5,.15,.05,.15,.05,.15"/><polygon id="polygon328" points="10.405 3.221 10.959 3.297 10.687 2.808 10.405 3.221" style="fill:#585858;stroke:none;stroke-width:.1"/><text id="text330" x="3.042" y="6.1" style="font-size:.80000001px;font-style:normal;font-weight:400;text-anchor:start;fill:#000;font-family:arial">Samba</text><text id="text332" x="3.297" y="6.9" style="font-size:.80000001px;font-style:normal;font-weight:400;text-anchor:start;fill:#000;font-family:arial">PDC</text><text id="text334" x="11.317" y="6.075" style="font-size:.80000001px;font-style:normal;font-weight:400;text-anchor:start;fill:#000;font-family:arial">Samba</text><text id="text336" x="11.574" y="6.875" style="font-size:.80000001px;font-style:normal;font-weight:400;text-anchor:start;fill:#000;font-family:arial">BDC</text><text id="text338" x="15.605" y=".675" style="font-size:.80000001px;font-style:normal;font-weight:400;text-anchor:start;fill:#000;font-family:arial">Samba Domain</text><text id="text340" x="15.598" y="1.475" style="font-size:.80000001px;font-style:normal;font-weight:400;text-anchor:start;fill:#000;font-family:arial">Member Server</text><line id="line342" x1="2.075" x2="20.9" y1="8.975" y2="9" stroke="#000" stroke-dasharray=".5 .5" stroke-width=".1" style="stroke:#000;stroke-width:.1;stroke-dasharray:.5,.5"/><text id="text344" x="7.719" y="9.675" style="font-size:.60000002px;font-style:normal;font-weight:400;text-anchor:start;fill:#000;font-family:arial">PDC/BDC Services</text><text id="text346" x="5.787" y="1.395" style="font-size:.60000002px;font-style:normal;font-weight:400;text-anchor:start;fill:#000;font-family:arial">Network Configuration</text><rect id="rect348" width="2.575" height="1.1" x="7.4" y="13.025" style="fill:#b9b9b9;stroke:none;stroke-width:0"/><rect id="rect350" width="2.575" height="1.1" x="7.4" y="13.025" style="fill:none;stroke:#000;stroke-width:.1"/><text id="text352" x="8.024" y="13.775" style="font-size:.60000002px;font-style:normal;font-weight:400;text-anchor:start;fill:#010101;font-family:arial">Winbind</text><rect id="rect354" width="2.575" height="1.1" x="8.068" y="14.4" style="fill:#fff;stroke:none;stroke-width:0"/><rect id="rect356" width="2.575" height="1.1" x="8.068" y="14.4" style="fill:none;stroke:#000;stroke-width:.1"/><text id="text358" x="8.887" y="15.1" style="font-size:.60000002px;font-style:normal;font-weight:400;text-anchor:start;fill:#000;font-family:arial">LDAP</text><rect id="rect360" width="2.575" height="1.1" x="8.068" y="10.325" style="fill:#fff;stroke:none;stroke-width:0"/><rect id="rect362" width="2.575" height="1.1" x="8.068" y="10.325" style="fill:none;stroke:#000;stroke-width:.1"/><rect id="rect364" width="2.607" height="1.1" x="7.418" y="11.675" style="fill:#c6c6c6;stroke:none;stroke-width:0"/><rect id="rect366" width="2.607" height="1.1" x="7.418" y="11.675" style="fill:none;stroke:#000;stroke-width:.1"/><text id="text368" x="8.799" y="11.136" style="font-size:.60000002px;font-style:normal;font-weight:400;text-anchor:start;fill:#000;font-family:arial">smbd</text><text id="text370" x="8.207" y="12.436" style="font-size:.60000002px;font-style:normal;font-weight:400;text-anchor:start;fill:#000;font-family:arial">nmbd</text><text id="text372" x="16.143" y="9.7" style="font-size:.60000002px;font-style:normal;font-weight:400;text-anchor:start;fill:#000;font-family:arial">Client Services</text><rect id="rect374" width="2.575" height="1.125" x="16" y="12.975" style="fill:#fff;stroke:none;stroke-width:0"/><rect id="rect376" width="2.575" height="1.125" x="16" y="12.975" style="fill:none;stroke:#000;stroke-width:.1"/><text id="text378" x="16.599" y="13.7" style="font-size:.60000002px;font-style:normal;font-weight:400;text-anchor:start;fill:#000;font-family:arial">Winbind</text><rect id="rect380" width="2.575" height="1.1" x="15.992" y="10.275" style="fill:#fff;stroke:none;stroke-width:0"/><rect id="rect382" width="2.575" height="1.1" x="15.992" y="10.275" style="fill:none;stroke:#000;stroke-width:.1"/><rect id="rect384" width="2.608" height="1.102" x="16.517" y="11.625" style="fill:#c5c5c5;stroke:none;stroke-width:0"/><rect id="rect386" width="2.608" height="1.102" x="16.517" y="11.625" style="fill:none;stroke:#000;stroke-width:.1"/><text id="text388" x="16.724" y="11.086" style="font-size:.60000002px;font-style:normal;font-weight:400;text-anchor:start;fill:#000;font-family:arial">smbd</text><text id="text390" x="17.307" y="12.386" style="font-size:.60000002px;font-style:normal;font-weight:400;text-anchor:start;fill:#000;font-family:arial">nmbd</text><rect id="rect392" width="2.718" height="1.1" x="15.95" y="14.35" style="fill:#fff;stroke:none;stroke-width:0"/><rect id="rect394" width="2.718" height="1.1" x="15.95" y="14.35" style="fill:none;stroke:#000;stroke-width:.1"/><text id="text396" x="16.579" y="15.075" style="font-size:.60000002px;font-style:normal;font-weight:400;text-anchor:start;fill:#000;font-family:arial">nss_ldap</text><rect id="rect398" width="2.717" height="1.1" x="4.168" y="14.375" style="fill:#fff;stroke:none;stroke-width:0"/><rect id="rect400" width="2.717" height="1.1" x="4.168" y="14.375" style="fill:none;stroke:#000;stroke-width:.1"/><text id="text402" x="4.796" y="15.1" style="font-size:.60000002px;font-style:normal;font-weight:400;text-anchor:start;fill:#000;font-family:arial">nss_ldap</text><path id="path404" d="M 7.56,11.075 C 6.4745981,11.601642 5.7241236,12.635796 5.56,13.831" style="fill:none;stroke:#000;stroke-width:.1"/><polygon id="polygon406" points="7.616 11.277 8.02 10.89 7.468 10.799 7.616 11.277" style="fill:#000;stroke:none;stroke-width:.1"/><polygon id="polygon408" points="5.268 13.829 5.526 14.325 5.768 13.821 5.268 13.829" style="fill:#000;stroke:none;stroke-width:.1"/><line id="line410" x1="7.435" x2="7.518" y1="14.937" y2="14.938" stroke="#000" stroke-width=".1" style="stroke:#000;stroke-width:.1"/><polygon id="polygon412" points="7.44 14.687 6.935 14.926 7.43 15.187 7.44 14.687" style="fill:#000;stroke:none;stroke-width:.1"/><polygon id="polygon414" points="7.512 15.188 8.018 14.949 7.523 14.688 7.512 15.188" style="fill:#000;stroke:none;stroke-width:.1"/><path id="path416" d="M 19.015,13.314 C 19.392106,13.104482 19.629557,12.710441 19.638616,12.279135 C 19.647674,11.84783 19.426976,11.444167 19.059,11.219" style="fill:none;stroke:#000;stroke-width:.1"/><polygon id="polygon418" points="19.151 10.869 18.625 11.056 19.09 11.366 19.151 10.869" style="fill:#000;stroke:none;stroke-width:.1"/><polygon id="polygon420" points="19.053 13.169 18.575 13.458 19.094 13.667 19.053 13.169" style="fill:#000;stroke:none;stroke-width:.1"/><path id="path422" d="M 19.172,14.715 C 19.931775,14.326769 20.402308,13.537936 20.382916,12.684938 C 20.363525,11.83194 19.857632,11.065304 19.081,10.712" style="fill:none;stroke:#000;stroke-width:.1"/><polygon id="polygon424" points="19.154 10.406 18.617 10.559 19.062 10.897 19.154 10.406" style="fill:#000;stroke:none;stroke-width:.1"/><polygon id="polygon426" points="19.146 14.531 18.716 14.889 19.26 15.018 19.146 14.531" style="fill:#000;stroke:none;stroke-width:.1"/><line id="line428" x1="15.338" x2="11.337" y1="14.9" y2="14.9" stroke="#000" stroke-width=".1" style="stroke:#000;stroke-width:.1"/><polygon id="polygon430" points="15.338 15.15 15.838 14.9 15.338 14.65 15.338 15.15" style="fill:#fff;stroke:none;stroke-width:.1"/><polygon id="polygon432" points="15.338 15.15 15.838 14.9 15.338 14.65 15.338 15.15" style="fill:none;stroke:#000;stroke-width:.1"/><polygon id="polygon434" points="11.337 14.65 10.837 14.9 11.337 15.15 11.337 14.65" style="fill:#fff;stroke:none;stroke-width:.1"/><polygon id="polygon436" points="11.337 14.65 10.837 14.9 11.337 15.15 11.337 14.65" style="fill:none;stroke:#000;stroke-width:.1"/><line id="line438" x1="11.321" x2="15.379" y1="11.572" y2="13.132" stroke="#000" stroke-width=".1" style="stroke:#000;stroke-width:.1"/><polygon id="polygon440" points="11.411 11.338 10.854 11.392 11.231 11.805 11.411 11.338" style="fill:#fff;stroke:none;stroke-width:.1"/><polygon id="polygon442" points="11.411 11.338 10.854 11.392 11.231 11.805 11.411 11.338" style="fill:none;stroke:#000;stroke-width:.1"/><polygon id="polygon444" points="15.289 13.366 15.846 13.312 15.469 12.899 15.289 13.366" style="fill:#fff;stroke:none;stroke-width:.1"/><polygon id="polygon446" points="15.289 13.366 15.846 13.312 15.469 12.899 15.289 13.366" style="fill:none;stroke:#000;stroke-width:.1"/><text id="text448" x="12.719" y="13.45" style="font-size:.60000002px;font-style:normal;font-weight:400;text-anchor:start;fill:#000;font-family:arial">UID/GID</text><text id="text450" x="12.55" y="14.05" style="font-size:.60000002px;font-style:normal;font-weight:400;text-anchor:start;fill:#000;font-family:arial">Resolution</text></svg>