<svg xmlns="http://www.w3.org/2000/svg" xmlns:svg="http://www.w3.org/2000/svg" id="svg2" width="720.945" height="600.831" version="1.0" viewBox="1.95 0.208 21.025 16.105"><rect id="rect4" width="10.1" height="13.95" x="2.775" y="2.125" style="fill:#ededed;stroke:none;stroke-width:0"/><path id="path6" d="M 2.775,2.125 C 2.3884007,2.125 2.075,2.4384007 2.075,2.825" style="fill:#ededed;stroke:none"/><path id="path8" d="M 13.575,2.825 C 13.575,2.4384007 13.261599,2.125 12.875,2.125" style="fill:#ededed;stroke:none"/><rect id="rect10" width="11.5" height="12.55" x="2.075" y="2.825" style="fill:#ededed;stroke:none;stroke-width:0"/><path id="path12" d="M 2.075,15.375 C 2.075,15.761599 2.3884007,16.075 2.775,16.075" style="fill:#ededed;stroke:none"/><path id="path14" d="M 12.875,16.075 C 13.261599,16.075 13.575,15.761599 13.575,15.375" style="fill:#ededed;stroke:none"/><line id="line16" x1="2.775" x2="12.875" y1="2.125" y2="2.125" stroke="#000" stroke-width=".01" style="stroke:#000;stroke-width:.01"/><line id="line18" x1="2.775" x2="12.875" y1="16.075" y2="16.075" stroke="#000" stroke-width=".01" style="stroke:#000;stroke-width:.01"/><path id="path20" d="M 2.775,2.125 C 2.3884007,2.125 2.075,2.4384007 2.075,2.825" style="fill:none;stroke:#000;stroke-width:.01"/><path id="path22" d="M 13.575,2.825 C 13.575,2.4384007 13.261599,2.125 12.875,2.125" style="fill:none;stroke:#000;stroke-width:.01"/><line id="line24" x1="2.075" x2="2.075" y1="2.825" y2="15.375" stroke="#000" stroke-width=".01" style="stroke:#000;stroke-width:.01"/><line id="line26" x1="13.575" x2="13.575" y1="2.825" y2="15.375" stroke="#000" stroke-width=".01" style="stroke:#000;stroke-width:.01"/><path id="path28" d="M 2.075,15.375 C 2.075,15.761599 2.3884007,16.075 2.775,16.075" style="fill:none;stroke:#000;stroke-width:.01"/><path id="path30" d="M 12.875,16.075 C 13.261599,16.075 13.575,15.761599 13.575,15.375" style="fill:none;stroke:#000;stroke-width:.01"/><rect id="rect32" width="5.533" height="13.95" x="14.717" y="2.15" style="fill:#ededed;stroke:none;stroke-width:0"/><path id="path34" d="M 14.717,2.15 C 14.330791,2.1505517 14.018,2.4637909 14.018,2.85" style="fill:#ededed;stroke:none"/><path id="path36" d="M 20.95,2.85 C 20.95,2.4634007 20.636599,2.15 20.25,2.15" style="fill:#ededed;stroke:none"/><rect id="rect38" width="6.932" height="12.55" x="14.018" y="2.85" style="fill:#ededed;stroke:none;stroke-width:0"/><path id="path40" d="M 14.018,15.4 C 14.018,15.786209 14.330791,16.099448 14.717,16.1" style="fill:#ededed;stroke:none"/><path id="path42" d="M 20.25,16.1 C 20.636599,16.1 20.95,15.786599 20.95,15.4" style="fill:#ededed;stroke:none"/><line id="line44" x1="14.717" x2="20.25" y1="2.15" y2="2.15" stroke="#000" stroke-width=".01" style="stroke:#000;stroke-width:.01"/><line id="line46" x1="14.717" x2="20.25" y1="16.1" y2="16.1" stroke="#000" stroke-width=".01" style="stroke:#000;stroke-width:.01"/><path id="path48" d="M 14.717,2.15 C 14.330791,2.1505517 14.018,2.4637909 14.018,2.85" style="fill:none;stroke:#000;stroke-width:.01"/><path id="path50" d="M 20.95,2.85 C 20.95,2.4634007 20.636599,2.15 20.25,2.15" style="fill:none;stroke:#000;stroke-width:.01"/><line id="line52" x1="14.018" x2="14.018" y1="2.85" y2="15.4" stroke="#000" stroke-width=".01" style="stroke:#000;stroke-width:.01"/><line id="line54" x1="20.95" x2="20.95" y1="2.85" y2="15.4" stroke="#000" stroke-width=".01" style="stroke:#000;stroke-width:.01"/><path id="path56" d="M 14.018,15.4 C 14.018,15.786209 14.330791,16.099448 14.717,16.1" style="fill:none;stroke:#000;stroke-width:.01"/><path id="path58" d="M 20.25,16.1 C 20.636599,16.1 20.95,15.786599 20.95,15.4" style="fill:none;stroke:#000;stroke-width:.01"/><rect id="rect60" width="6.125" height="2.75" x="9.918" y="12.925" style="fill:#c3c3c3;stroke:none;stroke-width:0"/><path id="path62" d="M 9.918,12.925 C 9.6418576,12.925 9.418,13.148858 9.418,13.425" style="fill:#c3c3c3;stroke:none"/><path id="path64" d="M 16.543,13.425 C 16.543,13.148858 16.319142,12.925 16.043,12.925" style="fill:#c3c3c3;stroke:none"/><rect id="rect66" width="7.125" height="1.75" x="9.418" y="13.425" style="fill:#c3c3c3;stroke:none;stroke-width:0"/><path id="path68" d="M 9.418,15.175 C 9.418,15.451142 9.6418576,15.675 9.918,15.675" style="fill:#c3c3c3;stroke:none"/><path id="path70" d="M 16.043,15.675 C 16.319142,15.675 16.543,15.451142 16.543,15.175" style="fill:#c3c3c3;stroke:none"/><line id="line72" x1="9.918" x2="16.043" y1="12.925" y2="12.925" stroke="#000" stroke-width=".001" style="stroke:#000;stroke-width:.001"/><line id="line74" x1="9.918" x2="16.043" y1="15.675" y2="15.675" stroke="#000" stroke-width=".001" style="stroke:#000;stroke-width:.001"/><path id="path76" d="M 9.918,12.925 C 9.6418576,12.925 9.418,13.148858 9.418,13.425" style="fill:none;stroke:#000;stroke-width:.001"/><path id="path78" d="M 16.543,13.425 C 16.543,13.148858 16.319142,12.925 16.043,12.925" style="fill:none;stroke:#000;stroke-width:.001"/><line id="line80" x1="9.418" x2="9.418" y1="13.425" y2="15.175" stroke="#000" stroke-width=".001" style="stroke:#000;stroke-width:.001"/><line id="line82" x1="16.543" x2="16.543" y1="13.425" y2="15.175" stroke="#000" stroke-width=".001" style="stroke:#000;stroke-width:.001"/><path id="path84" d="M 9.418,15.175 C 9.418,15.451142 9.6418576,15.675 9.918,15.675" style="fill:none;stroke:#000;stroke-width:.001"/><path id="path86" d="M 16.043,15.675 C 16.319142,15.675 16.543,15.451142 16.543,15.175" style="fill:none;stroke:#000;stroke-width:.001"/><rect id="rect88" width="6.125" height="2.65" x="9.75" y="10.05" style="fill:#c3c3c3;stroke:none;stroke-width:0"/><path id="path90" d="M 9.75,10.05 C 9.4738576,10.05 9.25,10.273858 9.25,10.55" style="fill:#c3c3c3;stroke:none"/><path id="path92" d="M 16.375,10.55 C 16.375,10.273858 16.151142,10.05 15.875,10.05" style="fill:#c3c3c3;stroke:none"/><rect id="rect94" width="7.125" height="1.65" x="9.25" y="10.55" style="fill:#c3c3c3;stroke:none;stroke-width:0"/><path id="path96" d="M 9.25,12.2 C 9.25,12.476142 9.4738576,12.7 9.75,12.7" style="fill:#c3c3c3;stroke:none"/><path id="path98" d="M 15.875,12.7 C 16.151142,12.7 16.375,12.476142 16.375,12.2" style="fill:#c3c3c3;stroke:none"/><line id="line100" x1="9.75" x2="15.875" y1="10.05" y2="10.05" stroke="#000" stroke-width=".001" style="stroke:#000;stroke-width:.001"/><line id="line102" x1="9.75" x2="15.875" y1="12.7" y2="12.7" stroke="#000" stroke-width=".001" style="stroke:#000;stroke-width:.001"/><path id="path104" d="M 9.75,10.05 C 9.4738576,10.05 9.25,10.273858 9.25,10.55" style="fill:none;stroke:#000;stroke-width:.001"/><path id="path106" d="M 16.375,10.55 C 16.375,10.273858 16.151142,10.05 15.875,10.05" style="fill:none;stroke:#000;stroke-width:.001"/><line id="line108" x1="9.25" x2="9.25" y1="10.55" y2="12.2" stroke="#000" stroke-width=".001" style="stroke:#000;stroke-width:.001"/><line id="line110" x1="16.375" x2="16.375" y1="10.55" y2="12.2" stroke="#000" stroke-width=".001" style="stroke:#000;stroke-width:.001"/><path id="path112" d="M 9.25,12.2 C 9.25,12.476142 9.4738576,12.7 9.75,12.7" style="fill:none;stroke:#000;stroke-width:.001"/><path id="path114" d="M 15.875,12.7 C 16.151142,12.7 16.375,12.476142 16.375,12.2" style="fill:none;stroke:#000;stroke-width:.001"/><line id="line116" x1="2.025" x2="20.95" y1="1.825" y2="1.825" stroke="#000" stroke-width=".15" style="stroke:#000;stroke-width:.15000001"/><rect id="rect118" width="1.391" height="3.246" x="8.289" y="2.836" style="fill:#b3b3b3;stroke:none;stroke-width:0"/><rect id="rect120" width="1.391" height="3.246" x="8.289" y="2.836" style="fill:none;stroke:#000;stroke-width:.08"/><rect id="rect122" width="1.113" height=".371" x="8.428" y="3.031" style="fill:none;stroke:#000;stroke-width:.01"/><rect id="rect124" width="1.113" height=".371" x="8.428" y="3.402" style="fill:none;stroke:#000;stroke-width:.01"/><rect id="rect126" width="1.113" height=".371" x="8.428" y="3.773" style="fill:none;stroke:#000;stroke-width:.01"/><rect id="rect128" width="1.113" height=".371" x="8.428" y="4.144" style="fill:none;stroke:#000;stroke-width:.01"/><rect id="rect130" width=".695" height=".223" x="8.428" y="4.589" style="fill:none;stroke:#000;stroke-width:.01"/><ellipse id="ellipse132" cx="9.471" cy="4.626" rx=".049" ry=".049" style="fill:#0f0;stroke:none"/><ellipse id="ellipse134" cx="9.471" cy="4.626" rx=".049" ry=".049" style="fill:none;stroke:#000;stroke-width:.01"/><ellipse id="ellipse136" cx="9.471" cy="4.774" rx=".049" ry=".049" style="fill:#ff0;stroke:none"/><ellipse id="ellipse138" cx="9.471" cy="4.774" rx=".049" ry=".049" style="fill:none;stroke:#000;stroke-width:.01"/><rect id="rect140" width=".167" height=".148" x="9.193" y="4.663" style="fill:#fff;stroke:none;stroke-width:0"/><rect id="rect142" width=".167" height=".148" x="9.193" y="4.663" style="fill:none;stroke:#000;stroke-width:.01"/><path id="path144" d="M 8.521,5.108 L 8.521,5.92" style="fill:none;stroke:#000;stroke-width:.01"/><path id="path146" d="M 8.752,5.108 L 8.752,5.92" style="fill:none;stroke:#000;stroke-width:.01"/><path id="path148" d="M 8.984,5.108 L 8.984,5.92" style="fill:none;stroke:#000;stroke-width:.01"/><path id="path150" d="M 9.216,5.108 L 9.216,5.92" style="fill:none;stroke:#000;stroke-width:.01"/><path id="path152" d="M 9.448,5.108 L 9.448,5.92" style="fill:none;stroke:#000;stroke-width:.01"/><path id="path154" d="M 9.68,5.108 L 9.68,5.92" style="fill:none;stroke:#000;stroke-width:.01"/><polygon id="polygon156" points="8.011 6.36 8.289 5.804 8.289 6.082 9.68 6.082 9.68 5.804 10.051 6.36 8.011 6.36" style="fill:#999;stroke:none;stroke-width:.01"/><polygon id="polygon158" points="8.011 6.36 8.289 5.804 8.289 6.082 9.68 6.082 9.68 5.804 10.051 6.36 8.011 6.36" style="fill:none;stroke:#000;stroke-width:.01"/><rect id="rect160" width="1.67" height="5.009" x="16.247" y="3.034" style="fill:#d9d9cd;stroke:none;stroke-width:0"/><rect id="rect162" width="1.67" height="5.009" x="16.247" y="3.034" style="fill:none;stroke:#000;stroke-width:.1"/><rect id="rect164" width="1.67" height="5.009" x="16.247" y="3.034" style="fill:none;stroke:#000;stroke-width:.01"/><rect id="rect166" width="1.336" height="2.003" x="16.414" y="3.201" style="fill:#d9d9cd;stroke:none;stroke-width:0"/><rect id="rect168" width="1.336" height="2.003" x="16.414" y="3.201" style="fill:none;stroke:#000;stroke-width:.1"/><rect id="rect170" width="1.336" height="2.003" x="16.414" y="3.201" style="fill:none;stroke:#000;stroke-width:.01"/><line id="line172" x1="16.414" x2="17.75" y1="3.534" y2="3.534" stroke="#000" stroke-width=".01" style="stroke:#000;stroke-width:.01"/><line id="line174" x1="17.75" x2="16.414" y1="3.868" y2="3.868" stroke="#000" stroke-width=".01" style="stroke:#000;stroke-width:.01"/><line id="line176" x1="16.414" x2="17.75" y1="4.202" y2="4.202" stroke="#000" stroke-width=".01" style="stroke:#000;stroke-width:.01"/><line id="line178" x1="16.414" x2="17.75" y1="4.536" y2="4.536" stroke="#000" stroke-width=".01" style="stroke:#000;stroke-width:.01"/><line id="line180" x1="17.75" x2="16.414" y1="4.87" y2="4.87" stroke="#000" stroke-width=".01" style="stroke:#000;stroke-width:.01"/><rect id="rect182" width=".918" height=".501" x="16.414" y="5.371" style="fill:#d9d9cd;stroke:none;stroke-width:0"/><rect id="rect184" width=".918" height=".501" x="16.414" y="5.371" style="fill:none;stroke:#000;stroke-width:.1"/><rect id="rect186" width=".918" height=".501" x="16.414" y="5.371" style="fill:none;stroke:#000;stroke-width:.01"/><line id="line188" x1="16.247" x2="17.917" y1="6.206" y2="6.206" stroke="#000" stroke-width=".01" style="stroke:#000;stroke-width:.01"/><rect id="rect190" width=".083" height=".083" x="16.998" y="6.373" style="fill:#00cd00;stroke:none;stroke-width:0"/><rect id="rect192" width=".083" height=".083" x="16.998" y="6.373" style="fill:none;stroke:#000;stroke-width:.1"/><rect id="rect194" width=".083" height=".083" x="16.998" y="6.373" style="fill:none;stroke:#000;stroke-width:.01"/><rect id="rect196" width=".083" height=".083" x="17.332" y="6.373" style="fill:#cdcd00;stroke:none;stroke-width:0"/><rect id="rect198" width=".083" height=".083" x="17.332" y="6.373" style="fill:none;stroke:#000;stroke-width:.1"/><rect id="rect200" width=".083" height=".083" x="17.332" y="6.373" style="fill:none;stroke:#000;stroke-width:.01"/><rect id="rect202" width=".083" height=".083" x="17.666" y="6.373" style="fill:#cd0000;stroke:none;stroke-width:0"/><rect id="rect204" width=".083" height=".083" x="17.666" y="6.373" style="fill:none;stroke:#000;stroke-width:.1"/><rect id="rect206" width=".083" height=".083" x="17.666" y="6.373" style="fill:none;stroke:#000;stroke-width:.01"/><rect id="rect208" width=".167" height=".167" x="17.583" y="5.872" style="fill:#cdcdbd;stroke:none;stroke-width:0"/><rect id="rect210" width=".167" height=".167" x="17.583" y="5.872" style="fill:none;stroke:#000;stroke-width:.1"/><rect id="rect212" width=".167" height=".167" x="17.583" y="5.872" style="fill:none;stroke:#000;stroke-width:.01"/><line id="line214" x1="16.414" x2="17.332" y1="5.621" y2="5.621" stroke="#000" stroke-width=".01" style="stroke:#000;stroke-width:.01"/><rect id="rect216" width=".25" height=".25" x="16.414" y="6.289" style="fill:#cdcdbd;stroke:none;stroke-width:0"/><rect id="rect218" width=".25" height=".25" x="16.414" y="6.289" style="fill:none;stroke:#000;stroke-width:.1"/><rect id="rect220" width=".25" height=".25" x="16.414" y="6.289" style="fill:none;stroke:#000;stroke-width:.01"/><rect id="rect222" width="1.169" height=".083" x="16.498" y="4.954" style="fill:#cdcdc1;stroke:none;stroke-width:0"/><rect id="rect224" width="1.169" height=".083" x="16.498" y="4.954" style="fill:none;stroke:#000;stroke-width:.1"/><rect id="rect226" width="1.169" height=".083" x="16.498" y="4.954" style="fill:none;stroke:#000;stroke-width:.01"/><line id="line228" x1="16.498" x2="17.249" y1="5.454" y2="5.454" stroke="#000" stroke-width=".01" style="stroke:#000;stroke-width:.01"/><line id="line230" x1="17.249" x2="17.165" y1="5.538" y2="5.538" stroke="#000" stroke-width=".01" style="stroke:#000;stroke-width:.01"/><line id="line232" x1="16.498" x2="16.581" y1="5.538" y2="5.538" stroke="#000" stroke-width=".01" style="stroke:#000;stroke-width:.01"/><rect id="rect234" width=".417" height=".083" x="16.664" y="5.454" style="fill:#cdcdc1;stroke:none;stroke-width:0"/><rect id="rect236" width=".417" height=".083" x="16.664" y="5.454" style="fill:none;stroke:#000;stroke-width:.1"/><rect id="rect238" width=".417" height=".083" x="16.664" y="5.454" style="fill:none;stroke:#000;stroke-width:.01"/><line id="line240" x1="16.498" x2="16.581" y1="5.12" y2="5.12" stroke="#000" stroke-width=".01" style="stroke:#000;stroke-width:.01"/><line id="line242" x1="16.664" x2="16.748" y1="5.12" y2="5.12" stroke="#000" stroke-width=".01" style="stroke:#000;stroke-width:.01"/><line id="line244" x1="17.499" x2="17.666" y1="5.12" y2="5.12" stroke="#000" stroke-width=".01" style="stroke:#000;stroke-width:.01"/><line id="line246" x1="16.331" x2="17.833" y1="7.959" y2="7.959" stroke="#000" stroke-width=".01" style="stroke:#000;stroke-width:.01"/><line id="line248" x1="17.833" x2="16.331" y1="7.875" y2="7.875" stroke="#000" stroke-width=".01" style="stroke:#000;stroke-width:.01"/><line id="line250" x1="16.331" x2="17.833" y1="7.792" y2="7.792" stroke="#000" stroke-width=".01" style="stroke:#000;stroke-width:.01"/><line id="line252" x1="17.833" x2="16.331" y1="7.708" y2="7.708" stroke="#000" stroke-width=".01" style="stroke:#000;stroke-width:.01"/><line id="line254" x1="16.331" x2="17.833" y1="7.625" y2="7.625" stroke="#000" stroke-width=".01" style="stroke:#000;stroke-width:.01"/><line id="line256" x1="17.833" x2="16.331" y1="7.541" y2="7.541" stroke="#000" stroke-width=".01" style="stroke:#000;stroke-width:.01"/><line id="line258" x1="16.331" x2="17.833" y1="7.458" y2="7.458" stroke="#000" stroke-width=".01" style="stroke:#000;stroke-width:.01"/><line id="line260" x1="17.833" x2="16.331" y1="7.374" y2="7.374" stroke="#000" stroke-width=".01" style="stroke:#000;stroke-width:.01"/><line id="line262" x1="16.331" x2="17.833" y1="7.291" y2="7.291" stroke="#000" stroke-width=".01" style="stroke:#000;stroke-width:.01"/><line id="line264" x1="17.833" x2="16.331" y1="7.207" y2="7.207" stroke="#000" stroke-width=".01" style="stroke:#000;stroke-width:.01"/><line id="line266" x1="16.331" x2="17.833" y1="7.124" y2="7.124" stroke="#000" stroke-width=".01" style="stroke:#000;stroke-width:.01"/><line id="line268" x1="17.833" x2="16.331" y1="7.04" y2="7.04" stroke="#000" stroke-width=".01" style="stroke:#000;stroke-width:.01"/><line id="line270" x1="16.331" x2="17.833" y1="6.957" y2="6.957" stroke="#000" stroke-width=".01" style="stroke:#000;stroke-width:.01"/><line id="line272" x1="17.833" x2="16.331" y1="6.873" y2="6.873" stroke="#000" stroke-width=".01" style="stroke:#000;stroke-width:.01"/><line id="line274" x1="17.1" x2="17.1" y1="1.85" y2="3.05" stroke="#000" stroke-width=".1" style="stroke:#000;stroke-width:.1"/><line id="line276" x1="9.057" x2="9.031" y1="1.823" y2="2.836" stroke="#000" stroke-width=".1" style="stroke:#000;stroke-width:.1"/><rect id="rect278" width="1.85" height="1.632" x="5.725" y="3.359" style="fill:#fff;stroke:none;stroke-width:0"/><ellipse id="ellipse280" cx="6.65" cy="4.991" rx=".925" ry=".272" style="fill:#fff;stroke:none"/><ellipse id="ellipse282" cx="6.65" cy="3.359" rx=".925" ry=".272" style="fill:#fff;stroke:none"/><ellipse id="ellipse284" cx="6.65" cy="3.359" rx=".925" ry=".272" style="fill:none;stroke:#000;stroke-width:.1"/><path id="path286" d="M 7.575,3.359 L 7.575,4.991 C 7.575,5.141 7.161,5.263 6.65,5.263 C 6.139,5.263 5.725,5.141 5.725,4.991 L 5.725,3.359" style="fill:none;stroke:#000;stroke-width:.1"/><line id="line288" x1="7.6" x2="8.3" y1="4.175" y2="4.2" stroke="#000" stroke-width=".1" style="stroke:#000;stroke-width:.1"/><text id="text290" x="6.341" y="4.3" style="font-size:.5px;font-style:normal;font-weight:400;text-anchor:start;fill:#000;font-family:arial">ADS</text><text id="text292" x="5.512" y="7.125" style="font-size:.80000001px;font-style:normal;font-weight:400;text-anchor:start;fill:#000;font-family:arial">Windows Server 2003</text><text id="text294" x="6.584" y="7.925" style="font-size:.80000001px;font-style:normal;font-weight:400;text-anchor:start;fill:#000;font-family:arial">ADS Server</text><text id="text296" x="5.927" y="8.725" style="font-size:.80000001px;font-style:normal;font-weight:400;text-anchor:start;fill:#000;font-family:arial">Domain Controller</text><text id="text298" x="15.605" y=".675" style="font-size:.80000001px;font-style:normal;font-weight:400;text-anchor:start;fill:#000;font-family:arial">Samba Domain</text><text id="text300" x="15.598" y="1.475" style="font-size:.80000001px;font-style:normal;font-weight:400;text-anchor:start;fill:#000;font-family:arial">Member Server</text><line id="line302" x1="2.075" x2="20.9" y1="8.975" y2="9" stroke="#000" stroke-dasharray=".5 .5" stroke-width=".1" style="stroke:#000;stroke-width:.1;stroke-dasharray:.5,.5"/><text id="text304" x="6.508" y="9.675" style="font-size:.60000002px;font-style:normal;font-weight:400;text-anchor:start;fill:#000;font-family:arial">Domain Services</text><text id="text306" x="5.787" y="1.395" style="font-size:.60000002px;font-style:normal;font-weight:400;text-anchor:start;fill:#000;font-family:arial">Network Configuration</text><rect id="rect308" width="5.35" height="1.8" x="4.825" y="12.25" style="fill:#fff;stroke:none;stroke-width:0"/><rect id="rect310" width="5.35" height="1.8" x="4.825" y="12.25" style="fill:none;stroke:#000;stroke-width:.1"/><rect id="rect312" width="4.275" height="1.375" x="5.425" y="10.6" style="fill:#fff;stroke:none;stroke-width:0"/><rect id="rect314" width="4.275" height="1.375" x="5.425" y="10.6" style="fill:none;stroke:#000;stroke-width:.1"/><text id="text316" x="6.475" y="11.411" style="font-size:.60000002px;font-style:normal;font-weight:400;text-anchor:start;fill:#000;font-family:arial">CIFS Server</text><text id="text318" x="16.192" y="9.65" style="font-size:.60000002px;font-style:normal;font-weight:400;text-anchor:start;fill:#000;font-family:arial">Client Services</text><rect id="rect320" width="2.575" height="1.125" x="16" y="12.975" style="fill:#fff;stroke:none;stroke-width:0"/><rect id="rect322" width="2.575" height="1.125" x="16" y="12.975" style="fill:none;stroke:#000;stroke-width:.1"/><text id="text324" x="16.599" y="13.7" style="font-size:.60000002px;font-style:normal;font-weight:400;text-anchor:start;fill:#000;font-family:arial">Winbind</text><rect id="rect326" width="2.575" height="1.1" x="15.992" y="10.275" style="fill:#fff;stroke:none;stroke-width:0"/><rect id="rect328" width="2.575" height="1.1" x="15.992" y="10.275" style="fill:none;stroke:#000;stroke-width:.1"/><rect id="rect330" width="2.607" height="1.1" x="16.567" y="11.6" style="fill:#c5c5c5;stroke:none;stroke-width:0"/><rect id="rect332" width="2.607" height="1.1" x="16.567" y="11.6" style="fill:none;stroke:#000;stroke-width:.1"/><text id="text334" x="16.724" y="11.086" style="font-size:.60000002px;font-style:normal;font-weight:400;text-anchor:start;fill:#000;font-family:arial">smbd</text><text id="text336" x="17.357" y="12.361" style="font-size:.60000002px;font-style:normal;font-weight:400;text-anchor:start;fill:#000;font-family:arial">nmbd</text><rect id="rect338" width="2.718" height="1.1" x="15.95" y="14.35" style="fill:#fff;stroke:none;stroke-width:0"/><rect id="rect340" width="2.718" height="1.1" x="15.95" y="14.35" style="fill:none;stroke:#000;stroke-width:.1"/><text id="text342" x="16.579" y="15.075" style="font-size:.60000002px;font-style:normal;font-weight:400;text-anchor:start;fill:#000;font-family:arial">nss_ldap</text><path id="path344" d="M 19.015,13.314 C 19.392106,13.104482 19.629557,12.710441 19.638616,12.279135 C 19.647674,11.84783 19.426976,11.444167 19.059,11.219" style="fill:none;stroke:#000;stroke-width:.1"/><polygon id="polygon346" points="19.151 10.869 18.625 11.056 19.09 11.366 19.151 10.869" style="fill:#000;stroke:none;stroke-width:.1"/><polygon id="polygon348" points="19.053 13.169 18.575 13.458 19.094 13.667 19.053 13.169" style="fill:#000;stroke:none;stroke-width:.1"/><path id="path350" d="M 19.172,14.715 C 19.931775,14.326769 20.402308,13.537936 20.382916,12.684938 C 20.363525,11.83194 19.857632,11.065304 19.081,10.712" style="fill:none;stroke:#000;stroke-width:.1"/><polygon id="polygon352" points="19.154 10.406 18.617 10.559 19.062 10.897 19.154 10.406" style="fill:#000;stroke:none;stroke-width:.1"/><polygon id="polygon354" points="19.146 14.531 18.716 14.889 19.26 15.018 19.146 14.531" style="fill:#000;stroke:none;stroke-width:.1"/><line id="line356" x1="15.338" x2="10.912" y1="14.9" y2="14.9" stroke="#000" stroke-dasharray=".2 .2" stroke-width=".1" style="stroke:#000;stroke-width:.1;stroke-dasharray:.2,.2"/><polygon id="polygon358" points="15.338 15.15 15.838 14.9 15.338 14.65 15.338 15.15" style="fill:#fff;stroke:none;stroke-width:.1"/><polygon id="polygon360" points="15.338 15.15 15.838 14.9 15.338 14.65 15.338 15.15" style="fill:none;stroke:#000;stroke-width:.1"/><polygon id="polygon362" points="10.912 14.65 10.412 14.9 10.912 15.15 10.912 14.65" style="fill:#fff;stroke:none;stroke-width:.1"/><polygon id="polygon364" points="10.912 14.65 10.412 14.9 10.912 15.15 10.912 14.65" style="fill:none;stroke:#000;stroke-width:.1"/><line id="line366" x1="10.787" x2="15.338" y1="13.328" y2="13.347" stroke="#000" stroke-dasharray=".2 .2" stroke-width=".1" style="stroke:#000;stroke-width:.1;stroke-dasharray:.2,.2"/><polygon id="polygon368" points="10.788 13.078 10.287 13.325 10.786 13.578 10.788 13.078" style="fill:#fff;stroke:none;stroke-width:.1"/><polygon id="polygon370" points="10.788 13.078 10.287 13.325 10.786 13.578 10.788 13.078" style="fill:none;stroke:#000;stroke-width:.1"/><polygon id="polygon372" points="15.337 13.597 15.838 13.35 15.339 13.097 15.337 13.597" style="fill:#fff;stroke:none;stroke-width:.1"/><polygon id="polygon374" points="15.337 13.597 15.838 13.35 15.339 13.097 15.337 13.597" style="fill:none;stroke:#000;stroke-width:.1"/><text id="text376" x="12.594" y="14.05" style="font-size:.60000002px;font-style:normal;font-weight:400;text-anchor:start;fill:#000;font-family:arial">UID/GID</text><text id="text378" x="12.425" y="14.65" style="font-size:.60000002px;font-style:normal;font-weight:400;text-anchor:start;fill:#000;font-family:arial">Resolution</text><rect id="rect380" width="5.45" height="1.05" x="4.825" y="14.375" style="fill:#fff;stroke:none;stroke-width:0"/><rect id="rect382" width="5.45" height="1.05" x="4.825" y="14.375" style="fill:none;stroke:#000;stroke-width:.1"/><text id="text384" x="6.227" y="13.011" style="font-size:.60000002px;font-style:normal;font-weight:400;text-anchor:start;fill:#000;font-family:arial">Active Directory</text><text id="text386" x="6.028" y="13.611" style="font-size:.60000002px;font-style:normal;font-weight:400;text-anchor:start;fill:#000;font-family:arial">(Kerberos / LDAP)</text><text id="text388" x="5.97" y="15.136" style="font-size:.60000002px;font-style:normal;font-weight:400;text-anchor:start;fill:#000;font-family:arial">Services For UNIX</text><line id="line390" x1="10.361" x2="15.314" y1="10.714" y2="10.524" stroke="#000" stroke-dasharray=".2 .2" stroke-width=".1" style="stroke:#000;stroke-width:.1;stroke-dasharray:.2,.2"/><polygon id="polygon392" points="10.352 10.464 9.862 10.733 10.371 10.964 10.352 10.464" style="fill:#fff;stroke:none;stroke-width:.1"/><polygon id="polygon394" points="10.352 10.464 9.862 10.733 10.371 10.964 10.352 10.464" style="fill:none;stroke:#000;stroke-width:.1"/><polygon id="polygon396" points="15.323 10.773 15.813 10.504 15.304 10.274 15.323 10.773" style="fill:#fff;stroke:none;stroke-width:.1"/><polygon id="polygon398" points="15.323 10.773 15.813 10.504 15.304 10.274 15.323 10.773" style="fill:none;stroke:#000;stroke-width:.1"/><line id="line400" x1="10.795" x2="15.355" y1="12.333" y2="11.242" stroke="#000" stroke-dasharray=".2 .2" stroke-width=".1" style="stroke:#000;stroke-width:.1;stroke-dasharray:.2,.2"/><polygon id="polygon402" points="10.737 12.09 10.309 12.449 10.853 12.576 10.737 12.09" style="fill:#fff;stroke:none;stroke-width:.1"/><polygon id="polygon404" points="10.737 12.09 10.309 12.449 10.853 12.576 10.737 12.09" style="fill:none;stroke:#000;stroke-width:.1"/><polygon id="polygon406" points="15.413 11.485 15.841 11.126 15.297 10.999 15.413 11.485" style="fill:#fff;stroke:none;stroke-width:.1"/><polygon id="polygon408" points="15.413 11.485 15.841 11.126 15.297 10.999 15.413 11.485" style="fill:none;stroke:#000;stroke-width:.1"/><text id="text410" x="11.411" y="11.325" style="font-size:.60000002px;font-style:normal;font-weight:400;text-anchor:start;fill:#000;font-family:arial">Authentication</text></svg>