<svg xmlns="http://www.w3.org/2000/svg" xmlns:svg="http://www.w3.org/2000/svg" id="svg2" width="821.102" height="472.932" version="1.0" viewBox="-0.013 1.735 21.712 14.247"><rect id="rect4" width="7.825" height="8.085" x=".312" y="3.617" style="fill:#ededed;stroke:none;stroke-width:0"/><path id="path6" d="M 0.312,3.617 C 0.14631458,3.617 0.012,3.7513146 0.012,3.917" style="fill:#ededed;stroke:none"/><path id="path8" d="M 8.437,3.917 C 8.437,3.7513146 8.3026854,3.617 8.137,3.617" style="fill:#ededed;stroke:none"/><rect id="rect10" width="8.425" height="7.485" x=".012" y="3.917" style="fill:#ededed;stroke:none;stroke-width:0"/><path id="path12" d="M 0.012,11.402 C 0.012,11.567685 0.14631458,11.702 0.312,11.702" style="fill:#ededed;stroke:none"/><path id="path14" d="M 8.137,11.702 C 8.3026854,11.702 8.437,11.567685 8.437,11.402" style="fill:#ededed;stroke:none"/><line id="line16" x1=".312" x2="8.137" y1="3.617" y2="3.617" stroke="#000" stroke-width=".05" style="stroke:#000;stroke-width:.05"/><line id="line18" x1=".312" x2="8.137" y1="11.702" y2="11.702" stroke="#000" stroke-width=".05" style="stroke:#000;stroke-width:.05"/><path id="path20" d="M 0.312,3.617 C 0.14631458,3.617 0.012,3.7513146 0.012,3.917" style="fill:none;stroke:#000;stroke-width:.05"/><path id="path22" d="M 8.437,3.917 C 8.437,3.7513146 8.3026854,3.617 8.137,3.617" style="fill:none;stroke:#000;stroke-width:.05"/><line id="line24" x1=".012" x2=".012" y1="3.917" y2="11.402" stroke="#000" stroke-width=".05" style="stroke:#000;stroke-width:.05"/><line id="line26" x1="8.437" x2="8.437" y1="3.917" y2="11.402" stroke="#000" stroke-width=".05" style="stroke:#000;stroke-width:.05"/><path id="path28" d="M 0.012,11.402 C 0.012,11.567685 0.14631458,11.702 0.312,11.702" style="fill:none;stroke:#000;stroke-width:.05"/><path id="path30" d="M 8.137,11.702 C 8.3026854,11.702 8.437,11.567685 8.437,11.402" style="fill:none;stroke:#000;stroke-width:.05"/><rect id="rect32" width="8.325" height="8.135" x="13.062" y="3.542" style="fill:#ededed;stroke:none;stroke-width:0"/><path id="path34" d="M 13.062,3.542 C 12.896315,3.542 12.762,3.6763146 12.762,3.842" style="fill:#ededed;stroke:none"/><path id="path36" d="M 21.688,3.842 C 21.688,3.7622615 21.656256,3.6858034 21.599779,3.6295136 C 21.543301,3.5732239 21.466738,3.5417342 21.387,3.542" style="fill:#ededed;stroke:none"/><rect id="rect38" width="8.925" height="7.535" x="12.762" y="3.842" style="fill:#ededed;stroke:none;stroke-width:0"/><path id="path40" d="M 12.762,11.377 C 12.762,11.542685 12.896315,11.677 13.062,11.677" style="fill:#ededed;stroke:none"/><path id="path42" d="M 21.387,11.677 C 21.466738,11.677266 21.543301,11.645776 21.599779,11.589486 C 21.656256,11.533197 21.688,11.456739 21.688,11.377" style="fill:#ededed;stroke:none"/><line id="line44" x1="13.062" x2="21.387" y1="3.542" y2="3.542" stroke="#070707" stroke-width=".05" style="stroke:#070707;stroke-width:.05"/><line id="line46" x1="13.062" x2="21.387" y1="11.677" y2="11.677" stroke="#070707" stroke-width=".05" style="stroke:#070707;stroke-width:.05"/><path id="path48" d="M 13.062,3.542 C 12.896315,3.542 12.762,3.6763146 12.762,3.842" style="fill:none;stroke:#070707;stroke-width:.05"/><path id="path50" d="M 21.688,3.842 C 21.688,3.7622615 21.656256,3.6858034 21.599779,3.6295136 C 21.543301,3.5732239 21.466738,3.5417342 21.387,3.542" style="fill:none;stroke:#070707;stroke-width:.05"/><line id="line52" x1="12.762" x2="12.762" y1="3.842" y2="11.377" stroke="#070707" stroke-width=".05" style="stroke:#070707;stroke-width:.05"/><line id="line54" x1="21.688" x2="21.688" y1="3.842" y2="11.377" stroke="#070707" stroke-width=".05" style="stroke:#070707;stroke-width:.05"/><path id="path56" d="M 12.762,11.377 C 12.762,11.542685 12.896315,11.677 13.062,11.677" style="fill:none;stroke:#070707;stroke-width:.05"/><path id="path58" d="M 21.387,11.677 C 21.466738,11.677266 21.543301,11.645776 21.599779,11.589486 C 21.656256,11.533197 21.688,11.456739 21.688,11.377" style="fill:none;stroke:#070707;stroke-width:.05"/><rect id="rect60" width="1.077" height="2.512" x="10.001" y="5.011" style="fill:#b3b3b3;stroke:none;stroke-width:0"/><rect id="rect62" width="1.077" height="2.512" x="10.001" y="5.011" style="fill:none;stroke:#000;stroke-width:.08"/><rect id="rect64" width=".861" height=".287" x="10.108" y="5.162" style="fill:none;stroke:#000;stroke-width:.01"/><rect id="rect66" width=".861" height=".287" x="10.108" y="5.449" style="fill:none;stroke:#000;stroke-width:.01"/><rect id="rect68" width=".861" height=".287" x="10.108" y="5.736" style="fill:none;stroke:#000;stroke-width:.01"/><rect id="rect70" width=".861" height=".287" x="10.108" y="6.023" style="fill:none;stroke:#000;stroke-width:.01"/><rect id="rect72" width=".538" height=".172" x="10.108" y="6.368" style="fill:none;stroke:#000;stroke-width:.01"/><ellipse id="ellipse74" cx="10.916" cy="6.397" rx=".038" ry=".038" style="fill:#0f0;stroke:none"/><ellipse id="ellipse76" cx="10.916" cy="6.397" rx=".038" ry=".038" style="fill:none;stroke:#000;stroke-width:.01"/><ellipse id="ellipse78" cx="10.916" cy="6.511" rx=".038" ry=".038" style="fill:#ff0;stroke:none"/><ellipse id="ellipse80" cx="10.916" cy="6.511" rx=".038" ry=".038" style="fill:none;stroke:#000;stroke-width:.01"/><rect id="rect82" width=".129" height=".115" x="10.701" y="6.425" style="fill:#fff;stroke:none;stroke-width:0"/><rect id="rect84" width=".129" height=".115" x="10.701" y="6.425" style="fill:none;stroke:#000;stroke-width:.01"/><path id="path86" d="M 10.18,6.77 L 10.18,7.398" style="fill:none;stroke:#000;stroke-width:.01"/><path id="path88" d="M 10.36,6.77 L 10.36,7.398" style="fill:none;stroke:#000;stroke-width:.01"/><path id="path90" d="M 10.539,6.77 L 10.539,7.398" style="fill:none;stroke:#000;stroke-width:.01"/><path id="path92" d="M 10.719,6.77 L 10.719,7.398" style="fill:none;stroke:#000;stroke-width:.01"/><path id="path94" d="M 10.898,6.77 L 10.898,7.398" style="fill:none;stroke:#000;stroke-width:.01"/><path id="path96" d="M 11.077,6.77 L 11.077,7.398" style="fill:none;stroke:#000;stroke-width:.01"/><polygon id="polygon98" points="9.786 7.739 10.001 7.308 10.001 7.523 11.077 7.523 11.077 7.308 11.364 7.739 9.786 7.739" style="fill:#999;stroke:none;stroke-width:.01"/><polygon id="polygon100" points="9.786 7.739 10.001 7.308 10.001 7.523 11.077 7.523 11.077 7.308 11.364 7.739 9.786 7.739" style="fill:none;stroke:#000;stroke-width:.01"/><line id="line102" x1="1.423" x2="10.025" y1="7.106" y2="7.1" stroke="#000" stroke-width=".1" style="stroke:#000;stroke-width:.1"/><line id="line104" x1="2.687" x2="2.688" y1="7.105" y2="8.105" stroke="#000" stroke-width=".1" style="stroke:#000;stroke-width:.1"/><line id="line106" x1="2.692" x2="2.691" y1="7.105" y2="6.067" stroke="#000" stroke-width=".1" style="stroke:#000;stroke-width:.1"/><line id="line108" x1="5.117" x2="5.117" y1="7.103" y2="8.103" stroke="#000" stroke-width=".1" style="stroke:#000;stroke-width:.1"/><line id="line110" x1="5.13" x2="5.13" y1="7.103" y2="6.119" stroke="#000" stroke-width=".1" style="stroke:#000;stroke-width:.1"/><line id="line112" x1="7.572" x2="7.572" y1="7.102" y2="8.096" stroke="#000" stroke-width=".1" style="stroke:#000;stroke-width:.1"/><line id="line114" x1="7.566" x2="7.565" y1="7.102" y2="6.225" stroke="#000" stroke-width=".1" style="stroke:#000;stroke-width:.1"/><line id="line116" x1="11.05" x2="20.325" y1="7.075" y2="7.05" stroke="#000" stroke-width=".1" style="stroke:#000;stroke-width:.1"/><line id="line118" x1="13.747" x2="13.75" y1="7.068" y2="8.125" stroke="#000" stroke-width=".1" style="stroke:#000;stroke-width:.1"/><line id="line120" x1="13.74" x2="13.737" y1="7.068" y2="6.084" stroke="#000" stroke-width=".1" style="stroke:#000;stroke-width:.1"/><line id="line122" x1="16.297" x2="16.3" y1="7.061" y2="8.075" stroke="#000" stroke-width=".1" style="stroke:#000;stroke-width:.1"/><line id="line124" x1="16.307" x2="16.305" y1="7.061" y2="6.169" stroke="#000" stroke-width=".1" style="stroke:#000;stroke-width:.1"/><line id="line126" x1="18.897" x2="18.9" y1="7.054" y2="8.025" stroke="#000" stroke-width=".1" style="stroke:#000;stroke-width:.1"/><line id="line128" x1="18.907" x2="18.905" y1="7.054" y2="6.094" stroke="#000" stroke-width=".1" style="stroke:#000;stroke-width:.1"/><path id="path130" d="M 9.39,12.232 C 8.983,12.222 8.194,12.424 8.305,12.856 C 8.416,13.288 8.946,13.384 9.168,13.259 C 9.39,13.134 8.823,13.864 9.907,14.056 C 10.992,14.247 11.547,13.94 11.386,13.72 C 11.226,13.499 12.335,14.238 12.853,13.816 C 13.371,13.393 12.323,12.99 12.545,13.048 C 12.767,13.105 13.445,13.029 13.223,12.309 C 13.001,11.589 11.004,12.145 11.226,12.04 C 11.448,11.934 10.893,11.406 10.203,11.512 C 9.513,11.618 9.464,11.809 9.39,12.231 L 9.39,12.232" style="fill:#fff;stroke:none;stroke-width:.1"/><path id="path132" d="M 9.39,12.232 C 8.983,12.222 8.194,12.424 8.305,12.856 C 8.416,13.288 8.946,13.384 9.168,13.259 C 9.39,13.134 8.823,13.864 9.907,14.056 C 10.992,14.247 11.547,13.94 11.386,13.72 C 11.226,13.499 12.335,14.238 12.853,13.816 C 13.371,13.393 12.323,12.99 12.545,13.048 C 12.767,13.105 13.445,13.029 13.223,12.309 C 13.001,11.589 11.004,12.145 11.226,12.04 C 11.448,11.934 10.893,11.406 10.203,11.512 C 9.513,11.618 9.464,11.809 9.39,12.231 L 9.39,12.232" style="fill:none;stroke:#000;stroke-width:.1"/><text id="text134" x="10.353" y="12.927" style="font-size:.60000002px;font-style:normal;font-weight:400;text-anchor:start;fill:#000;font-family:arial">Internet</text><line id="line136" x1="10.562" x2="10.575" y1="11.552" y2="7.739" stroke="#000" stroke-width=".1" style="stroke:#000;stroke-width:.1"/><rect id="rect138" width="1.085" height=".813" x="2.149" y="5" style="fill:#b3b3b3;stroke:none;stroke-width:0"/><rect id="rect140" width="1.085" height=".813" x="2.149" y="5" style="fill:none;stroke:#000;stroke-width:.05"/><rect id="rect142" width=".85" height=".56" x="2.266" y="5.118" style="fill:#000;stroke:none;stroke-width:0"/><polygon id="polygon144" points="2.296 5.814 2.854 5.814 2.854 5.94 2.325 5.94 2.296 5.814" style="fill:#b3b3b3;stroke:none;stroke-width:.05"/><polygon id="polygon146" points="2.296 5.814 2.854 5.814 2.854 5.94 2.325 5.94 2.296 5.814" style="fill:none;stroke:#000;stroke-width:.05"/><polygon id="polygon148" points="2.854 5.814 3.087 5.814 3.057 5.94 2.854 5.94 2.854 5.814" style="fill:#b3b3b3;stroke:none;stroke-width:.05"/><polygon id="polygon150" points="2.854 5.814 3.087 5.814 3.057 5.94 2.854 5.94 2.854 5.814" style="fill:none;stroke:#000;stroke-width:.05"/><rect id="rect152" width=".051" height=".051" x="2.892" y="5.852" style="fill:#fff;stroke:none;stroke-width:0"/><rect id="rect154" width=".051" height=".051" x="2.892" y="5.852" style="fill:none;stroke:#000;stroke-width:.025"/><polygon id="polygon156" points="2.583 5.94 2.8 5.94 2.8 6.003 2.908 6.003 2.908 6.067 2.474 6.067 2.474 6.003 2.583 6.003 2.583 5.94" style="fill:#b3b3b3;stroke:none;stroke-width:.05"/><polygon id="polygon158" points="2.583 5.94 2.8 5.94 2.8 6.003 2.908 6.003 2.908 6.067 2.474 6.067 2.474 6.003 2.583 6.003 2.583 5.94" style="fill:none;stroke:#000;stroke-width:.05"/><rect id="rect160" width="1.085" height=".813" x="18.337" y="8.027" style="fill:#b3b3b3;stroke:none;stroke-width:0"/><rect id="rect162" width="1.085" height=".813" x="18.337" y="8.027" style="fill:none;stroke:#000;stroke-width:.05"/><rect id="rect164" width=".85" height=".56" x="18.455" y="8.145" style="fill:#000;stroke:none;stroke-width:0"/><polygon id="polygon166" points="18.484 8.841 19.042 8.841 19.042 8.967 18.514 8.967 18.484 8.841" style="fill:#b3b3b3;stroke:none;stroke-width:.05"/><polygon id="polygon168" points="18.484 8.841 19.042 8.841 19.042 8.967 18.514 8.967 18.484 8.841" style="fill:none;stroke:#000;stroke-width:.05"/><polygon id="polygon170" points="19.042 8.841 19.275 8.841 19.246 8.967 19.042 8.967 19.042 8.841" style="fill:#b3b3b3;stroke:none;stroke-width:.05"/><polygon id="polygon172" points="19.042 8.841 19.275 8.841 19.246 8.967 19.042 8.967 19.042 8.841" style="fill:none;stroke:#000;stroke-width:.05"/><rect id="rect174" width=".051" height=".051" x="19.08" y="8.879" style="fill:#fff;stroke:none;stroke-width:0"/><rect id="rect176" width=".051" height=".051" x="19.08" y="8.879" style="fill:none;stroke:#000;stroke-width:.025"/><polygon id="polygon178" points="18.771 8.967 18.988 8.967 18.988 9.031 19.097 9.031 19.097 9.094 18.663 9.094 18.663 9.031 18.771 9.031 18.771 8.967" style="fill:#b3b3b3;stroke:none;stroke-width:.05"/><polygon id="polygon180" points="18.771 8.967 18.988 8.967 18.988 9.031 19.097 9.031 19.097 9.094 18.663 9.094 18.663 9.031 18.771 9.031 18.771 8.967" style="fill:none;stroke:#000;stroke-width:.05"/><rect id="rect182" width="1.085" height=".813" x="15.737" y="8.053" style="fill:#b3b3b3;stroke:none;stroke-width:0"/><rect id="rect184" width="1.085" height=".813" x="15.737" y="8.053" style="fill:none;stroke:#000;stroke-width:.05"/><rect id="rect186" width=".85" height=".56" x="15.855" y="8.17" style="fill:#000;stroke:none;stroke-width:0"/><polygon id="polygon188" points="15.884 8.866 16.442 8.866 16.442 8.992 15.914 8.992 15.884 8.866" style="fill:#b3b3b3;stroke:none;stroke-width:.05"/><polygon id="polygon190" points="15.884 8.866 16.442 8.866 16.442 8.992 15.914 8.992 15.884 8.866" style="fill:none;stroke:#000;stroke-width:.05"/><polygon id="polygon192" points="16.442 8.866 16.675 8.866 16.646 8.992 16.442 8.992 16.442 8.866" style="fill:#b3b3b3;stroke:none;stroke-width:.05"/><polygon id="polygon194" points="16.442 8.866 16.675 8.866 16.646 8.992 16.442 8.992 16.442 8.866" style="fill:none;stroke:#000;stroke-width:.05"/><rect id="rect196" width=".051" height=".051" x="16.48" y="8.904" style="fill:#fff;stroke:none;stroke-width:0"/><rect id="rect198" width=".051" height=".051" x="16.48" y="8.904" style="fill:none;stroke:#000;stroke-width:.025"/><polygon id="polygon200" points="16.171 8.992 16.388 8.992 16.388 9.056 16.497 9.056 16.497 9.119 16.063 9.119 16.063 9.056 16.171 9.056 16.171 8.992" style="fill:#b3b3b3;stroke:none;stroke-width:.05"/><polygon id="polygon202" points="16.171 8.992 16.388 8.992 16.388 9.056 16.497 9.056 16.497 9.119 16.063 9.119 16.063 9.056 16.171 9.056 16.171 8.992" style="fill:none;stroke:#000;stroke-width:.05"/><rect id="rect204" width="1.085" height=".813" x="18.362" y="5.027" style="fill:#b3b3b3;stroke:none;stroke-width:0"/><rect id="rect206" width="1.085" height=".813" x="18.362" y="5.027" style="fill:none;stroke:#000;stroke-width:.05"/><rect id="rect208" width=".85" height=".56" x="18.48" y="5.145" style="fill:#000;stroke:none;stroke-width:0"/><polygon id="polygon210" points="18.509 5.841 19.067 5.841 19.067 5.967 18.539 5.967 18.509 5.841" style="fill:#b3b3b3;stroke:none;stroke-width:.05"/><polygon id="polygon212" points="18.509 5.841 19.067 5.841 19.067 5.967 18.539 5.967 18.509 5.841" style="fill:none;stroke:#000;stroke-width:.05"/><polygon id="polygon214" points="19.067 5.841 19.3 5.841 19.271 5.967 19.067 5.967 19.067 5.841" style="fill:#b3b3b3;stroke:none;stroke-width:.05"/><polygon id="polygon216" points="19.067 5.841 19.3 5.841 19.271 5.967 19.067 5.967 19.067 5.841" style="fill:none;stroke:#000;stroke-width:.05"/><rect id="rect218" width=".051" height=".051" x="19.105" y="5.879" style="fill:#fff;stroke:none;stroke-width:0"/><rect id="rect220" width=".051" height=".051" x="19.105" y="5.879" style="fill:none;stroke:#000;stroke-width:.025"/><polygon id="polygon222" points="18.796 5.967 19.013 5.967 19.013 6.031 19.122 6.031 19.122 6.094 18.688 6.094 18.688 6.031 18.796 6.031 18.796 5.967" style="fill:#b3b3b3;stroke:none;stroke-width:.05"/><polygon id="polygon224" points="18.796 5.967 19.013 5.967 19.013 6.031 19.122 6.031 19.122 6.094 18.688 6.094 18.688 6.031 18.796 6.031 18.796 5.967" style="fill:none;stroke:#000;stroke-width:.05"/><rect id="rect226" width="1.085" height=".813" x="15.762" y="5.103" style="fill:#b3b3b3;stroke:none;stroke-width:0"/><rect id="rect228" width="1.085" height=".813" x="15.762" y="5.103" style="fill:none;stroke:#000;stroke-width:.05"/><rect id="rect230" width=".85" height=".56" x="15.88" y="5.22" style="fill:#000;stroke:none;stroke-width:0"/><polygon id="polygon232" points="15.909 5.916 16.467 5.916 16.467 6.042 15.939 6.042 15.909 5.916" style="fill:#b3b3b3;stroke:none;stroke-width:.05"/><polygon id="polygon234" points="15.909 5.916 16.467 5.916 16.467 6.042 15.939 6.042 15.909 5.916" style="fill:none;stroke:#000;stroke-width:.05"/><polygon id="polygon236" points="16.467 5.916 16.7 5.916 16.671 6.042 16.467 6.042 16.467 5.916" style="fill:#b3b3b3;stroke:none;stroke-width:.05"/><polygon id="polygon238" points="16.467 5.916 16.7 5.916 16.671 6.042 16.467 6.042 16.467 5.916" style="fill:none;stroke:#000;stroke-width:.05"/><rect id="rect240" width=".051" height=".051" x="16.505" y="5.954" style="fill:#fff;stroke:none;stroke-width:0"/><rect id="rect242" width=".051" height=".051" x="16.505" y="5.954" style="fill:none;stroke:#000;stroke-width:.025"/><polygon id="polygon244" points="16.196 6.042 16.413 6.042 16.413 6.106 16.522 6.106 16.522 6.169 16.088 6.169 16.088 6.106 16.196 6.106 16.196 6.042" style="fill:#b3b3b3;stroke:none;stroke-width:.05"/><polygon id="polygon246" points="16.196 6.042 16.413 6.042 16.413 6.106 16.522 6.106 16.522 6.169 16.088 6.169 16.088 6.106 16.196 6.106 16.196 6.042" style="fill:none;stroke:#000;stroke-width:.05"/><rect id="rect248" width="1.085" height=".813" x="4.587" y="5.053" style="fill:#b3b3b3;stroke:none;stroke-width:0"/><rect id="rect250" width="1.085" height=".813" x="4.587" y="5.053" style="fill:none;stroke:#000;stroke-width:.05"/><rect id="rect252" width=".85" height=".56" x="4.705" y="5.17" style="fill:#000;stroke:none;stroke-width:0"/><polygon id="polygon254" points="4.734 5.866 5.292 5.866 5.292 5.992 4.764 5.992 4.734 5.866" style="fill:#b3b3b3;stroke:none;stroke-width:.05"/><polygon id="polygon256" points="4.734 5.866 5.292 5.866 5.292 5.992 4.764 5.992 4.734 5.866" style="fill:none;stroke:#000;stroke-width:.05"/><polygon id="polygon258" points="5.292 5.866 5.525 5.866 5.496 5.992 5.292 5.992 5.292 5.866" style="fill:#b3b3b3;stroke:none;stroke-width:.05"/><polygon id="polygon260" points="5.292 5.866 5.525 5.866 5.496 5.992 5.292 5.992 5.292 5.866" style="fill:none;stroke:#000;stroke-width:.05"/><rect id="rect262" width=".051" height=".051" x="5.33" y="5.904" style="fill:#fff;stroke:none;stroke-width:0"/><rect id="rect264" width=".051" height=".051" x="5.33" y="5.904" style="fill:none;stroke:#000;stroke-width:.025"/><polygon id="polygon266" points="5.021 5.992 5.238 5.992 5.238 6.056 5.347 6.056 5.347 6.119 4.913 6.119 4.913 6.056 5.021 6.056 5.021 5.992" style="fill:#b3b3b3;stroke:none;stroke-width:.05"/><polygon id="polygon268" points="5.021 5.992 5.238 5.992 5.238 6.056 5.347 6.056 5.347 6.119 4.913 6.119 4.913 6.056 5.021 6.056 5.021 5.992" style="fill:none;stroke:#000;stroke-width:.05"/><rect id="rect270" width="1.085" height=".813" x="4.562" y="8.053" style="fill:#b3b3b3;stroke:none;stroke-width:0"/><rect id="rect272" width="1.085" height=".813" x="4.562" y="8.053" style="fill:none;stroke:#000;stroke-width:.05"/><rect id="rect274" width=".85" height=".56" x="4.68" y="8.17" style="fill:#000;stroke:none;stroke-width:0"/><polygon id="polygon276" points="4.709 8.866 5.267 8.866 5.267 8.992 4.739 8.992 4.709 8.866" style="fill:#b3b3b3;stroke:none;stroke-width:.05"/><polygon id="polygon278" points="4.709 8.866 5.267 8.866 5.267 8.992 4.739 8.992 4.709 8.866" style="fill:none;stroke:#000;stroke-width:.05"/><polygon id="polygon280" points="5.267 8.866 5.5 8.866 5.471 8.992 5.267 8.992 5.267 8.866" style="fill:#b3b3b3;stroke:none;stroke-width:.05"/><polygon id="polygon282" points="5.267 8.866 5.5 8.866 5.471 8.992 5.267 8.992 5.267 8.866" style="fill:none;stroke:#000;stroke-width:.05"/><rect id="rect284" width=".051" height=".051" x="5.305" y="8.904" style="fill:#fff;stroke:none;stroke-width:0"/><rect id="rect286" width=".051" height=".051" x="5.305" y="8.904" style="fill:none;stroke:#000;stroke-width:.025"/><polygon id="polygon288" points="4.996 8.992 5.213 8.992 5.213 9.056 5.322 9.056 5.322 9.119 4.888 9.119 4.888 9.056 4.996 9.056 4.996 8.992" style="fill:#b3b3b3;stroke:none;stroke-width:.05"/><polygon id="polygon290" points="4.996 8.992 5.213 8.992 5.213 9.056 5.322 9.056 5.322 9.119 4.888 9.119 4.888 9.056 4.996 9.056 4.996 8.992" style="fill:none;stroke:#000;stroke-width:.05"/><rect id="rect292" width="1.085" height=".813" x="2.162" y="8.102" style="fill:#b3b3b3;stroke:none;stroke-width:0"/><rect id="rect294" width="1.085" height=".813" x="2.162" y="8.102" style="fill:none;stroke:#000;stroke-width:.05"/><rect id="rect296" width=".85" height=".56" x="2.28" y="8.22" style="fill:#000;stroke:none;stroke-width:0"/><polygon id="polygon298" points="2.309 8.916 2.867 8.916 2.867 9.042 2.339 9.042 2.309 8.916" style="fill:#b3b3b3;stroke:none;stroke-width:.05"/><polygon id="polygon300" points="2.309 8.916 2.867 8.916 2.867 9.042 2.339 9.042 2.309 8.916" style="fill:none;stroke:#000;stroke-width:.05"/><polygon id="polygon302" points="2.867 8.916 3.1 8.916 3.071 9.042 2.867 9.042 2.867 8.916" style="fill:#b3b3b3;stroke:none;stroke-width:.05"/><polygon id="polygon304" points="2.867 8.916 3.1 8.916 3.071 9.042 2.867 9.042 2.867 8.916" style="fill:none;stroke:#000;stroke-width:.05"/><rect id="rect306" width=".051" height=".051" x="2.905" y="8.954" style="fill:#fff;stroke:none;stroke-width:0"/><rect id="rect308" width=".051" height=".051" x="2.905" y="8.954" style="fill:none;stroke:#000;stroke-width:.025"/><polygon id="polygon310" points="2.596 9.042 2.813 9.042 2.813 9.106 2.922 9.106 2.922 9.169 2.488 9.169 2.488 9.106 2.596 9.106 2.596 9.042" style="fill:#b3b3b3;stroke:none;stroke-width:.05"/><polygon id="polygon312" points="2.596 9.042 2.813 9.042 2.813 9.106 2.922 9.106 2.922 9.169 2.488 9.169 2.488 9.106 2.596 9.106 2.596 9.042" style="fill:none;stroke:#000;stroke-width:.05"/><rect id="rect314" width="1.085" height=".813" x="20.287" y="6.577" style="fill:#b3b3b3;stroke:none;stroke-width:0"/><rect id="rect316" width="1.085" height=".813" x="20.287" y="6.577" style="fill:none;stroke:#000;stroke-width:.05"/><rect id="rect318" width=".85" height=".56" x="20.405" y="6.695" style="fill:#000;stroke:none;stroke-width:0"/><polygon id="polygon320" points="20.434 7.391 20.992 7.391 20.992 7.517 20.464 7.517 20.434 7.391" style="fill:#b3b3b3;stroke:none;stroke-width:.05"/><polygon id="polygon322" points="20.434 7.391 20.992 7.391 20.992 7.517 20.464 7.517 20.434 7.391" style="fill:none;stroke:#000;stroke-width:.05"/><polygon id="polygon324" points="20.992 7.391 21.225 7.391 21.196 7.517 20.992 7.517 20.992 7.391" style="fill:#b3b3b3;stroke:none;stroke-width:.05"/><polygon id="polygon326" points="20.992 7.391 21.225 7.391 21.196 7.517 20.992 7.517 20.992 7.391" style="fill:none;stroke:#000;stroke-width:.05"/><rect id="rect328" width=".051" height=".051" x="21.03" y="7.429" style="fill:#fff;stroke:none;stroke-width:0"/><rect id="rect330" width=".051" height=".051" x="21.03" y="7.429" style="fill:none;stroke:#000;stroke-width:.025"/><polygon id="polygon332" points="20.721 7.517 20.938 7.517 20.938 7.581 21.047 7.581 21.047 7.644 20.613 7.644 20.613 7.581 20.721 7.581 20.721 7.517" style="fill:#b3b3b3;stroke:none;stroke-width:.05"/><polygon id="polygon334" points="20.721 7.517 20.938 7.517 20.938 7.581 21.047 7.581 21.047 7.644 20.613 7.644 20.613 7.581 20.721 7.581 20.721 7.517" style="fill:none;stroke:#000;stroke-width:.05"/><rect id="rect336" width="1.085" height=".813" x=".312" y="6.603" style="fill:#b3b3b3;stroke:none;stroke-width:0"/><rect id="rect338" width="1.085" height=".813" x=".312" y="6.603" style="fill:none;stroke:#000;stroke-width:.05"/><rect id="rect340" width=".85" height=".56" x=".43" y="6.72" style="fill:#000;stroke:none;stroke-width:0"/><polygon id="polygon342" points=".459 7.416 1.017 7.416 1.017 7.542 .489 7.542 .459 7.416" style="fill:#b3b3b3;stroke:none;stroke-width:.05"/><polygon id="polygon344" points=".459 7.416 1.017 7.416 1.017 7.542 .489 7.542 .459 7.416" style="fill:none;stroke:#000;stroke-width:.05"/><polygon id="polygon346" points="1.017 7.416 1.25 7.416 1.221 7.542 1.017 7.542 1.017 7.416" style="fill:#b3b3b3;stroke:none;stroke-width:.05"/><polygon id="polygon348" points="1.017 7.416 1.25 7.416 1.221 7.542 1.017 7.542 1.017 7.416" style="fill:none;stroke:#000;stroke-width:.05"/><rect id="rect350" width=".051" height=".051" x="1.055" y="7.454" style="fill:#fff;stroke:none;stroke-width:0"/><rect id="rect352" width=".051" height=".051" x="1.055" y="7.454" style="fill:none;stroke:#000;stroke-width:.025"/><polygon id="polygon354" points=".746 7.542 .963 7.542 .963 7.606 1.072 7.606 1.072 7.669 .638 7.669 .638 7.606 .746 7.606 .746 7.542" style="fill:#b3b3b3;stroke:none;stroke-width:.05"/><polygon id="polygon356" points=".746 7.542 .963 7.542 .963 7.606 1.072 7.606 1.072 7.669 .638 7.669 .638 7.606 .746 7.606 .746 7.542" style="fill:none;stroke:#000;stroke-width:.05"/><polygon id="polygon358" points="7.201 5.672 7.159 5.69 7.03 6.011 7.03 6.171 7.094 6.225 8.036 6.225 8.1 6.171 8.1 6.011 7.972 5.69 7.929 5.672 7.201 5.672" style="fill:#b3b3b3;stroke:none;stroke-width:.08"/><polygon id="polygon360" points="7.201 5.672 7.159 5.69 7.03 6.011 7.03 6.171 7.094 6.225 8.036 6.225 8.1 6.171 8.1 6.011 7.972 5.69 7.929 5.672 7.201 5.672" style="fill:none;stroke:#000;stroke-width:.08"/><path id="path362" d="M 7.052,5.957 L 7.094,5.975 L 8.036,5.975 L 8.079,5.957" style="fill:none;stroke:#000;stroke-width:.08"/><path id="path364" d="M 8.036,5.975 L 8.1,6.011" style="fill:none;stroke:#000;stroke-width:.08"/><path id="path366" d="M 7.03,6.011 L 7.094,5.975" style="fill:none;stroke:#000;stroke-width:.08"/><polygon id="polygon368" points="7.33 5.333 7.308 5.761 7.822 5.761 7.801 5.333 7.33 5.333" style="fill:#fff;stroke:none;stroke-width:.08"/><polygon id="polygon370" points="7.33 5.333 7.308 5.761 7.822 5.761 7.801 5.333 7.33 5.333" style="fill:none;stroke:#000;stroke-width:.08"/><polygon id="polygon372" points="7.244 5.761 7.201 5.886 7.929 5.886 7.886 5.761 7.244 5.761" style="fill:#000;stroke:none;stroke-width:.08"/><polygon id="polygon374" points="7.244 5.761 7.201 5.886 7.929 5.886 7.886 5.761 7.244 5.761" style="fill:none;stroke:#000;stroke-width:.08"/><ellipse id="ellipse376" cx="7.244" cy="6.038" rx=".011" ry=".011" style="fill:#00f;stroke:none"/><ellipse id="ellipse378" cx="7.244" cy="6.038" rx=".011" ry=".011" style="fill:none;stroke:#000;stroke-width:.02"/><ellipse id="ellipse380" cx="7.351" cy="6.038" rx=".011" ry=".011" style="fill:#00f;stroke:none"/><ellipse id="ellipse382" cx="7.351" cy="6.038" rx=".011" ry=".011" style="fill:none;stroke:#000;stroke-width:.02"/><ellipse id="ellipse384" cx="7.458" cy="6.038" rx=".011" ry=".011" style="fill:#00f;stroke:none"/><ellipse id="ellipse386" cx="7.458" cy="6.038" rx=".011" ry=".011" style="fill:none;stroke:#000;stroke-width:.02"/><ellipse id="ellipse388" cx="7.244" cy="6.082" rx=".011" ry=".011" style="fill:#00f;stroke:none"/><ellipse id="ellipse390" cx="7.244" cy="6.082" rx=".011" ry=".011" style="fill:none;stroke:#000;stroke-width:.02"/><ellipse id="ellipse392" cx="7.351" cy="6.082" rx=".011" ry=".011" style="fill:#00f;stroke:none"/><ellipse id="ellipse394" cx="7.351" cy="6.082" rx=".011" ry=".011" style="fill:none;stroke:#000;stroke-width:.02"/><ellipse id="ellipse396" cx="7.458" cy="6.082" rx=".011" ry=".011" style="fill:#00f;stroke:none"/><ellipse id="ellipse398" cx="7.458" cy="6.082" rx=".011" ry=".011" style="fill:none;stroke:#000;stroke-width:.02"/><ellipse id="ellipse400" cx="7.244" cy="6.127" rx=".011" ry=".011" style="fill:#00f;stroke:none"/><ellipse id="ellipse402" cx="7.244" cy="6.127" rx=".011" ry=".011" style="fill:none;stroke:#000;stroke-width:.02"/><ellipse id="ellipse404" cx="7.351" cy="6.127" rx=".011" ry=".011" style="fill:#00f;stroke:none"/><ellipse id="ellipse406" cx="7.351" cy="6.127" rx=".011" ry=".011" style="fill:none;stroke:#000;stroke-width:.02"/><ellipse id="ellipse408" cx="7.458" cy="6.127" rx=".011" ry=".011" style="fill:#00f;stroke:none"/><ellipse id="ellipse410" cx="7.458" cy="6.127" rx=".011" ry=".011" style="fill:none;stroke:#000;stroke-width:.02"/><ellipse id="ellipse412" cx="7.244" cy="6.171" rx=".011" ry=".011" style="fill:#00f;stroke:none"/><ellipse id="ellipse414" cx="7.244" cy="6.171" rx=".011" ry=".011" style="fill:none;stroke:#000;stroke-width:.02"/><ellipse id="ellipse416" cx="7.351" cy="6.171" rx=".011" ry=".011" style="fill:#00f;stroke:none"/><ellipse id="ellipse418" cx="7.351" cy="6.171" rx=".011" ry=".011" style="fill:none;stroke:#000;stroke-width:.02"/><ellipse id="ellipse420" cx="7.458" cy="6.171" rx=".011" ry=".011" style="fill:#00f;stroke:none"/><ellipse id="ellipse422" cx="7.458" cy="6.171" rx=".011" ry=".011" style="fill:none;stroke:#000;stroke-width:.02"/><ellipse id="ellipse424" cx="7.565" cy="6.047" rx=".134" ry=".043" style="fill:#8f8f8f;stroke:none"/><ellipse id="ellipse426" cx="7.565" cy="6.047" rx=".134" ry=".043" style="fill:none;stroke:#000;stroke-width:.02"/><ellipse id="ellipse428" cx="7.833" cy="6.047" rx=".134" ry=".043" style="fill:#8f8f8f;stroke:none"/><ellipse id="ellipse430" cx="7.833" cy="6.047" rx=".134" ry=".043" style="fill:none;stroke:#000;stroke-width:.02"/><polygon id="polygon432" points="13.374 8.356 13.331 8.374 13.202 8.695 13.202 8.856 13.267 8.909 14.208 8.909 14.272 8.856 14.272 8.695 14.144 8.374 14.101 8.356 13.374 8.356" style="fill:#b3b3b3;stroke:none;stroke-width:.08"/><polygon id="polygon434" points="13.374 8.356 13.331 8.374 13.202 8.695 13.202 8.856 13.267 8.909 14.208 8.909 14.272 8.856 14.272 8.695 14.144 8.374 14.101 8.356 13.374 8.356" style="fill:none;stroke:#000;stroke-width:.08"/><path id="path436" d="M 13.224,8.642 L 13.267,8.659 L 14.208,8.659 L 14.251,8.642" style="fill:none;stroke:#000;stroke-width:.08"/><path id="path438" d="M 14.208,8.659 L 14.272,8.695" style="fill:none;stroke:#000;stroke-width:.08"/><path id="path440" d="M 13.202,8.695 L 13.267,8.659" style="fill:none;stroke:#000;stroke-width:.08"/><polygon id="polygon442" points="13.502 8.018 13.481 8.445 13.994 8.445 13.973 8.018 13.502 8.018" style="fill:#fff;stroke:none;stroke-width:.08"/><polygon id="polygon444" points="13.502 8.018 13.481 8.445 13.994 8.445 13.973 8.018 13.502 8.018" style="fill:none;stroke:#000;stroke-width:.08"/><polygon id="polygon446" points="13.416 8.445 13.374 8.57 14.101 8.57 14.058 8.445 13.416 8.445" style="fill:#000;stroke:none;stroke-width:.08"/><polygon id="polygon448" points="13.416 8.445 13.374 8.57 14.101 8.57 14.058 8.445 13.416 8.445" style="fill:none;stroke:#000;stroke-width:.08"/><ellipse id="ellipse450" cx="13.416" cy="8.722" rx=".011" ry=".011" style="fill:#00f;stroke:none"/><ellipse id="ellipse452" cx="13.416" cy="8.722" rx=".011" ry=".011" style="fill:none;stroke:#000;stroke-width:.02"/><ellipse id="ellipse454" cx="13.523" cy="8.722" rx=".011" ry=".011" style="fill:#00f;stroke:none"/><ellipse id="ellipse456" cx="13.523" cy="8.722" rx=".011" ry=".011" style="fill:none;stroke:#000;stroke-width:.02"/><ellipse id="ellipse458" cx="13.63" cy="8.722" rx=".011" ry=".011" style="fill:#00f;stroke:none"/><ellipse id="ellipse460" cx="13.63" cy="8.722" rx=".011" ry=".011" style="fill:none;stroke:#000;stroke-width:.02"/><ellipse id="ellipse462" cx="13.416" cy="8.766" rx=".011" ry=".011" style="fill:#00f;stroke:none"/><ellipse id="ellipse464" cx="13.416" cy="8.766" rx=".011" ry=".011" style="fill:none;stroke:#000;stroke-width:.02"/><ellipse id="ellipse466" cx="13.523" cy="8.766" rx=".011" ry=".011" style="fill:#00f;stroke:none"/><ellipse id="ellipse468" cx="13.523" cy="8.766" rx=".011" ry=".011" style="fill:none;stroke:#000;stroke-width:.02"/><ellipse id="ellipse470" cx="13.63" cy="8.766" rx=".011" ry=".011" style="fill:#00f;stroke:none"/><ellipse id="ellipse472" cx="13.63" cy="8.766" rx=".011" ry=".011" style="fill:none;stroke:#000;stroke-width:.02"/><ellipse id="ellipse474" cx="13.416" cy="8.811" rx=".011" ry=".011" style="fill:#00f;stroke:none"/><ellipse id="ellipse476" cx="13.416" cy="8.811" rx=".011" ry=".011" style="fill:none;stroke:#000;stroke-width:.02"/><ellipse id="ellipse478" cx="13.523" cy="8.811" rx=".011" ry=".011" style="fill:#00f;stroke:none"/><ellipse id="ellipse480" cx="13.523" cy="8.811" rx=".011" ry=".011" style="fill:none;stroke:#000;stroke-width:.02"/><ellipse id="ellipse482" cx="13.63" cy="8.811" rx=".011" ry=".011" style="fill:#00f;stroke:none"/><ellipse id="ellipse484" cx="13.63" cy="8.811" rx=".011" ry=".011" style="fill:none;stroke:#000;stroke-width:.02"/><ellipse id="ellipse486" cx="13.416" cy="8.856" rx=".011" ry=".011" style="fill:#00f;stroke:none"/><ellipse id="ellipse488" cx="13.416" cy="8.856" rx=".011" ry=".011" style="fill:none;stroke:#000;stroke-width:.02"/><ellipse id="ellipse490" cx="13.523" cy="8.856" rx=".011" ry=".011" style="fill:#00f;stroke:none"/><ellipse id="ellipse492" cx="13.523" cy="8.856" rx=".011" ry=".011" style="fill:none;stroke:#000;stroke-width:.02"/><ellipse id="ellipse494" cx="13.63" cy="8.856" rx=".011" ry=".011" style="fill:#00f;stroke:none"/><ellipse id="ellipse496" cx="13.63" cy="8.856" rx=".011" ry=".011" style="fill:none;stroke:#000;stroke-width:.02"/><ellipse id="ellipse498" cx="13.737" cy="8.731" rx=".134" ry=".043" style="fill:#8f8f8f;stroke:none"/><ellipse id="ellipse500" cx="13.737" cy="8.731" rx=".134" ry=".043" style="fill:none;stroke:#000;stroke-width:.02"/><ellipse id="ellipse502" cx="14.005" cy="8.731" rx=".134" ry=".043" style="fill:#8f8f8f;stroke:none"/><ellipse id="ellipse504" cx="14.005" cy="8.731" rx=".134" ry=".043" style="fill:none;stroke:#000;stroke-width:.02"/><polygon id="polygon506" points="7.174 8.381 7.131 8.399 7.002 8.72 7.002 8.881 7.067 8.934 8.008 8.934 8.072 8.881 8.072 8.72 7.944 8.399 7.901 8.381 7.174 8.381" style="fill:#b3b3b3;stroke:none;stroke-width:.08"/><polygon id="polygon508" points="7.174 8.381 7.131 8.399 7.002 8.72 7.002 8.881 7.067 8.934 8.008 8.934 8.072 8.881 8.072 8.72 7.944 8.399 7.901 8.381 7.174 8.381" style="fill:none;stroke:#000;stroke-width:.08"/><path id="path510" d="M 7.024,8.667 L 7.067,8.684 L 8.008,8.684 L 8.051,8.667" style="fill:none;stroke:#000;stroke-width:.08"/><path id="path512" d="M 8.008,8.684 L 8.072,8.72" style="fill:none;stroke:#000;stroke-width:.08"/><path id="path514" d="M 7.002,8.72 L 7.067,8.684" style="fill:none;stroke:#000;stroke-width:.08"/><polygon id="polygon516" points="7.302 8.043 7.281 8.47 7.794 8.47 7.773 8.043 7.302 8.043" style="fill:#fff;stroke:none;stroke-width:.08"/><polygon id="polygon518" points="7.302 8.043 7.281 8.47 7.794 8.47 7.773 8.043 7.302 8.043" style="fill:none;stroke:#000;stroke-width:.08"/><polygon id="polygon520" points="7.216 8.47 7.174 8.595 7.901 8.595 7.858 8.47 7.216 8.47" style="fill:#000;stroke:none;stroke-width:.08"/><polygon id="polygon522" points="7.216 8.47 7.174 8.595 7.901 8.595 7.858 8.47 7.216 8.47" style="fill:none;stroke:#000;stroke-width:.08"/><ellipse id="ellipse524" cx="7.216" cy="8.747" rx=".011" ry=".011" style="fill:#00f;stroke:none"/><ellipse id="ellipse526" cx="7.216" cy="8.747" rx=".011" ry=".011" style="fill:none;stroke:#000;stroke-width:.02"/><ellipse id="ellipse528" cx="7.323" cy="8.747" rx=".011" ry=".011" style="fill:#00f;stroke:none"/><ellipse id="ellipse530" cx="7.323" cy="8.747" rx=".011" ry=".011" style="fill:none;stroke:#000;stroke-width:.02"/><ellipse id="ellipse532" cx="7.43" cy="8.747" rx=".011" ry=".011" style="fill:#00f;stroke:none"/><ellipse id="ellipse534" cx="7.43" cy="8.747" rx=".011" ry=".011" style="fill:none;stroke:#000;stroke-width:.02"/><ellipse id="ellipse536" cx="7.216" cy="8.791" rx=".011" ry=".011" style="fill:#00f;stroke:none"/><ellipse id="ellipse538" cx="7.216" cy="8.791" rx=".011" ry=".011" style="fill:none;stroke:#000;stroke-width:.02"/><ellipse id="ellipse540" cx="7.323" cy="8.791" rx=".011" ry=".011" style="fill:#00f;stroke:none"/><ellipse id="ellipse542" cx="7.323" cy="8.791" rx=".011" ry=".011" style="fill:none;stroke:#000;stroke-width:.02"/><ellipse id="ellipse544" cx="7.43" cy="8.791" rx=".011" ry=".011" style="fill:#00f;stroke:none"/><ellipse id="ellipse546" cx="7.43" cy="8.791" rx=".011" ry=".011" style="fill:none;stroke:#000;stroke-width:.02"/><ellipse id="ellipse548" cx="7.216" cy="8.836" rx=".011" ry=".011" style="fill:#00f;stroke:none"/><ellipse id="ellipse550" cx="7.216" cy="8.836" rx=".011" ry=".011" style="fill:none;stroke:#000;stroke-width:.02"/><ellipse id="ellipse552" cx="7.323" cy="8.836" rx=".011" ry=".011" style="fill:#00f;stroke:none"/><ellipse id="ellipse554" cx="7.323" cy="8.836" rx=".011" ry=".011" style="fill:none;stroke:#000;stroke-width:.02"/><ellipse id="ellipse556" cx="7.43" cy="8.836" rx=".011" ry=".011" style="fill:#00f;stroke:none"/><ellipse id="ellipse558" cx="7.43" cy="8.836" rx=".011" ry=".011" style="fill:none;stroke:#000;stroke-width:.02"/><ellipse id="ellipse560" cx="7.216" cy="8.881" rx=".011" ry=".011" style="fill:#00f;stroke:none"/><ellipse id="ellipse562" cx="7.216" cy="8.881" rx=".011" ry=".011" style="fill:none;stroke:#000;stroke-width:.02"/><ellipse id="ellipse564" cx="7.323" cy="8.881" rx=".011" ry=".011" style="fill:#00f;stroke:none"/><ellipse id="ellipse566" cx="7.323" cy="8.881" rx=".011" ry=".011" style="fill:none;stroke:#000;stroke-width:.02"/><ellipse id="ellipse568" cx="7.43" cy="8.881" rx=".011" ry=".011" style="fill:#00f;stroke:none"/><ellipse id="ellipse570" cx="7.43" cy="8.881" rx=".011" ry=".011" style="fill:none;stroke:#000;stroke-width:.02"/><ellipse id="ellipse572" cx="7.537" cy="8.756" rx=".134" ry=".043" style="fill:#8f8f8f;stroke:none"/><ellipse id="ellipse574" cx="7.537" cy="8.756" rx=".134" ry=".043" style="fill:none;stroke:#000;stroke-width:.02"/><ellipse id="ellipse576" cx="7.805" cy="8.756" rx=".134" ry=".043" style="fill:#8f8f8f;stroke:none"/><ellipse id="ellipse578" cx="7.805" cy="8.756" rx=".134" ry=".043" style="fill:none;stroke:#000;stroke-width:.02"/><polygon id="polygon580" points="13.374 5.531 13.331 5.549 13.202 5.87 13.202 6.031 13.267 6.084 14.208 6.084 14.272 6.031 14.272 5.87 14.144 5.549 14.101 5.531 13.374 5.531" style="fill:#b3b3b3;stroke:none;stroke-width:.08"/><polygon id="polygon582" points="13.374 5.531 13.331 5.549 13.202 5.87 13.202 6.031 13.267 6.084 14.208 6.084 14.272 6.031 14.272 5.87 14.144 5.549 14.101 5.531 13.374 5.531" style="fill:none;stroke:#000;stroke-width:.08"/><path id="path584" d="M 13.224,5.817 L 13.267,5.834 L 14.208,5.834 L 14.251,5.817" style="fill:none;stroke:#000;stroke-width:.08"/><path id="path586" d="M 14.208,5.834 L 14.272,5.87" style="fill:none;stroke:#000;stroke-width:.08"/><path id="path588" d="M 13.202,5.87 L 13.267,5.834" style="fill:none;stroke:#000;stroke-width:.08"/><polygon id="polygon590" points="13.502 5.192 13.481 5.62 13.994 5.62 13.973 5.192 13.502 5.192" style="fill:#fff;stroke:none;stroke-width:.08"/><polygon id="polygon592" points="13.502 5.192 13.481 5.62 13.994 5.62 13.973 5.192 13.502 5.192" style="fill:none;stroke:#000;stroke-width:.08"/><polygon id="polygon594" points="13.416 5.62 13.374 5.745 14.101 5.745 14.058 5.62 13.416 5.62" style="fill:#000;stroke:none;stroke-width:.08"/><polygon id="polygon596" points="13.416 5.62 13.374 5.745 14.101 5.745 14.058 5.62 13.416 5.62" style="fill:none;stroke:#000;stroke-width:.08"/><ellipse id="ellipse598" cx="13.416" cy="5.897" rx=".011" ry=".011" style="fill:#00f;stroke:none"/><ellipse id="ellipse600" cx="13.416" cy="5.897" rx=".011" ry=".011" style="fill:none;stroke:#000;stroke-width:.02"/><ellipse id="ellipse602" cx="13.523" cy="5.897" rx=".011" ry=".011" style="fill:#00f;stroke:none"/><ellipse id="ellipse604" cx="13.523" cy="5.897" rx=".011" ry=".011" style="fill:none;stroke:#000;stroke-width:.02"/><ellipse id="ellipse606" cx="13.63" cy="5.897" rx=".011" ry=".011" style="fill:#00f;stroke:none"/><ellipse id="ellipse608" cx="13.63" cy="5.897" rx=".011" ry=".011" style="fill:none;stroke:#000;stroke-width:.02"/><ellipse id="ellipse610" cx="13.416" cy="5.941" rx=".011" ry=".011" style="fill:#00f;stroke:none"/><ellipse id="ellipse612" cx="13.416" cy="5.941" rx=".011" ry=".011" style="fill:none;stroke:#000;stroke-width:.02"/><ellipse id="ellipse614" cx="13.523" cy="5.941" rx=".011" ry=".011" style="fill:#00f;stroke:none"/><ellipse id="ellipse616" cx="13.523" cy="5.941" rx=".011" ry=".011" style="fill:none;stroke:#000;stroke-width:.02"/><ellipse id="ellipse618" cx="13.63" cy="5.941" rx=".011" ry=".011" style="fill:#00f;stroke:none"/><ellipse id="ellipse620" cx="13.63" cy="5.941" rx=".011" ry=".011" style="fill:none;stroke:#000;stroke-width:.02"/><ellipse id="ellipse622" cx="13.416" cy="5.986" rx=".011" ry=".011" style="fill:#00f;stroke:none"/><ellipse id="ellipse624" cx="13.416" cy="5.986" rx=".011" ry=".011" style="fill:none;stroke:#000;stroke-width:.02"/><ellipse id="ellipse626" cx="13.523" cy="5.986" rx=".011" ry=".011" style="fill:#00f;stroke:none"/><ellipse id="ellipse628" cx="13.523" cy="5.986" rx=".011" ry=".011" style="fill:none;stroke:#000;stroke-width:.02"/><ellipse id="ellipse630" cx="13.63" cy="5.986" rx=".011" ry=".011" style="fill:#00f;stroke:none"/><ellipse id="ellipse632" cx="13.63" cy="5.986" rx=".011" ry=".011" style="fill:none;stroke:#000;stroke-width:.02"/><ellipse id="ellipse634" cx="13.416" cy="6.031" rx=".011" ry=".011" style="fill:#00f;stroke:none"/><ellipse id="ellipse636" cx="13.416" cy="6.031" rx=".011" ry=".011" style="fill:none;stroke:#000;stroke-width:.02"/><ellipse id="ellipse638" cx="13.523" cy="6.031" rx=".011" ry=".011" style="fill:#00f;stroke:none"/><ellipse id="ellipse640" cx="13.523" cy="6.031" rx=".011" ry=".011" style="fill:none;stroke:#000;stroke-width:.02"/><ellipse id="ellipse642" cx="13.63" cy="6.031" rx=".011" ry=".011" style="fill:#00f;stroke:none"/><ellipse id="ellipse644" cx="13.63" cy="6.031" rx=".011" ry=".011" style="fill:none;stroke:#000;stroke-width:.02"/><ellipse id="ellipse646" cx="13.737" cy="5.906" rx=".134" ry=".043" style="fill:#8f8f8f;stroke:none"/><ellipse id="ellipse648" cx="13.737" cy="5.906" rx=".134" ry=".043" style="fill:none;stroke:#000;stroke-width:.02"/><ellipse id="ellipse650" cx="14.005" cy="5.906" rx=".134" ry=".043" style="fill:#8f8f8f;stroke:none"/><ellipse id="ellipse652" cx="14.005" cy="5.906" rx=".134" ry=".043" style="fill:none;stroke:#000;stroke-width:.02"/><text id="text654" x="9.66" y="8.325" style="font-size:.5px;font-style:normal;font-weight:400;text-anchor:start;fill:#000;font-family:arial">eth0</text><text id="text656" x="11.456" y="6.782" style="font-size:.5px;font-style:normal;font-weight:400;text-anchor:start;fill:#000;font-family:arial">eth2</text><text id="text658" x="9.08" y="6.832" style="font-size:.5px;font-style:normal;font-weight:400;text-anchor:start;fill:#000;font-family:arial">eth1</text><text id="text660" x="7.109" y="4.952" style="font-size:.5px;font-style:normal;font-weight:400;text-anchor:start;fill:#000;font-family:arial">hplj6a</text><text id="text662" x="13.463" y="4.957" style="font-size:.5px;font-style:normal;font-weight:400;text-anchor:start;fill:#000;font-family:arial">hplj6f</text><text id="text664" x="7.182" y="9.507" style="font-size:.5px;font-style:normal;font-weight:400;text-anchor:start;fill:#000;font-family:arial">qmsa</text><text id="text666" x="13.327" y="9.507" style="font-size:.5px;font-style:normal;font-weight:400;text-anchor:start;fill:#000;font-family:arial">qmsf</text><text id="text668" x="8.357" y="2.202" style="font-size:.80000001px;font-style:normal;font-weight:400;text-anchor:start;fill:#000;font-family:arial">Domain: PROMISES</text><text id="text670" x="9.97" y="3.55" style="font-size:.60000002px;font-style:normal;font-weight:400;text-anchor:start;fill:#000;font-family:arial">Server:</text><text id="text672" x="9.698" y="4.15" style="font-size:.60000002px;font-style:normal;font-weight:400;text-anchor:start;fill:#000;font-family:arial">DIAMOND</text><text id="text674" x="2.221" y="9.925" style="font-size:.60000002px;font-style:normal;font-weight:400;text-anchor:start;fill:#000;font-family:arial">Network:</text><text id="text676" x="1.815" y="10.525" style="font-size:.60000002px;font-style:normal;font-weight:400;text-anchor:start;fill:#000;font-family:arial">192.168.1.0/24</text><text id="text678" x="15.621" y="9.852" style="font-size:.60000002px;font-style:normal;font-weight:400;text-anchor:start;fill:#000;font-family:arial">Network:</text><text id="text680" x="15.185" y="10.452" style="font-size:.60000002px;font-style:normal;font-weight:400;text-anchor:start;fill:#000;font-family:arial">192.168.2.0/24</text><rect id="rect682" width=".627" height=".553" x="8.773" y="4.443" style="fill:#fff;stroke:none;stroke-width:0"/><ellipse id="ellipse684" cx="9.087" cy="4.996" rx=".313" ry=".092" style="fill:#fff;stroke:none"/><ellipse id="ellipse686" cx="9.087" cy="4.443" rx=".313" ry=".092" style="fill:#fff;stroke:none"/><ellipse id="ellipse688" cx="9.087" cy="4.443" rx=".313" ry=".092" style="fill:none;stroke:#000;stroke-width:.1"/><path id="path690" d="M 9.4,4.443 L 9.4,4.996 C 9.4,5.047 9.26,5.088 9.087,5.088 C 8.913,5.088 8.773,5.047 8.773,4.996 L 8.773,4.443" style="fill:none;stroke:#000;stroke-width:.1"/><line id="line692" x1="9.375" x2="10.025" y1="4.9" y2="5.3" stroke="#000" stroke-width=".1" style="stroke:#000;stroke-width:.1"/><rect id="rect694" width=".627" height=".553" x="11.812" y="4.445" style="fill:#fff;stroke:none;stroke-width:0"/><ellipse id="ellipse696" cx="12.126" cy="4.998" rx=".313" ry=".092" style="fill:#fff;stroke:none"/><ellipse id="ellipse698" cx="12.126" cy="4.445" rx=".313" ry=".092" style="fill:#fff;stroke:none"/><ellipse id="ellipse700" cx="12.126" cy="4.445" rx=".313" ry=".092" style="fill:none;stroke:#000;stroke-width:.1"/><path id="path702" d="M 12.439,4.445 L 12.439,4.998 C 12.439,5.049 12.299,5.09 12.126,5.09 C 11.953,5.09 11.812,5.049 11.812,4.998 L 11.812,4.445" style="fill:none;stroke:#000;stroke-width:.1"/><line id="line704" x1="11.089" x2="11.825" y1="5.279" y2="4.85" stroke="#000" stroke-width=".1" style="stroke:#000;stroke-width:.1"/><text id="text706" x="8.74" y="5.582" style="font-size:.5px;font-style:normal;font-weight:400;text-anchor:start;fill:#000;font-family:arial">apps</text><text id="text708" x="11.799" y="5.607" style="font-size:.5px;font-style:normal;font-weight:400;text-anchor:start;fill:#000;font-family:arial">data</text><text id="text710" x="6.515" y="11.352" style="font-size:.5px;font-style:normal;font-weight:400;text-anchor:start;fill:#000;font-family:arial">30 Users</text><text id="text712" x="19.365" y="11.267" style="font-size:.5px;font-style:normal;font-weight:400;text-anchor:start;fill:#000;font-family:arial">100 Users</text><text id="text714" x="1.018" y="4.379" style="font-size:.69999999px;font-style:normal;font-weight:400;text-anchor:start;fill:#000;font-family:arial">Accounting</text><text id="text716" x="16.813" y="4.316" style="font-size:.69999999px;font-style:normal;font-weight:400;text-anchor:start;fill:#000;font-family:arial">Financial Services</text></svg>