<svg xmlns="http://www.w3.org/2000/svg" xmlns:svg="http://www.w3.org/2000/svg" id="svg2" width="653.48" height="504" version="1.0" viewBox="23.46 19.665 40.75 33"><rect id="rect4" width="2" height="2" x="29.1" y="23" style="fill:#fff4db;stroke:none;stroke-width:0"/><rect id="rect6" width="2" height="2" x="29.1" y="23" style="fill:none;stroke:#000;stroke-width:.1"/><rect id="rect8" width="2" height="2" x="32.035" y="27.59" style="fill:#d8d8d8;stroke:none;stroke-width:0"/><rect id="rect10" width="2" height="2" x="32.035" y="27.59" style="fill:none;stroke:#000;stroke-width:.1"/><rect id="rect12" width="2" height="2.04" x="29.185" y="27.55" style="fill:#d0d0d0;stroke:none;stroke-width:0"/><rect id="rect14" width="2" height="2.04" x="29.185" y="27.55" style="fill:none;stroke:#000;stroke-width:.1"/><rect id="rect16" width="2.84" height="1.735" x="23.51" y="23.14" style="fill:#a9d8cb;stroke:none;stroke-width:0"/><rect id="rect18" width="2.84" height="1.735" x="23.51" y="23.14" style="fill:none;stroke:#000;stroke-width:.1"/><rect id="rect20" width="2.825" height="1.885" x="32.675" y="20.94" style="fill:#dedede;stroke:none;stroke-width:0"/><rect id="rect22" width="2.825" height="1.885" x="32.675" y="20.94" style="fill:none;stroke:#000;stroke-width:.1"/><rect id="rect24" width="2.65" height="2.01" x="37.8" y="19.715" style="fill:#fff;stroke:none;stroke-width:0"/><rect id="rect26" width="2.65" height="2.01" x="37.8" y="19.715" style="fill:none;stroke:#000;stroke-width:.1"/><rect id="rect28" width="2.3" height="2.015" x="38.025" y="22.1" style="fill:#fff;stroke:none;stroke-width:0"/><rect id="rect30" width="2.3" height="2.015" x="38.025" y="22.1" style="fill:none;stroke:#000;stroke-width:.1"/><rect id="rect32" width="2.25" height="2.06" x="35.15" y="27.565" style="fill:#d8d8d8;stroke:none;stroke-width:0"/><rect id="rect34" width="2.25" height="2.06" x="35.15" y="27.565" style="fill:none;stroke:#000;stroke-width:.1"/><text id="text36" x="24.2" y="23.9" style="font-size:.60000002px;font-style:normal;font-weight:400;text-anchor:start;fill:#000;font-family:arial">Windows</text><text id="text38" x="24.463" y="24.5" style="font-size:.60000002px;font-style:normal;font-weight:400;text-anchor:start;fill:#000;font-family:arial">Client</text><text id="text40" x="29.659" y="24.15" style="font-size:.60000002px;font-style:normal;font-weight:400;text-anchor:start;fill:#000;font-family:arial">smbd</text><text id="text42" x="33.388" y="22.051" style="font-size:.60000002px;font-style:normal;font-weight:400;text-anchor:start;fill:#000;font-family:arial">winbindd</text><text id="text44" x="29.76" y="28.676" style="font-size:.60000002px;font-style:normal;font-weight:400;text-anchor:start;fill:#000;font-family:arial">NSS</text><text id="text46" x="32.654" y="28.776" style="font-size:.60000002px;font-style:normal;font-weight:400;text-anchor:start;fill:#000;font-family:arial">PAM</text><text id="text48" x="35.763" y="28.7" style="font-size:.60000002px;font-style:normal;font-weight:400;text-anchor:start;fill:#000;font-family:arial">LDAP</text><text id="text50" x="38.697" y="23" style="font-size:.60000002px;font-style:normal;font-weight:400;text-anchor:start;fill:#000;font-family:arial">W2Kx</text><text id="text52" x="38.805" y="23.6" style="font-size:.60000002px;font-style:normal;font-weight:400;text-anchor:start;fill:#000;font-family:arial">ADS</text><text id="text54" x="38.76" y="20.6" style="font-size:.60000002px;font-style:normal;font-weight:400;text-anchor:start;fill:#000;font-family:arial">NT4</text><text id="text56" x="38.477" y="21.2" style="font-size:.60000002px;font-style:normal;font-weight:400;text-anchor:start;fill:#000;font-family:arial">Domain</text><line id="line58" x1="26.9" x2="28.55" y1="24.006" y2="24.001" stroke="#000" stroke-width=".1" style="stroke:#000;stroke-width:.1"/><polygon id="polygon60" points="26.899 23.756 26.4 24.007 26.901 24.256 26.899 23.756" style="fill:#000;stroke:none;stroke-width:.1"/><polygon id="polygon62" points="28.551 24.251 29.05 24 28.549 23.752 28.551 24.251" style="fill:#000;stroke:none;stroke-width:.1"/><line id="line64" x1="29.52" x2="29.505" y1="25.575" y2="27" stroke="#000" stroke-width=".1" style="stroke:#000;stroke-width:.1"/><polygon id="polygon66" points="29.77 25.577 29.525 25.075 29.27 25.572 29.77 25.577" style="fill:#000;stroke:none;stroke-width:.1"/><polygon id="polygon68" points="29.255 26.998 29.5 27.5 29.755 27.003 29.255 26.998" style="fill:#000;stroke:none;stroke-width:.1"/><line id="line70" x1="31.394" x2="32.606" y1="25.19" y2="27.11" stroke="#000" stroke-width=".1" style="stroke:#000;stroke-width:.1"/><polygon id="polygon72" points="31.605 25.057 31.127 24.767 31.182 25.324 31.605 25.057" style="fill:#000;stroke:none;stroke-width:.1"/><polygon id="polygon74" points="32.395 27.243 32.873 27.533 32.818 26.976 32.395 27.243" style="fill:#000;stroke:none;stroke-width:.1"/><line id="line76" x1="31.481" x2="32.294" y1="23.128" y2="22.279" stroke="#000" stroke-width=".1" style="stroke:#000;stroke-width:.1"/><polygon id="polygon78" points="31.3 22.955 31.135 23.489 31.661 23.301 31.3 22.955" style="fill:#000;stroke:none;stroke-width:.1"/><polygon id="polygon80" points="32.475 22.453 32.64 21.919 32.114 22.106 32.475 22.453" style="fill:#000;stroke:none;stroke-width:.1"/><line id="line82" x1="31.553" x2="35.822" y1="24.312" y2="27.253" stroke="#000" stroke-width=".1" style="stroke:#000;stroke-width:.1"/><polygon id="polygon84" points="31.695 24.106 31.141 24.028 31.411 24.518 31.695 24.106" style="fill:#000;stroke:none;stroke-width:.1"/><polygon id="polygon86" points="35.68 27.459 36.234 27.537 35.964 27.047 35.68 27.459" style="fill:#000;stroke:none;stroke-width:.1"/><line id="line88" x1="36.066" x2="37.284" y1="21.36" y2="20.91" stroke="#000" stroke-width=".1" style="stroke:#000;stroke-width:.1"/><polygon id="polygon90" points="35.979 21.125 35.597 21.533 36.153 21.594 35.979 21.125" style="fill:#000;stroke:none;stroke-width:.1"/><polygon id="polygon92" points="37.371 21.145 37.753 20.737 37.197 20.676 37.371 21.145" style="fill:#000;stroke:none;stroke-width:.1"/><line id="line94" x1="36.013" x2="37.512" y1="22.324" y2="22.908" stroke="#000" stroke-width=".1" style="stroke:#000;stroke-width:.1"/><polygon id="polygon96" points="36.103 22.091 35.547 22.143 35.922 22.557 36.103 22.091" style="fill:#000;stroke:none;stroke-width:.1"/><polygon id="polygon98" points="37.422 23.141 37.978 23.089 37.603 22.675 37.422 23.141" style="fill:#000;stroke:none;stroke-width:.1"/><rect id="rect100" width="2.95" height="2.01" x="37.75" y="24.565" style="fill:#fff;stroke:none;stroke-width:0"/><rect id="rect102" width="2.95" height="2.01" x="37.75" y="24.565" style="fill:none;stroke:#000;stroke-width:.1"/><text id="text104" x="38.655" y="25.425" style="font-size:.60000002px;font-style:normal;font-weight:400;text-anchor:start;fill:#000;font-family:arial">Samba</text><text id="text106" x="38.414" y="26.025" style="font-size:.60000002px;font-style:normal;font-weight:400;text-anchor:start;fill:#000;font-family:arial">PDC/BDC</text><line id="line108" x1="34.959" x2="37.329" y1="23.228" y2="25.217" stroke="#000" stroke-width=".1" style="stroke:#000;stroke-width:.1"/><polygon id="polygon110" points="35.12 23.037 34.576 22.907 34.798 23.42 35.12 23.037" style="fill:#000;stroke:none;stroke-width:.1"/><polygon id="polygon112" points="37.168 25.408 37.712 25.538 37.489 25.025 37.168 25.408" style="fill:#000;stroke:none;stroke-width:.1"/><rect id="rect114" width="3.915" height="1.76" x="29.01" y="31.19" style="fill:#fff;stroke:none;stroke-width:0"/><rect id="rect116" width="3.915" height="1.76" x="29.01" y="31.19" style="fill:none;stroke:#000;stroke-width:.1"/><line id="line118" x1="30.182" x2="30.178" y1="30.14" y2="30.65" stroke="#000" stroke-width=".1" style="stroke:#000;stroke-width:.1"/><polygon id="polygon120" points="30.432 30.142 30.185 29.64 29.932 30.138 30.432 30.142" style="fill:#000;stroke:none;stroke-width:.1"/><polygon id="polygon122" points="29.928 30.648 30.175 31.15 30.428 30.652 29.928 30.648" style="fill:#000;stroke:none;stroke-width:.1"/><line id="line124" x1="31.402" x2="32.6" y1="30.853" y2="29.927" stroke="#000" stroke-width=".1" style="stroke:#000;stroke-width:.1"/><polygon id="polygon126" points="31.249 30.656 31.007 31.159 31.555 31.051 31.249 30.656" style="fill:#000;stroke:none;stroke-width:.1"/><polygon id="polygon128" points="32.753 30.124 32.995 29.621 32.447 29.729 32.753 30.124" style="fill:#000;stroke:none;stroke-width:.1"/><line id="line130" x1="34.585" x2="34.6" y1="28.592" y2="28.593" stroke="#000" stroke-width=".1" style="stroke:#000;stroke-width:.1"/><polygon id="polygon132" points="34.586 28.342 34.085 28.59 34.584 28.842 34.586 28.342" style="fill:#000;stroke:none;stroke-width:.1"/><polygon id="polygon134" points="34.599 28.843 35.1 28.595 34.601 28.343 34.599 28.843" style="fill:#000;stroke:none;stroke-width:.1"/><text id="text136" x="30.027" y="31.975" style="font-size:.60000002px;font-style:normal;font-weight:400;text-anchor:start;fill:#000;font-family:arial">/etc/passwd</text><text id="text138" x="30.179" y="32.575" style="font-size:.60000002px;font-style:normal;font-weight:400;text-anchor:start;fill:#000;font-family:arial">/etc/group</text><rect id="rect140" width="2.065" height="1.76" x="33.535" y="31.19" style="fill:#fff;stroke:none;stroke-width:0"/><rect id="rect142" width="2.065" height="1.76" x="33.535" y="31.19" style="fill:none;stroke:#000;stroke-width:.1"/><text id="text144" x="34.049" y="32.25" style="font-size:.60000002px;font-style:normal;font-weight:400;text-anchor:start;fill:#000;font-family:arial">NIS[+]</text><line id="line146" x1="34.516" x2="33.839" y1="30.754" y2="29.987" stroke="#000" stroke-width=".1" style="stroke:#000;stroke-width:.1"/><polygon id="polygon148" points="34.329 30.919 34.847 31.129 34.704 30.588 34.329 30.919" style="fill:#000;stroke:none;stroke-width:.1"/><polygon id="polygon150" points="34.027 29.822 33.508 29.612 33.652 30.153 34.027 29.822" style="fill:#000;stroke:none;stroke-width:.1"/><line id="line152" x1="33.08" x2="31.64" y1="30.88" y2="29.9" stroke="#000" stroke-width=".1" style="stroke:#000;stroke-width:.1"/><polygon id="polygon154" points="32.94 31.087 33.494 31.162 33.221 30.674 32.94 31.087" style="fill:#000;stroke:none;stroke-width:.1"/><polygon id="polygon156" points="31.78 29.693 31.226 29.618 31.499 30.106 31.78 29.693" style="fill:#000;stroke:none;stroke-width:.1"/><path id="path158" d="M 34.773,27.172 C 33.554243,26.096992 31.732941,26.07362 30.487,27.117" style="fill:none;stroke:#000;stroke-width:.1"/><polygon id="polygon160" points="30.268 26.92 30.133 27.462 30.648 27.245 30.268 26.92" style="fill:#000;stroke:none;stroke-width:.1"/><polygon id="polygon162" points="34.609 27.296 35.118 27.526 34.997 26.98 34.609 27.296" style="fill:#000;stroke:none;stroke-width:.1"/><line id="line164" x1="33.568" x2="34.02" y1="27.029" y2="23.371" stroke="#000" stroke-width=".1" style="stroke:#000;stroke-width:.1"/><polygon id="polygon166" points="33.319 26.998 33.506 27.525 33.816 27.06 33.319 26.998" style="fill:#000;stroke:none;stroke-width:.1"/><polygon id="polygon168" points="34.268 23.402 34.081 22.875 33.772 23.34 34.268 23.402" style="fill:#000;stroke:none;stroke-width:.1"/><line id="line170" x1="31.265" x2="33.073" y1="27.03" y2="23.292" stroke="#000" stroke-width=".1" style="stroke:#000;stroke-width:.1"/><polygon id="polygon172" points="31.039 26.921 31.047 27.48 31.49 27.139 31.039 26.921" style="fill:#000;stroke:none;stroke-width:.1"/><polygon id="polygon174" points="33.298 23.401 33.291 22.842 32.848 23.183 33.298 23.401" style="fill:#000;stroke:none;stroke-width:.1"/></svg>