<svg xmlns="http://www.w3.org/2000/svg" xmlns:svg="http://www.w3.org/2000/svg" id="svg2" width="11.88cm" height="358.488" version="1.0" viewBox="0.827 -0.889 12.708 8.596"><rect id="rect4" width="1.077" height="2.512" x="1.051" y=".936" style="fill:#b3b3b3;stroke:none;stroke-width:0"/><rect id="rect6" width="1.077" height="2.512" x="1.051" y=".936" style="fill:none;stroke:#000;stroke-width:.08"/><rect id="rect8" width=".861" height=".287" x="1.158" y="1.087" style="fill:none;stroke:#000;stroke-width:.01"/><rect id="rect10" width=".861" height=".287" x="1.158" y="1.374" style="fill:none;stroke:#000;stroke-width:.01"/><rect id="rect12" width=".861" height=".287" x="1.158" y="1.661" style="fill:none;stroke:#000;stroke-width:.01"/><rect id="rect14" width=".861" height=".287" x="1.158" y="1.948" style="fill:none;stroke:#000;stroke-width:.01"/><rect id="rect16" width=".538" height=".172" x="1.158" y="2.293" style="fill:none;stroke:#000;stroke-width:.01"/><ellipse id="ellipse18" cx="1.966" cy="2.322" rx=".038" ry=".038" style="fill:#0f0;stroke:none"/><ellipse id="ellipse20" cx="1.966" cy="2.322" rx=".038" ry=".038" style="fill:none;stroke:#000;stroke-width:.01"/><ellipse id="ellipse22" cx="1.966" cy="2.436" rx=".038" ry=".038" style="fill:#ff0;stroke:none"/><ellipse id="ellipse24" cx="1.966" cy="2.436" rx=".038" ry=".038" style="fill:none;stroke:#000;stroke-width:.01"/><rect id="rect26" width=".129" height=".115" x="1.751" y="2.35" style="fill:#fff;stroke:none;stroke-width:0"/><rect id="rect28" width=".129" height=".115" x="1.751" y="2.35" style="fill:none;stroke:#000;stroke-width:.01"/><path id="path30" d="M 1.23,2.695 L 1.23,3.323" style="fill:none;stroke:#000;stroke-width:.01"/><path id="path32" d="M 1.41,2.695 L 1.41,3.323" style="fill:none;stroke:#000;stroke-width:.01"/><path id="path34" d="M 1.589,2.695 L 1.589,3.323" style="fill:none;stroke:#000;stroke-width:.01"/><path id="path36" d="M 1.769,2.695 L 1.769,3.323" style="fill:none;stroke:#000;stroke-width:.01"/><path id="path38" d="M 1.948,2.695 L 1.948,3.323" style="fill:none;stroke:#000;stroke-width:.01"/><path id="path40" d="M 2.127,2.695 L 2.127,3.323" style="fill:none;stroke:#000;stroke-width:.01"/><polygon id="polygon42" points=".836 3.664 1.051 3.233 1.051 3.448 2.127 3.448 2.127 3.233 2.414 3.664 .836 3.664" style="fill:#999;stroke:none;stroke-width:.01"/><polygon id="polygon44" points=".836 3.664 1.051 3.233 1.051 3.448 2.127 3.448 2.127 3.233 2.414 3.664 .836 3.664" style="fill:none;stroke:#000;stroke-width:.01"/><line id="line46" x1="1.587" x2="11.412" y1="4.487" y2="4.463" stroke="#000" stroke-width=".1" style="stroke:#000;stroke-width:.1"/><line id="line48" x1="1.625" x2="1.624" y1="3.664" y2="4.524" stroke="#000" stroke-width=".1" style="stroke:#000;stroke-width:.1"/><rect id="rect50" width="2.017" height="1.513" x="2.929" y="1.621" style="fill:#b3b3b3;stroke:none;stroke-width:0"/><rect id="rect52" width="2.017" height="1.513" x="2.929" y="1.621" style="fill:none;stroke:#000;stroke-width:.05"/><rect id="rect54" width="1.58" height="1.042" x="3.148" y="1.839" style="fill:#000;stroke:none;stroke-width:0"/><polygon id="polygon56" points="3.202 3.134 4.24 3.134 4.24 3.369 3.257 3.369 3.202 3.134" style="fill:#b3b3b3;stroke:none;stroke-width:.05"/><polygon id="polygon58" points="3.202 3.134 4.24 3.134 4.24 3.369 3.257 3.369 3.202 3.134" style="fill:none;stroke:#000;stroke-width:.05"/><polygon id="polygon60" points="4.24 3.134 4.673 3.134 4.618 3.369 4.24 3.369 4.24 3.134" style="fill:#b3b3b3;stroke:none;stroke-width:.05"/><polygon id="polygon62" points="4.24 3.134 4.673 3.134 4.618 3.369 4.24 3.369 4.24 3.134" style="fill:none;stroke:#000;stroke-width:.05"/><rect id="rect64" width=".094" height=".094" x="4.311" y="3.204" style="fill:#fff;stroke:none;stroke-width:0"/><rect id="rect66" width=".094" height=".094" x="4.311" y="3.204" style="fill:none;stroke:#000;stroke-width:.025"/><polygon id="polygon68" points="3.736 3.369 4.139 3.369 4.139 3.487 4.341 3.487 4.341 3.604 3.534 3.604 3.534 3.487 3.736 3.487 3.736 3.369" style="fill:#b3b3b3;stroke:none;stroke-width:.05"/><polygon id="polygon70" points="3.736 3.369 4.139 3.369 4.139 3.487 4.341 3.487 4.341 3.604 3.534 3.604 3.534 3.487 3.736 3.487 3.736 3.369" style="fill:none;stroke:#000;stroke-width:.05"/><rect id="rect72" width="2.017" height="1.513" x="5.504" y="1.633" style="fill:#b3b3b3;stroke:none;stroke-width:0"/><rect id="rect74" width="2.017" height="1.513" x="5.504" y="1.633" style="fill:none;stroke:#000;stroke-width:.05"/><rect id="rect76" width="1.58" height="1.042" x="5.723" y="1.852" style="fill:#000;stroke:none;stroke-width:0"/><polygon id="polygon78" points="5.777 3.146 6.815 3.146 6.815 3.381 5.832 3.381 5.777 3.146" style="fill:#b3b3b3;stroke:none;stroke-width:.05"/><polygon id="polygon80" points="5.777 3.146 6.815 3.146 6.815 3.381 5.832 3.381 5.777 3.146" style="fill:none;stroke:#000;stroke-width:.05"/><polygon id="polygon82" points="6.815 3.146 7.248 3.146 7.193 3.381 6.815 3.381 6.815 3.146" style="fill:#b3b3b3;stroke:none;stroke-width:.05"/><polygon id="polygon84" points="6.815 3.146 7.248 3.146 7.193 3.381 6.815 3.381 6.815 3.146" style="fill:none;stroke:#000;stroke-width:.05"/><rect id="rect86" width=".094" height=".094" x="6.886" y="3.217" style="fill:#fff;stroke:none;stroke-width:0"/><rect id="rect88" width=".094" height=".094" x="6.886" y="3.217" style="fill:none;stroke:#000;stroke-width:.025"/><polygon id="polygon90" points="6.311 3.381 6.714 3.381 6.714 3.499 6.916 3.499 6.916 3.617 6.109 3.617 6.109 3.499 6.311 3.499 6.311 3.381" style="fill:#b3b3b3;stroke:none;stroke-width:.05"/><polygon id="polygon92" points="6.311 3.381 6.714 3.381 6.714 3.499 6.916 3.499 6.916 3.617 6.109 3.617 6.109 3.499 6.311 3.499 6.311 3.381" style="fill:none;stroke:#000;stroke-width:.05"/><rect id="rect94" width="2.017" height="1.513" x="7.917" y="1.658" style="fill:#b3b3b3;stroke:none;stroke-width:0"/><rect id="rect96" width="2.017" height="1.513" x="7.917" y="1.658" style="fill:none;stroke:#000;stroke-width:.05"/><rect id="rect98" width="1.58" height="1.042" x="8.135" y="1.877" style="fill:#000;stroke:none;stroke-width:0"/><polygon id="polygon100" points="8.19 3.171 9.228 3.171 9.228 3.406 8.244 3.406 8.19 3.171" style="fill:#b3b3b3;stroke:none;stroke-width:.05"/><polygon id="polygon102" points="8.19 3.171 9.228 3.171 9.228 3.406 8.244 3.406 8.19 3.171" style="fill:none;stroke:#000;stroke-width:.05"/><polygon id="polygon104" points="9.228 3.171 9.66 3.171 9.606 3.406 9.228 3.406 9.228 3.171" style="fill:#b3b3b3;stroke:none;stroke-width:.05"/><polygon id="polygon106" points="9.228 3.171 9.66 3.171 9.606 3.406 9.228 3.406 9.228 3.171" style="fill:none;stroke:#000;stroke-width:.05"/><rect id="rect108" width=".094" height=".094" x="9.298" y="3.242" style="fill:#fff;stroke:none;stroke-width:0"/><rect id="rect110" width=".094" height=".094" x="9.298" y="3.242" style="fill:none;stroke:#000;stroke-width:.025"/><polygon id="polygon112" points="8.723 3.406 9.127 3.406 9.127 3.524 9.328 3.524 9.328 3.642 8.522 3.642 8.522 3.524 8.723 3.524 8.723 3.406" style="fill:#b3b3b3;stroke:none;stroke-width:.05"/><polygon id="polygon114" points="8.723 3.406 9.127 3.406 9.127 3.524 9.328 3.524 9.328 3.642 8.522 3.642 8.522 3.524 8.723 3.524 8.723 3.406" style="fill:none;stroke:#000;stroke-width:.05"/><rect id="rect116" width="2.017" height="1.513" x="10.342" y="1.658" style="fill:#b3b3b3;stroke:none;stroke-width:0"/><rect id="rect118" width="2.017" height="1.513" x="10.342" y="1.658" style="fill:none;stroke:#000;stroke-width:.05"/><rect id="rect120" width="1.58" height="1.042" x="10.56" y="1.877" style="fill:#000;stroke:none;stroke-width:0"/><polygon id="polygon122" points="10.615 3.171 11.653 3.171 11.653 3.406 10.669 3.406 10.615 3.171" style="fill:#b3b3b3;stroke:none;stroke-width:.05"/><polygon id="polygon124" points="10.615 3.171 11.653 3.171 11.653 3.406 10.669 3.406 10.615 3.171" style="fill:none;stroke:#000;stroke-width:.05"/><polygon id="polygon126" points="11.653 3.171 12.085 3.171 12.031 3.406 11.653 3.406 11.653 3.171" style="fill:#b3b3b3;stroke:none;stroke-width:.05"/><polygon id="polygon128" points="11.653 3.171 12.085 3.171 12.031 3.406 11.653 3.406 11.653 3.171" style="fill:none;stroke:#000;stroke-width:.05"/><rect id="rect130" width=".094" height=".094" x="11.723" y="3.242" style="fill:#fff;stroke:none;stroke-width:0"/><rect id="rect132" width=".094" height=".094" x="11.723" y="3.242" style="fill:none;stroke:#000;stroke-width:.025"/><polygon id="polygon134" points="11.148 3.406 11.552 3.406 11.552 3.524 11.753 3.524 11.753 3.642 10.947 3.642 10.947 3.524 11.148 3.524 11.148 3.406" style="fill:#b3b3b3;stroke:none;stroke-width:.05"/><polygon id="polygon136" points="11.148 3.406 11.552 3.406 11.552 3.524 11.753 3.524 11.753 3.642 10.947 3.642 10.947 3.524 11.148 3.524 11.148 3.406" style="fill:none;stroke:#000;stroke-width:.05"/><line id="line138" x1="3.938" x2="3.939" y1="3.604" y2="5.231" stroke="#000" stroke-width=".1" style="stroke:#000;stroke-width:.1"/><line id="line140" x1="6.513" x2="6.513" y1="3.617" y2="5.237" stroke="#000" stroke-width=".1" style="stroke:#000;stroke-width:.1"/><line id="line142" x1="8.925" x2="8.933" y1="3.642" y2="4.5" stroke="#000" stroke-width=".1" style="stroke:#000;stroke-width:.1"/><line id="line144" x1="11.396" x2="11.4" y1="3.654" y2="5.362" stroke="#000" stroke-width=".1" style="stroke:#000;stroke-width:.1"/><rect id="rect146" width="2.017" height="1.513" x="10.442" y="5.346" style="fill:#b3b3b3;stroke:none;stroke-width:0"/><rect id="rect148" width="2.017" height="1.513" x="10.442" y="5.346" style="fill:none;stroke:#000;stroke-width:.05"/><rect id="rect150" width="1.58" height="1.042" x="10.66" y="5.564" style="fill:#000;stroke:none;stroke-width:0"/><polygon id="polygon152" points="10.715 6.859 11.753 6.859 11.753 7.094 10.769 7.094 10.715 6.859" style="fill:#b3b3b3;stroke:none;stroke-width:.05"/><polygon id="polygon154" points="10.715 6.859 11.753 6.859 11.753 7.094 10.769 7.094 10.715 6.859" style="fill:none;stroke:#000;stroke-width:.05"/><polygon id="polygon156" points="11.753 6.859 12.185 6.859 12.131 7.094 11.753 7.094 11.753 6.859" style="fill:#b3b3b3;stroke:none;stroke-width:.05"/><polygon id="polygon158" points="11.753 6.859 12.185 6.859 12.131 7.094 11.753 7.094 11.753 6.859" style="fill:none;stroke:#000;stroke-width:.05"/><rect id="rect160" width=".094" height=".094" x="11.823" y="6.929" style="fill:#fff;stroke:none;stroke-width:0"/><rect id="rect162" width=".094" height=".094" x="11.823" y="6.929" style="fill:none;stroke:#000;stroke-width:.025"/><polygon id="polygon164" points="11.248 7.094 11.652 7.094 11.652 7.212 11.853 7.212 11.853 7.329 11.047 7.329 11.047 7.212 11.248 7.212 11.248 7.094" style="fill:#b3b3b3;stroke:none;stroke-width:.05"/><polygon id="polygon166" points="11.248 7.094 11.652 7.094 11.652 7.212 11.853 7.212 11.853 7.329 11.047 7.329 11.047 7.212 11.248 7.212 11.248 7.094" style="fill:none;stroke:#000;stroke-width:.05"/><polygon id="polygon168" points="3.171 5.92 3.083 5.956 2.819 6.616 2.819 6.946 2.951 7.056 4.887 7.056 5.019 6.946 5.019 6.616 4.755 5.956 4.667 5.92 3.171 5.92" style="fill:#b3b3b3;stroke:none;stroke-width:.08"/><polygon id="polygon170" points="3.171 5.92 3.083 5.956 2.819 6.616 2.819 6.946 2.951 7.056 4.887 7.056 5.019 6.946 5.019 6.616 4.755 5.956 4.667 5.92 3.171 5.92" style="fill:none;stroke:#000;stroke-width:.08"/><path id="path172" d="M 2.863,6.506 L 2.951,6.543 L 4.887,6.543 L 4.975,6.506" style="fill:none;stroke:#000;stroke-width:.08"/><path id="path174" d="M 4.887,6.543 L 5.019,6.616" style="fill:none;stroke:#000;stroke-width:.08"/><path id="path176" d="M 2.819,6.616 L 2.951,6.543" style="fill:none;stroke:#000;stroke-width:.08"/><polygon id="polygon178" points="3.435 5.223 3.391 6.103 4.447 6.103 4.403 5.223 3.435 5.223" style="fill:#fff;stroke:none;stroke-width:.08"/><polygon id="polygon180" points="3.435 5.223 3.391 6.103 4.447 6.103 4.403 5.223 3.435 5.223" style="fill:none;stroke:#000;stroke-width:.08"/><polygon id="polygon182" points="3.259 6.103 3.171 6.36 4.667 6.36 4.579 6.103 3.259 6.103" style="fill:#000;stroke:none;stroke-width:.08"/><polygon id="polygon184" points="3.259 6.103 3.171 6.36 4.667 6.36 4.579 6.103 3.259 6.103" style="fill:none;stroke:#000;stroke-width:.08"/><ellipse id="ellipse186" cx="3.259" cy="6.671" rx=".022" ry=".022" style="fill:#00f;stroke:none"/><ellipse id="ellipse188" cx="3.259" cy="6.671" rx=".022" ry=".022" style="fill:none;stroke:#000;stroke-width:.02"/><ellipse id="ellipse190" cx="3.479" cy="6.671" rx=".022" ry=".022" style="fill:#00f;stroke:none"/><ellipse id="ellipse192" cx="3.479" cy="6.671" rx=".022" ry=".022" style="fill:none;stroke:#000;stroke-width:.02"/><ellipse id="ellipse194" cx="3.699" cy="6.671" rx=".022" ry=".022" style="fill:#00f;stroke:none"/><ellipse id="ellipse196" cx="3.699" cy="6.671" rx=".022" ry=".022" style="fill:none;stroke:#000;stroke-width:.02"/><ellipse id="ellipse198" cx="3.259" cy="6.763" rx=".022" ry=".022" style="fill:#00f;stroke:none"/><ellipse id="ellipse200" cx="3.259" cy="6.763" rx=".022" ry=".022" style="fill:none;stroke:#000;stroke-width:.02"/><ellipse id="ellipse202" cx="3.479" cy="6.763" rx=".022" ry=".022" style="fill:#00f;stroke:none"/><ellipse id="ellipse204" cx="3.479" cy="6.763" rx=".022" ry=".022" style="fill:none;stroke:#000;stroke-width:.02"/><ellipse id="ellipse206" cx="3.699" cy="6.763" rx=".022" ry=".022" style="fill:#00f;stroke:none"/><ellipse id="ellipse208" cx="3.699" cy="6.763" rx=".022" ry=".022" style="fill:none;stroke:#000;stroke-width:.02"/><ellipse id="ellipse210" cx="3.259" cy="6.855" rx=".022" ry=".022" style="fill:#00f;stroke:none"/><ellipse id="ellipse212" cx="3.259" cy="6.855" rx=".022" ry=".022" style="fill:none;stroke:#000;stroke-width:.02"/><ellipse id="ellipse214" cx="3.479" cy="6.855" rx=".022" ry=".022" style="fill:#00f;stroke:none"/><ellipse id="ellipse216" cx="3.479" cy="6.855" rx=".022" ry=".022" style="fill:none;stroke:#000;stroke-width:.02"/><ellipse id="ellipse218" cx="3.699" cy="6.855" rx=".022" ry=".022" style="fill:#00f;stroke:none"/><ellipse id="ellipse220" cx="3.699" cy="6.855" rx=".022" ry=".022" style="fill:none;stroke:#000;stroke-width:.02"/><ellipse id="ellipse222" cx="3.259" cy="6.946" rx=".022" ry=".022" style="fill:#00f;stroke:none"/><ellipse id="ellipse224" cx="3.259" cy="6.946" rx=".022" ry=".022" style="fill:none;stroke:#000;stroke-width:.02"/><ellipse id="ellipse226" cx="3.479" cy="6.946" rx=".022" ry=".022" style="fill:#00f;stroke:none"/><ellipse id="ellipse228" cx="3.479" cy="6.946" rx=".022" ry=".022" style="fill:none;stroke:#000;stroke-width:.02"/><ellipse id="ellipse230" cx="3.699" cy="6.946" rx=".022" ry=".022" style="fill:#00f;stroke:none"/><ellipse id="ellipse232" cx="3.699" cy="6.946" rx=".022" ry=".022" style="fill:none;stroke:#000;stroke-width:.02"/><ellipse id="ellipse234" cx="3.919" cy="6.69" rx=".275" ry=".088" style="fill:#8f8f8f;stroke:none"/><ellipse id="ellipse236" cx="3.919" cy="6.69" rx=".275" ry=".088" style="fill:none;stroke:#000;stroke-width:.02"/><ellipse id="ellipse238" cx="4.469" cy="6.69" rx=".275" ry=".088" style="fill:#8f8f8f;stroke:none"/><ellipse id="ellipse240" cx="4.469" cy="6.69" rx=".275" ry=".088" style="fill:none;stroke:#000;stroke-width:.02"/><polygon id="polygon242" points="5.807 5.902 5.719 5.939 5.455 6.599 5.455 6.929 5.587 7.039 7.523 7.039 7.655 6.929 7.655 6.599 7.391 5.939 7.303 5.902 5.807 5.902" style="fill:#b3b3b3;stroke:none;stroke-width:.08"/><polygon id="polygon244" points="5.807 5.902 5.719 5.939 5.455 6.599 5.455 6.929 5.587 7.039 7.523 7.039 7.655 6.929 7.655 6.599 7.391 5.939 7.303 5.902 5.807 5.902" style="fill:none;stroke:#000;stroke-width:.08"/><path id="path246" d="M 5.499,6.489 L 5.587,6.525 L 7.523,6.525 L 7.611,6.489" style="fill:none;stroke:#000;stroke-width:.08"/><path id="path248" d="M 7.523,6.525 L 7.655,6.599" style="fill:none;stroke:#000;stroke-width:.08"/><path id="path250" d="M 5.455,6.599 L 5.587,6.525" style="fill:none;stroke:#000;stroke-width:.08"/><polygon id="polygon252" points="6.071 5.205 6.027 6.085 7.083 6.085 7.039 5.205 6.071 5.205" style="fill:#fff;stroke:none;stroke-width:.08"/><polygon id="polygon254" points="6.071 5.205 6.027 6.085 7.083 6.085 7.039 5.205 6.071 5.205" style="fill:none;stroke:#000;stroke-width:.08"/><polygon id="polygon256" points="5.895 6.085 5.807 6.342 7.303 6.342 7.215 6.085 5.895 6.085" style="fill:#000;stroke:none;stroke-width:.08"/><polygon id="polygon258" points="5.895 6.085 5.807 6.342 7.303 6.342 7.215 6.085 5.895 6.085" style="fill:none;stroke:#000;stroke-width:.08"/><ellipse id="ellipse260" cx="5.895" cy="6.654" rx=".022" ry=".022" style="fill:#00f;stroke:none"/><ellipse id="ellipse262" cx="5.895" cy="6.654" rx=".022" ry=".022" style="fill:none;stroke:#000;stroke-width:.02"/><ellipse id="ellipse264" cx="6.115" cy="6.654" rx=".022" ry=".022" style="fill:#00f;stroke:none"/><ellipse id="ellipse266" cx="6.115" cy="6.654" rx=".022" ry=".022" style="fill:none;stroke:#000;stroke-width:.02"/><ellipse id="ellipse268" cx="6.335" cy="6.654" rx=".022" ry=".022" style="fill:#00f;stroke:none"/><ellipse id="ellipse270" cx="6.335" cy="6.654" rx=".022" ry=".022" style="fill:none;stroke:#000;stroke-width:.02"/><ellipse id="ellipse272" cx="5.895" cy="6.745" rx=".022" ry=".022" style="fill:#00f;stroke:none"/><ellipse id="ellipse274" cx="5.895" cy="6.745" rx=".022" ry=".022" style="fill:none;stroke:#000;stroke-width:.02"/><ellipse id="ellipse276" cx="6.115" cy="6.745" rx=".022" ry=".022" style="fill:#00f;stroke:none"/><ellipse id="ellipse278" cx="6.115" cy="6.745" rx=".022" ry=".022" style="fill:none;stroke:#000;stroke-width:.02"/><ellipse id="ellipse280" cx="6.335" cy="6.745" rx=".022" ry=".022" style="fill:#00f;stroke:none"/><ellipse id="ellipse282" cx="6.335" cy="6.745" rx=".022" ry=".022" style="fill:none;stroke:#000;stroke-width:.02"/><ellipse id="ellipse284" cx="5.895" cy="6.837" rx=".022" ry=".022" style="fill:#00f;stroke:none"/><ellipse id="ellipse286" cx="5.895" cy="6.837" rx=".022" ry=".022" style="fill:none;stroke:#000;stroke-width:.02"/><ellipse id="ellipse288" cx="6.115" cy="6.837" rx=".022" ry=".022" style="fill:#00f;stroke:none"/><ellipse id="ellipse290" cx="6.115" cy="6.837" rx=".022" ry=".022" style="fill:none;stroke:#000;stroke-width:.02"/><ellipse id="ellipse292" cx="6.335" cy="6.837" rx=".022" ry=".022" style="fill:#00f;stroke:none"/><ellipse id="ellipse294" cx="6.335" cy="6.837" rx=".022" ry=".022" style="fill:none;stroke:#000;stroke-width:.02"/><ellipse id="ellipse296" cx="5.895" cy="6.929" rx=".022" ry=".022" style="fill:#00f;stroke:none"/><ellipse id="ellipse298" cx="5.895" cy="6.929" rx=".022" ry=".022" style="fill:none;stroke:#000;stroke-width:.02"/><ellipse id="ellipse300" cx="6.115" cy="6.929" rx=".022" ry=".022" style="fill:#00f;stroke:none"/><ellipse id="ellipse302" cx="6.115" cy="6.929" rx=".022" ry=".022" style="fill:none;stroke:#000;stroke-width:.02"/><ellipse id="ellipse304" cx="6.335" cy="6.929" rx=".022" ry=".022" style="fill:#00f;stroke:none"/><ellipse id="ellipse306" cx="6.335" cy="6.929" rx=".022" ry=".022" style="fill:none;stroke:#000;stroke-width:.02"/><ellipse id="ellipse308" cx="6.555" cy="6.672" rx=".275" ry=".088" style="fill:#8f8f8f;stroke:none"/><ellipse id="ellipse310" cx="6.555" cy="6.672" rx=".275" ry=".088" style="fill:none;stroke:#000;stroke-width:.02"/><ellipse id="ellipse312" cx="7.105" cy="6.672" rx=".275" ry=".088" style="fill:#8f8f8f;stroke:none"/><ellipse id="ellipse314" cx="7.105" cy="6.672" rx=".275" ry=".088" style="fill:none;stroke:#000;stroke-width:.02"/><text id="text316" x="3.415" y="1.183" style="font-size:.69999999px;font-style:normal;font-weight:400;text-anchor:start;fill:#000;font-family:arial">desk1</text><text id="text318" x="5.9" y="1.184" style="font-size:.69999999px;font-style:normal;font-weight:400;text-anchor:start;fill:#000;font-family:arial">desk2</text><text id="text320" x="8.356" y="1.202" style="font-size:.69999999px;font-style:normal;font-weight:400;text-anchor:start;fill:#000;font-family:arial">desk3</text><text id="text322" x="10.813" y="1.237" style="font-size:.69999999px;font-style:normal;font-weight:400;text-anchor:start;fill:#000;font-family:arial">desk4</text><text id="text324" x="10.92" y="8.061" style="font-size:.69999999px;font-style:normal;font-weight:400;text-anchor:start;fill:#000;font-family:arial">desk5</text><text id="text326" x="1.138" y=".44" style="font-size:.60000002px;font-style:normal;font-weight:400;text-anchor:start;fill:#000;font-family:arial">server</text><text id="text328" x="4.809" y="-.479" style="font-size:.69999999px;font-style:normal;font-weight:400;text-anchor:start;fill:#000;font-family:arial">Workgroup: MIDEARTH</text><text id="text330" x="3.031" y="8.096" style="font-size:.69999999px;font-style:normal;font-weight:400;text-anchor:start;fill:#000;font-family:arial">PRINTQ</text><text id="text332" x="6.211" y="8.025" style="font-size:.69999999px;font-style:normal;font-weight:400;text-anchor:start;fill:#000;font-family:arial">hplj5</text><text id="text334" x="1.154" y="4.156" style="font-size:.5px;font-style:normal;font-weight:400;text-anchor:start;fill:#000;font-family:arial">.1</text><text id="text336" x="3.08" y="4.145" style="font-size:.5px;font-style:normal;font-weight:400;text-anchor:start;fill:#000;font-family:arial">.101</text><text id="text338" x="5.605" y="4.143" style="font-size:.5px;font-style:normal;font-weight:400;text-anchor:start;fill:#000;font-family:arial">.102</text><text id="text340" x="8.035" y="4.136" style="font-size:.5px;font-style:normal;font-weight:400;text-anchor:start;fill:#000;font-family:arial">.103</text><text id="text342" x="10.516" y="4.146" style="font-size:.5px;font-style:normal;font-weight:400;text-anchor:start;fill:#000;font-family:arial">.104</text><text id="text344" x="10.515" y="5.159" style="font-size:.5px;font-style:normal;font-weight:400;text-anchor:start;fill:#000;font-family:arial">.105</text><text id="text346" x="3.238" y="5.017" style="font-size:.5px;font-style:normal;font-weight:400;text-anchor:start;fill:#000;font-family:arial">.20</text><text id="text348" x="5.814" y="5.007" style="font-size:.5px;font-style:normal;font-weight:400;text-anchor:start;fill:#000;font-family:arial">.30</text><text id="text350" x="5.516" y=".159" style="font-size:.5px;font-style:normal;font-weight:400;text-anchor:start;fill:#000;font-family:arial">Network: 192.168.1.0/24</text></svg>